400 0 2 0           
28 Autodesk Inventor 8.0.0.7270 17 ASM 9.0.0.1091 NT 24 Fri May 21 09:04:29 2004 
1 9.9999999999999995e-007 1e-010 
body $-1 $2 $-1 $-1 #
body $-1 $3 $-1 $-1 #
lump $-1 $-1 $4 $0 #
lump $-1 $-1 $5 $1 #
shell $-1 $-1 $-1 $6 $-1 $2 #
shell $-1 $-1 $-1 $7 $-1 $3 #
face $-1 $8 $9 $4 $-1 $10 reversed single #
face $-1 $11 $12 $5 $-1 $13 forward single #
face $-1 $14 $15 $4 $-1 $16 forward single #
loop $-1 $17 $18 $6 #
cone-surface $-1 -5.7963162733247975 -2.1668471985095321 46.000000000000014 0 0 -1 -8 0 0 1 I I 0 1 8 forward I I I I #
face $-1 $19 $20 $5 $-1 $21 forward single #
loop $-1 $22 $23 $7 #
cone-surface $-1 -5.7963162733247984 -2.1668471985095326 104 1.6827790652058776e-018 9.8607613152626476e-032 -1 4.7792342915687041 -6.4155217703857712 8.0423954135653745e-018 1 I I 0 1 8 forward I I I I #
face $-1 $24 $25 $4 $-1 $26 reversed single #
loop $-1 $27 $28 $8 #
plane-surface $-1 -4.523589000597525 -2.1668471985095321 46.000000000000014 0 0 1 10 0 0 forward_v I I I I #
loop $-1 $-1 $29 $6 #
coedge $-1 $18 $18 $30 $31 reversed $9 $-1 #
face $-1 $32 $33 $5 $-1 $34 reversed single #
loop $-1 $35 $36 $11 #
cone-surface $-1 -5.7963162733247984 -2.1668471985095321 0.4999999999999849 -1.6827790652058776e-018 -9.8607613152626476e-032 1 4.4805321483456604 -6.0145516597366599 7.5397457002173614e-018 1 I I 0.70710678118654235 0.70710678118655257 7.5 forward I I I I #
loop $-1 $-1 $37 $7 #
coedge $-1 $23 $23 $38 $39 reversed $12 $-1 #
face $-1 $40 $41 $4 $-1 $42 reversed single #
loop $-1 $43 $30 $14 #
plane-surface $-1 -4.523589000597525 -2.1668471985095321 32.000000000000014 0 0 1 10 0 0 forward_v I I I I #
loop $-1 $-1 $44 $8 #
coedge $-1 $28 $28 $29 $45 forward $15 $-1 #
coedge $-1 $29 $29 $28 $45 reversed $17 $-1 #
coedge $-1 $30 $30 $18 $31 forward $25 $-1 #
edge $-1 $46 $46 $30 $47 forward #
face $-1 $48 $49 $5 $-1 $50 forward single #
loop $-1 $-1 $51 $19 #
plane-surface $-1 -6.2307921180128636 -1.5836179466562799 -2.2204460492503131e-014 -1.6827790652058776e-018 -9.8607613152626476e-032 1 5.9740428644608814 -8.0194022129822145 1.0052994266956441e-017 forward_v I I I I #
loop $-1 $-1 $52 $11 #
coedge $-1 $36 $36 $51 $53 forward $20 $-1 #
coedge $-1 $37 $37 $54 $55 reversed $22 $-1 #
coedge $-1 $38 $38 $23 $39 forward $49 $-1 #
edge $-1 $56 $56 $23 $57 forward #
face $-1 $58 $59 $4 $-1 $60 reversed single #
loop $-1 $61 $62 $24 #
cone-surface $-1 -5.7963162733247975 -2.1668471985095321 0 0 0 1 -14.000000000000004 0 0 1 I I 0 1 14.000000000000004 forward I I I I #
loop $-1 $-1 $63 $14 #
coedge $-1 $44 $44 $64 $65 reversed $27 $-1 #
edge $-1 $66 $66 $28 $67 forward #
vertex $-1 $31 $68 #
ellipse-curve $-1 -5.7963162733247975 -2.1668471985095321 32.000000000000014 0 0 1 -8 0 0 1 I I #
face $-1 $69 $70 $5 $-1 $71 reversed single #
loop $-1 $72 $38 $32 #
torus-surface $-1 -5.7963162733247984 -2.1668471985095321 102 -1.6827790652058776e-018 -9.8607613152626476e-032 1 10 -2 0.59740428644608812 -0.80194022129822151 1.0052994266956441e-018 forward_v I I I I #
coedge $-1 $51 $51 $36 $53 reversed $33 $-1 #
coedge $-1 $52 $52 $73 $74 reversed $35 $-1 #
edge $-1 $75 $75 $51 $76 forward #
coedge $-1 $54 $54 $37 $55 forward $77 $-1 #
edge $-1 $78 $78 $54 $79 forward #
vertex $-1 $39 $80 #
ellipse-curve $-1 -5.7963162733247984 -2.1668471985095321 102 -1.6827790652058776e-018 -9.8607613152626476e-032 1 4.7792342915687041 -6.4155217703857712 8.0423954135653745e-018 1 I I #
face $-1 $81 $82 $4 $-1 $83 forward single #
loop $-1 $-1 $84 $40 #
plane-surface $-1 -5.7963162733247975 -16.166847198509519 0 0 -0.70710678118654768 0.70710678118654735 10 0 0 forward_v I I I I #
loop $-1 $-1 $85 $24 #
coedge $-1 $62 $62 $86 $87 forward $41 $-1 #
coedge $-1 $63 $63 $85 $88 reversed $43 $-1 #
coedge $-1 $64 $64 $44 $65 forward $89 $-1 #
edge $-1 $90 $90 $64 $91 forward #
vertex $-1 $45 $92 #
ellipse-curve $-1 -5.7963162733247975 -2.1668471985095321 46.000000000000014 0 0 -1 -8 0 0 1 I I #
point $-1 2.203683726675203 -2.1668471985095308 32.000000000000014 #
face $-1 $93 $94 $5 $-1 $95 forward single #
loop $-1 $96 $97 $48 #
plane-surface $-1 -6.5566490015289114 -1.1461960077663402 104 -1.6827790652058776e-018 -9.8607613152626476e-032 1 5.9740428644608814 -8.0194022129822145 1.0052994266956441e-017 forward_v I I I I #
loop $-1 $-1 $98 $32 #
coedge $-1 $73 $73 $52 $74 forward $99 $-1 #
edge $-1 $100 $100 $73 $101 forward #
vertex $-1 $53 $102 #
ellipse-curve $-1 -5.7963162733247984 -2.1668471985095321 -2.2204460492503131e-014 -1.6827790652058776e-018 -9.8607613152626476e-032 1 4.1818300051226167 -5.6135815490875505 7.0370959868697181e-018 1 I I #
loop $-1 $103 $54 $104 #
vertex $-1 $55 $105 #
ellipse-curve $-1 -5.7963162733247975 -2.1668471985095361 31.999999999999975 -6.8718885279980685e-018 1.2571246840693393e-016 -1 -8 3.9533991756164192e-032 5.4975108223984641e-017 1 I I #
point $-1 -10.575550564893506 4.24867457187624 102 #
face $-1 $106 $89 $4 $-1 $42 reversed single #
loop $-1 $107 $108 $58 #
cone-surface $-1 -5.7963162733247975 -2.1668471985095321 0 0 0 1 -20 0 0 1 I I 0 1 20 forward I I I I #
coedge $-1 $109 $110 $111 $112 reversed $59 $-1 #
coedge $-1 $85 $85 $63 $88 forward $61 $-1 #
coedge $-1 $110 $109 $62 $87 reversed $59 $-1 #
edge $-1 $113 $113 $62 $114 forward #
edge $-1 $115 $115 $85 $116 forward #
loop $-1 $117 $64 $81 #
vertex $-1 $65 $118 #
ellipse-curve $-1 -5.7963162733247975 -2.1668471985095321 46.000000000000014 0 0 -1 -14.000000000000004 0 0 1 I I #
point $-1 2.203683726675203 -2.1668471985095308 46.000000000000014 #
face $-1 $119 $120 $5 $-1 $121 forward single #
loop $-1 $122 $123 $69 #
cone-surface $-1 -5.7963162733247975 -2.1668471985095326 146 1.6827790652058776e-018 9.8607613152626476e-032 -1 -7.0326788243972693 9.4404880258009598 -1.183444469801135e-017 1 I I 0.3420201433256686 0.93969262078590843 11.772059531467596 forward I I I I #
loop $-1 $-1 $124 $48 #
coedge $-1 $97 $97 $125 $126 reversed $70 $-1 #
coedge $-1 $98 $98 $124 $127 forward $72 $-1 #
loop $-1 $128 $73 $129 #
vertex $-1 $74 $130 #
ellipse-curve $-1 -5.7963162733247975 -2.1668471985095268 0.99999999999999201 6.8718885279980793e-018 -1.7540881910249987e-016 1 -8 3.9533991756164192e-032 5.4975108223984641e-017 1 I I #
point $-1 -9.9781462784474186 3.4467343505780197 -2.2204460492503131e-014 #
loop $-1 $-1 $131 $104 #
face $-1 $132 $77 $5 $-1 $133 forward single #
point $-1 2.2036837266752052 -2.1668471985095361 31.999999999999979 #
face $-1 $134 $135 $4 $-1 $136 forward single #
loop $-1 $-1 $111 $58 #
coedge $-1 $108 $108 $137 $138 forward $82 $-1 #
coedge $-1 $86 $84 $139 $140 reversed $59 $-1 #
coedge $-1 $84 $86 $141 $142 reversed $59 $-1 #
coedge $-1 $143 $143 $84 $112 forward $107 $-1 #
edge $-1 $144 $145 $111 $146 forward #
vertex $-1 $142 $147 #
ellipse-curve $-1 -5.7963162733247975 -2.1668471985095321 13.999999999999995 0 0.70710678118654768 -0.70710678118654735 0 -14.000000000000004 -14.000000000000007 0.70710678118654735 I I #
vertex $-1 $88 $148 #
ellipse-curve $-1 -5.7963162733247975 -2.1668471985095321 32.000000000000014 0 0 1 -14.000000000000004 0 0 1 I I #
loop $-1 $-1 $149 $81 #
point $-1 8.2036837266752034 -2.1668471985095303 46.000000000000014 #
face $-1 $150 $151 $5 $-1 $152 forward single #
loop $-1 $153 $154 $93 #
cone-surface $-1 -5.7963162733247975 -2.1668471985095321 116.00000000000001 -1.6827790652058776e-018 -9.8607613152626476e-032 1 -7.4675535805761006 10.024252766227768 -1.2566242833695767e-017 1 I I 0 1 12.5 forward I I I I #
loop $-1 $-1 $155 $69 #
coedge $-1 $123 $123 $156 $157 forward $94 $-1 #
coedge $-1 $124 $124 $98 $127 reversed $96 $-1 #
coedge $-1 $125 $125 $97 $126 forward $158 $-1 #
edge $-1 $159 $159 $125 $160 forward #
edge $-1 $161 $161 $124 $162 forward #
loop $-1 $-1 $163 $129 #
face $-1 $164 $99 $5 $-1 $165 reversed single #
point $-1 -10.575550564893504 4.24867457187624 0.99999999999999201 #
coedge $-1 $131 $131 $166 $167 reversed $103 $-1 #
face $-1 $129 $168 $5 $-1 $169 reversed single #
plane-surface $-1 -4.5690435460520709 -2.1668471985095317 31.999999999999975 6.8718885279980685e-018 -1.2571246840693393e-016 1 10 -4.9417489695205256e-032 -6.871888527998069e-017 forward_v I I I I #
face $-1 $-1 $170 $4 $-1 $171 reversed single #
loop $-1 $172 $173 $106 #
plane-surface $-1 -3.9781344551429809 -2.1668471985095312 116.00000000000001 0 0 1 10 0 0 forward_v I I I I #
coedge $-1 $137 $137 $108 $138 reversed $172 $-1 #
edge $-1 $174 $174 $108 $175 forward #
coedge $-1 $176 $141 $109 $140 forward $170 $-1 #
edge $-1 $113 $144 $139 $177 forward #
coedge $-1 $139 $176 $110 $142 forward $170 $-1 #
edge $-1 $145 $113 $141 $177 forward #
coedge $-1 $111 $111 $176 $178 reversed $107 $-1 #
vertex $-1 $178 $179 #
vertex $-1 $112 $180 #
ellipse-curve $-1 -5.7963162733247975 -2.1668471985095321 13.999999999999995 0 -0.70710678118654768 0.70710678118654735 0 -20 -20.000000000000007 0.70710678118654735 I I #
point $-1 -5.7963162733247975 -16.166847198509519 0 #
point $-1 8.2036837266752034 -2.1668471985095303 32.000000000000014 #
coedge $-1 $149 $149 $173 $181 reversed $117 $-1 #
face $-1 $182 $183 $5 $-1 $184 forward single #
loop $-1 $-1 $156 $119 #
plane-surface $-1 -5.1174477659997013 -3.0781429045302344 148.00000000000006 -1.6827790652058776e-018 -9.8607613152626476e-032 1 5.9740428644608814 -8.0194022129822145 1.0052994266956441e-017 forward_v I I I I #
loop $-1 $-1 $185 $93 #
coedge $-1 $154 $154 $186 $187 reversed $120 $-1 #
coedge $-1 $155 $155 $185 $188 forward $122 $-1 #
coedge $-1 $156 $156 $123 $157 reversed $151 $-1 #
edge $-1 $189 $189 $156 $190 forward #
loop $-1 $191 $125 $182 #
vertex $-1 $126 $192 #
ellipse-curve $-1 -5.7963162733247984 -2.1668471985095326 104 -1.6827790652058776e-018 -9.8607613152626476e-032 1 8.3636600102452334 -11.227163098175101 1.4074191973739436e-017 1 I I #
vertex $-1 $127 $193 #
ellipse-curve $-1 -5.7963162733247984 -2.1668471985095326 104 1.6827790652058776e-018 9.8607613152626476e-032 -1 5.9740428644608814 -8.0194022129822145 1.0052994266956441e-017 1 I I #
coedge $-1 $163 $163 $194 $195 forward $128 $-1 #
face $-1 $196 $197 $5 $-1 $198 forward single #
cone-surface $-1 -5.7963162733247975 -2.1668471985095299 17.999999999999968 -6.8718885279980793e-018 1.7540881910249987e-016 -1 -8 3.9533991756164192e-032 5.4975108223984641e-017 1 I I 0 1 8 forward I I I I #
coedge $-1 $166 $166 $131 $167 forward $199 $-1 #
edge $-1 $200 $200 $166 $201 forward #
loop $-1 $202 $194 $132 #
plane-surface $-1 -7.0235890005975232 -2.1668471985095321 -2.2204460492503131e-014 6.8718885279980878e-018 -9.8607613152626476e-032 1 10 -4.9417489695205179e-032 -6.8718885279980875e-017 forward_v I I I I #
loop $-1 $-1 $139 $134 #
plane-surface $-1 -3.9781344551429809 -2.1668471985095312 0 0 0 1 10 0 0 forward_v I I I I #
loop $-1 $-1 $137 $106 #
coedge $-1 $173 $173 $149 $181 forward $135 $-1 #
vertex $-1 $138 $203 #
ellipse-curve $-1 -5.7963162733247975 -2.1668471985095321 116.00000000000001 0 0 -1 -20 0 0 1 I I #
coedge $-1 $141 $139 $143 $178 forward $170 $-1 #
straight-curve $-1 -4.8872253642338892 -16.166847198509519 0 10 0 0 I I #
edge $-1 $144 $145 $176 $204 forward #
point $-1 8.4865405837609167 -16.166847198509519 0 #
point $-1 -20.079173130410513 -16.166847198509519 0 #
edge $-1 $205 $205 $173 $206 forward #
face $-1 $207 $158 $5 $-1 $208 forward single #
loop $-1 $209 $210 $150 #
plane-surface $-1 -6.5566490015289105 -1.1461960077663407 116.00000000000001 -1.6827790652058776e-018 -9.8607613152626476e-032 1 5.9740428644608814 -8.0194022129822145 1.0052994266956441e-017 forward_v I I I I #
coedge $-1 $185 $185 $155 $188 reversed $153 $-1 #
coedge $-1 $186 $186 $154 $187 forward $209 $-1 #
edge $-1 $211 $211 $154 $212 forward #
edge $-1 $213 $213 $185 $214 forward #
vertex $-1 $157 $215 #
ellipse-curve $-1 -5.7963162733247975 -2.1668471985095321 148.00000000000006 1.6827790652058776e-018 9.8607613152626476e-032 -1 -6.5978040682184353 8.8567232853741533 -1.1102646562327427e-017 1 I I #
loop $-1 $-1 $216 $182 #
point $-1 -14.159976283570028 9.060315899665575 104 #
point $-1 -11.770359137785679 5.852555014472685 104 #
coedge $-1 $194 $194 $163 $195 reversed $168 $-1 #
edge $-1 $217 $217 $194 $218 forward #
face $-1 $-1 $219 $5 $-1 $220 forward single #
loop $-1 $199 $221 $164 #
cone-surface $-1 -5.7963162733247975 -2.1668471985095299 17.999999999999968 -6.8718885279980793e-018 1.7540881910249987e-016 -1 -13.5 6.6713611088527069e-032 9.2770495127974081e-017 1 I I 0 1 13.5 forward I I I I #
loop $-1 $-1 $166 $164 #
vertex $-1 $167 $222 #
ellipse-curve $-1 -5.7963162733247975 -2.1668471985095361 31.999999999999979 -6.8718885279980577e-018 1.2571246840693393e-016 -1 -13.499999999999998 6.67136110885272e-032 9.277049512797376e-017 1 I I #
loop $-1 $-1 $223 $132 #
point $-1 14.203683726675202 -2.1668471985095294 116.00000000000001 #
ellipse-curve $-1 -5.7963162733247975 -2.1668471985095321 0 0 0 -1 -20 0 0 1 I I #
vertex $-1 $181 $224 #
ellipse-curve $-1 -5.7963162733247975 -2.1668471985095321 116.00000000000001 0 0 -1 -14.000000000000004 0 0 1 I I #
face $-1 $225 $226 $5 $-1 $227 forward single #
cone-surface $-1 -5.7963162733247975 -2.1668471985095321 116.00000000000001 1.6827790652058776e-018 9.8607613152626476e-032 -1 8.3636600102452334 -11.227163098175101 1.4074191973739436e-017 1 I I 0 1 14.000000000000004 forward I I I I #
loop $-1 $-1 $186 $150 #
coedge $-1 $210 $210 $216 $228 forward $183 $-1 #
vertex $-1 $187 $229 #
ellipse-curve $-1 -5.7963162733247975 -2.1668471985095321 116.00000000000001 1.6827790652058776e-018 9.8607613152626476e-032 -1 -7.4675535805761006 10.024252766227768 -1.2566242833695767e-017 1 I I #
vertex $-1 $188 $230 #
ellipse-curve $-1 -5.7963162733247975 -2.1668471985095321 144 -1.6827790652058776e-018 -9.8607613152626476e-032 1 -7.4675535805761006 10.024252766227768 -1.2566242833695767e-017 1 I I #
point $-1 0.80148779489363609 -11.023570483883685 148.00000000000006 #
coedge $-1 $216 $216 $210 $228 reversed $191 $-1 #
vertex $-1 $195 $231 #
ellipse-curve $-1 -5.7963162733247975 -2.1668471985095277 -2.2204460492503131e-014 -6.8718885279980878e-018 9.8607613152626476e-032 -1 8 -3.9533991756164268e-032 -5.4975108223984641e-017 1 I I #
loop $-1 $-1 $232 $196 #
cone-surface $-1 -1.2963162733247979 12.665549775681797 17.999999999999968 -6.8718885279980793e-018 1.7540881910249987e-016 -1 -1.6064386578049983 -1.1913667943625408 -6.2119548581361156e-016 1 I I 0 -1 2 forward I I I I #
coedge $-1 $233 $234 $235 $236 reversed $197 $-1 #
point $-1 7.7036837266752052 -2.1668471985095361 31.999999999999975 #
coedge $-1 $237 $238 $233 $239 reversed $202 $-1 #
point $-1 8.2036837266752034 -2.1668471985095303 116.00000000000001 #
face $-1 $240 $241 $5 $-1 $242 forward single #
loop $-1 $-1 $243 $207 #
cone-surface $-1 -8.2963162733248002 46.076798238116787 13.499999999999963 1 -4.9417489695205219e-033 -6.8718885279980793e-018 9.27704951279745e-017 54.756354563373719 13.500000000000023 1 I I 0 1 56.395996002109015 forward I I I I #
edge $-1 $244 $244 $210 $245 forward #
point $-1 1.6712373072513032 -12.191099964737299 116.00000000000001 #
point $-1 1.6712373072513032 -12.191099964737298 144 #
point $-1 -3.2963162733247997 5.432494878275806 -2.2204460492503131e-014 #
coedge $-1 $246 $247 $238 $248 forward $219 $-1 #
coedge $-1 $249 $221 $223 $239 forward $197 $-1 #
coedge $-1 $221 $249 $250 $251 forward $197 $-1 #
coedge $-1 $252 $253 $221 $236 forward $254 $-1 #
edge $-1 $255 $256 $221 $257 forward #
coedge $-1 $258 $223 $253 $259 reversed $202 $-1 #
coedge $-1 $223 $260 $232 $248 reversed $202 $-1 #
edge $-1 $255 $261 $233 $262 forward #
face $-1 $263 $264 $5 $-1 $265 reversed single #
loop $-1 $-1 $266 $225 #
plane-surface $-1 -5.7963162733248002 34.895048671832903 26.999999999999972 -2.2494092834768882e-016 -1.853925053019574e-016 1 10 -1.2796021797406168e-030 2.2494092834768884e-015 forward_v I I I I #
coedge $-1 $267 $268 $269 $270 reversed $226 $-1 #
vertex $-1 $228 $271 #
ellipse-curve $-1 -5.7963162733247975 -2.1668471985095321 116.00000000000001 -1.6827790652058776e-018 -9.8607613152626476e-032 1 8.3636600102452334 -11.227163098175101 1.4074191973739436e-017 1 I I #
coedge $-1 $272 $232 $273 $274 reversed $219 $-1 #
coedge $-1 $232 $272 $249 $275 reversed $219 $-1 #
edge $-1 $261 $276 $232 $277 forward #
coedge $-1 $234 $233 $247 $275 forward $197 $-1 #
coedge $-1 $278 $266 $234 $251 reversed $241 $-1 #
edge $-1 $279 $256 $234 $280 forward #
coedge $-1 $281 $235 $266 $282 forward $254 $-1 #
coedge $-1 $235 $281 $237 $259 forward $254 $-1 #
loop $-1 $-1 $253 $283 #
vertex $-1 $236 $284 #
vertex $-1 $236 $285 #
straight-curve $-1 -9.7156711120344763 10.751692101592594 17.999999999999968 6.8718885279980788e-017 -1.7540881910249987e-015 10 F -1.7999999999999985 F 0.89999999999999991 #
coedge $-1 $286 $237 $287 $288 reversed $202 $-1 #
edge $-1 $289 $255 $253 $290 forward #
coedge $-1 $238 $286 $291 $292 reversed $202 $-1 #
vertex $-1 $275 $293 #
ellipse-curve $-1 -5.7963162733247975 -2.1668471985095232 -1.7763568394002505e-014 6.8718885279980878e-018 -9.8607613152626476e-032 1 -13.5 6.6713611088527069e-032 9.2770495127974081e-017 1 I I #
face $-1 $283 $294 $5 $-1 $295 forward single #
loop $-1 $-1 $296 $240 #
plane-surface $-1 -3.2963162733247997 62.963696666995503 7.9999999999999805 -1 4.9417489695205219e-033 6.8718885279980793e-018 6.8718885279980788e-017 -5.3068018698254999e-015 10 forward_v I I I I #
coedge $-1 $250 $297 $252 $282 reversed $241 $-1 #
coedge $-1 $298 $243 $286 $299 reversed $226 $-1 #
coedge $-1 $243 $298 $300 $301 forward $226 $-1 #
coedge $-1 $296 $291 $243 $270 forward $264 $-1 #
edge $-1 $302 $303 $243 $304 forward #
point $-1 -14.159976283570028 9.060315899665575 116.00000000000001 #
coedge $-1 $247 $246 $278 $305 forward $219 $-1 #
coedge $-1 $291 $296 $246 $274 forward $264 $-1 #
edge $-1 $306 $276 $273 $307 forward #
edge $-1 $261 $279 $249 $308 forward #
vertex $-1 $248 $309 #
ellipse-curve $-1 -1.2963162733247979 12.665549775681802 -3.9968028886505635e-014 -6.8718885279980793e-018 1.2571246840693403e-016 -1 -1.6064386578049983 -1.1913667943625408 -6.2119548581361156e-016 1 I I #
coedge $-1 $310 $250 $272 $305 reversed $241 $-1 #
vertex $-1 $275 $311 #
ellipse-curve $-1 -5.7963162733247975 -2.1668471985095312 26.999999999999964 -2.2494092834768882e-016 -1.853925053019574e-016 1 -13.5 6.6713611088527069e-032 9.2770495127974081e-017 1 I I #
coedge $-1 $253 $252 $312 $313 forward $254 $-1 #
edge $-1 $256 $314 $252 $315 forward #
face $-1 $104 $254 $5 $-1 $316 forward single #
point $-1 -9.7156711120344763 10.751692101592598 -1.7763568394002505e-014 #
point $-1 -9.7156711120344763 10.751692101592594 26.999999999999964 #
coedge $-1 $260 $258 $267 $299 forward $202 $-1 #
coedge $-1 $312 $317 $258 $288 forward $294 $-1 #
edge $-1 $318 $289 $287 $319 forward #
vertex $-1 $259 $320 #
ellipse-curve $-1 -10.296316273324798 12.665549775681802 -3.9968028886505635e-014 -6.8718885279980793e-018 1.2571246840693403e-016 -1 1.6064386578049983 -1.191366794362541 -6.4327402058061737e-016 1 I I #
coedge $-1 $269 $273 $260 $292 forward $264 $-1 #
edge $-1 $276 $302 $260 $321 forward #
point $-1 -1.8769614346151198 10.751692101592598 -1.7763568394002505e-014 #
loop $-1 $-1 $287 $263 #
plane-surface $-1 -8.2963162733248002 62.963696666995503 7.9999999999999805 -1 4.9417489695205219e-033 6.8718885279980793e-018 6.8718885279980788e-017 -5.3068018698254999e-015 10 forward_v I I I I #
coedge $-1 $273 $269 $310 $322 forward $264 $-1 #
coedge $-1 $266 $300 $323 $324 reversed $241 $-1 #
coedge $-1 $268 $267 $317 $325 reversed $226 $-1 #
edge $-1 $318 $302 $286 $326 forward #
coedge $-1 $297 $310 $268 $301 reversed $241 $-1 #
edge $-1 $327 $303 $268 $328 forward #
vertex $-1 $270 $329 #
vertex $-1 $322 $330 #
ellipse-curve $-1 -3.2963162733247997 46.076798238116787 13.499999999999963 1 -4.9417489695205219e-033 -6.8718885279980793e-018 9.27704951279745e-017 54.756354563373719 13.500000000000023 1 I I #
edge $-1 $306 $279 $272 $331 forward #
vertex $-1 $274 $332 #
straight-curve $-1 -3.2963162733247997 12.665549775681795 17.999999999999975 -6.8718885279980788e-017 8.6590977132487369e-016 -10 I I #
straight-curve $-1 -1.8769614346151198 10.751692101592594 17.999999999999968 6.8718885279980788e-017 -8.6590977132487369e-016 10 I I #
point $-1 -3.2963162733247997 12.665549775681805 -3.9968028886505635e-014 #
coedge $-1 $300 $278 $296 $322 reversed $241 $-1 #
point $-1 -1.8769614346151198 10.751692101592594 26.999999999999964 #
coedge $-1 $323 $287 $281 $313 reversed $294 $-1 #
edge $-1 $314 $289 $312 $333 forward #
vertex $-1 $313 $334 #
ellipse-curve $-1 -10.296316273324798 12.665549775681795 26.999999999999964 6.8718885279980793e-018 -2.1347360851821959e-016 1 -0.58064516129032362 1.9138576740892033 4.125482327008175e-016 1 F -3.1415926535897931 F -1.8653602472451922 #
cone-surface $-1 -10.296316273324798 12.665549775681797 17.999999999999968 6.8718885279980793e-018 -1.7540881910249987e-016 1 1.6064386578049983 -1.191366794362541 -6.4327402058061737e-016 1 I I 0 -1 2 forward I I I I #
coedge $-1 $287 $323 $298 $325 forward $294 $-1 #
vertex $-1 $325 $335 #
straight-curve $-1 -8.2963162733248002 49.378059559268543 -3.5527136788005009e-014 -5.8056310389924517e-032 -10 -1.2571246840693403e-015 I I #
point $-1 -8.2963162733248002 12.665549775681805 -3.9968028886505635e-014 #
straight-curve $-1 -3.2963162733247997 91.243063161174319 3.1086244689504383e-014 2.0223250579804219e-031 10 2.2237702995359136e-014 I I #
edge $-1 $303 $306 $296 $336 forward #
coedge $-1 $317 $312 $297 $324 forward $294 $-1 #
edge $-1 $314 $327 $323 $337 forward #
edge $-1 $327 $318 $317 $338 forward #
straight-curve $-1 -8.2963162733248002 100.8331528014905 5.773159728050814e-014 10 -4.9417489695205212e-032 -6.8718885279980788e-017 I I #
vertex $-1 $324 $339 #
straight-curve $-1 -8.2963162733248002 100.8331528014905 26.999999999999986 10 -4.9417489695205212e-032 -6.8718885279980788e-017 I I #
point $-1 -3.2963162733247997 100.8331528014905 5.773159728050814e-014 #
point $-1 -3.2963162733247997 100.8331528014905 26.999999999999986 #
ellipse-curve $-1 -1.2963162733247979 12.665549775681795 26.999999999999964 6.8718885279980793e-018 -2.1347360851821959e-016 1 2 -9.8834979390410479e-033 -1.374377705599616e-017 1 F -3.1415926535897931 F -1.8653602472451918 #
point $-1 -3.2963162733247997 12.665549775681795 26.999999999999964 #
straight-curve $-1 -8.2963162733248002 12.665549775681795 17.999999999999975 -6.8718885279980788e-017 8.6590977132487369e-016 -10 I I #
point $-1 -8.2963162733248002 12.665549775681795 26.999999999999964 #
point $-1 -8.2963162733248002 100.8331528014905 5.773159728050814e-014 #
straight-curve $-1 -3.2963162733247997 12.665549775681795 26.999999999999964 -6.4087158109272279e-032 -10 -2.1347360851821953e-015 F -8.8167603025808674 F 0 #
straight-curve $-1 -8.2963162733248002 60.833152801490471 26.999999999999975 6.2997253985494992e-032 10 1.9761327959500294e-015 F -4.8167603025808674 F 3.9999999999999991 #
ellipse-curve $-1 -8.2963162733248002 46.076798238116787 13.499999999999963 -1 4.9417489695205219e-033 6.8718885279980793e-018 9.27704951279745e-017 54.756354563373719 13.500000000000023 1 F 0 F 0.48345178461004978 #
point $-1 -8.2963162733248002 100.8331528014905 26.999999999999986 #
End-of-ACIS-data 