400 0 3 0           
8 Inventor 11 ACIS 7.0 NT 24 Fri Dec 20 09:10:31 2002 
1 9.9999999999999995e-007 1e-010 
body $-1 $3 $-1 $-1 #
body $-1 $4 $-1 $-1 #
body $-1 $5 $-1 $-1 #
lump $-1 $-1 $6 $0 #
lump $-1 $-1 $7 $1 #
lump $-1 $-1 $8 $2 #
shell $-1 $-1 $-1 $9 $-1 $3 #
shell $-1 $-1 $-1 $10 $-1 $4 #
shell $-1 $-1 $-1 $11 $-1 $5 #
face $-1 $12 $13 $6 $-1 $14 reversed single #
face $-1 $15 $16 $7 $-1 $17 forward single #
face $-1 $18 $19 $8 $-1 $20 forward single #
face $-1 $21 $22 $6 $-1 $23 reversed single #
loop $-1 $24 $25 $9 #
cone-surface $-1 -9.2872568810475329 7.1274297900171177 18.5 0 0 1 4 0 0 1 I I 0 1 4 forward I I I I #
face $-1 $26 $27 $7 $-1 $28 forward single #
loop $-1 $29 $30 $10 #
cone-surface $-1 -9.2872568810475169 7.1274297900171124 70.500000000000028 0 0 1 -4.5 0 0 1 I I -0.70710678118654913 0.70710678118654602 4.5 forward I I I I #
face $-1 $31 $32 $8 $-1 $33 forward single #
loop $-1 $-1 $34 $11 #
cone-surface $-1 -5.7872568810475276 14.04208813298678 16.000000000000007 -2.7786242854110998e-018 -6.1629758220391547e-033 1 -0.8519427513705975 -0.5236349380886427 -2.3672288187382965e-018 1 I I 0 -1 1.0000000000000004 forward I I I I #
face $-1 $35 $36 $6 $-1 $37 forward single #
loop $-1 $38 $39 $12 #
plane-surface $-1 -9.923620517411166 7.1274297900171177 18.5 0 0 1 10 0 0 forward_v I I I I #
loop $-1 $-1 $40 $9 #
coedge $-1 $25 $25 $41 $42 reversed $13 $-1 #
face $-1 $43 $44 $7 $-1 $45 reversed single #
loop $-1 $46 $47 $15 #
cone-surface $-1 -9.2872568810475169 7.1274297900171124 71.000000000000028 0 0 -1 -5 0 0 1 I I 0 1 5 forward I I I I #
loop $-1 $-1 $48 $10 #
coedge $-1 $30 $30 $49 $50 forward $16 $-1 #
face $-1 $51 $52 $8 $-1 $53 forward single #
loop $-1 $-1 $54 $18 #
torus-surface $-1 -9.2872568810475293 7.1274297900171169 6.0000000000000044 2.7786242854110998e-018 6.1629758220391547e-033 -1 7.75 -1 -1 1.387778780781446e-017 -2.7786242854110998e-018 forward_v I I I I #
coedge $-1 $55 $56 $57 $58 forward $19 $-1 #
face $-1 $59 $60 $6 $-1 $61 reversed single #
loop $-1 $62 $41 $21 #
plane-surface $-1 -9.923620517411166 7.1274297900171177 23.000000000000004 0 0 1 10 0 0 forward_v I I I I #
loop $-1 $-1 $63 $12 #
coedge $-1 $39 $39 $40 $64 forward $22 $-1 #
coedge $-1 $40 $40 $39 $64 reversed $24 $-1 #
coedge $-1 $41 $41 $25 $42 forward $36 $-1 #
edge $-1 $65 $65 $41 $66 forward #
face $-1 $67 $68 $7 $-1 $69 forward single #
loop $-1 $-1 $70 $26 #
plane-surface $-1 -9.2872568810475169 7.1274297900171124 71.000000000000028 0 0 -1 -10 0 0 forward_v I I I I #
loop $-1 $-1 $49 $15 #
coedge $-1 $47 $47 $71 $72 forward $27 $-1 #
coedge $-1 $48 $48 $70 $73 forward $29 $-1 #
coedge $-1 $49 $49 $30 $50 reversed $46 $-1 #
edge $-1 $74 $74 $49 $75 forward #
face $-1 $76 $77 $8 $-1 $78 reversed single #
loop $-1 $-1 $79 $31 #
cone-surface $-1 -12.787256881047531 14.042088132986786 16.000000000000007 2.7786242854110998e-018 6.1629758220391547e-033 -1 0.85194275137059694 -0.52363493808864314 2.3672288187382877e-018 1 I I 0 -1 1 forward I I I I #
coedge $-1 $80 $81 $82 $83 forward $32 $-1 #
coedge $-1 $84 $34 $85 $86 forward $19 $-1 #
coedge $-1 $34 $84 $87 $88 forward $19 $-1 #
coedge $-1 $89 $90 $34 $58 reversed $91 $-1 #
edge $-1 $92 $93 $34 $94 forward #
face $-1 $95 $96 $6 $-1 $97 reversed single #
loop $-1 $98 $99 $35 #
cone-surface $-1 -9.2872568810475329 7.1274297900171177 0 0 0 1 -7.0000000000000018 0 0 1 I I 0 1 7.0000000000000018 forward I I I I #
loop $-1 $-1 $100 $21 #
coedge $-1 $63 $63 $101 $102 reversed $38 $-1 #
edge $-1 $103 $103 $39 $104 forward #
vertex $-1 $42 $105 #
ellipse-curve $-1 -9.2872568810475329 7.1274297900171177 23.000000000000004 0 0 -1 4 0 0 1 I I #
face $-1 $106 $107 $7 $-1 $108 forward single #
loop $-1 $109 $110 $43 #
cone-surface $-1 -9.2872568810475169 7.1274297900171124 1.4999999999999967 0 0 -1 -3.3954790988744228 0.84895329029749667 0 1 I I -0.70710678118654791 0.70710678118654724 3.5000000000000004 forward I I I I #
coedge $-1 $70 $70 $48 $73 reversed $44 $-1 #
coedge $-1 $71 $71 $47 $72 reversed $111 $-1 #
edge $-1 $112 $112 $47 $113 forward #
edge $-1 $114 $114 $70 $115 forward #
vertex $-1 $50 $116 #
ellipse-curve $-1 -9.2872568810475169 7.1274297900171124 70.000000000000028 0 0 1 -5 0 0 1 I I #
face $-1 $117 $118 $8 $-1 $119 forward single #
loop $-1 $-1 $87 $51 #
plane-surface $-1 -6.7872568810475276 13.054805262999169 10.000000000000004 -1 1.3877787807798148e-017 -2.7786242854121217e-018 -2.7786242854121216e-017 -6.1629758220391416e-032 10 forward_v I I I I #
coedge $-1 $120 $121 $122 $123 forward $52 $-1 #
coedge $-1 $124 $54 $125 $126 forward $32 $-1 #
coedge $-1 $54 $127 $84 $128 reversed $32 $-1 #
coedge $-1 $85 $129 $54 $83 reversed $130 $-1 #
edge $-1 $131 $132 $82 $133 forward #
coedge $-1 $56 $55 $81 $128 forward $19 $-1 #
coedge $-1 $134 $82 $55 $86 reversed $130 $-1 #
edge $-1 $93 $131 $85 $135 forward #
coedge $-1 $136 $137 $56 $88 reversed $77 $-1 #
edge $-1 $138 $92 $87 $139 forward #
coedge $-1 $140 $57 $137 $141 forward $91 $-1 #
coedge $-1 $57 $122 $134 $142 reversed $91 $-1 #
loop $-1 $-1 $90 $143 #
vertex $-1 $141 $144 #
vertex $-1 $142 $145 #
ellipse-curve $-1 -5.7872568810475276 14.04208813298678 13.000000000000005 -2.778624285411081e-018 1.3496108955683199e-015 1 -0.8519427513705975 -0.5236349380886427 -2.3672288187382965e-018 1 I I #
face $-1 $146 $147 $6 $-1 $148 forward single #
loop $-1 $-1 $149 $59 #
plane-surface $-1 -9.2872568810475329 0.12742979001711729 0 0 -0.70710678118654768 0.70710678118654746 10 0 0 forward_v I I I I #
loop $-1 $-1 $150 $35 #
coedge $-1 $99 $99 $151 $152 reversed $60 $-1 #
coedge $-1 $100 $100 $150 $153 reversed $62 $-1 #
coedge $-1 $101 $101 $63 $102 forward $154 $-1 #
edge $-1 $155 $155 $101 $156 forward #
vertex $-1 $64 $157 #
ellipse-curve $-1 -9.2872568810475329 7.1274297900171177 18.5 0 0 1 4 0 0 1 I I #
point $-1 -13.287256881047531 7.1274297900171177 23.000000000000004 #
face $-1 $158 $159 $7 $-1 $160 reversed single #
loop $-1 $161 $162 $67 #
cone-surface $-1 -9.2872568810475169 7.1274297900171124 0.99999999999999645 0 0 1 -3.8805475415707691 0.97023233176856782 0 1 I I 0 1 4 forward I I I I #
loop $-1 $-1 $163 $43 #
coedge $-1 $110 $110 $164 $165 forward $68 $-1 #
loop $-1 $166 $71 $158 #
vertex $-1 $72 $167 #
ellipse-curve $-1 -9.2872568810475169 7.1274297900171124 57.999999999999972 -4.4415053882186251e-031 4.8818157411416615e-032 1 -5 0 0 1 I I #
vertex $-1 $73 $168 #
ellipse-curve $-1 -9.2872568810475169 7.1274297900171124 71.000000000000028 0 0 -1 -3.9999999999999991 0 0 1 I I #
point $-1 -4.2872568810475178 7.1274297900171133 70.000000000000028 #
face $-1 $143 $169 $8 $-1 $170 forward single #
loop $-1 $-1 $171 $76 #
plane-surface $-1 -9.2872568810475293 12.232180735981224 7.0000000000000036 2.7786242854110998e-018 6.1629758220391547e-033 -1 -10 1.3877787807814459e-016 -2.7786242854110998e-017 forward_v I I I I #
coedge $-1 $125 $79 $172 $173 forward $52 $-1 #
coedge $-1 $79 $125 $129 $174 forward $52 $-1 #
coedge $-1 $90 $175 $79 $123 reversed $91 $-1 #
edge $-1 $176 $177 $79 $178 forward #
coedge $-1 $179 $80 $180 $181 forward $32 $-1 #
coedge $-1 $121 $120 $80 $126 reversed $52 $-1 #
edge $-1 $132 $182 $80 $183 forward #
coedge $-1 $81 $179 $136 $184 forward $32 $-1 #
edge $-1 $131 $138 $84 $185 forward #
coedge $-1 $82 $134 $121 $174 reversed $130 $-1 #
loop $-1 $186 $134 $187 #
vertex $-1 $86 $188 #
vertex $-1 $83 $189 #
ellipse-curve $-1 -9.2872568810475293 7.1274297900171169 6.0000000000000044 -2.7786242854110998e-018 -6.1629758220391547e-033 1 6.4878658001532585e-016 6.75 4.3402820946043697e-032 1 I I #
coedge $-1 $129 $85 $90 $142 forward $130 $-1 #
straight-curve $-1 -6.2388697842733354 13.149874153248762 16.000000000000007 2.7786242854110998e-017 6.1629758220391547e-032 -10 F -0.11000100000000002 F 1.9683251447152024 #
coedge $-1 $190 $87 $127 $184 reversed $77 $-1 #
coedge $-1 $87 $191 $89 $141 reversed $77 $-1 #
vertex $-1 $128 $192 #
straight-curve $-1 -6.7872568810475276 14.04208813298678 16.000000000000007 -2.7786242854121216e-017 -6.1629758220391416e-032 10 F -1.9683251447152024 F 0.11000100000000002 #
coedge $-1 $175 $89 $193 $194 forward $91 $-1 #
edge $-1 $92 $195 $89 $196 forward #
edge $-1 $93 $176 $134 $197 forward #
face $-1 $198 $91 $8 $-1 $199 forward single #
point $-1 -6.7872568810475293 14.04208813298678 13.000000000000005 #
point $-1 -6.2388697842733354 13.149874153248762 13.000000000000005 #
face $-1 $200 $201 $6 $-1 $202 reversed single #
loop $-1 $203 $204 $95 #
cone-surface $-1 -9.2872568810475329 7.1274297900171177 0 0 0 1 -10 0 0 1 I I 0 1 10 forward I I I I #
coedge $-1 $205 $206 $207 $208 reversed $96 $-1 #
coedge $-1 $150 $150 $100 $153 forward $98 $-1 #
coedge $-1 $151 $151 $99 $152 forward $209 $-1 #
edge $-1 $210 $210 $151 $211 forward #
edge $-1 $212 $212 $150 $213 forward #
loop $-1 $214 $101 $200 #
vertex $-1 $102 $215 #
ellipse-curve $-1 -9.2872568810475329 7.1274297900171177 18.5 0 0 1 -7.0000000000000018 0 0 1 I I #
point $-1 -13.287256881047531 7.1274297900171177 18.5 #
face $-1 $216 $111 $7 $-1 $217 forward single #
loop $-1 $-1 $218 $106 #
plane-surface $-1 -8.9344798318138103 7.0392268507654254 0.99999999999999645 0 0 1 9.7013688539269225 -2.4255808294214192 0 forward_v I I I I #
loop $-1 $-1 $164 $67 #
coedge $-1 $162 $162 $219 $220 forward $107 $-1 #
coedge $-1 $163 $163 $218 $221 forward $109 $-1 #
coedge $-1 $164 $164 $110 $165 reversed $161 $-1 #
edge $-1 $222 $222 $164 $223 forward #
loop $-1 $-1 $224 $158 #
point $-1 -4.2872568810475178 7.1274297900171133 57.999999999999972 #
point $-1 -5.2872568810475187 7.1274297900171124 71.000000000000028 #
loop $-1 $-1 $172 $117 #
plane-surface $-1 -11.787256881047528 13.054805262999169 10.000000000000004 -1 1.3877787807787546e-017 -2.7786242854104612e-018 -2.7786242854104613e-017 -6.1629758220391646e-032 10 forward_v I I I I #
coedge $-1 $225 $226 $179 $227 reversed $118 $-1 #
coedge $-1 $228 $180 $120 $173 reversed $169 $-1 #
edge $-1 $177 $182 $172 $229 forward #
edge $-1 $132 $176 $129 $230 forward #
coedge $-1 $122 $140 $228 $231 forward $91 $-1 #
vertex $-1 $142 $232 #
vertex $-1 $123 $233 #
ellipse-curve $-1 -12.787256881047531 14.042088132986786 13.000000000000005 -2.778624285411081e-018 1.3496108955683199e-015 1 0.85194275137059694 -0.52363493808864314 2.3672288187382877e-018 1 I I #
coedge $-1 $127 $124 $171 $227 forward $32 $-1 #
coedge $-1 $172 $234 $124 $181 reversed $169 $-1 #
edge $-1 $182 $235 $124 $236 forward #
vertex $-1 $126 $237 #
intcurve-curve $-1 forward { surfintcur nubs 3 open 5 
	-0.00060594810482020789 3 0 2 0.058507657918557679 2 0.10854360225428022 2 0.14394998889242194 3 
	-12.335643977821722 13.149874153248762 6.0000000000000044 
	-12.334414413972601 13.150496522895747 6.0014766617548654 
	-12.333186134493603 13.151121435339398 6.002953326110446 
	-12.213486711120078 13.212332795410815 6.1470091789704462 
	-12.105000633643288 13.29764027547065 6.2919536571546359 
	-11.93943321872659 13.498410219274749 6.5422405227805598 
	-11.874975484523333 13.610459654164755 6.6535771511421773 
	-11.804778099445967 13.832256916175094 6.8148395231133847 
	-11.787256881047528 13.933721538156494 6.8735798314079455 
	-11.787256881047528 14.04208813298678 6.9176976987868954 
	2.6309588858925974e-005 
	torus -9.2872568810475293 7.1274297900171169 6.0000000000000044 2.7786242854110998e-018 6.1629758220391547e-033 -1 7.75 -1 -1 1.387778780781446e-017 -2.7786242854110998e-018 forward_v I I I I 
	cone -12.787256881047531 14.042088132986786 16.000000000000007 2.7786242854110998e-018 6.1629758220391547e-033 -1 0.85194275137059694 -0.52363493808864314 2.3672288187382877e-018 1 I I 0 -1 1 forward I I I I 
	nullbs 
	nullbs 
	F 0 I 
	0 
	1 0 
	0 
	} I I #
edge $-1 $238 $138 $127 $239 forward #
intcurve-curve $-1 forward { surfintcur nubs 3 open 5 
	-0.14330872317232912 3 -0.14270800312565249 2 -0.084705143289723728 2 -0.035100903959099906 2 0 3 
	-6.2388697842733345 13.149874153248762 6.0000000000000044 
	-6.2400993481226008 13.150496522895816 6.0014766617550386 
	-6.2413276276014082 13.151121435339375 6.0029533261103207 
	-6.3610270509744957 13.212332795410582 6.1470091789715031 
	-6.4695131284518688 13.297640275470766 6.2919536571547807 
	-6.6350805433684723 13.498410219274749 6.5422405227805625 
	-6.6995382775717269 13.610459654164757 6.6535771511421773 
	-6.7697356626490945 13.832256916175103 6.8148395231133883 
	-6.7872568810475276 13.933721538156497 6.8735798314079455 
	-6.7872568810475276 14.04208813298678 6.9176976987868954 
	2.6309588864147238e-005 
	cone -5.7872568810475276 14.04208813298678 16.000000000000007 -2.7786242854110998e-018 -6.1629758220391547e-033 1 -0.8519427513705975 -0.5236349380886427 -2.3672288187382965e-018 1 I I 0 -1 1.0000000000000004 forward I I I I 
	torus -9.2872568810475293 7.1274297900171169 6.0000000000000044 2.7786242854110998e-018 6.1629758220391547e-033 -1 7.75 -1 -1 1.387778780781446e-017 -2.7786242854110998e-018 forward_v I I I I 
	nullbs 
	nullbs 
	F -0.14270800312565249 I 
	0 
	1 -0.14270800312565249 
	0 
	} I I #
loop $-1 $240 $241 $187 #
face $-1 $242 $130 $8 $-1 $243 forward single #
point $-1 -6.2388697842733345 13.149874153248762 6.0000000000000044 #
point $-1 -12.335643977821722 13.149874153248762 6.0000000000000044 #
coedge $-1 $244 $136 $226 $245 reversed $77 $-1 #
coedge $-1 $137 $244 $246 $247 reversed $77 $-1 #
point $-1 -6.7872568810475276 14.04208813298678 6.9176976987868954 #
coedge $-1 $246 $248 $140 $194 reversed $249 $-1 #
edge $-1 $195 $250 $140 $251 forward #
vertex $-1 $194 $252 #
straight-curve $-1 -6.7872568810475293 13.87742979001712 13.000000000000005 1.3877787807814459e-016 10 6.2015369802697299e-032 F -0.16452490540358933 F 3.2698420913859341 #
ellipse-curve $-1 -9.2872568810475293 7.1274297900171169 13.000000000000005 -2.778624285411081e-018 1.3496108955683199e-015 1 6.75 -9.367506770274762e-017 1.8755713926524924e-017 1 I I #
face $-1 $253 $254 $8 $-1 $255 forward single #
plane-surface $-1 -9.2872568810475293 13.87742979001712 13.000000000000005 -2.778624285411081e-018 1.3496108955683199e-015 1 10 -1.3877787807814459e-016 2.7786242854110998e-017 forward_v I I I I #
face $-1 $256 $154 $6 $-1 $61 reversed single #
loop $-1 $-1 $257 $146 #
plane-surface $-1 -8.3781659719566228 7.1274297900171177 0 0 0 1 10 0 0 forward_v I I I I #
loop $-1 $-1 $207 $95 #
coedge $-1 $204 $204 $258 $259 forward $147 $-1 #
coedge $-1 $260 $149 $261 $262 reversed $96 $-1 #
coedge $-1 $149 $260 $257 $263 reversed $96 $-1 #
coedge $-1 $264 $264 $149 $208 forward $203 $-1 #
edge $-1 $265 $266 $207 $267 forward #
loop $-1 $268 $151 $256 #
vertex $-1 $152 $269 #
ellipse-curve $-1 -9.2872568810475329 7.1274297900171177 58.000000000000007 0 0 -1 -7.0000000000000018 0 0 1 I I #
vertex $-1 $153 $270 #
ellipse-curve $-1 -9.2872568810475329 7.1274297900171177 23.000000000000004 0 0 -1 -7.0000000000000018 0 0 1 I I #
loop $-1 $-1 $271 $200 #
point $-1 -16.287256881047533 7.1274297900171204 18.5 #
face $-1 $272 $273 $7 $-1 $274 forward single #
plane-surface $-1 -9.9046167172065029 7.2817849337075655 57.999999999999972 -4.4415053882186251e-031 4.8818157411416615e-032 1 9.7013688539269225 -2.4255808294214192 4.4272805905260861e-030 forward_v I I I I #
coedge $-1 $218 $218 $163 $221 reversed $159 $-1 #
coedge $-1 $219 $219 $162 $220 reversed $275 $-1 #
edge $-1 $276 $276 $162 $277 forward #
edge $-1 $278 $278 $218 $279 forward #
vertex $-1 $165 $280 #
ellipse-curve $-1 -9.2872568810475169 7.1274297900171124 1.9999999999999971 0 0 -1 -3.8805475415707691 0.97023233176856782 0 1 I I #
coedge $-1 $224 $224 $281 $282 forward $166 $-1 #
coedge $-1 $283 $171 $234 $284 forward $118 $-1 #
coedge $-1 $171 $283 $190 $245 forward $118 $-1 #
edge $-1 $235 $238 $171 $285 forward #
coedge $-1 $286 $172 $175 $231 reversed $169 $-1 #
straight-curve $-1 -11.787256881047528 14.042088132986786 16.000000000000007 2.7786242854104613e-017 6.1629758220391646e-032 -10 F -0.11000100000000002 F 1.9683251447152024 #
straight-curve $-1 -12.335643977821722 13.149874153248762 16.000000000000007 -2.7786242854110998e-017 -6.1629758220391547e-032 10 F -1.9683251447152024 F 0.11000100000000002 #
edge $-1 $250 $177 $175 $287 forward #
point $-1 -12.335643977821722 13.149874153248762 13.000000000000005 #
point $-1 -11.787256881047529 14.042088132986786 13.000000000000005 #
coedge $-1 $180 $288 $225 $284 reversed $169 $-1 #
vertex $-1 $284 $289 #
intcurve-curve $-1 forward { surfintcur nubs 3 periodic 17 
	0 3 0.036479045045540115 2 0.073766351699428537 2 0.11219080739075056 2 0.15185618897754036 2 
	0.19180780673033618 2 0.23089896616023692 2 0.26852123332530692 2 0.30474786692083689 2 0.34097450051636674 2 
	0.37859676768143685 2 0.41768792711133734 2 0.45763954486413339 2 0.49730492645092317 2 0.53572938214224519 2 
	0.57301668879613377 2 0.60949573384167377 3 
	-11.787256881047528 15.512684705641329 6.0000000000000044 
	-11.787256881047528 15.512684705641329 5.8784031831815353 
	-11.787256881047528 15.483383900277632 5.7354591576191094 
	-11.787256881047528 15.387327643478292 5.5091098150160178 
	-11.787256881047528 15.30262368524226 5.3863469083252475 
	-11.787256881047528 15.121807256473145 5.2102863544977485 
	-11.787256881047528 14.992646113875669 5.1269771715362999 
	-11.787256881047528 14.751203525575409 5.0297080388247908 
	-11.787256881047528 14.595348104200356 5.0000000000000018 
	-11.787256881047528 14.329958106401739 5.0000000000000018 
	-11.787256881047528 14.17300162408443 5.0300461451042233 
	-11.787256881047528 13.928281055639937 5.1276750643723625 
	-11.787256881047528 13.796362913668087 5.2116244762099573 
	-11.787256881047528 13.611745383641662 5.3885558158296831 
	-11.787256881047528 13.524982974092099 5.5115161512041135 
	-11.787256881047528 13.42724926342941 5.7374461085300776 
	-11.787256881047528 13.397397892009346 5.8792445546815708 
	-11.787256881047528 13.397397892009346 6.1207554453184363 
	-11.787256881047528 13.427249263429415 6.2625538914699286 
	-11.787256881047528 13.524982974092099 6.4884838487958927 
	-11.787256881047528 13.611745383641662 6.611444184170324 
	-11.787256881047528 13.796362913668087 6.7883755237900489 
	-11.787256881047528 13.928281055639932 6.8723249356276437 
	-11.787256881047528 14.17300162408443 6.9699538548957829 
	-11.787256881047528 14.329958106401737 7.0000000000000027 
	-11.787256881047528 14.595348104200356 7.0000000000000027 
	-11.787256881047528 14.751203525575409 6.9702919611752181 
	-11.787256881047528 14.992646113875667 6.8730228284637063 
	-11.787256881047528 15.121807256473145 6.7897136455022551 
	-11.787256881047528 15.30262368524226 6.6136530916747569 
	-11.787256881047528 15.387327643478294 6.4908901849839884 
	-11.787256881047528 15.483383900277634 6.2645408423808968 
	-11.787256881047528 15.512684705641329 6.1215968168184709 
	-11.787256881047528 15.512684705641329 6.0000000000000044 
	0.002260061334828505 
	torus -9.2872568810475293 7.1274297900171169 6.0000000000000044 2.7786242854110998e-018 6.1629758220391547e-033 -1 7.75 -1 -1 1.387778780781446e-017 -2.7786242854110998e-018 forward_v I I I I 
	plane -11.787256881047528 13.054805262999169 10.000000000000004 -1 1.3877787807787546e-017 -2.7786242854104612e-018 -2.7786242854104613e-017 -6.1629758220391646e-032 10 forward_v I I I I 
	nullbs 
	nullbs 
	I I 
	0 
	0 
	0 
	} I I #
point $-1 -11.787256881047528 14.042088132986786 6.9176976987868954 #
vertex $-1 $245 $290 #
intcurve-curve $-1 forward { surfintcur nubs 3 periodic 17 
	0 3 0.036479045045539907 2 0.073766351699428551 2 0.11219080739075057 2 0.15185618897754058 2 
	0.19180780673033621 2 0.23089896616023667 2 0.26852123332530686 2 0.30474786692083672 2 0.34097450051636674 2 
	0.37859676768143674 2 0.41768792711133729 2 0.45763954486413294 2 0.49730492645092295 2 0.53572938214224497 2 
	0.57301668879613366 2 0.60949573384167355 3 
	-6.7872568810475276 15.512684705641329 6.0000000000000044 
	-6.7872568810475276 15.512684705641329 6.1215968168184709 
	-6.7872568810475276 15.483383900277632 6.2645408423808941 
	-6.7872568810475276 15.387327643478292 6.4908901849839884 
	-6.7872568810475276 15.302623685242258 6.6136530916747569 
	-6.7872568810475276 15.12180725647314 6.7897136455022551 
	-6.7872568810475276 14.992646113875667 6.8730228284637063 
	-6.7872568810475276 14.751203525575409 6.9702919611752181 
	-6.7872568810475276 14.595348104200356 7.0000000000000027 
	-6.7872568810475276 14.329958106401737 7.0000000000000027 
	-6.7872568810475276 14.173001624084424 6.9699538548957829 
	-6.7872568810475276 13.928281055639932 6.8723249356276437 
	-6.7872568810475276 13.796362913668087 6.7883755237900489 
	-6.7872568810475276 13.611745383641662 6.611444184170324 
	-6.7872568810475276 13.524982974092099 6.4884838487958927 
	-6.7872568810475276 13.42724926342941 6.2625538914699286 
	-6.7872568810475276 13.397397892009341 6.1207554453184363 
	-6.7872568810475276 13.397397892009341 5.8792445546815681 
	-6.7872568810475276 13.42724926342941 5.7374461085300776 
	-6.7872568810475276 13.524982974092099 5.5115161512041135 
	-6.7872568810475276 13.611745383641662 5.3885558158296822 
	-6.7872568810475276 13.796362913668087 5.2116244762099573 
	-6.7872568810475276 13.928281055639932 5.1276750643723625 
	-6.7872568810475276 14.173001624084424 5.0300461451042233 
	-6.7872568810475276 14.329958106401737 5.0000000000000018 
	-6.7872568810475276 14.595348104200356 5.0000000000000018 
	-6.7872568810475276 14.751203525575409 5.0297080388247908 
	-6.7872568810475276 14.992646113875667 5.1269771715362999 
	-6.7872568810475276 15.12180725647314 5.2102863544977485 
	-6.7872568810475276 15.30262368524226 5.3863469083252475 
	-6.7872568810475276 15.387327643478292 5.5091098150160178 
	-6.7872568810475276 15.483383900277632 5.7354591576191112 
	-6.7872568810475276 15.512684705641329 5.8784031831815389 
	-6.7872568810475276 15.512684705641329 6.0000000000000044 
	0.002260061334826223 
	torus -9.2872568810475293 7.1274297900171169 6.0000000000000044 2.7786242854110998e-018 6.1629758220391547e-033 -1 7.75 -1 -1 1.387778780781446e-017 -2.7786242854110998e-018 forward_v I I I I 
	plane -6.7872568810475276 13.054805262999169 10.000000000000004 1 -1.3877787807798148e-017 2.7786242854121217e-018 -2.7786242854121216e-017 -6.1629758220391416e-032 10 reverse_v I I I I 
	nullbs 
	nullbs 
	I I 
	0 
	0 
	0 
	} I I #
loop $-1 $-1 $291 $187 #
coedge $-1 $241 $241 $292 $293 forward $186 $-1 #
face $-1 $294 $295 $8 $-1 $296 forward single #
cone-surface $-1 -9.2872568810475293 7.1274297900171169 16.000000000000007 2.7786242854110998e-018 6.1629758220391547e-033 -1 6.75 -9.367506770274762e-017 1.8755713926524924e-017 1 I I 0 1 6.75 forward I I I I #
coedge $-1 $191 $190 $297 $298 reversed $77 $-1 #
edge $-1 $299 $238 $226 $300 forward #
coedge $-1 $301 $193 $191 $247 forward $249 $-1 #
edge $-1 $195 $302 $246 $303 forward #
coedge $-1 $193 $301 $286 $304 forward $249 $-1 #
loop $-1 $-1 $248 $253 #
vertex $-1 $194 $305 #
straight-curve $-1 -9.2872568810475293 46.575850703876462 13.000000000000005 -10 1.3877787807814459e-016 -2.7786242854110998e-017 I I #
point $-1 -6.7872568810475276 46.575850703876462 13.000000000000005 #
face $-1 $306 $249 $8 $-1 $307 forward single #
loop $-1 $-1 $308 $198 #
plane-surface $-1 -9.2872568810475293 25.877429790017121 7.0000000000000018 -4.7733006324331872e-018 -0.51551769908140499 -0.85687893073281596 -10 1.3877787807814459e-016 -2.7786242854110998e-017 forward_v I I I I #
face $-1 $-1 $209 $6 $-1 $309 forward single #
coedge $-1 $261 $310 $206 $263 forward $201 $-1 #
coedge $-1 $258 $258 $204 $259 reversed $268 $-1 #
edge $-1 $311 $311 $204 $312 forward #
coedge $-1 $206 $205 $271 $313 reversed $96 $-1 #
coedge $-1 $310 $257 $205 $262 forward $201 $-1 #
edge $-1 $314 $265 $261 $315 forward #
edge $-1 $266 $314 $257 $315 forward #
coedge $-1 $207 $207 $310 $316 reversed $203 $-1 #
vertex $-1 $316 $317 #
vertex $-1 $263 $318 #
ellipse-curve $-1 -9.2872568810475329 7.1274297900171177 7.0000000000000027 0 -0.70710678118654768 0.70710678118654746 0 -10 -10.000000000000002 0.70710678118654746 I I #
loop $-1 $-1 $258 $256 #
point $-1 -2.2872568810475311 7.1274297900171204 58.000000000000007 #
point $-1 -16.287256881047533 7.1274297900171204 23.000000000000004 #
coedge $-1 $271 $271 $260 $313 forward $214 $-1 #
face $-1 $-1 $275 $7 $-1 $319 reversed single #
loop $-1 $320 $321 $216 #
cone-surface $-1 -9.2872568810475169 7.1274297900171124 57.999999999999986 0 0 -1 6.7909581977488465 -1.6979065805949933 0 1 I I 0 1 7.0000000000000018 forward I I I I #
loop $-1 $322 $219 $272 #
vertex $-1 $220 $323 #
ellipse-curve $-1 -9.2872568810475169 7.1274297900171124 51.999999999999964 4.4415053882186251e-031 -4.8818157411416615e-032 -1 -3.8805475415707691 0.97023233176856782 0 1 I I #
vertex $-1 $221 $324 #
ellipse-curve $-1 -9.2872568810475169 7.1274297900171124 0.99999999999999645 0 0 1 -2.9104106561780756 0.72767424882642551 0 1 I I #
point $-1 -5.4067093394767474 6.1571974582485431 1.9999999999999971 #
coedge $-1 $281 $281 $224 $282 reversed $320 $-1 #
edge $-1 $325 $325 $224 $326 forward #
coedge $-1 $226 $225 $327 $328 reversed $118 $-1 #
edge $-1 $235 $329 $225 $330 forward #
ellipse-curve $-1 -9.2872568810475293 7.1274297900171169 7.0000000000000036 2.7786242854110998e-018 6.1629758220391547e-033 -1 7.4490311038796689e-016 7.75 4.9832868493605727e-032 1 I I #
coedge $-1 $288 $228 $248 $304 reversed $169 $-1 #
straight-curve $-1 -11.787256881047529 12.232180735981224 13.000000000000007 -1.3877787807814462e-016 -10 1.3496108955683199e-014 F -3.4343669967895236 F 0 #
coedge $-1 $234 $286 $308 $331 reversed $169 $-1 #
point $-1 -11.787256881047529 14.463130165577722 7.0000000000000036 #
point $-1 -6.7872568810475293 14.463130165577722 7.0000000000000036 #
coedge $-1 $291 $291 $332 $333 reversed $240 $-1 #
coedge $-1 $292 $292 $241 $293 reversed $334 $-1 #
edge $-1 $335 $335 $241 $336 forward #
face $-1 $-1 $337 $8 $-1 $338 reversed single #
loop $-1 $334 $339 $242 #
plane-surface $-1 -9.9008932446838926 7.1274297900171169 1.0000000000000053 2.7786242854110998e-018 6.1629758220391547e-033 -1 -10 1.3877787807814459e-016 -2.7786242854110998e-017 forward_v I I I I #
coedge $-1 $327 $340 $244 $298 forward $254 $-1 #
edge $-1 $302 $299 $297 $341 forward #
vertex $-1 $328 $342 #
straight-curve $-1 -6.7872568810475293 13.87742979001712 7.0000000000000036 -1.3877787807814459e-016 -10 -6.2015369802697299e-032 F -1.2000000000000002 F 0.16452490540358977 #
coedge $-1 $248 $246 $340 $343 forward $249 $-1 #
vertex $-1 $343 $344 #
ellipse-curve $-1 -6.7872568810475284 44.027429790017116 5.4167585528479822 -1 1.387778780781446e-017 -2.7786242854110998e-018 1.4295465840344029e-017 2.5484209138593483 7.5832414471520213 1 F -5.2041704279304223e-016 F 3.359002197632182 #
edge $-1 $345 $250 $248 $346 forward #
point $-1 -11.787256881047528 46.575850703876462 13.000000000000005 #
face $-1 $187 $347 $8 $-1 $348 reversed single #
cone-surface $-1 -9.2872568810475293 44.027429790017116 5.4167585528479822 -1 1.387778780781446e-017 -2.7786242854110998e-018 1.4295465840344029e-017 2.5484209138593483 7.5832414471520213 1 I I 0 1 8 forward I I I I #
coedge $-1 $340 $327 $288 $331 forward $254 $-1 #
plane-surface $-1 -8.3781659719566228 7.1274297900171177 58.000000000000007 0 0 1 10 0 0 forward_v I I I I #
coedge $-1 $257 $261 $264 $316 forward $201 $-1 #
vertex $-1 $259 $349 #
ellipse-curve $-1 -9.2872568810475329 7.1274297900171177 58.000000000000007 0 0 -1 -10 0 0 1 I I #
edge $-1 $314 $314 $271 $350 forward #
vertex $-1 $262 $351 #
straight-curve $-1 -8.8327114265020779 0.12742979001711674 0 10 0 0 I I #
edge $-1 $265 $266 $310 $352 forward #
point $-1 -2.1458284525046825 0.12742979001711729 0 #
point $-1 -16.428685309590382 0.12742979001711729 0 #
plane-surface $-1 -9.9046167172065029 7.2817849337075655 51.999999999999964 -4.4415053882186251e-031 4.8818157411416615e-032 1 9.7013688539269225 -2.4255808294214192 4.4272805905260861e-030 forward_v I I I I #
loop $-1 $-1 $281 $216 #
coedge $-1 $321 $321 $353 $354 forward $273 $-1 #
loop $-1 $-1 $353 $272 #
point $-1 -13.167804422618286 8.0976621217856799 51.999999999999964 #
point $-1 -6.3768462248694409 6.3997555411906859 0.99999999999999645 #
vertex $-1 $282 $355 #
ellipse-curve $-1 -9.2872568810475169 7.1274297900171124 57.999999999999986 -7.7061505182157999e-031 3.0560937197045213e-031 1 6.7909581977488465 -1.6979065805949933 5.7521107672365439e-030 1 I I #
coedge $-1 $308 $297 $283 $328 forward $254 $-1 #
edge $-1 $299 $329 $327 $356 forward #
vertex $-1 $328 $357 #
straight-curve $-1 -11.787256881047529 25.877429790017121 7.0000000000000018 1.3877787807814459e-016 10 -1.850371707708594e-015 F -1.3645249054035899 F 0 #
edge $-1 $329 $345 $308 $358 forward #
coedge $-1 $332 $332 $291 $333 forward $359 $-1 #
edge $-1 $360 $360 $332 $361 forward #
loop $-1 $-1 $292 $242 #
vertex $-1 $293 $362 #
ellipse-curve $-1 -9.2872568810475293 7.1274297900171169 1.0000000000000053 -2.7786242854110998e-018 -6.1629758220391547e-033 1 6.75 -9.367506770274762e-017 1.8755713926524924e-017 1 I I #
loop $-1 $359 $363 $294 #
plane-surface $-1 -9.9008932446838926 7.1274297900171169 16.000000000000007 2.7786242854110998e-018 6.1629758220391547e-033 -1 -10 1.3877787807814459e-016 -2.7786242854110998e-017 forward_v I I I I #
coedge $-1 $339 $339 $364 $365 forward $295 $-1 #
coedge $-1 $297 $308 $301 $343 reversed $254 $-1 #
straight-curve $-1 -6.7872568810475284 39.903288197365882 -1.438272893014545 -1.3324013975923807e-016 -8.56878930732816 5.1551769908140512 F 0 F 1.6368541580726728 #
point $-1 -6.7872568810475276 25.877429790017121 7.0000000000000018 #
edge $-1 $302 $345 $301 $366 forward #
point $-1 -6.7872568810475276 39.903288197365882 -1.438272893014545 #
vertex $-1 $343 $367 #
ellipse-curve $-1 -11.787256881047529 44.027429790017116 5.4167585528479822 1 -1.387778780781446e-017 2.7786242854110998e-018 1.4295465840344029e-017 2.5484209138593483 7.5832414471520213 1 F -3.359002197632182 F 5.2041704279304223e-016 #
loop $-1 $368 $364 $306 #
cone-surface $-1 -9.2872568810475293 7.1274297900171169 16.000000000000007 2.7786242854110998e-018 6.1629758220391547e-033 -1 4 -5.5511151231257852e-017 1.1114497141644402e-017 1 I I 0 1 4 forward I I I I #
point $-1 0.712743118952468 7.1274297900171204 58.000000000000007 #
ellipse-curve $-1 -9.2872568810475329 7.1274297900171177 7.0000000000000027 0 0.70710678118654768 -0.70710678118654746 0 -7.0000000000000018 -7.0000000000000027 0.70710678118654735 I I #
point $-1 -9.2872568810475329 0.12742979001711729 0 #
ellipse-curve $-1 -9.2872568810475329 7.1274297900171177 0 0 0 -1 -10 0 0 1 I I #
coedge $-1 $353 $353 $321 $354 reversed $322 $-1 #
edge $-1 $369 $369 $321 $370 forward #
point $-1 -16.078215078796362 8.8253363706121064 57.999999999999986 #
straight-curve $-1 -9.2872568810475293 25.877429790017121 7.0000000000000018 -10 1.3877787807814459e-016 -2.7786242854110998e-017 I I #
point $-1 -11.787256881047528 25.877429790017121 7.0000000000000018 #
straight-curve $-1 -11.787256881047529 39.903288197365882 -1.438272893014545 1.3324013975923807e-016 8.56878930732816 -5.1551769908140512 F -1.6368541580726728 F 0 #
loop $-1 $-1 $332 $294 #
vertex $-1 $333 $371 #
ellipse-curve $-1 -9.2872568810475293 7.1274297900171169 16.000000000000007 -2.7786242854110998e-018 -6.1629758220391547e-033 1 6.75 -9.367506770274762e-017 1.8755713926524924e-017 1 I I #
point $-1 -16.037256881047529 7.1274297900171177 1.0000000000000053 #
coedge $-1 $363 $363 $372 $373 forward $337 $-1 #
coedge $-1 $364 $364 $339 $365 reversed $347 $-1 #
edge $-1 $374 $374 $339 $375 forward #
straight-curve $-1 -9.2872568810475293 39.903288197365882 -1.438272893014545 -10 1.3877787807814459e-016 -2.7786242854110998e-017 I I #
point $-1 -11.787256881047528 39.903288197365882 -1.438272893014545 #
loop $-1 $-1 $372 $306 #
vertex $-1 $354 $376 #
ellipse-curve $-1 -9.2872568810475169 7.1274297900171124 51.999999999999993 -7.7061505182157999e-031 3.0560937197045213e-031 1 6.7909581977488465 -1.6979065805949933 5.7521107672365439e-030 1 I I #
point $-1 -16.037256881047529 7.1274297900171177 16.000000000000007 #
coedge $-1 $372 $372 $363 $373 reversed $368 $-1 #
edge $-1 $377 $377 $363 $378 forward #
vertex $-1 $365 $379 #
ellipse-curve $-1 -9.2872568810475293 7.1274297900171169 1.0000000000000053 -2.7786242854110998e-018 -6.1629758220391547e-033 1 4 -5.5511151231257852e-017 1.1114497141644402e-017 1 I I #
point $-1 -16.078215078796362 8.8253363706121064 51.999999999999964 #
vertex $-1 $373 $380 #
ellipse-curve $-1 -9.2872568810475293 7.1274297900171169 16.000000000000007 2.7786242854110998e-018 6.1629758220391547e-033 -1 4 -5.5511151231257852e-017 1.1114497141644402e-017 1 I I #
point $-1 -13.287256881047531 7.1274297900171169 1.0000000000000053 #
point $-1 -13.287256881047531 7.1274297900171169 16.000000000000007 #
End-of-ACIS-data 