400 0 3 0           
8 Inventor 11 ACIS 7.0 NT 24 Tue Dec 17 14:25:59 2002 
1 9.9999999999999995e-007 1e-010 
body $-1 $3 $-1 $-1 #
body $-1 $4 $-1 $-1 #
body $-1 $5 $-1 $-1 #
lump $-1 $-1 $6 $0 #
lump $-1 $-1 $7 $1 #
lump $-1 $-1 $8 $2 #
shell $-1 $-1 $-1 $9 $-1 $3 #
shell $-1 $-1 $-1 $10 $-1 $4 #
shell $-1 $-1 $-1 $11 $-1 $5 #
face $-1 $12 $13 $6 $-1 $14 reversed single #
face $-1 $15 $16 $7 $-1 $17 forward single #
face $-1 $18 $19 $8 $-1 $20 forward single #
face $-1 $21 $22 $6 $-1 $23 reversed single #
loop $-1 $24 $25 $9 #
cone-surface $-1 -9.2872568810475329 7.1274297900171177 18.5 0 0 1 4 0 0 1 I I 0 1 4 forward I I I I #
face $-1 $26 $27 $7 $-1 $28 forward single #
loop $-1 $29 $30 $10 #
cone-surface $-1 -9.2872568810475169 7.1274297900171124 1.4999999999999967 0 0 -1.0000000000000002 -3.3954790988744223 0.84895329029749667 0 1 I I -0.70710678118654791 0.70710678118654724 3.5 forward I I I I #
face $-1 $31 $32 $8 $-1 $33 forward single #
loop $-1 $-1 $34 $11 #
cone-surface $-1 -5.7872568810475276 14.04208813298678 16.000000000000007 -2.7786242854110998e-018 -6.1629758220391547e-033 1 -0.8519427513705975 -0.5236349380886427 -2.3672288187382965e-018 1 I I 0 -1 1.0000000000000002 forward I I I I #
face $-1 $35 $36 $6 $-1 $37 forward single #
loop $-1 $38 $39 $12 #
plane-surface $-1 -9.923620517411166 7.1274297900171177 18.5 0 0 1 10 0 0 forward_v I I I I #
loop $-1 $-1 $40 $9 #
coedge $-1 $25 $25 $41 $42 reversed $13 $-1 #
face $-1 $43 $44 $7 $-1 $45 reversed single #
loop $-1 $46 $47 $15 #
cone-surface $-1 -9.2872568810475169 7.1274297900171124 0.99999999999999645 0 0 1.0000000000000002 -3.8805475415707686 0.97023233176856771 0 1 I I 0 1 4 forward I I I I #
loop $-1 $-1 $48 $10 #
coedge $-1 $30 $30 $49 $50 forward $16 $-1 #
face $-1 $51 $52 $8 $-1 $53 forward single #
loop $-1 $-1 $54 $18 #
torus-surface $-1 -9.2872568810475293 7.1274297900171169 6.0000000000000036 2.7786242854110998e-018 6.1629758220391547e-033 -1 7.75 -1 -1 1.387778780781446e-017 -2.7786242854110998e-018 forward_v I I I I #
coedge $-1 $55 $56 $57 $58 forward $19 $-1 #
face $-1 $59 $60 $6 $-1 $61 reversed single #
loop $-1 $62 $41 $21 #
plane-surface $-1 -9.923620517411166 7.1274297900171177 23.000000000000004 0 0 1 10 0 0 forward_v I I I I #
loop $-1 $-1 $63 $12 #
coedge $-1 $39 $39 $40 $64 forward $22 $-1 #
coedge $-1 $40 $40 $39 $64 reversed $24 $-1 #
coedge $-1 $41 $41 $25 $42 forward $36 $-1 #
edge $-1 $65 $65 $41 $66 forward #
face $-1 $67 $68 $7 $-1 $69 forward single #
loop $-1 $-1 $70 $26 #
plane-surface $-1 -8.9344798318138103 7.0392268507654245 0.99999999999999645 0 0 1.0000000000000002 9.7013688539269207 -2.4255808294214192 0 forward_v I I I I #
loop $-1 $-1 $49 $15 #
coedge $-1 $47 $47 $71 $72 forward $27 $-1 #
coedge $-1 $48 $48 $70 $73 forward $29 $-1 #
coedge $-1 $49 $49 $30 $50 reversed $46 $-1 #
edge $-1 $74 $74 $49 $75 forward #
face $-1 $76 $77 $8 $-1 $78 reversed single #
loop $-1 $-1 $79 $31 #
cone-surface $-1 -12.787256881047529 14.042088132986784 16.000000000000007 2.7786242854110998e-018 6.1629758220391547e-033 -1 0.85194275137059694 -0.52363493808864314 2.3672288187382877e-018 1 I I 0 -1 1 forward I I I I #
coedge $-1 $80 $81 $82 $83 forward $32 $-1 #
coedge $-1 $84 $34 $85 $86 forward $19 $-1 #
coedge $-1 $34 $84 $87 $88 forward $19 $-1 #
coedge $-1 $89 $90 $34 $58 reversed $91 $-1 #
edge $-1 $92 $93 $34 $94 forward #
face $-1 $95 $96 $6 $-1 $97 reversed single #
loop $-1 $98 $99 $35 #
cone-surface $-1 -9.2872568810475329 7.1274297900171177 0 0 0 1 -7.0000000000000009 0 0 1 I I 0 1 7.0000000000000009 forward I I I I #
loop $-1 $-1 $100 $21 #
coedge $-1 $63 $63 $101 $102 reversed $38 $-1 #
edge $-1 $103 $103 $39 $104 forward #
vertex $-1 $42 $105 #
ellipse-curve $-1 -9.2872568810475329 7.1274297900171177 23.000000000000004 0 0 -1 4 0 0 1 I I #
face $-1 $106 $107 $7 $-1 $108 forward single #
loop $-1 $109 $110 $43 #
cone-surface $-1 -9.2872568810475169 7.1274297900171124 73.000000000000028 0 0 -1.0000000000000002 -5.4677203629094917 1.3670645753812394 0 1 I I 0.34202014332566827 0.93969262078590854 5.6360297657337988 forward I I I I #
coedge $-1 $70 $70 $48 $73 reversed $44 $-1 #
coedge $-1 $71 $71 $47 $72 reversed $111 $-1 #
edge $-1 $112 $112 $47 $113 forward #
edge $-1 $114 $114 $70 $115 forward #
vertex $-1 $50 $116 #
ellipse-curve $-1 -9.2872568810475169 7.1274297900171124 1.9999999999999969 0 0 -1.0000000000000002 -3.8805475415707686 0.97023233176856771 0 1 I I #
face $-1 $117 $118 $8 $-1 $119 forward single #
loop $-1 $-1 $87 $51 #
plane-surface $-1 -6.7872568810475276 13.054805262999169 10.000000000000004 -1 1.3877787807798148e-017 -2.7786242854121217e-018 -2.7786242854121216e-017 -6.1629758220391405e-032 10 forward_v I I I I #
coedge $-1 $120 $121 $122 $123 forward $52 $-1 #
coedge $-1 $124 $54 $125 $126 forward $32 $-1 #
coedge $-1 $54 $127 $84 $128 reversed $32 $-1 #
coedge $-1 $85 $129 $54 $83 reversed $130 $-1 #
edge $-1 $131 $132 $82 $133 forward #
coedge $-1 $56 $55 $81 $128 forward $19 $-1 #
coedge $-1 $134 $82 $55 $86 reversed $130 $-1 #
edge $-1 $93 $131 $85 $135 forward #
coedge $-1 $136 $137 $56 $88 reversed $77 $-1 #
edge $-1 $138 $92 $87 $139 forward #
coedge $-1 $140 $57 $137 $141 forward $91 $-1 #
coedge $-1 $57 $122 $134 $142 reversed $91 $-1 #
loop $-1 $-1 $90 $143 #
vertex $-1 $141 $144 #
vertex $-1 $142 $145 #
ellipse-curve $-1 -5.7872568810475276 14.04208813298678 13.000000000000004 -2.778624285411081e-018 1.3496108955683199e-015 1 -0.8519427513705975 -0.5236349380886427 -2.3672288187382965e-018 1 I I #
face $-1 $146 $147 $6 $-1 $148 forward single #
loop $-1 $-1 $149 $59 #
plane-surface $-1 -9.2872568810475329 0.12742979001711729 0 0 -0.70710678118654768 0.70710678118654746 10 0 0 forward_v I I I I #
loop $-1 $-1 $150 $35 #
coedge $-1 $99 $99 $151 $152 reversed $60 $-1 #
coedge $-1 $100 $100 $150 $153 reversed $62 $-1 #
coedge $-1 $101 $101 $63 $102 forward $154 $-1 #
edge $-1 $155 $155 $101 $156 forward #
vertex $-1 $64 $157 #
ellipse-curve $-1 -9.2872568810475329 7.1274297900171177 18.5 0 0 1 4 0 0 1 I I #
point $-1 -13.287256881047531 7.1274297900171177 23.000000000000004 #
face $-1 $158 $159 $7 $-1 $160 forward single #
loop $-1 $161 $162 $67 #
cone-surface $-1 -9.2872568810475169 7.1274297900171124 74.000000000000028 0 0 -1.0000000000000002 -5.8208213123561539 1.4553484976528517 0 1 I I 0 1 6.0000000000000009 forward I I I I #
loop $-1 $-1 $163 $43 #
coedge $-1 $110 $110 $164 $165 forward $68 $-1 #
loop $-1 $166 $71 $167 #
vertex $-1 $72 $168 #
ellipse-curve $-1 -9.2872568810475169 7.1274297900171124 51.999999999999964 4.441505388218626e-031 -4.8818157411416626e-032 -1.0000000000000002 -3.8805475415707686 0.97023233176856771 0 1 I I #
vertex $-1 $73 $169 #
ellipse-curve $-1 -9.2872568810475169 7.1274297900171124 0.99999999999999645 0 0 1.0000000000000002 -2.9104106561780756 0.72767424882642551 0 1 I I #
point $-1 -5.4067093394767474 6.1571974582485431 1.9999999999999969 #
face $-1 $143 $170 $8 $-1 $171 forward single #
loop $-1 $-1 $172 $76 #
plane-surface $-1 -9.2872568810475293 12.232180735981222 7.0000000000000036 2.7786242854110998e-018 6.1629758220391547e-033 -1 -10 1.3877787807814459e-016 -2.7786242854110998e-017 forward_v I I I I #
coedge $-1 $125 $79 $173 $174 forward $52 $-1 #
coedge $-1 $79 $125 $129 $175 forward $52 $-1 #
coedge $-1 $90 $176 $79 $123 reversed $91 $-1 #
edge $-1 $177 $178 $79 $179 forward #
coedge $-1 $180 $80 $181 $182 forward $32 $-1 #
coedge $-1 $121 $120 $80 $126 reversed $52 $-1 #
edge $-1 $132 $183 $80 $184 forward #
coedge $-1 $81 $180 $136 $185 forward $32 $-1 #
edge $-1 $131 $138 $84 $186 forward #
coedge $-1 $82 $134 $121 $175 reversed $130 $-1 #
loop $-1 $187 $134 $188 #
vertex $-1 $86 $189 #
vertex $-1 $83 $190 #
ellipse-curve $-1 -9.2872568810475293 7.1274297900171169 6.0000000000000036 -2.7786242854110998e-018 -6.1629758220391547e-033 1 6.4878658001532585e-016 6.75 4.3402820946043692e-032 1 I I #
coedge $-1 $129 $85 $90 $142 forward $130 $-1 #
straight-curve $-1 -6.2388697842733345 13.149874153248762 16.000000000000007 2.7786242854110998e-017 6.1629758220391547e-032 -10 F -0.11000100000000002 F 1.9683251447152024 #
coedge $-1 $191 $87 $127 $185 reversed $77 $-1 #
coedge $-1 $87 $192 $89 $141 reversed $77 $-1 #
vertex $-1 $128 $193 #
straight-curve $-1 -6.7872568810475276 14.04208813298678 16.000000000000007 -2.7786242854121216e-017 -6.1629758220391405e-032 10 F -1.9683251447152024 F 0.11000100000000002 #
coedge $-1 $176 $89 $194 $195 forward $91 $-1 #
edge $-1 $92 $196 $89 $197 forward #
edge $-1 $93 $177 $134 $198 forward #
face $-1 $199 $91 $8 $-1 $200 forward single #
point $-1 -6.7872568810475293 14.04208813298678 13.000000000000004 #
point $-1 -6.2388697842733345 13.149874153248762 13.000000000000004 #
face $-1 $201 $202 $6 $-1 $203 reversed single #
loop $-1 $204 $205 $95 #
cone-surface $-1 -9.2872568810475329 7.1274297900171177 0 0 0 1 -10 0 0 1 I I 0 1 10 forward I I I I #
coedge $-1 $206 $207 $208 $209 reversed $96 $-1 #
coedge $-1 $150 $150 $100 $153 forward $98 $-1 #
coedge $-1 $151 $151 $99 $152 forward $210 $-1 #
edge $-1 $211 $211 $151 $212 forward #
edge $-1 $213 $213 $150 $214 forward #
loop $-1 $215 $101 $201 #
vertex $-1 $102 $216 #
ellipse-curve $-1 -9.2872568810475329 7.1274297900171177 18.5 0 0 1 -7.0000000000000009 0 0 1 I I #
point $-1 -13.287256881047531 7.1274297900171177 18.5 #
face $-1 $217 $218 $7 $-1 $219 forward single #
loop $-1 $-1 $164 $106 #
plane-surface $-1 -8.9344798318138103 7.0392268507654245 74.000000000000028 0 0 1.0000000000000002 9.7013688539269207 -2.4255808294214192 0 forward_v I I I I #
loop $-1 $-1 $220 $67 #
coedge $-1 $162 $162 $221 $222 forward $107 $-1 #
coedge $-1 $163 $163 $220 $223 forward $109 $-1 #
coedge $-1 $164 $164 $110 $165 reversed $159 $-1 #
edge $-1 $224 $224 $164 $225 forward #
loop $-1 $-1 $226 $167 #
face $-1 $-1 $111 $7 $-1 $227 reversed single #
point $-1 -13.167804422618284 8.0976621217856799 51.999999999999964 #
point $-1 -6.3768462248694409 6.3997555411906859 0.99999999999999645 #
loop $-1 $-1 $173 $117 #
plane-surface $-1 -11.787256881047528 13.054805262999169 10.000000000000004 -1 1.3877787807787546e-017 -2.7786242854104612e-018 -2.7786242854104613e-017 -6.1629758220391635e-032 10 forward_v I I I I #
coedge $-1 $228 $229 $180 $230 reversed $118 $-1 #
coedge $-1 $231 $181 $120 $174 reversed $170 $-1 #
edge $-1 $178 $183 $173 $232 forward #
edge $-1 $132 $177 $129 $233 forward #
coedge $-1 $122 $140 $231 $234 forward $91 $-1 #
vertex $-1 $142 $235 #
vertex $-1 $123 $236 #
ellipse-curve $-1 -12.787256881047529 14.042088132986784 13.000000000000004 -2.778624285411081e-018 1.3496108955683199e-015 1 0.85194275137059694 -0.52363493808864314 2.3672288187382877e-018 1 I I #
coedge $-1 $127 $124 $172 $230 forward $32 $-1 #
coedge $-1 $173 $237 $124 $182 reversed $170 $-1 #
edge $-1 $183 $238 $124 $239 forward #
vertex $-1 $126 $240 #
intcurve-curve $-1 forward { surfintcur nubs 3 open 5 
	-0.00060594810482020789 3 0 2 0.058507657918557679 2 0.10854360225428022 2 0.14394998889242194 3 
	-12.335643977821722 13.149874153248762 6.0000000000000036 
	-12.334414413972599 13.150496522895747 6.0014766617548654 
	-12.333186134493602 13.151121435339398 6.002953326110446 
	-12.213486711120078 13.212332795410815 6.1470091789704453 
	-12.105000633643288 13.29764027547065 6.2919536571546359 
	-11.939433218726588 13.498410219274749 6.5422405227805598 
	-11.874975484523333 13.610459654164755 6.6535771511421764 
	-11.804778099445967 13.832256916175094 6.8148395231133847 
	-11.787256881047528 13.933721538156494 6.8735798314079446 
	-11.787256881047528 14.04208813298678 6.9176976987868946 
	2.6309588858925974e-005 
	torus -9.2872568810475293 7.1274297900171169 6.0000000000000036 2.7786242854110998e-018 6.1629758220391547e-033 -1 7.75 -1 -1 1.387778780781446e-017 -2.7786242854110998e-018 forward_v I I I I 
	cone -12.787256881047529 14.042088132986784 16.000000000000007 2.7786242854110998e-018 6.1629758220391547e-033 -1 0.85194275137059694 -0.52363493808864314 2.3672288187382877e-018 1 I I 0 -1 1 forward I I I I 
	nullbs 
	nullbs 
	F 0 I 
	0 
	1 0 
	0 
	} I I #
edge $-1 $241 $138 $127 $242 forward #
intcurve-curve $-1 forward { surfintcur nubs 3 open 5 
	-0.14330872317232912 3 -0.14270800312565249 2 -0.084705143289723728 2 -0.035100903959099906 2 0 3 
	-6.2388697842733336 13.14987415324876 6.0000000000000036 
	-6.2400993481226008 13.150496522895816 6.0014766617550377 
	-6.2413276276014082 13.151121435339373 6.0029533261103207 
	-6.3610270509744957 13.21233279541058 6.1470091789715031 
	-6.4695131284518688 13.297640275470766 6.2919536571547798 
	-6.6350805433684723 13.498410219274749 6.5422405227805625 
	-6.6995382775717269 13.610459654164757 6.6535771511421764 
	-6.7697356626490937 13.832256916175101 6.8148395231133883 
	-6.7872568810475276 13.933721538156497 6.8735798314079455 
	-6.7872568810475276 14.04208813298678 6.9176976987868946 
	2.6309588864147238e-005 
	cone -5.7872568810475276 14.04208813298678 16.000000000000007 -2.7786242854110998e-018 -6.1629758220391547e-033 1 -0.8519427513705975 -0.5236349380886427 -2.3672288187382965e-018 1 I I 0 -1 1.0000000000000002 forward I I I I 
	torus -9.2872568810475293 7.1274297900171169 6.0000000000000036 2.7786242854110998e-018 6.1629758220391547e-033 -1 7.75 -1 -1 1.387778780781446e-017 -2.7786242854110998e-018 forward_v I I I I 
	nullbs 
	nullbs 
	F -0.14270800312565249 I 
	0 
	1 -0.14270800312565249 
	0 
	} I I #
loop $-1 $243 $244 $188 #
face $-1 $245 $130 $8 $-1 $246 forward single #
point $-1 -6.2388697842733336 13.14987415324876 6.0000000000000036 #
point $-1 -12.335643977821722 13.149874153248762 6.0000000000000036 #
coedge $-1 $247 $136 $229 $248 reversed $77 $-1 #
coedge $-1 $137 $247 $249 $250 reversed $77 $-1 #
point $-1 -6.7872568810475276 14.04208813298678 6.9176976987868946 #
coedge $-1 $249 $251 $140 $195 reversed $252 $-1 #
edge $-1 $196 $253 $140 $254 forward #
vertex $-1 $195 $255 #
straight-curve $-1 -6.7872568810475293 13.877429790017118 13.000000000000004 1.3877787807814459e-016 10 6.2015369802697299e-032 F -0.16452490540358933 F 3.2698420913859341 #
ellipse-curve $-1 -9.2872568810475293 7.1274297900171169 13.000000000000004 -2.778624285411081e-018 1.3496108955683199e-015 1 6.75 -9.3675067702747608e-017 1.8755713926524924e-017 1 I I #
face $-1 $256 $257 $8 $-1 $258 forward single #
plane-surface $-1 -9.2872568810475293 13.877429790017118 13.000000000000004 -2.778624285411081e-018 1.3496108955683199e-015 1 10 -1.3877787807814459e-016 2.7786242854110998e-017 forward_v I I I I #
face $-1 $259 $154 $6 $-1 $61 reversed single #
loop $-1 $-1 $260 $146 #
plane-surface $-1 -8.3781659719566228 7.1274297900171177 0 0 0 1 10 0 0 forward_v I I I I #
loop $-1 $-1 $208 $95 #
coedge $-1 $205 $205 $261 $262 forward $147 $-1 #
coedge $-1 $263 $149 $264 $265 reversed $96 $-1 #
coedge $-1 $149 $263 $260 $266 reversed $96 $-1 #
coedge $-1 $267 $267 $149 $209 forward $204 $-1 #
edge $-1 $268 $269 $208 $270 forward #
loop $-1 $271 $151 $259 #
vertex $-1 $152 $272 #
ellipse-curve $-1 -9.2872568810475329 7.1274297900171177 58.000000000000007 0 0 -1 -7.0000000000000009 0 0 1 I I #
vertex $-1 $153 $273 #
ellipse-curve $-1 -9.2872568810475329 7.1274297900171177 23.000000000000004 0 0 -1 -7.0000000000000009 0 0 1 I I #
loop $-1 $-1 $274 $201 #
point $-1 -16.287256881047533 7.1274297900171195 18.5 #
face $-1 $167 $275 $7 $-1 $276 forward single #
loop $-1 $277 $278 $158 #
plane-surface $-1 -9.9046167172065029 7.2817849337075655 57.999999999999972 -4.441505388218626e-031 4.8818157411416626e-032 1.0000000000000002 9.7013688539269207 -2.4255808294214192 4.4272805905260861e-030 forward_v I I I I #
coedge $-1 $220 $220 $163 $223 reversed $161 $-1 #
coedge $-1 $221 $221 $162 $222 reversed $277 $-1 #
edge $-1 $279 $279 $162 $280 forward #
edge $-1 $281 $281 $220 $282 forward #
vertex $-1 $165 $283 #
ellipse-curve $-1 -9.2872568810475169 7.1274297900171124 74.000000000000028 0 0 -1.0000000000000002 -5.1146194134628296 1.2787806531096271 0 1 I I #
coedge $-1 $226 $226 $284 $285 reversed $166 $-1 #
plane-surface $-1 -9.9046167172065029 7.2817849337075655 51.999999999999964 -4.441505388218626e-031 4.8818157411416626e-032 1.0000000000000002 9.7013688539269207 -2.4255808294214192 4.4272805905260861e-030 forward_v I I I I #
coedge $-1 $286 $172 $237 $287 forward $118 $-1 #
coedge $-1 $172 $286 $191 $248 forward $118 $-1 #
edge $-1 $238 $241 $172 $288 forward #
coedge $-1 $289 $173 $176 $234 reversed $170 $-1 #
straight-curve $-1 -11.787256881047528 14.042088132986784 16.000000000000007 2.7786242854104613e-017 6.1629758220391635e-032 -10 F -0.11000100000000002 F 1.9683251447152024 #
straight-curve $-1 -12.335643977821722 13.149874153248762 16.000000000000007 -2.7786242854110998e-017 -6.1629758220391547e-032 10 F -1.9683251447152024 F 0.11000100000000002 #
edge $-1 $253 $178 $176 $290 forward #
point $-1 -12.335643977821722 13.149874153248762 13.000000000000004 #
point $-1 -11.787256881047529 14.042088132986784 13.000000000000004 #
coedge $-1 $181 $291 $228 $287 reversed $170 $-1 #
vertex $-1 $287 $292 #
intcurve-curve $-1 forward { surfintcur nubs 3 periodic 17 
	0 3 0.036479045045540115 2 0.073766351699428537 2 0.11219080739075056 2 0.15185618897754036 2 
	0.19180780673033618 2 0.23089896616023692 2 0.26852123332530692 2 0.30474786692083689 2 0.34097450051636674 2 
	0.37859676768143685 2 0.41768792711133734 2 0.45763954486413339 2 0.49730492645092317 2 0.53572938214224519 2 
	0.57301668879613377 2 0.60949573384167377 3 
	-11.787256881047528 15.512684705641329 6.0000000000000036 
	-11.787256881047528 15.512684705641329 5.8784031831815353 
	-11.787256881047528 15.483383900277632 5.7354591576191094 
	-11.787256881047528 15.387327643478292 5.5091098150160178 
	-11.787256881047528 15.30262368524226 5.3863469083252475 
	-11.787256881047528 15.121807256473144 5.2102863544977485 
	-11.787256881047528 14.992646113875669 5.1269771715362999 
	-11.787256881047528 14.751203525575409 5.0297080388247899 
	-11.787256881047528 14.595348104200356 5.0000000000000018 
	-11.787256881047528 14.329958106401739 5.0000000000000018 
	-11.787256881047528 14.173001624084428 5.0300461451042233 
	-11.787256881047528 13.928281055639935 5.1276750643723616 
	-11.787256881047528 13.796362913668087 5.2116244762099573 
	-11.787256881047528 13.611745383641662 5.3885558158296831 
	-11.787256881047528 13.524982974092099 5.5115161512041126 
	-11.787256881047528 13.42724926342941 5.7374461085300776 
	-11.787256881047528 13.397397892009344 5.8792445546815708 
	-11.787256881047528 13.397397892009344 6.1207554453184363 
	-11.787256881047528 13.427249263429413 6.2625538914699277 
	-11.787256881047528 13.524982974092099 6.4884838487958927 
	-11.787256881047528 13.611745383641662 6.611444184170324 
	-11.787256881047528 13.796362913668087 6.7883755237900489 
	-11.787256881047528 13.928281055639932 6.8723249356276437 
	-11.787256881047528 14.173001624084428 6.9699538548957829 
	-11.787256881047528 14.329958106401737 7.0000000000000027 
	-11.787256881047528 14.595348104200356 7.0000000000000027 
	-11.787256881047528 14.751203525575409 6.9702919611752172 
	-11.787256881047528 14.992646113875667 6.8730228284637063 
	-11.787256881047528 15.121807256473145 6.7897136455022551 
	-11.787256881047528 15.30262368524226 6.6136530916747569 
	-11.787256881047528 15.387327643478294 6.4908901849839884 
	-11.787256881047528 15.483383900277634 6.2645408423808959 
	-11.787256881047528 15.512684705641329 6.12159681681847 
	-11.787256881047528 15.512684705641329 6.0000000000000036 
	0.002260061334828505 
	torus -9.2872568810475293 7.1274297900171169 6.0000000000000036 2.7786242854110998e-018 6.1629758220391547e-033 -1 7.75 -1 -1 1.387778780781446e-017 -2.7786242854110998e-018 forward_v I I I I 
	plane -11.787256881047528 13.054805262999169 10.000000000000004 -1 1.3877787807787546e-017 -2.7786242854104612e-018 -2.7786242854104613e-017 -6.1629758220391635e-032 10 forward_v I I I I 
	nullbs 
	nullbs 
	I I 
	0 
	0 
	0 
	} I I #
point $-1 -11.787256881047528 14.042088132986784 6.9176976987868946 #
vertex $-1 $248 $293 #
intcurve-curve $-1 forward { surfintcur nubs 3 periodic 17 
	0 3 0.036479045045539907 2 0.073766351699428551 2 0.11219080739075057 2 0.15185618897754058 2 
	0.19180780673033621 2 0.23089896616023667 2 0.26852123332530686 2 0.30474786692083672 2 0.34097450051636674 2 
	0.37859676768143674 2 0.41768792711133729 2 0.45763954486413294 2 0.49730492645092295 2 0.53572938214224497 2 
	0.57301668879613366 2 0.60949573384167355 3 
	-6.7872568810475276 15.512684705641329 6.0000000000000036 
	-6.7872568810475276 15.512684705641329 6.12159681681847 
	-6.7872568810475276 15.483383900277632 6.2645408423808941 
	-6.7872568810475276 15.387327643478292 6.4908901849839884 
	-6.7872568810475276 15.302623685242258 6.6136530916747569 
	-6.7872568810475276 15.12180725647314 6.7897136455022551 
	-6.7872568810475276 14.992646113875667 6.8730228284637063 
	-6.7872568810475276 14.751203525575407 6.9702919611752172 
	-6.7872568810475276 14.595348104200355 7.0000000000000027 
	-6.7872568810475276 14.329958106401735 7.0000000000000027 
	-6.7872568810475276 14.173001624084424 6.969953854895782 
	-6.7872568810475276 13.928281055639932 6.8723249356276437 
	-6.7872568810475276 13.796362913668087 6.788375523790048 
	-6.7872568810475276 13.611745383641662 6.611444184170324 
	-6.7872568810475276 13.524982974092097 6.4884838487958927 
	-6.7872568810475276 13.42724926342941 6.2625538914699277 
	-6.7872568810475276 13.397397892009341 6.1207554453184363 
	-6.7872568810475276 13.397397892009341 5.8792445546815681 
	-6.7872568810475276 13.42724926342941 5.7374461085300776 
	-6.7872568810475276 13.524982974092099 5.5115161512041126 
	-6.7872568810475276 13.611745383641662 5.3885558158296814 
	-6.7872568810475276 13.796362913668087 5.2116244762099573 
	-6.7872568810475276 13.928281055639932 5.1276750643723616 
	-6.7872568810475276 14.173001624084424 5.0300461451042233 
	-6.7872568810475276 14.329958106401735 5.0000000000000018 
	-6.7872568810475276 14.595348104200355 5.0000000000000018 
	-6.7872568810475276 14.751203525575407 5.0297080388247899 
	-6.7872568810475276 14.992646113875667 5.1269771715362999 
	-6.7872568810475276 15.12180725647314 5.2102863544977485 
	-6.7872568810475276 15.30262368524226 5.3863469083252475 
	-6.7872568810475276 15.387327643478292 5.5091098150160178 
	-6.7872568810475276 15.483383900277632 5.7354591576191112 
	-6.7872568810475276 15.512684705641329 5.878403183181538 
	-6.7872568810475276 15.512684705641329 6.0000000000000036 
	0.002260061334826223 
	torus -9.2872568810475293 7.1274297900171169 6.0000000000000036 2.7786242854110998e-018 6.1629758220391547e-033 -1 7.75 -1 -1 1.387778780781446e-017 -2.7786242854110998e-018 forward_v I I I I 
	plane -6.7872568810475276 13.054805262999169 10.000000000000004 1 -1.3877787807798148e-017 2.7786242854121217e-018 -2.7786242854121216e-017 -6.1629758220391405e-032 10 reverse_v I I I I 
	nullbs 
	nullbs 
	I I 
	0 
	0 
	0 
	} I I #
loop $-1 $-1 $294 $188 #
coedge $-1 $244 $244 $295 $296 forward $187 $-1 #
face $-1 $297 $298 $8 $-1 $299 forward single #
cone-surface $-1 -9.2872568810475293 7.1274297900171169 16.000000000000007 2.7786242854110998e-018 6.1629758220391547e-033 -1 6.75 -9.3675067702747608e-017 1.8755713926524924e-017 1 I I 0 1 6.75 forward I I I I #
coedge $-1 $192 $191 $300 $301 reversed $77 $-1 #
edge $-1 $302 $241 $229 $303 forward #
coedge $-1 $304 $194 $192 $250 forward $252 $-1 #
edge $-1 $196 $305 $249 $306 forward #
coedge $-1 $194 $304 $289 $307 forward $252 $-1 #
loop $-1 $-1 $251 $256 #
vertex $-1 $195 $308 #
straight-curve $-1 -9.2872568810475293 46.575850703876462 13.000000000000004 -10 1.3877787807814459e-016 -2.7786242854110998e-017 I I #
point $-1 -6.7872568810475267 46.575850703876462 13.000000000000004 #
face $-1 $309 $252 $8 $-1 $310 forward single #
loop $-1 $-1 $311 $199 #
plane-surface $-1 -9.2872568810475293 25.877429790017121 7.0000000000000018 -4.7733006324331872e-018 -0.51551769908140499 -0.85687893073281596 -10 1.3877787807814459e-016 -2.7786242854110998e-017 forward_v I I I I #
face $-1 $-1 $210 $6 $-1 $312 forward single #
coedge $-1 $264 $313 $207 $266 forward $202 $-1 #
coedge $-1 $261 $261 $205 $262 reversed $271 $-1 #
edge $-1 $314 $314 $205 $315 forward #
coedge $-1 $207 $206 $274 $316 reversed $96 $-1 #
coedge $-1 $313 $260 $206 $265 forward $202 $-1 #
edge $-1 $317 $268 $264 $318 forward #
edge $-1 $269 $317 $260 $318 forward #
coedge $-1 $208 $208 $313 $319 reversed $204 $-1 #
vertex $-1 $319 $320 #
vertex $-1 $266 $321 #
ellipse-curve $-1 -9.2872568810475329 7.1274297900171177 7.0000000000000027 0 -0.70710678118654768 0.70710678118654746 0 -10 -10.000000000000002 0.70710678118654746 I I #
loop $-1 $-1 $261 $259 #
point $-1 -2.2872568810475311 7.1274297900171195 58.000000000000007 #
point $-1 -16.287256881047533 7.1274297900171195 23.000000000000004 #
coedge $-1 $274 $274 $263 $316 forward $215 $-1 #
loop $-1 $322 $284 $217 #
cone-surface $-1 -9.2872568810475169 7.1274297900171124 57.999999999999986 0 0 -1.0000000000000002 6.7909581977488456 -1.6979065805949933 0 1 I I 0 1 7.0000000000000009 forward I I I I #
loop $-1 $-1 $221 $158 #
coedge $-1 $278 $278 $323 $324 forward $218 $-1 #
vertex $-1 $222 $325 #
ellipse-curve $-1 -9.2872568810475169 7.1274297900171124 58.000000000000014 0 0 1.0000000000000002 -5.8208213123561539 1.4553484976528517 0 1 I I #
vertex $-1 $223 $326 #
ellipse-curve $-1 -9.2872568810475169 7.1274297900171124 72.000000000000014 0 0 1.0000000000000002 -5.8208213123561539 1.4553484976528517 0 1 I I #
point $-1 -4.1726374675846865 5.8486491369074844 74.000000000000028 #
coedge $-1 $284 $284 $226 $285 forward $275 $-1 #
edge $-1 $327 $327 $284 $328 forward #
coedge $-1 $229 $228 $329 $330 reversed $118 $-1 #
edge $-1 $238 $331 $228 $332 forward #
ellipse-curve $-1 -9.2872568810475293 7.1274297900171169 7.0000000000000036 2.7786242854110998e-018 6.1629758220391547e-033 -1 7.4490311038796679e-016 7.75 4.9832868493605727e-032 1 I I #
coedge $-1 $291 $231 $251 $307 reversed $170 $-1 #
straight-curve $-1 -11.787256881047529 12.232180735981224 13.000000000000005 -1.3877787807814462e-016 -10 1.3496108955683199e-014 F -3.4343669967895236 F 0 #
coedge $-1 $237 $289 $311 $333 reversed $170 $-1 #
point $-1 -11.787256881047529 14.463130165577722 7.0000000000000036 #
point $-1 -6.7872568810475293 14.463130165577722 7.0000000000000036 #
coedge $-1 $294 $294 $334 $335 reversed $243 $-1 #
coedge $-1 $295 $295 $244 $296 reversed $336 $-1 #
edge $-1 $337 $337 $244 $338 forward #
face $-1 $-1 $339 $8 $-1 $340 reversed single #
loop $-1 $336 $341 $245 #
plane-surface $-1 -9.9008932446838926 7.127429790017116 1.0000000000000053 2.7786242854110998e-018 6.1629758220391547e-033 -1 -10 1.3877787807814459e-016 -2.7786242854110998e-017 forward_v I I I I #
coedge $-1 $329 $342 $247 $301 forward $257 $-1 #
edge $-1 $305 $302 $300 $343 forward #
vertex $-1 $330 $344 #
straight-curve $-1 -6.7872568810475293 13.87742979001712 7.0000000000000036 -1.3877787807814459e-016 -10 -6.2015369802697299e-032 F -1.2000000000000002 F 0.16452490540358977 #
coedge $-1 $251 $249 $342 $345 forward $252 $-1 #
vertex $-1 $345 $346 #
ellipse-curve $-1 -6.7872568810475284 44.027429790017116 5.4167585528479822 -1 1.387778780781446e-017 -2.7786242854110998e-018 1.4295465840344029e-017 2.5484209138593483 7.5832414471520213 1 F -5.2041704279304223e-016 F 3.359002197632182 #
edge $-1 $347 $253 $251 $348 forward #
point $-1 -11.787256881047528 46.575850703876462 13.000000000000004 #
face $-1 $188 $349 $8 $-1 $350 reversed single #
cone-surface $-1 -9.2872568810475293 44.027429790017116 5.4167585528479822 -1 1.387778780781446e-017 -2.7786242854110998e-018 1.4295465840344029e-017 2.5484209138593483 7.5832414471520213 1 I I 0 1 8 forward I I I I #
coedge $-1 $342 $329 $291 $333 forward $257 $-1 #
plane-surface $-1 -8.3781659719566228 7.1274297900171177 58.000000000000007 0 0 1 10 0 0 forward_v I I I I #
coedge $-1 $260 $264 $267 $319 forward $202 $-1 #
vertex $-1 $262 $351 #
ellipse-curve $-1 -9.2872568810475329 7.1274297900171177 58.000000000000007 0 0 -1 -10 0 0 1 I I #
edge $-1 $317 $317 $274 $352 forward #
vertex $-1 $265 $353 #
straight-curve $-1 -8.8327114265020779 0.12742979001711674 0 10 0 0 I I #
edge $-1 $268 $269 $313 $354 forward #
point $-1 -2.1458284525046825 0.12742979001711729 0 #
point $-1 -16.428685309590382 0.12742979001711729 0 #
loop $-1 $-1 $323 $217 #
coedge $-1 $323 $323 $278 $324 reversed $322 $-1 #
edge $-1 $355 $355 $278 $356 forward #
point $-1 -3.466435568691363 5.6720812923642603 57.999999999999986 #
point $-1 -3.466435568691363 5.6720812923642603 72.000000000000014 #
vertex $-1 $285 $357 #
ellipse-curve $-1 -9.2872568810475169 7.1274297900171124 51.999999999999986 -7.7061505182158017e-031 3.0560937197045222e-031 1.0000000000000002 6.7909581977488456 -1.6979065805949933 5.7521107672365439e-030 1 I I #
coedge $-1 $311 $300 $286 $330 forward $257 $-1 #
edge $-1 $302 $331 $329 $358 forward #
vertex $-1 $330 $359 #
straight-curve $-1 -11.787256881047529 25.877429790017121 7.0000000000000018 1.3877787807814459e-016 10 -1.850371707708594e-015 F -1.3645249054035899 F 0 #
edge $-1 $331 $347 $311 $360 forward #
coedge $-1 $334 $334 $294 $335 forward $361 $-1 #
edge $-1 $362 $362 $334 $363 forward #
loop $-1 $-1 $295 $245 #
vertex $-1 $296 $364 #
ellipse-curve $-1 -9.2872568810475293 7.1274297900171169 1.0000000000000053 -2.7786242854110998e-018 -6.1629758220391547e-033 1 6.75 -9.3675067702747608e-017 1.8755713926524924e-017 1 I I #
loop $-1 $361 $365 $297 #
plane-surface $-1 -9.9008932446838926 7.127429790017116 16.000000000000007 2.7786242854110998e-018 6.1629758220391547e-033 -1 -10 1.3877787807814459e-016 -2.7786242854110998e-017 forward_v I I I I #
coedge $-1 $341 $341 $366 $367 forward $298 $-1 #
coedge $-1 $300 $311 $304 $345 reversed $257 $-1 #
straight-curve $-1 -6.7872568810475284 39.903288197365882 -1.438272893014545 -1.3324013975923807e-016 -8.56878930732816 5.1551769908140503 F 0 F 1.6368541580726728 #
point $-1 -6.7872568810475276 25.877429790017121 7.0000000000000018 #
edge $-1 $305 $347 $304 $368 forward #
point $-1 -6.7872568810475267 39.903288197365882 -1.438272893014545 #
vertex $-1 $345 $369 #
ellipse-curve $-1 -11.787256881047529 44.027429790017116 5.4167585528479822 1 -1.387778780781446e-017 2.7786242854110998e-018 1.4295465840344029e-017 2.5484209138593483 7.5832414471520213 1 F -3.359002197632182 F 5.2041704279304223e-016 #
loop $-1 $370 $366 $309 #
cone-surface $-1 -9.2872568810475293 7.1274297900171169 16.000000000000007 2.7786242854110998e-018 6.1629758220391547e-033 -1 4 -5.5511151231257852e-017 1.1114497141644401e-017 1 I I 0 1 4 forward I I I I #
point $-1 0.712743118952468 7.1274297900171195 58.000000000000007 #
ellipse-curve $-1 -9.2872568810475329 7.1274297900171177 7.0000000000000027 0 0.70710678118654768 -0.70710678118654746 0 -7.0000000000000009 -7.0000000000000027 0.70710678118654735 I I #
point $-1 -9.2872568810475329 0.12742979001711729 0 #
ellipse-curve $-1 -9.2872568810475329 7.1274297900171177 0 0 0 -1 -10 0 0 1 I I #
vertex $-1 $324 $371 #
ellipse-curve $-1 -9.2872568810475169 7.1274297900171124 57.999999999999986 -7.7061505182158017e-031 3.0560937197045222e-031 1.0000000000000002 6.7909581977488456 -1.6979065805949933 5.7521107672365439e-030 1 I I #
point $-1 -16.078215078796362 8.8253363706121064 51.999999999999964 #
straight-curve $-1 -9.2872568810475293 25.877429790017121 7.0000000000000018 -10 1.3877787807814459e-016 -2.7786242854110998e-017 I I #
point $-1 -11.787256881047528 25.877429790017121 7.0000000000000018 #
straight-curve $-1 -11.787256881047529 39.903288197365882 -1.438272893014545 1.3324013975923807e-016 8.56878930732816 -5.1551769908140503 F -1.6368541580726728 F 0 #
loop $-1 $-1 $334 $297 #
vertex $-1 $335 $372 #
ellipse-curve $-1 -9.2872568810475293 7.1274297900171169 16.000000000000007 -2.7786242854110998e-018 -6.1629758220391547e-033 1 6.75 -9.3675067702747608e-017 1.8755713926524924e-017 1 I I #
point $-1 -16.037256881047529 7.1274297900171177 1.0000000000000053 #
coedge $-1 $365 $365 $373 $374 forward $339 $-1 #
coedge $-1 $366 $366 $341 $367 reversed $349 $-1 #
edge $-1 $375 $375 $341 $376 forward #
straight-curve $-1 -9.2872568810475293 39.903288197365882 -1.438272893014545 -10 1.3877787807814459e-016 -2.7786242854110998e-017 I I #
point $-1 -11.787256881047528 39.903288197365882 -1.438272893014545 #
loop $-1 $-1 $373 $309 #
point $-1 -16.078215078796362 8.8253363706121064 57.999999999999986 #
point $-1 -16.037256881047529 7.1274297900171177 16.000000000000007 #
coedge $-1 $373 $373 $365 $374 reversed $370 $-1 #
edge $-1 $377 $377 $365 $378 forward #
vertex $-1 $367 $379 #
ellipse-curve $-1 -9.2872568810475293 7.1274297900171169 1.0000000000000053 -2.7786242854110998e-018 -6.1629758220391547e-033 1 4 -5.5511151231257852e-017 1.1114497141644401e-017 1 I I #
vertex $-1 $374 $380 #
ellipse-curve $-1 -9.2872568810475293 7.1274297900171169 16.000000000000007 2.7786242854110998e-018 6.1629758220391547e-033 -1 4 -5.5511151231257852e-017 1.1114497141644401e-017 1 I I #
point $-1 -13.287256881047529 7.1274297900171169 1.0000000000000053 #
point $-1 -13.287256881047529 7.1274297900171169 16.000000000000007 #
End-of-ACIS-data 