400 0 3 0           
28 Autodesk Inventor 6.0.0.9000 16 ASM 6.0.0.192 NT 24 Tue Jan 13 15:50:24 2004 
1 9.9999999999999995e-007 1e-010 
body $-1 $3 $-1 $-1 #
body $-1 $4 $-1 $-1 #
body $-1 $5 $-1 $-1 #
lump $-1 $-1 $6 $0 #
lump $-1 $-1 $7 $1 #
lump $-1 $-1 $8 $2 #
shell $-1 $-1 $-1 $9 $-1 $3 #
shell $-1 $-1 $-1 $10 $-1 $4 #
shell $-1 $-1 $-1 $11 $-1 $5 #
face $-1 $12 $13 $6 $-1 $14 forward single #
face $-1 $15 $16 $7 $-1 $17 reversed single #
face $-1 $18 $19 $8 $-1 $20 reversed single #
face $-1 $21 $22 $6 $-1 $23 forward single #
loop $-1 $24 $25 $9 #
cone-surface $-1 168.07078998092098 189.09414634492947 0 -6.530226095319018e-014 1 0 -6.0000000000109921 -3.9099889160000549e-013 0 1 I I 0 1 6.0000000000109921 forward I I I I #
face $-1 $26 $27 $7 $-1 $28 reversed single #
loop $-1 $29 $30 $10 #
cone-surface $-1 168.07078998092265 164.11394169607902 2.0280366966841023e-067 6.5141514846175745e-014 -1 -1.1015117475633368e-069 -5.7166289900300162 -3.7238987222411891e-013 -1.0363702438494107e-072 1 I I -0.86602540378443871 0.49999999999999994 5.7166289900300162 forward I I I I #
face $-1 $31 $32 $8 $-1 $33 reversed single #
loop $-1 $34 $35 $11 #
cone-surface $-1 168.07078998092149 183.113941696079 -5.2575858605174682e-041 6.5080284528484626e-014 -1 2.5884955531311205e-043 -5.7166289900300162 -3.7203984121493715e-013 -8.5730039575777707e-032 1 I I -0.86602540378443871 0.49999999999999994 5.7166289900300162 forward I I I I #
face $-1 $36 $37 $6 $-1 $38 forward single #
loop $-1 $39 $40 $12 #
cone-surface $-1 168.07078998091822 231.59414634488593 0 -6.530226095319018e-014 1 0 -5.5500000000569827 -3.6167397473305587e-013 0 1 I I -0.70710678118462589 0.70710678118846915 5.5500000000569827 forward I I I I #
loop $-1 $-1 $41 $9 #
coedge $-1 $25 $25 $42 $43 reversed $13 $-1 #
face $-1 $44 $45 $7 $-1 $46 reversed single #
loop $-1 $47 $48 $15 #
plane-surface $-1 162.35416099089261 164.49727134484209 2.0322487540946868e-067 -6.5141514846175745e-014 1 1.1015117475633368e-069 1.8129045023678848e-073 1.101511747563337e-069 -1 forward_v I I I I #
loop $-1 $-1 $49 $10 #
coedge $-1 $30 $30 $50 $51 reversed $16 $-1 #
face $-1 $52 $53 $8 $-1 $54 reversed single #
loop $-1 $55 $56 $18 #
plane-surface $-1 162.35416099089144 183.49727134484209 -8.5730039628452801e-032 -6.5080284528484626e-014 1 -2.5884955531311205e-043 1.4996607218221374e-032 -2.5787357184838828e-043 -1 forward_v I I I I #
loop $-1 $-1 $57 $11 #
coedge $-1 $35 $35 $58 $59 reversed $19 $-1 #
face $-1 $60 $61 $6 $-1 $62 forward single #
loop $-1 $-1 $63 $21 #
plane-surface $-1 165.52078998086671 232.04414634484226 0 -6.530226095319018e-014 1 0 0 0 10 forward_v I I I I #
loop $-1 $-1 $42 $12 #
coedge $-1 $40 $40 $63 $64 reversed $22 $-1 #
coedge $-1 $41 $41 $65 $66 forward $24 $-1 #
coedge $-1 $42 $42 $25 $43 forward $39 $-1 #
edge $-1 $67 $67 $42 $68 forward #
face $-1 $69 $70 $7 $-1 $71 reversed single #
loop $-1 $72 $73 $26 #
cone-surface $-1 168.07078998092297 159.31758384484243 1.9752042514975555e-067 6.5141514846175745e-014 -1 -1.1015117475633368e-069 5.5263923573054115 3.5999756978920264e-013 1.0018821590375862e-072 1 I I 0.86602540378443138 0.50000000000001255 5.5263923573054115 forward I I I I #
loop $-1 $-1 $74 $15 #
coedge $-1 $48 $48 $75 $76 forward $27 $-1 #
coedge $-1 $49 $49 $74 $77 reversed $29 $-1 #
coedge $-1 $50 $50 $30 $51 forward $78 $-1 #
edge $-1 $79 $79 $50 $80 forward #
face $-1 $81 $82 $8 $-1 $83 reversed single #
loop $-1 $84 $85 $31 #
cone-surface $-1 168.07078998092177 178.31758384484243 -5.1334323508259541e-041 6.5080284528484626e-014 -1 2.5884955531311205e-043 5.5263923573054115 3.5965918702947907e-013 8.287713551628978e-032 1 I I 0.86602540378443138 0.50000000000001255 5.5263923573054115 forward I I I I #
loop $-1 $-1 $86 $18 #
coedge $-1 $56 $56 $87 $88 forward $32 $-1 #
coedge $-1 $57 $57 $86 $89 reversed $34 $-1 #
coedge $-1 $58 $58 $35 $59 forward $90 $-1 #
edge $-1 $91 $91 $58 $92 forward #
face $-1 $93 $94 $6 $-1 $95 forward single #
loop $-1 $-1 $96 $36 #
plane-surface $-1 163.32078998092499 127.04414634484216 0 6.530226095319018e-014 -1 0 0 0 -10 forward_v I I I I #
coedge $-1 $63 $63 $40 $64 forward $37 $-1 #
edge $-1 $97 $97 $63 $98 forward #
coedge $-1 $65 $65 $41 $66 reversed $99 $-1 #
edge $-1 $100 $100 $41 $101 forward #
vertex $-1 $43 $102 #
ellipse-curve $-1 168.07078998091822 231.14414634492945 0 -6.530226095319018e-014 1 0 -6.0000000000109921 -3.9099889160000549e-013 0 1 I I #
face $-1 $103 $104 $7 $-1 $105 forward single #
loop $-1 $106 $75 $44 #
cone-surface $-1 168.07078998092263 164.77070884484246 2.0352710639818684e-067 6.5141514846175745e-014 -1 -1.1015117475633368e-069 5.5263923573054399 3.599975697892045e-013 1.0018821590375912e-072 1 I I -0.86602540378443615 0.50000000000000433 5.5263923573054399 forward I I I I #
loop $-1 $-1 $107 $26 #
coedge $-1 $73 $73 $108 $109 reversed $45 $-1 #
coedge $-1 $74 $74 $49 $77 forward $47 $-1 #
coedge $-1 $75 $75 $48 $76 reversed $70 $-1 #
edge $-1 $110 $110 $75 $111 forward #
edge $-1 $112 $112 $49 $113 forward #
loop $-1 $114 $50 $115 #
vertex $-1 $51 $116 #
ellipse-curve $-1 168.07078998092265 163.73067102496577 2.0238149252168252e-067 -6.5141514846175745e-014 1 1.1015117475633368e-069 5.0527847146108513 3.2914605050135264e-013 9.1602161622392205e-073 1 I I #
face $-1 $117 $118 $8 $-1 $119 forward single #
loop $-1 $120 $87 $52 #
cone-surface $-1 168.07078998092146 183.77070884484243 -5.2745862489576361e-041 6.5080284528484626e-014 -1 2.5884955531311205e-043 5.5263923573054399 3.5965918702948089e-013 8.2877135516290196e-032 1 I I -0.86602540378443615 0.50000000000000433 5.5263923573054399 forward I I I I #
loop $-1 $-1 $121 $31 #
coedge $-1 $85 $85 $122 $123 reversed $53 $-1 #
coedge $-1 $86 $86 $57 $89 forward $55 $-1 #
coedge $-1 $87 $87 $56 $88 reversed $82 $-1 #
edge $-1 $124 $124 $87 $125 forward #
edge $-1 $126 $126 $57 $127 forward #
loop $-1 $128 $58 $129 #
vertex $-1 $59 $130 #
ellipse-curve $-1 168.07078998092149 182.73067102496577 -5.2476649162392459e-041 -6.5080284528484626e-014 1 -2.5884955531311205e-043 5.0527847146108513 3.2883666688805222e-013 7.5774627723251719e-032 1 I I #
face $-1 $131 $132 $6 $-1 $133 forward single #
loop $-1 $134 $135 $60 #
cone-surface $-1 168.07078998092493 128.54414634484249 0 -6.530226095319018e-014 1 0 -9.5000000000000995 -6.1908157836554762e-013 0 1 I I 0 1 9.5000000000000995 forward I I I I #
coedge $-1 $96 $96 $136 $137 reversed $61 $-1 #
vertex $-1 $64 $138 #
ellipse-curve $-1 168.07078998091816 232.04414634484243 0 -6.530226095319018e-014 1 0 -5.1000000001029377 -3.3234905786610387e-013 0 1 I I #
loop $-1 $139 $65 $140 #
vertex $-1 $66 $141 #
ellipse-curve $-1 168.07078998092373 147.04414634492946 0 -6.530226095319018e-014 1 0 -6.000000000010921 -3.9099889160000089e-013 0 1 I I #
point $-1 162.07078998090722 231.14414634492906 0 #
face $-1 $142 $143 $7 $-1 $144 forward single #
loop $-1 $-1 $145 $69 #
plane-surface $-1 159.06845590858342 165.04414634484181 -5.1975000000000868 -1 -6.5141514846175745e-014 -2.7341711813759984e-015 2.7341711813759988e-015 1.781080526035905e-028 -1 forward_v I I I I #
loop $-1 $-1 $146 $44 #
coedge $-1 $107 $107 $147 $148 reversed $72 $-1 #
coedge $-1 $108 $108 $73 $109 forward $149 $-1 #
edge $-1 $150 $150 $108 $151 forward #
vertex $-1 $76 $152 #
ellipse-curve $-1 168.07078998092263 164.49727134484246 2.0322591177971252e-067 -6.5141514846175745e-014 1 1.1015117475633368e-069 5.0527847146108513 3.2914605050135264e-013 9.1602161622392205e-073 1 I I #
vertex $-1 $77 $153 #
ellipse-curve $-1 168.07078998092263 164.49727134484249 2.0322591177971255e-067 6.5141514846175745e-014 -1 -1.1015117475633368e-069 -6.3805754177358676 -4.1564034830158498e-013 -1.1567373907089528e-072 1 I I #
loop $-1 $-1 $147 $115 #
face $-1 $154 $78 $7 $-1 $155 forward single #
point $-1 163.01800526631183 163.73067102496543 2.023805765000663e-067 #
face $-1 $156 $157 $8 $-1 $158 forward single #
loop $-1 $-1 $159 $81 #
plane-surface $-1 159.06845590858225 184.04414634484183 -5.1975000000000868 -1 -6.5080284528484626e-014 -2.7341711813759984e-015 2.7341711813759988e-015 1.779406384335327e-028 -1 forward_v I I I I #
loop $-1 $-1 $160 $52 #
coedge $-1 $121 $121 $161 $162 reversed $84 $-1 #
coedge $-1 $122 $122 $85 $123 forward $163 $-1 #
edge $-1 $164 $164 $122 $165 forward #
vertex $-1 $88 $166 #
ellipse-curve $-1 168.07078998092146 183.49727134484243 -5.2675083314295433e-041 -6.5080284528484626e-014 1 -2.5884955531311205e-043 5.0527847146108513 3.2883666688805222e-013 7.5774627723251719e-032 1 I I #
vertex $-1 $89 $167 #
ellipse-curve $-1 168.07078998092146 183.49727134484249 -5.2675083314295433e-041 6.5080284528484626e-014 -1 2.5884955531311205e-043 -6.3805754177358676 -4.1524966364170491e-013 -9.568698336602357e-032 1 I I #
loop $-1 $-1 $161 $129 #
face $-1 $168 $90 $8 $-1 $169 forward single #
point $-1 163.01800526631067 182.7306710249654 -7.5774627775728365e-032 #
face $-1 $170 $171 $6 $-1 $172 forward single #
loop $-1 $173 $174 $93 #
torus-surface $-1 168.07078998092391 144.49053618939638 0 -6.530226095319018e-014 1 0 29.773706252138751 -24.894203034819888 0 0 1 forward_v I I I I #
loop $-1 $-1 $136 $60 #
coedge $-1 $135 $135 $175 $176 reversed $94 $-1 #
coedge $-1 $136 $136 $96 $137 forward $134 $-1 #
edge $-1 $177 $177 $136 $178 forward #
point $-1 162.97078998081525 232.04414634484209 0 #
loop $-1 $-1 $179 $140 #
face $-1 $-1 $99 $6 $-1 $180 forward single #
point $-1 162.07078998091279 147.04414634492909 0 #
face $-1 $181 $182 $7 $-1 $183 forward single #
loop $-1 $-1 $184 $103 #
plane-surface $-1 168.0707899809226 165.04414634484243 -10.394999999999989 -0.49999999999999656 -3.2570757423087645e-014 -0.86602540378444071 -6.5141514846175745e-014 1 1.101511747563337e-069 forward_v I I I I #
coedge $-1 $185 $186 $187 $188 reversed $104 $-1 #
coedge $-1 $146 $146 $189 $190 reversed $106 $-1 #
coedge $-1 $147 $147 $107 $148 forward $114 $-1 #
edge $-1 $191 $191 $147 $192 forward #
loop $-1 $193 $108 $194 #
vertex $-1 $109 $195 #
ellipse-curve $-1 168.07078998092297 159.04414634484243 1.9721923053128119e-067 -6.5141514846175745e-014 1 1.1015117475633368e-069 6.0000000000000107 3.9084908907705515e-013 1.0877427018512575e-072 1 I I #
point $-1 173.12357469553351 164.4972713448428 2.0322682780132873e-067 #
point $-1 161.69021456318677 164.49727134484206 2.0322475504232184e-067 #
face $-1 $196 $197 $7 $-1 $198 forward single #
cone-surface $-1 168.0707899809228 162.04414634484243 2.0052376577397118e-067 6.5141514846175745e-014 -1 -1.1015117475633368e-069 5.0527847146108513 3.2914605050135264e-013 9.1602161622392205e-073 1 I I 0 -1 5.0527847146108513 forward I I I I #
face $-1 $199 $200 $8 $-1 $201 forward single #
loop $-1 $-1 $202 $117 #
plane-surface $-1 168.0707899809214 184.0441463448424 -10.394999999999989 -0.49999999999999656 -3.2540142264242092e-014 -0.86602540378444071 -6.5080284528484626e-014 1 -2.5884955531311205e-043 forward_v I I I I #
coedge $-1 $203 $204 $205 $206 reversed $118 $-1 #
coedge $-1 $160 $160 $207 $208 reversed $120 $-1 #
coedge $-1 $161 $161 $121 $162 forward $128 $-1 #
edge $-1 $209 $209 $161 $210 forward #
loop $-1 $211 $122 $212 #
vertex $-1 $123 $213 #
ellipse-curve $-1 168.0707899809218 178.04414634484243 -5.1263544332978613e-041 -6.5080284528484626e-014 1 -2.5884955531311205e-043 6.0000000000000107 3.9048170717090849e-013 8.9979643309328411e-032 1 I I #
point $-1 173.12357469553234 183.4972713448428 7.5774627670577063e-032 #
point $-1 161.69021456318561 183.49727134484203 -9.5686983418698478e-032 #
face $-1 $214 $215 $8 $-1 $216 forward single #
cone-surface $-1 168.07078998092157 181.04414634484243 -5.2040092998917961e-041 6.5080284528484626e-014 -1 2.5884955531311205e-043 5.0527847146108513 3.2883666688805222e-013 7.5774627723251719e-032 1 I I 0 -1 5.0527847146108513 forward I I I I #
face $-1 $217 $218 $6 $-1 $219 forward single #
loop $-1 $220 $221 $131 #
cone-surface $-1 168.07078998092402 142.54414634484266 0 -6.530226095319018e-014 1 0 -4.5000000000016627 -2.9324916869957522e-013 0 1 I I -0.707106781184628 0.70710678118846715 4.5000000000016627 forward I I I I #
loop $-1 $-1 $175 $93 #
coedge $-1 $174 $174 $222 $223 reversed $132 $-1 #
coedge $-1 $175 $175 $135 $176 forward $173 $-1 #
edge $-1 $224 $224 $175 $225 forward #
vertex $-1 $137 $226 #
ellipse-curve $-1 168.07078998092504 127.04414634484246 0 -6.530226095319018e-014 1 0 -9.5000000000001172 -6.1908157836554883e-013 0 1 I I #
coedge $-1 $179 $179 $227 $228 forward $139 $-1 #
cone-surface $-1 168.07078998092379 145.79414634493284 0 -6.530226095319018e-014 1 0 -4.7500000000075104 -3.0954078918326e-013 0 1 I I 0.70710678118846582 0.70710678118462922 4.7500000000075104 forward I I I I #
face $-1 $229 $230 $7 $-1 $231 forward single #
loop $-1 $-1 $232 $142 #
plane-surface $-1 177.07312405326178 165.04414634484303 -5.1975000000000868 0.49999999999999539 3.257075742308757e-014 -0.86602540378444137 -6.5141514846175745e-014 1 1.101511747563337e-069 forward_v I I I I #
coedge $-1 $233 $234 $235 $236 reversed $143 $-1 #
coedge $-1 $237 $145 $238 $239 reversed $104 $-1 #
coedge $-1 $145 $237 $233 $240 forward $104 $-1 #
coedge $-1 $235 $241 $145 $188 forward $242 $-1 #
edge $-1 $243 $244 $187 $245 forward #
coedge $-1 $189 $189 $146 $190 forward $197 $-1 #
edge $-1 $246 $246 $189 $247 forward #
vertex $-1 $148 $248 #
ellipse-curve $-1 168.07078998092294 159.59102134484243 1.9782161976822985e-067 6.5141514846175745e-014 -1 -1.1015117475633368e-069 5.0527847146108513 3.2914605050135264e-013 9.1602161622392205e-073 1 I I #
loop $-1 $-1 $249 $194 #
face $-1 $-1 $149 $7 $-1 $250 forward single #
point $-1 174.070789980923 159.04414634484283 1.9722031827398301e-067 #
face $-1 $251 $252 $7 $-1 $253 forward single #
loop $-1 $254 $189 $154 #
plane-surface $-1 174.74718233822801 165.04414634484283 2.0382951138283807e-067 -6.5141514846175745e-014 1 1.1015117475633368e-069 -1.8129045023678848e-073 -1.101511747563337e-069 1 forward_v I I I I #
face $-1 $255 $256 $8 $-1 $257 forward single #
loop $-1 $-1 $258 $156 #
plane-surface $-1 177.07312405326061 184.04414634484297 -5.1975000000000868 0.49999999999999539 3.254014226424201e-014 -0.86602540378444137 -6.5080284528484626e-014 1 -2.5884955531311205e-043 forward_v I I I I #
coedge $-1 $259 $260 $261 $262 reversed $157 $-1 #
coedge $-1 $263 $159 $264 $265 reversed $118 $-1 #
coedge $-1 $159 $263 $259 $266 forward $118 $-1 #
coedge $-1 $261 $267 $159 $206 forward $268 $-1 #
edge $-1 $269 $270 $205 $271 forward #
coedge $-1 $207 $207 $160 $208 forward $215 $-1 #
edge $-1 $272 $272 $207 $273 forward #
vertex $-1 $162 $274 #
ellipse-curve $-1 168.07078998092177 178.59102134484237 -5.1405102683540469e-041 6.5080284528484626e-014 -1 2.5884955531311205e-043 5.0527847146108513 3.2883666688805222e-013 7.5774627723251719e-032 1 I I #
loop $-1 $-1 $275 $212 #
face $-1 $-1 $163 $8 $-1 $276 forward single #
point $-1 174.0707899809218 178.04414634484283 8.9979643258064731e-032 #
face $-1 $277 $278 $8 $-1 $279 forward single #
loop $-1 $280 $207 $168 #
plane-surface $-1 174.74718233822685 184.04414634484283 1.0012323376442823e-031 -6.5080284528484626e-014 1 -2.5884955531311205e-043 -1.4996607218221374e-032 2.5787357184838828e-043 1 forward_v I I I I #
face $-1 $140 $281 $6 $-1 $282 forward single #
loop $-1 $283 $284 $170 #
plane-surface $-1 164.32078998091987 143.04414634484266 0 -6.530226095319018e-014 1 0 0 0 10 forward_v I I I I #
loop $-1 $-1 $222 $131 #
coedge $-1 $221 $221 $285 $286 reversed $171 $-1 #
coedge $-1 $222 $222 $174 $223 forward $220 $-1 #
edge $-1 $287 $287 $222 $288 forward #
vertex $-1 $176 $289 #
ellipse-curve $-1 168.07078998092481 130.04414634484249 0 -6.530226095319018e-014 1 0 -9.5000000000000995 -6.1908157836554762e-013 0 1 I I #
point $-1 158.57078998092493 127.04414634484183 0 #
coedge $-1 $227 $227 $179 $228 reversed $281 $-1 #
edge $-1 $290 $290 $179 $291 forward #
face $-1 $292 $293 $7 $-1 $294 forward single #
loop $-1 $-1 $295 $181 #
plane-surface $-1 159.06845590858342 165.04414634484181 5.1975000000000984 -0.49999999999999512 -3.2570757423087557e-014 0.86602540378444148 6.5141514846175745e-014 -1 -1.101511747563337e-069 forward_v I I I I #
coedge $-1 $296 $297 $298 $299 reversed $182 $-1 #
coedge $-1 $300 $184 $186 $240 reversed $143 $-1 #
coedge $-1 $184 $300 $296 $301 forward $143 $-1 #
coedge $-1 $298 $187 $184 $236 forward $242 $-1 #
edge $-1 $244 $302 $235 $303 forward #
coedge $-1 $186 $185 $304 $305 reversed $104 $-1 #
coedge $-1 $295 $306 $185 $239 forward $230 $-1 #
edge $-1 $307 $243 $238 $308 forward #
edge $-1 $309 $244 $186 $310 forward #
coedge $-1 $187 $311 $295 $312 forward $242 $-1 #
loop $-1 $313 $314 $251 #
vertex $-1 $239 $315 #
vertex $-1 $240 $316 #
intcurve-curve $-1 forward { exactcur nurbs 2 open 2 
	0 2 10.518652457171747 2 
	159.0684559085837 160.25369515879413 5.1975000000001828 1 
	159.06845590858384 158.75330614673746 -1.9095836023552692e-014 1.1547005383792912 
	159.06845590858376 160.25369515879413 -5.1975000000002218 1 
	0 
	null_surface 
	null_surface 
	nullbs 
	nullbs 
	I I 
	0 
	0 
	0 
	F 1 F 0 } I I #
vertex $-1 $190 $317 #
ellipse-curve $-1 168.0707899809226 165.04414634484243 2.0382830101666117e-067 6.5141514846175745e-014 -1 -1.1015117475633368e-069 6.0000000000000009 3.9084908907705455e-013 1.0877427018512557e-072 1 I I #
point $-1 173.12357469553379 159.59102134484274 1.9782253578984606e-067 #
coedge $-1 $249 $249 $318 $319 forward $193 $-1 #
plane-surface $-1 174.74718233822838 159.04414634484289 1.9722044089745806e-067 6.5141514846175745e-014 -1 -1.1015117475633368e-069 1.8129045023678848e-073 1.101511747563337e-069 -1 forward_v I I I I #
face $-1 $194 $242 $7 $-1 $320 forward single #
loop $-1 $321 $322 $196 #
cone-surface $-1 168.07078998092263 164.43937193786627 2.0316213490275131e-067 6.5141514846175745e-014 -1 -1.1015117475633368e-069 9.3474999999999966 6.0891031002462764e-013 1.6946124842591013e-072 1 I I 0.86602540378444348 0.49999999999999184 9.3474999999999966 forward I I I I #
loop $-1 $-1 $323 $154 #
face $-1 $324 $325 $8 $-1 $326 forward single #
loop $-1 $-1 $327 $199 #
plane-surface $-1 159.06845590858222 184.04414634484183 5.1975000000000984 -0.49999999999999512 -3.2540142264241998e-014 0.86602540378444148 6.5080284528484626e-014 -1 2.5884955531311205e-043 forward_v I I I I #
coedge $-1 $328 $329 $330 $331 reversed $200 $-1 #
coedge $-1 $332 $202 $204 $266 reversed $157 $-1 #
coedge $-1 $202 $332 $328 $333 forward $157 $-1 #
coedge $-1 $330 $205 $202 $262 forward $268 $-1 #
edge $-1 $270 $334 $261 $335 forward #
coedge $-1 $204 $203 $336 $337 reversed $118 $-1 #
coedge $-1 $327 $338 $203 $265 forward $256 $-1 #
edge $-1 $339 $269 $264 $340 forward #
edge $-1 $341 $270 $204 $342 forward #
coedge $-1 $205 $343 $327 $344 forward $268 $-1 #
loop $-1 $345 $346 $277 #
vertex $-1 $265 $347 #
vertex $-1 $266 $348 #
intcurve-curve $-1 forward { exactcur nurbs 2 open 2 
	0 2 10.518652457171747 2 
	159.06845590858254 179.2536951587941 5.1975000000001828 1 
	159.06845590858265 177.75330614673746 -1.9095836023552692e-014 1.1547005383792912 
	159.06845590858256 179.2536951587941 -5.1975000000002218 1 
	0 
	null_surface 
	null_surface 
	nullbs 
	nullbs 
	I I 
	0 
	0 
	0 
	F 1 F 0 } I I #
vertex $-1 $208 $349 #
ellipse-curve $-1 168.0707899809214 184.0441463448424 -5.2816641664857279e-041 6.5080284528484626e-014 -1 2.5884955531311205e-043 6.0000000000000009 3.9048170717090783e-013 8.9979643309328268e-032 1 I I #
point $-1 173.12357469553262 178.59102134484274 7.5774627671846618e-032 #
coedge $-1 $275 $275 $350 $351 forward $211 $-1 #
plane-surface $-1 174.74718233822722 178.04414634484286 1.001232337659809e-031 6.5080284528484626e-014 -1 2.5884955531311205e-043 1.4996607218221374e-032 -2.5787357184838828e-043 -1 forward_v I I I I #
face $-1 $212 $268 $8 $-1 $352 forward single #
loop $-1 $353 $354 $214 #
cone-surface $-1 168.07078998092146 183.43937193786627 -5.2660096078546758e-041 6.5080284528484626e-014 -1 2.5884955531311205e-043 9.3474999999999966 6.0833795963000987e-013 1.4018078597232426e-031 1 I I 0.86602540378444348 0.49999999999999184 9.3474999999999966 forward I I I I #
loop $-1 $-1 $355 $168 #
loop $-1 $356 $227 $217 #
cone-surface $-1 168.07078998092393 143.79414634488958 0 -6.530226095319018e-014 1 0 -3.5000000000041354 -2.2808268676652153e-013 0 1 I I 0 1 3.5000000000041354 forward I I I I #
loop $-1 $-1 $285 $170 #
coedge $-1 $284 $284 $357 $358 reversed $218 $-1 #
coedge $-1 $285 $285 $221 $286 forward $283 $-1 #
edge $-1 $359 $359 $285 $360 forward #
vertex $-1 $223 $361 #
ellipse-curve $-1 168.07078998092405 142.0441463448424 0 -6.530226095319018e-014 1 0 -4.9999999999991829 -3.2583240966602108e-013 0 1 I I #
point $-1 158.57078998092473 130.04414634484186 0 #
vertex $-1 $228 $362 #
ellipse-curve $-1 168.07078998092391 144.54414634493622 0 -6.530226095319018e-014 1 0 -3.5000000000041354 -2.2808268676652153e-013 0 1 I I #
face $-1 $115 $363 $7 $-1 $364 forward single #
loop $-1 $-1 $365 $229 #
plane-surface $-1 168.0707899809226 165.04414634484243 10.394999999999996 0.49999999999999589 3.2570757423087608e-014 0.86602540378444104 6.5141514846175745e-014 -1 -1.101511747563337e-069 forward_v I I I I #
coedge $-1 $366 $238 $241 $312 reversed $230 $-1 #
coedge $-1 $367 $232 $234 $301 reversed $182 $-1 #
coedge $-1 $232 $367 $368 $369 reversed $182 $-1 #
coedge $-1 $314 $235 $232 $299 forward $242 $-1 #
edge $-1 $302 $370 $298 $371 forward #
coedge $-1 $234 $233 $372 $373 reversed $143 $-1 #
edge $-1 $374 $302 $234 $375 forward #
vertex $-1 $301 $376 #
intcurve-curve $-1 forward { exactcur nurbs 2 open 2 
	0 2 10.518652457171438 2 
	159.06845590858364 160.25369515879413 -5.1975000000000158 1 
	163.56962294475341 158.75330614673783 -7.796250000000029 1.1547005383792566 
	168.07078998092297 160.25369515879473 -10.39500000000004 1 
	0 
	null_surface 
	null_surface 
	nullbs 
	nullbs 
	I I 
	0 
	0 
	0 
	F 1 F 0 } I I #
coedge $-1 $377 $372 $237 $305 forward $252 $-1 #
edge $-1 $309 $307 $304 $378 forward #
coedge $-1 $238 $366 $377 $379 reversed $230 $-1 #
vertex $-1 $305 $380 #
straight-curve $-1 159.06845590858359 162.04414634484186 5.1975000000001348 6.5141514846175745e-014 -1 -1.101511747563337e-069 I I #
vertex $-1 $373 $381 #
straight-curve $-1 159.06845590858356 162.04414634484186 -5.1975000000000451 6.5141514846175745e-014 -1 -1.101511747563337e-069 I I #
coedge $-1 $241 $314 $365 $382 forward $242 $-1 #
edge $-1 $383 $243 $241 $384 forward #
loop $-1 $-1 $318 $251 #
coedge $-1 $311 $298 $385 $386 forward $242 $-1 #
point $-1 159.0684559085837 160.25369515879413 5.1975000000001348 #
point $-1 159.0684559085837 160.25369515879413 -5.1975000000000451 #
point $-1 174.0707899809226 165.0441463448428 2.0382938875936299e-067 #
coedge $-1 $318 $318 $249 $319 reversed $313 $-1 #
edge $-1 $387 $387 $249 $388 forward #
cone-surface $-1 168.07078998092294 159.64892075181854 1.9788539664519102e-067 6.5141514846175745e-014 -1 -1.1015117475633368e-069 9.3474999999999966 6.0891031002462764e-013 1.6946124842591013e-072 1 I I -0.86602540378443615 0.50000000000000433 9.3474999999999966 forward I I I I #
loop $-1 $-1 $389 $196 #
coedge $-1 $372 $390 $367 $391 forward $252 $-1 #
coedge $-1 $323 $323 $389 $392 reversed $254 $-1 #
face $-1 $129 $393 $8 $-1 $394 forward single #
loop $-1 $-1 $395 $255 #
plane-surface $-1 168.0707899809214 184.0441463448424 10.394999999999996 0.49999999999999589 3.2540142264242048e-014 0.86602540378444104 6.5080284528484626e-014 -1 2.5884955531311205e-043 forward_v I I I I #
coedge $-1 $396 $264 $267 $344 reversed $256 $-1 #
coedge $-1 $397 $258 $260 $333 reversed $200 $-1 #
coedge $-1 $258 $397 $398 $399 reversed $200 $-1 #
coedge $-1 $346 $261 $258 $331 forward $268 $-1 #
edge $-1 $334 $400 $330 $401 forward #
coedge $-1 $260 $259 $402 $403 reversed $157 $-1 #
edge $-1 $404 $334 $260 $405 forward #
vertex $-1 $333 $406 #
intcurve-curve $-1 forward { exactcur nurbs 2 open 2 
	0 2 10.518652457171438 2 
	159.06845590858245 179.2536951587941 -5.1975000000000158 1 
	163.56962294475224 177.7533061467378 -7.796250000000029 1.1547005383792566 
	168.0707899809218 179.2536951587947 -10.39500000000004 1 
	0 
	null_surface 
	null_surface 
	nullbs 
	nullbs 
	I I 
	0 
	0 
	0 
	F 1 F 0 } I I #
coedge $-1 $407 $402 $263 $337 forward $278 $-1 #
edge $-1 $341 $339 $336 $408 forward #
coedge $-1 $264 $396 $407 $409 reversed $256 $-1 #
vertex $-1 $337 $410 #
straight-curve $-1 159.06845590858242 181.04414634484186 5.1975000000001348 6.5080284528484626e-014 -1 2.5884955531311205e-043 I I #
vertex $-1 $403 $411 #
straight-curve $-1 159.06845590858239 181.04414634484186 -5.1975000000000451 6.5080284528484626e-014 -1 2.5884955531311205e-043 I I #
coedge $-1 $267 $346 $395 $412 forward $268 $-1 #
edge $-1 $413 $269 $267 $414 forward #
loop $-1 $-1 $350 $277 #
coedge $-1 $343 $330 $415 $416 forward $268 $-1 #
point $-1 159.06845590858254 179.2536951587941 5.1975000000001348 #
point $-1 159.06845590858251 179.2536951587941 -5.1975000000000451 #
point $-1 174.07078998092143 184.0441463448428 8.9979643256511621e-032 #
coedge $-1 $350 $350 $275 $351 reversed $345 $-1 #
edge $-1 $417 $417 $275 $418 forward #
cone-surface $-1 168.07078998092177 178.64892075181854 -5.1420089919289134e-041 6.5080284528484626e-014 -1 2.5884955531311205e-043 9.3474999999999966 6.0833795963000987e-013 1.4018078597232426e-031 1 I I -0.86602540378443615 0.50000000000000433 9.3474999999999966 forward I I I I #
loop $-1 $-1 $419 $214 #
coedge $-1 $402 $420 $397 $421 forward $278 $-1 #
coedge $-1 $355 $355 $419 $422 reversed $280 $-1 #
loop $-1 $-1 $357 $217 #
coedge $-1 $357 $357 $284 $358 forward $356 $-1 #
edge $-1 $423 $423 $357 $424 forward #
vertex $-1 $286 $425 #
ellipse-curve $-1 168.07078998092396 143.04414634484291 0 -6.530226095319018e-014 1 0 -4.0000000000041069 -2.6066592773312708e-013 0 1 I I #
point $-1 163.07078998092487 142.04414634484206 0 #
point $-1 164.57078998091976 144.544146344936 0 #
loop $-1 $-1 $385 $292 #
plane-surface $-1 177.07312405326178 165.04414634484303 5.1975000000000868 1 6.5141514846175745e-014 1.8129045030854258e-073 -1.8129045023678848e-073 -1.101511747563337e-069 1 forward_v I I I I #
coedge $-1 $426 $427 $311 $382 reversed $293 $-1 #
coedge $-1 $306 $295 $427 $428 reversed $230 $-1 #
coedge $-1 $297 $296 $322 $391 reversed $182 $-1 #
coedge $-1 $429 $385 $297 $369 forward $363 $-1 #
edge $-1 $370 $430 $297 $431 forward #
vertex $-1 $369 $432 #
intcurve-curve $-1 forward { exactcur nurbs 2 open 2 
	0 2 10.518652457171425 2 
	168.0707899809228 160.25369515879473 -10.395000000000042 1 
	172.57195701709259 158.75330614673842 -7.7962500000000423 1.1547005383792566 
	177.07312405326218 160.2536951587953 -5.1975000000000415 1 
	0 
	null_surface 
	null_surface 
	nullbs 
	nullbs 
	I I 
	0 
	0 
	0 
	F 1 F 0 } I I #
coedge $-1 $304 $322 $300 $373 forward $252 $-1 #
edge $-1 $374 $309 $372 $433 forward #
vertex $-1 $391 $434 #
straight-curve $-1 168.07078998092277 162.04414634484243 -10.39500000000001 6.5141514846175745e-014 -1 -1.101511747563337e-069 I I #
point $-1 168.07078998092288 160.25369515879473 -10.39500000000001 #
coedge $-1 $435 $304 $306 $379 forward $252 $-1 #
intcurve-curve $-1 forward { exactcur nurbs 2 open 2 
	0 2 10.518652457171441 2 
	159.0684559085835 163.8345975308896 -5.1975000000000762 1 
	159.06845590858342 165.33498654294615 -1.4830339289363742e-014 1.1547005383793041 
	159.06845590858347 163.8345975308896 5.1975000000000371 1 
	0 
	null_surface 
	null_surface 
	nullbs 
	nullbs 
	I I 
	0 
	0 
	0 
	F 1 F 0 } I I #
edge $-1 $307 $436 $377 $437 forward #
point $-1 159.06845590858347 163.8345975308896 5.1975000000000939 #
point $-1 159.0684559085835 163.8345975308896 -5.1975000000000833 #
edge $-1 $438 $383 $311 $439 forward #
vertex $-1 $382 $440 #
intcurve-curve $-1 forward { exactcur nurbs 2 open 2 
	0 2 10.518652457171422 2 
	168.07078998092297 160.25369515879473 10.395000000000048 1 
	163.56962294475341 158.75330614673783 7.7962500000000512 1.1547005383792566 
	159.06845590858364 160.25369515879413 5.197500000000054 1 
	0 
	null_surface 
	null_surface 
	nullbs 
	nullbs 
	I I 
	0 
	0 
	0 
	F 1 F 0 } I I #
coedge $-1 $368 $441 $314 $386 reversed $363 $-1 #
edge $-1 $370 $438 $314 $442 forward #
vertex $-1 $319 $443 #
ellipse-curve $-1 168.07078998092297 159.04414634484243 1.9721923053128116e-067 6.5141514846175745e-014 -1 -1.1015117475633368e-069 8.2999999999999829 5.4067457322325762e-013 1.5047107375609002e-072 1 I I #
coedge $-1 $389 $389 $323 $392 forward $321 $-1 #
coedge $-1 $322 $435 $429 $444 forward $252 $-1 #
edge $-1 $430 $374 $322 $445 forward #
edge $-1 $446 $446 $389 $447 forward #
loop $-1 $-1 $415 $324 #
plane-surface $-1 177.07312405326061 184.04414634484297 5.1975000000000868 1 6.5080284528484626e-014 1.4996607218221374e-032 -1.4996607218221374e-032 2.5787357184838828e-043 1 forward_v I I I I #
coedge $-1 $448 $449 $343 $412 reversed $325 $-1 #
coedge $-1 $338 $327 $449 $450 reversed $256 $-1 #
coedge $-1 $329 $328 $354 $421 reversed $200 $-1 #
coedge $-1 $451 $415 $329 $399 forward $393 $-1 #
edge $-1 $400 $452 $329 $453 forward #
vertex $-1 $399 $454 #
intcurve-curve $-1 forward { exactcur nurbs 2 open 2 
	0 2 10.518652457171425 2 
	168.07078998092163 179.2536951587947 -10.395000000000042 1 
	172.57195701709139 177.7533061467384 -7.7962500000000423 1.1547005383792566 
	177.07312405326098 179.25369515879527 -5.1975000000000415 1 
	0 
	null_surface 
	null_surface 
	nullbs 
	nullbs 
	I I 
	0 
	0 
	0 
	F 1 F 0 } I I #
coedge $-1 $336 $354 $332 $403 forward $278 $-1 #
edge $-1 $404 $341 $402 $455 forward #
vertex $-1 $421 $456 #
straight-curve $-1 168.07078998092157 181.04414634484243 -10.39500000000001 6.5080284528484626e-014 -1 2.5884955531311205e-043 I I #
point $-1 168.07078998092169 179.2536951587947 -10.39500000000001 #
coedge $-1 $457 $336 $338 $409 forward $278 $-1 #
intcurve-curve $-1 forward { exactcur nurbs 2 open 2 
	0 2 10.518652457171441 2 
	159.06845590858234 182.8345975308896 -5.1975000000000762 1 
	159.06845590858222 184.33498654294613 -1.4830339289363742e-014 1.1547005383793041 
	159.06845590858231 182.8345975308896 5.1975000000000371 1 
	0 
	null_surface 
	null_surface 
	nullbs 
	nullbs 
	I I 
	0 
	0 
	0 
	F 1 F 0 } I I #
edge $-1 $339 $458 $407 $459 forward #
point $-1 159.06845590858231 182.8345975308896 5.1975000000000939 #
point $-1 159.06845590858234 182.8345975308896 -5.1975000000000833 #
edge $-1 $460 $413 $343 $461 forward #
vertex $-1 $412 $462 #
intcurve-curve $-1 forward { exactcur nurbs 2 open 2 
	0 2 10.518652457171422 2 
	168.0707899809218 179.2536951587947 10.395000000000048 1 
	163.56962294475224 177.7533061467378 7.7962500000000512 1.1547005383792566 
	159.06845590858245 179.2536951587941 5.197500000000054 1 
	0 
	null_surface 
	null_surface 
	nullbs 
	nullbs 
	I I 
	0 
	0 
	0 
	F 1 F 0 } I I #
coedge $-1 $398 $463 $346 $416 reversed $393 $-1 #
edge $-1 $400 $460 $346 $464 forward #
vertex $-1 $351 $465 #
ellipse-curve $-1 168.0707899809218 178.04414634484237 -5.1263544332978613e-041 6.5080284528484626e-014 -1 2.5884955531311205e-043 8.2999999999999829 5.4016636158642125e-013 1.2447183991123714e-031 1 I I #
coedge $-1 $419 $419 $355 $422 forward $353 $-1 #
coedge $-1 $354 $457 $451 $466 forward $278 $-1 #
edge $-1 $452 $404 $354 $467 forward #
edge $-1 $468 $468 $419 $469 forward #
vertex $-1 $358 $470 #
ellipse-curve $-1 168.07078998092396 143.04414634484291 0 -6.530226095319018e-014 1 0 -3.5000000000040998 -2.2808268676651921e-013 0 1 I I #
point $-1 164.07078998091987 143.04414634484263 0 #
coedge $-1 $471 $365 $441 $472 reversed $293 $-1 #
coedge $-1 $365 $471 $366 $428 forward $293 $-1 #
edge $-1 $436 $383 $427 $473 forward #
coedge $-1 $441 $368 $390 $444 reversed $363 $-1 #
vertex $-1 $391 $474 #
straight-curve $-1 177.07312405326201 162.044146344843 -5.1975000000000717 -6.5141514846175745e-014 1 1.101511747563337e-069 I I #
point $-1 177.07312405326209 160.2536951587953 -5.1975000000000717 #
intcurve-curve $-1 forward { exactcur nurbs 2 open 2 
	0 2 10.518652457171216 2 
	168.07078998092265 163.83459753089016 -10.394999999999984 1 
	163.56962294475298 165.33498654294635 -7.7962500000000334 1.1547005383792694 
	159.06845590858347 163.8345975308896 -5.1975000000000771 1 
	0 
	null_surface 
	null_surface 
	nullbs 
	nullbs 
	I I 
	0 
	0 
	0 
	F 1 F 0 } I I #
point $-1 168.07078998092265 163.83459753089016 -10.394999999999989 #
coedge $-1 $390 $377 $471 $475 forward $252 $-1 #
vertex $-1 $475 $476 #
intcurve-curve $-1 forward { exactcur nurbs 2 open 2 
	0 2 10.518652457171134 2 
	159.0684559085835 163.8345975308896 5.1975000000001206 1 
	163.56962294475298 165.33498654294635 7.7962500000000485 1.1547005383791813 
	168.07078998092263 163.83459753089016 10.394999999999976 1 
	0 
	null_surface 
	null_surface 
	nullbs 
	nullbs 
	I I 
	0 
	0 
	0 
	F 1 F 0 } I I #
vertex $-1 $386 $477 #
intcurve-curve $-1 forward { exactcur nurbs 2 open 2 
	0 2 10.518652457171431 2 
	177.07312405326218 160.2536951587953 5.1975000000000362 1 
	172.57195701709259 158.75330614673842 7.7962500000000414 1.1547005383792566 
	168.0707899809228 160.25369515879473 10.395000000000046 1 
	0 
	null_surface 
	null_surface 
	nullbs 
	nullbs 
	I I 
	0 
	0 
	0 
	F 1 F 0 } I I #
point $-1 168.07078998092294 160.25369515879473 10.39500000000001 #
coedge $-1 $385 $429 $426 $472 forward $363 $-1 #
intcurve-curve $-1 forward { exactcur nurbs 2 open 2 
	0 2 10.518652457171637 2 
	177.07312405326206 160.2536951587953 -5.1975000000001517 1 
	177.07312405326218 158.75330614673865 1.9690049867360338e-067 1.1547005383792504 
	177.07312405326206 160.2536951587953 5.1975000000001517 1 
	0 
	null_surface 
	null_surface 
	nullbs 
	nullbs 
	I I 
	0 
	0 
	0 
	F 1 F 0 } I I #
point $-1 176.37078998092295 159.04414634484294 1.9722073524201871e-067 #
edge $-1 $478 $430 $390 $479 forward #
intcurve-curve $-1 forward { exactcur nurbs 2 open 2 
	0 2 10.518652457171138 2 
	177.07312405326181 163.83459753089079 -5.1975000000001099 1 
	172.57195701709213 165.33498654294692 -7.7962500000000423 1.1547005383791813 
	168.07078998092268 163.83459753089016 -10.394999999999975 1 
	0 
	null_surface 
	null_surface 
	nullbs 
	nullbs 
	I I 
	0 
	0 
	0 
	F 1 F 0 } I I #
vertex $-1 $392 $480 #
ellipse-curve $-1 168.0707899809226 165.04414634484243 2.0382830101666117e-067 6.5141514846175745e-014 -1 -1.1015117475633368e-069 8.3000000000000114 5.4067457322325944e-013 1.5047107375609057e-072 1 I I #
coedge $-1 $481 $395 $463 $482 reversed $325 $-1 #
coedge $-1 $395 $481 $396 $450 forward $325 $-1 #
edge $-1 $458 $413 $449 $483 forward #
coedge $-1 $463 $398 $420 $466 reversed $393 $-1 #
vertex $-1 $421 $484 #
straight-curve $-1 177.07312405326081 181.044146344843 -5.1975000000000717 -6.5080284528484626e-014 1 -2.5884955531311205e-043 I I #
point $-1 177.07312405326093 179.25369515879527 -5.1975000000000717 #
intcurve-curve $-1 forward { exactcur nurbs 2 open 2 
	0 2 10.518652457171216 2 
	168.07078998092149 182.83459753089016 -10.394999999999984 1 
	163.56962294475181 184.33498654294635 -7.7962500000000334 1.1547005383792694 
	159.06845590858231 182.8345975308896 -5.1975000000000771 1 
	0 
	null_surface 
	null_surface 
	nullbs 
	nullbs 
	I I 
	0 
	0 
	0 
	F 1 F 0 } I I #
point $-1 168.07078998092149 182.83459753089016 -10.394999999999989 #
coedge $-1 $420 $407 $481 $485 forward $278 $-1 #
vertex $-1 $485 $486 #
intcurve-curve $-1 forward { exactcur nurbs 2 open 2 
	0 2 10.518652457171134 2 
	159.06845590858234 182.8345975308896 5.1975000000001206 1 
	163.56962294475181 184.33498654294635 7.7962500000000485 1.1547005383791813 
	168.07078998092146 182.83459753089016 10.394999999999976 1 
	0 
	null_surface 
	null_surface 
	nullbs 
	nullbs 
	I I 
	0 
	0 
	0 
	F 1 F 0 } I I #
vertex $-1 $416 $487 #
intcurve-curve $-1 forward { exactcur nurbs 2 open 2 
	0 2 10.518652457171431 2 
	177.07312405326098 179.25369515879527 5.1975000000000362 1 
	172.57195701709139 177.7533061467384 7.7962500000000414 1.1547005383792566 
	168.07078998092163 179.2536951587947 10.395000000000046 1 
	0 
	null_surface 
	null_surface 
	nullbs 
	nullbs 
	I I 
	0 
	0 
	0 
	F 1 F 0 } I I #
point $-1 168.07078998092177 179.2536951587947 10.39500000000001 #
coedge $-1 $415 $451 $448 $482 forward $393 $-1 #
intcurve-curve $-1 forward { exactcur nurbs 2 open 2 
	0 2 10.518652457171637 2 
	177.0731240532609 179.25369515879527 -5.1975000000001517 1 
	177.07312405326098 177.75330614673862 1.3500446807889376e-031 1.1547005383792504 
	177.0731240532609 179.25369515879527 5.1975000000001517 1 
	0 
	null_surface 
	null_surface 
	nullbs 
	nullbs 
	I I 
	0 
	0 
	0 
	F 1 F 0 } I I #
point $-1 176.37078998092178 178.04414634484294 1.2447183985997361e-031 #
edge $-1 $488 $452 $420 $489 forward #
intcurve-curve $-1 forward { exactcur nurbs 2 open 2 
	0 2 10.518652457171138 2 
	177.07312405326064 182.83459753089076 -5.1975000000001099 1 
	172.57195701709097 184.33498654294692 -7.7962500000000423 1.1547005383791813 
	168.07078998092152 182.83459753089016 -10.394999999999975 1 
	0 
	null_surface 
	null_surface 
	nullbs 
	nullbs 
	I I 
	0 
	0 
	0 
	F 1 F 0 } I I #
vertex $-1 $422 $490 #
ellipse-curve $-1 168.0707899809214 184.0441463448424 -5.2816641664857279e-041 6.5080284528484626e-014 -1 2.5884955531311205e-043 8.3000000000000114 5.4016636158642317e-013 1.2447183991123757e-031 1 I I #
point $-1 164.57078998091987 143.04414634484266 0 #
coedge $-1 $427 $426 $435 $475 reversed $293 $-1 #
edge $-1 $478 $438 $441 $491 forward #
straight-curve $-1 168.0707899809228 162.04414634484243 10.39500000000001 6.5141514846175745e-014 -1 -1.101511747563337e-069 I I #
point $-1 177.07312405326184 163.83459753089079 -5.1975000000000851 #
edge $-1 $436 $478 $435 $492 forward #
point $-1 168.07078998092265 163.83459753089014 10.394999999999996 #
point $-1 177.07312405326209 160.2536951587953 5.1975000000000673 #
vertex $-1 $444 $493 #
intcurve-curve $-1 forward { exactcur nurbs 2 open 2 
	0 2 10.518652457171463 2 
	177.07312405326184 163.83459753089079 5.1975000000000717 1 
	177.07312405326175 165.33498654294732 2.0415029694873453e-067 1.1547005383792159 
	177.07312405326184 163.83459753089079 -5.1975000000000717 1 
	0 
	null_surface 
	null_surface 
	nullbs 
	nullbs 
	I I 
	0 
	0 
	0 
	F 1 F 0 } I I #
point $-1 176.37078998092261 165.04414634484294 2.0382980572739875e-067 #
coedge $-1 $449 $448 $457 $485 reversed $325 $-1 #
edge $-1 $488 $460 $463 $494 forward #
straight-curve $-1 168.07078998092163 181.04414634484243 10.39500000000001 6.5080284528484626e-014 -1 2.5884955531311205e-043 I I #
point $-1 177.07312405326067 182.83459753089076 -5.1975000000000851 #
edge $-1 $458 $488 $457 $495 forward #
point $-1 168.07078998092149 182.83459753089011 10.394999999999996 #
point $-1 177.07312405326093 179.25369515879527 5.1975000000000673 #
vertex $-1 $466 $496 #
intcurve-curve $-1 forward { exactcur nurbs 2 open 2 
	0 2 10.518652457171463 2 
	177.07312405326067 182.83459753089076 5.1975000000000717 1 
	177.07312405326059 184.33498654294732 1.3500446807719009e-031 1.1547005383792159 
	177.07312405326067 182.83459753089076 -5.1975000000000717 1 
	0 
	null_surface 
	null_surface 
	nullbs 
	nullbs 
	I I 
	0 
	0 
	0 
	F 1 F 0 } I I #
point $-1 176.37078998092142 184.04414634484294 1.2447183985842095e-031 #
straight-curve $-1 177.07312405326201 162.044146344843 5.1975000000000673 6.5141514846175745e-014 -1 -1.101511747563337e-069 I I #
intcurve-curve $-1 forward { exactcur nurbs 2 open 2 
	0 2 10.51865245717114 2 
	168.07078998092268 163.83459753089016 10.394999999999975 1 
	172.57195701709213 165.33498654294692 7.7962500000000423 1.1547005383791813 
	177.07312405326181 163.83459753089079 5.1975000000001046 1 
	0 
	null_surface 
	null_surface 
	nullbs 
	nullbs 
	I I 
	0 
	0 
	0 
	F 1 F 0 } I I #
point $-1 177.07312405326184 163.83459753089079 5.1975000000000851 #
straight-curve $-1 177.07312405326081 181.044146344843 5.1975000000000673 6.5080284528484626e-014 -1 2.5884955531311205e-043 I I #
intcurve-curve $-1 forward { exactcur nurbs 2 open 2 
	0 2 10.51865245717114 2 
	168.07078998092152 182.83459753089016 10.394999999999975 1 
	172.57195701709097 184.33498654294692 7.7962500000000423 1.1547005383791813 
	177.07312405326064 182.83459753089076 5.1975000000001046 1 
	0 
	null_surface 
	null_surface 
	nullbs 
	nullbs 
	I I 
	0 
	0 
	0 
	F 1 F 0 } I I #
point $-1 177.07312405326067 182.83459753089076 5.1975000000000851 #
End-of-ACIS-data 