400 0 3 0           
28 Autodesk Inventor 6.0.0.9000 16 ASM 6.0.0.192 NT 24 Tue Jan 13 15:33:04 2004 
1 9.9999999999999995e-007 1e-010 
body $-1 $3 $-1 $-1 #
body $-1 $4 $-1 $-1 #
body $-1 $5 $-1 $-1 #
lump $-1 $-1 $6 $0 #
lump $-1 $-1 $7 $1 #
lump $-1 $-1 $8 $2 #
shell $-1 $-1 $-1 $9 $-1 $3 #
shell $-1 $-1 $-1 $10 $-1 $4 #
shell $-1 $-1 $-1 $11 $-1 $5 #
face $-1 $12 $13 $6 $-1 $14 forward single #
face $-1 $15 $16 $7 $-1 $17 reversed single #
face $-1 $18 $19 $8 $-1 $20 reversed single #
face $-1 $21 $22 $6 $-1 $23 forward single #
loop $-1 $24 $25 $9 #
torus-surface $-1 162.07125731590455 120.3990191649427 0 -2.069541948815826e-015 1 0 18.159651411526944 -14.165620054937794 0 0 1 forward_v I I I I #
face $-1 $26 $27 $7 $-1 $28 reversed single #
loop $-1 $29 $30 $10 #
cone-surface $-1 162.07125731590452 141.16807370779273 -8.2791178640526884e-044 2.0789586454417132e-015 -1 5.1369465884808178e-046 -3.7589161269760711 -7.8146311796671838e-015 0 1 I I -0.86602540378443871 0.5 3.7589161269760711 forward I I I I #
face $-1 $31 $32 $8 $-1 $33 reversed single #
loop $-1 $34 $35 $11 #
cone-surface $-1 162.07125731590449 160.16807370779262 -3.9461038563795172e-044 2.0177283277505943e-015 -1 2.19023480418598e-046 -3.7589161269760711 -7.5844715510381682e-015 -8.4556483083747123e-032 1 I I -0.86602540378443871 0.5 3.7589161269760711 forward I I I I #
face $-1 $36 $37 $6 $-1 $38 forward single #
loop $-1 $39 $40 $12 #
cone-surface $-1 162.07125731590455 121.31019241905598 0 -2.069541948815826e-015 1 0 -3.4999999999999609 -7.1054273576009372e-015 0 1 I I -0.70710678118656789 0.70710678118652726 3.4999999999999609 forward I I I I #
loop $-1 $-1 $41 $9 #
coedge $-1 $25 $25 $42 $43 reversed $13 $-1 #
face $-1 $44 $45 $7 $-1 $46 reversed single #
loop $-1 $47 $48 $15 #
plane-surface $-1 158.31234118892846 141.41956741905616 -8.292036961673681e-044 -2.0789586454417132e-015 1 -5.1369465884808178e-046 1.0679499521294511e-060 -5.1369465884808178e-046 -1 forward_v I I I I #
loop $-1 $-1 $49 $10 #
coedge $-1 $30 $30 $50 $51 reversed $16 $-1 #
face $-1 $52 $53 $8 $-1 $54 reversed single #
loop $-1 $55 $56 $18 #
plane-surface $-1 158.31234118892843 160.41956741905608 -8.4556483083786415e-032 -2.0177283277505943e-015 1 -2.19023480418598e-046 2.2494910827332062e-032 -1.7363486161206655e-046 -1 forward_v I I I I #
loop $-1 $-1 $57 $11 #
coedge $-1 $35 $35 $58 $59 reversed $19 $-1 #
face $-1 $60 $61 $6 $-1 $62 forward single #
loop $-1 $63 $64 $21 #
plane-surface $-1 159.3212573159046 121.81019241905597 0 -2.069541948815826e-015 1 0 0 0 10 forward_v I I I I #
loop $-1 $-1 $42 $12 #
coedge $-1 $40 $40 $65 $66 reversed $22 $-1 #
coedge $-1 $41 $41 $67 $68 forward $24 $-1 #
coedge $-1 $42 $42 $25 $43 forward $39 $-1 #
edge $-1 $69 $69 $42 $70 forward #
face $-1 $71 $72 $7 $-1 $73 reversed single #
loop $-1 $74 $75 $26 #
cone-surface $-1 162.07125731590452 138.00550491905614 -8.1166583945513242e-044 2.0789586454417132e-015 -1 5.1369465884808178e-046 3.6617088266467306 7.6125412222474523e-015 0 1 I I 0.86602540378443049 0.5000000000000141 3.6617088266467306 forward I I I I #
loop $-1 $-1 $76 $15 #
coedge $-1 $48 $48 $77 $78 forward $27 $-1 #
coedge $-1 $49 $49 $76 $79 reversed $29 $-1 #
coedge $-1 $50 $50 $30 $51 forward $80 $-1 #
edge $-1 $81 $81 $50 $82 forward #
face $-1 $83 $84 $8 $-1 $85 reversed single #
loop $-1 $86 $87 $31 #
cone-surface $-1 162.07125731590449 157.00550491905605 -3.8768361740622853e-044 2.0177283277505943e-015 -1 2.19023480418598e-046 3.6617088266467306 7.3883336274994995e-015 8.2369813531072924e-032 1 I I 0.86602540378443049 0.5000000000000141 3.6617088266467306 forward I I I I #
loop $-1 $-1 $88 $18 #
coedge $-1 $56 $56 $89 $90 forward $32 $-1 #
coedge $-1 $57 $57 $88 $91 reversed $34 $-1 #
coedge $-1 $58 $58 $35 $59 forward $92 $-1 #
edge $-1 $93 $93 $58 $94 forward #
face $-1 $95 $96 $6 $-1 $97 forward single #
loop $-1 $98 $99 $36 #
cone-surface $-1 162.07125731590455 123.06019241905597 0 -2.069541948815826e-015 1 0 -2.4999999999999645 -5.0753052554292256e-015 0 1 I I 0 1 2.4999999999999645 forward I I I I #
loop $-1 $-1 $65 $21 #
coedge $-1 $64 $64 $100 $101 reversed $37 $-1 #
coedge $-1 $65 $65 $40 $66 forward $63 $-1 #
edge $-1 $102 $102 $65 $103 forward #
coedge $-1 $67 $67 $41 $68 reversed $104 $-1 #
edge $-1 $105 $105 $41 $106 forward #
vertex $-1 $43 $107 #
ellipse-curve $-1 162.07125731590455 120.81019241905601 0 -2.069541948815826e-015 1 0 -3.999999999999968 -8.1204884086868115e-015 0 1 I I #
face $-1 $108 $109 $7 $-1 $110 forward single #
loop $-1 $111 $77 $44 #
cone-surface $-1 162.07125731590452 141.61487991905614 -8.3020700604793038e-044 2.0789586454417132e-015 -1 5.1369465884808178e-046 3.661708826646759 7.6125412222475107e-015 0 1 I I -0.86602540378445059 0.49999999999997952 3.661708826646759 forward I I I I #
loop $-1 $-1 $112 $26 #
coedge $-1 $75 $75 $113 $114 reversed $45 $-1 #
coedge $-1 $76 $76 $49 $79 forward $47 $-1 #
coedge $-1 $77 $77 $48 $78 reversed $72 $-1 #
edge $-1 $115 $115 $77 $116 forward #
edge $-1 $117 $117 $49 $118 forward #
loop $-1 $119 $50 $120 #
vertex $-1 $51 $121 #
ellipse-curve $-1 162.07125731590452 140.9166385467804 -8.2662017741268236e-044 -2.0789586454417132e-015 1 -5.1369465884808178e-046 3.3234176532934612 6.909247862728051e-015 0 1 I I #
face $-1 $122 $123 $8 $-1 $124 forward single #
loop $-1 $125 $89 $52 #
cone-surface $-1 162.07125731590449 160.61487991905605 -3.9558899615258733e-044 2.0177283277505943e-015 -1 2.19023480418598e-046 3.661708826646759 7.3883336274995563e-015 8.2369813531073548e-032 1 I I -0.86602540378445059 0.49999999999997952 3.661708826646759 forward I I I I #
loop $-1 $-1 $126 $31 #
coedge $-1 $87 $87 $127 $128 reversed $53 $-1 #
coedge $-1 $88 $88 $57 $91 forward $55 $-1 #
coedge $-1 $89 $89 $56 $90 reversed $84 $-1 #
edge $-1 $129 $129 $89 $130 forward #
edge $-1 $131 $131 $57 $132 forward #
loop $-1 $133 $58 $134 #
vertex $-1 $59 $135 #
ellipse-curve $-1 162.07125731590449 159.91663854678029 -3.9405968359730641e-044 -2.0177283277505943e-015 1 -2.19023480418598e-046 3.3234176532934612 6.70575394399662e-015 7.4759983752817579e-032 1 I I #
face $-1 $136 $137 $6 $-1 $138 forward single #
loop $-1 $139 $140 $60 #
cone-surface $-1 162.07125731590455 125.06019241905598 0 -2.069541948815826e-015 1 0 -3.2499999999999574 -6.5978968320580008e-015 0 1 I I 0.70710678118652515 0.70710678118657 3.2499999999999574 forward I I I I #
loop $-1 $-1 $100 $36 #
coedge $-1 $99 $99 $141 $142 reversed $61 $-1 #
coedge $-1 $100 $100 $64 $101 forward $98 $-1 #
edge $-1 $143 $143 $100 $144 forward #
vertex $-1 $66 $145 #
ellipse-curve $-1 162.07125731590455 121.81019241905597 0 -2.069541948815826e-015 1 0 -2.9999999999999538 -6.0903663065150636e-015 0 1 I I #
loop $-1 $146 $67 $147 #
vertex $-1 $68 $148 #
ellipse-curve $-1 162.07125731590457 109.81019241905605 0 -2.069541948815826e-015 1 0 -8.7499999999999822 -1.7763568394002505e-014 0 1 I I #
point $-1 158.07125731590457 120.81019241905601 0 #
face $-1 $149 $150 $7 $-1 $151 forward single #
loop $-1 $-1 $152 $71 #
plane-surface $-1 155.56957159699289 141.81019241905608 -3.7537500000000645 -1 -2.0789586454417132e-015 0 1.0679499521294511e-060 -5.1369465884808178e-046 -1 forward_v I I I I #
loop $-1 $-1 $153 $44 #
coedge $-1 $112 $112 $154 $155 reversed $74 $-1 #
coedge $-1 $113 $113 $75 $114 forward $156 $-1 #
edge $-1 $157 $157 $113 $158 forward #
vertex $-1 $78 $159 #
ellipse-curve $-1 162.07125731590452 141.41956741905614 -8.292036961673677e-044 -2.0789586454417132e-015 1 -5.1369465884808178e-046 3.3234176532934612 6.909247862728051e-015 0 1 I I #
vertex $-1 $79 $160 #
ellipse-curve $-1 162.07125731590452 141.41956741905619 -8.292036961673681e-044 2.0789586454417132e-015 -1 5.1369465884808178e-046 -4.1945160126684478 -8.7202253279807718e-015 0 1 I I #
loop $-1 $-1 $154 $120 #
face $-1 $161 $80 $7 $-1 $162 forward single #
point $-1 158.74783966261106 140.9166385467804 -8.2662017741268236e-044 #
face $-1 $163 $164 $8 $-1 $165 forward single #
loop $-1 $-1 $166 $83 #
plane-surface $-1 155.56957159699286 160.81019241905602 -3.7537500000000645 -1 -2.0177283277505943e-015 -2.2494910827332062e-032 2.2494910827332062e-032 -1.7363486161206655e-046 -1 forward_v I I I I #
loop $-1 $-1 $167 $52 #
coedge $-1 $126 $126 $168 $169 reversed $86 $-1 #
coedge $-1 $127 $127 $87 $128 forward $170 $-1 #
edge $-1 $171 $171 $127 $172 forward #
vertex $-1 $90 $173 #
ellipse-curve $-1 162.07125731590449 160.41956741905605 -3.9516121591739474e-044 -2.0177283277505943e-015 1 -2.19023480418598e-046 3.3234176532934612 6.70575394399662e-015 7.4759983752817579e-032 1 I I #
vertex $-1 $91 $174 #
ellipse-curve $-1 162.07125731590449 160.41956741905608 -3.9516121591739489e-044 2.0177283277505943e-015 -1 2.19023480418598e-046 -4.1945160126684478 -8.4633937799645981e-015 -9.4355263668793167e-032 1 I I #
loop $-1 $-1 $168 $134 #
face $-1 $175 $92 $8 $-1 $176 forward single #
point $-1 158.74783966261103 159.91663854678029 -7.4759983752856991e-032 #
face $-1 $177 $178 $6 $-1 $179 forward single #
loop $-1 $180 $181 $95 #
cone-surface $-1 162.07125731590446 168.01019241905601 0 -2.069541948815826e-015 1 0 -3.9999999999998437 -8.120488408686559e-015 0 1 I I 0 1 3.9999999999998437 forward I I I I #
loop $-1 $-1 $141 $60 #
coedge $-1 $140 $140 $182 $183 reversed $96 $-1 #
coedge $-1 $141 $141 $99 $142 forward $139 $-1 #
edge $-1 $184 $184 $141 $185 forward #
vertex $-1 $101 $186 #
ellipse-curve $-1 162.07125731590455 121.81019241905597 0 -2.069541948815826e-015 1 0 -2.4999999999999467 -5.0753052554291893e-015 0 1 I I #
point $-1 159.0712573159046 121.81019241905597 0 #
loop $-1 $-1 $187 $147 #
face $-1 $-1 $104 $6 $-1 $188 forward single #
point $-1 153.3212573159046 109.81019241905602 0 #
face $-1 $189 $190 $7 $-1 $191 forward single #
loop $-1 $-1 $192 $108 #
plane-surface $-1 162.07125731590452 141.81019241905608 -7.5075000000000003 -0.49999999999999611 -1.0394793227208485e-015 -0.86602540378444093 -2.0789586454417132e-015 1 -5.1369465884808178e-046 forward_v I I I I #
coedge $-1 $193 $194 $195 $196 reversed $109 $-1 #
coedge $-1 $153 $153 $197 $198 reversed $111 $-1 #
coedge $-1 $154 $154 $112 $155 forward $119 $-1 #
edge $-1 $199 $199 $154 $200 forward #
loop $-1 $201 $113 $202 #
vertex $-1 $114 $203 #
ellipse-curve $-1 162.07125731590452 137.81019241905614 -8.1066252957456974e-044 -2.0789586454417132e-015 1 -5.1369465884808178e-046 4.0000000000000142 8.3158345817668828e-015 0 1 I I #
point $-1 165.39467496919804 141.41956741905619 -8.292036961673681e-044 #
point $-1 157.87674130323606 141.41956741905616 -8.292036961673681e-044 #
face $-1 $204 $205 $7 $-1 $206 forward single #
cone-surface $-1 162.07125731590452 139.81019241905611 -8.2093642275153145e-044 2.0789586454417132e-015 -1 5.1369465884808178e-046 3.3234176532934612 6.909247862728051e-015 0 1 I I 0 -1 3.3234176532934612 forward I I I I #
face $-1 $207 $208 $8 $-1 $209 forward single #
loop $-1 $-1 $210 $122 #
plane-surface $-1 162.07125731590449 160.81019241905602 -7.5075000000000003 -0.49999999999999611 -1.0088641638752893e-015 -0.86602540378444093 -2.0177283277505943e-015 1 -2.19023480418598e-046 forward_v I I I I #
coedge $-1 $211 $212 $213 $214 reversed $123 $-1 #
coedge $-1 $167 $167 $215 $216 reversed $125 $-1 #
coedge $-1 $168 $168 $126 $169 forward $133 $-1 #
edge $-1 $217 $217 $168 $218 forward #
loop $-1 $219 $127 $220 #
vertex $-1 $128 $221 #
ellipse-curve $-1 162.07125731590449 156.81019241905605 -3.8725583717103594e-044 -2.0177283277505943e-015 1 -2.19023480418598e-046 4.0000000000000142 8.0709133110024074e-015 8.9979643309328575e-032 1 I I #
point $-1 165.39467496919801 160.41956741905611 7.475998375277935e-032 #
point $-1 157.87674130323603 160.41956741905608 -9.435526366883294e-032 #
face $-1 $222 $223 $8 $-1 $224 forward single #
cone-surface $-1 162.07125731590449 158.81019241905602 -3.9163630677940791e-044 2.0177283277505943e-015 -1 2.19023480418598e-046 3.3234176532934612 6.70575394399662e-015 7.4759983752817579e-032 1 I I 0 -1 3.3234176532934612 forward I I I I #
face $-1 $225 $226 $6 $-1 $227 forward single #
loop $-1 $228 $229 $136 #
cone-surface $-1 162.07125731590438 210.51019241905601 0 -2.069541948815826e-015 1 0 -3.6999999999997613 -7.5114517780348764e-015 0 1 I I -0.70710678118658044 0.70710678118651471 3.6999999999997613 forward I I I I #
loop $-1 $-1 $182 $95 #
coedge $-1 $181 $181 $230 $231 reversed $137 $-1 #
coedge $-1 $182 $182 $140 $183 forward $180 $-1 #
edge $-1 $232 $232 $182 $233 forward #
vertex $-1 $142 $234 #
ellipse-curve $-1 162.07125731590455 124.31019241905597 0 -2.069541948815826e-015 1 0 -2.4999999999999822 -5.0753052554292611e-015 0 1 I I #
point $-1 159.5712573159046 121.81019241905597 0 #
coedge $-1 $187 $187 $235 $236 forward $146 $-1 #
cone-surface $-1 162.07125731590457 108.81019241905604 0 -2.069541948815826e-015 1 0 -8.7499999999999822 -1.7763568394002505e-014 0 1 I I 0 1 8.7499999999999822 forward I I I I #
face $-1 $237 $238 $7 $-1 $239 forward single #
loop $-1 $-1 $240 $149 #
plane-surface $-1 168.57294303481615 141.81019241905611 -3.7537500000000645 0.49999999999999611 1.0394793227208485e-015 -0.86602540378444093 -2.0789586454417132e-015 1 -5.1369465884808178e-046 forward_v I I I I #
coedge $-1 $241 $242 $243 $244 reversed $150 $-1 #
coedge $-1 $245 $152 $246 $247 reversed $109 $-1 #
coedge $-1 $152 $245 $241 $248 forward $109 $-1 #
coedge $-1 $243 $249 $152 $196 forward $250 $-1 #
edge $-1 $251 $252 $195 $253 forward #
coedge $-1 $197 $197 $153 $198 forward $205 $-1 #
edge $-1 $254 $254 $197 $255 forward #
vertex $-1 $155 $256 #
ellipse-curve $-1 162.07125731590452 138.20081741905614 -8.1266914933569511e-044 2.0789586454417132e-015 -1 5.1369465884808178e-046 3.3234176532934612 6.909247862728051e-015 0 1 I I #
loop $-1 $-1 $257 $202 #
face $-1 $-1 $156 $7 $-1 $258 forward single #
point $-1 166.07125731590455 137.81019241905614 -8.1066252957456974e-044 #
face $-1 $259 $260 $7 $-1 $261 forward single #
loop $-1 $262 $197 $161 #
plane-surface $-1 166.63296614255125 141.81019241905611 -8.3121031592849287e-044 -2.0789586454417132e-015 1 -5.1369465884808178e-046 -1.0679499521294511e-060 5.1369465884808178e-046 1 forward_v I I I I #
face $-1 $263 $264 $8 $-1 $265 forward single #
loop $-1 $-1 $266 $163 #
plane-surface $-1 168.57294303481612 160.81019241905602 -3.7537500000000645 0.49999999999999611 1.0088641638752893e-015 -0.86602540378444093 -2.0177283277505943e-015 1 -2.19023480418598e-046 forward_v I I I I #
coedge $-1 $267 $268 $269 $270 reversed $164 $-1 #
coedge $-1 $271 $166 $272 $273 reversed $123 $-1 #
coedge $-1 $166 $271 $267 $274 forward $123 $-1 #
coedge $-1 $269 $275 $166 $214 forward $276 $-1 #
edge $-1 $277 $278 $213 $279 forward #
coedge $-1 $215 $215 $167 $216 forward $223 $-1 #
edge $-1 $280 $280 $215 $281 forward #
vertex $-1 $169 $282 #
ellipse-curve $-1 162.07125731590449 157.20081741905605 -3.8811139764142108e-044 2.0177283277505943e-015 -1 2.19023480418598e-046 3.3234176532934612 6.70575394399662e-015 7.4759983752817579e-032 1 I I #
loop $-1 $-1 $283 $220 #
face $-1 $-1 $170 $8 $-1 $284 forward single #
point $-1 166.07125731590452 156.81019241905605 8.9979643309289525e-032 #
face $-1 $285 $286 $8 $-1 $287 forward single #
loop $-1 $288 $215 $175 #
plane-surface $-1 166.6329661425512 160.81019241905602 1.026152332756323e-031 -2.0177283277505943e-015 1 -2.19023480418598e-046 -2.2494910827332062e-032 1.7363486161206655e-046 1 forward_v I I I I #
face $-1 $147 $289 $6 $-1 $290 forward single #
loop $-1 $-1 $291 $177 #
plane-surface $-1 160.3712573159045 210.81019241905602 0 -2.069541948815826e-015 1 0 0 0 10 forward_v I I I I #
loop $-1 $-1 $230 $136 #
coedge $-1 $229 $229 $291 $292 reversed $178 $-1 #
coedge $-1 $230 $230 $181 $231 forward $228 $-1 #
edge $-1 $293 $293 $230 $294 forward #
vertex $-1 $183 $295 #
ellipse-curve $-1 162.07125731590455 125.81019241905601 0 -2.069541948815826e-015 1 0 -3.9999999999999325 -8.1204884086867389e-015 0 1 I I #
point $-1 159.57125731590457 124.31019241905597 0 #
coedge $-1 $235 $235 $187 $236 reversed $289 $-1 #
edge $-1 $296 $296 $187 $297 forward #
face $-1 $298 $299 $7 $-1 $300 forward single #
loop $-1 $-1 $301 $189 #
plane-surface $-1 155.56957159699289 141.81019241905608 3.7537500000000712 -0.49999999999999539 -1.0394793227208469e-015 0.86602540378444137 2.0789586454417132e-015 -1 5.1369465884808178e-046 forward_v I I I I #
coedge $-1 $302 $303 $304 $305 reversed $190 $-1 #
coedge $-1 $306 $192 $194 $248 reversed $150 $-1 #
coedge $-1 $192 $306 $302 $307 forward $150 $-1 #
coedge $-1 $304 $195 $192 $244 forward $250 $-1 #
edge $-1 $252 $308 $243 $309 forward #
coedge $-1 $194 $193 $310 $311 reversed $109 $-1 #
coedge $-1 $301 $312 $193 $247 forward $238 $-1 #
edge $-1 $313 $251 $246 $314 forward #
edge $-1 $315 $252 $194 $316 forward #
coedge $-1 $195 $317 $301 $318 forward $250 $-1 #
loop $-1 $319 $320 $259 #
vertex $-1 $247 $321 #
vertex $-1 $248 $322 #
intcurve-curve $-1 forward { exactcur nurbs 2 open 2 
	0 2 7.5968045524014158 2 
	155.56957159699289 138.79601800369736 3.7537499999999517 1 
	155.56957159699289 137.71240371721208 -8.101601942362401e-044 1.1547005383792834 
	155.56957159699289 138.79601800369736 -3.7537499999999517 1 
	0 
	null_surface 
	null_surface 
	nullbs 
	nullbs 
	I I 
	0 
	0 
	0 
	F 1 F 0 } I I #
vertex $-1 $198 $323 #
ellipse-curve $-1 162.07125731590452 141.81019241905608 -8.3121031592849287e-044 2.0789586454417132e-015 -1 5.1369465884808178e-046 4.0000000000000249 8.3158345817669049e-015 0 1 I I #
point $-1 165.39467496919795 138.20081741905614 -8.1266914933569511e-044 #
coedge $-1 $257 $257 $324 $325 forward $201 $-1 #
plane-surface $-1 166.63296614255125 137.81019241905614 -8.1066252957456974e-044 2.0789586454417132e-015 -1 5.1369465884808178e-046 1.0679499521294511e-060 -5.1369465884808178e-046 -1 forward_v I I I I #
face $-1 $202 $250 $7 $-1 $326 forward single #
loop $-1 $327 $328 $204 #
cone-surface $-1 162.07125731590452 141.31727962673548 -8.2867824924156296e-044 2.0789586454417132e-015 -1 5.1369465884808178e-046 6.6537500000000023 1.3832871087107806e-014 0 1 I I 0.86602540378444481 0.4999999999999894 6.6537500000000023 forward I I I I #
loop $-1 $-1 $329 $161 #
face $-1 $330 $331 $8 $-1 $332 forward single #
loop $-1 $-1 $333 $207 #
plane-surface $-1 155.56957159699286 160.81019241905602 3.7537500000000712 -0.49999999999999539 -1.0088641638752879e-015 0.86602540378444137 2.0177283277505943e-015 -1 2.19023480418598e-046 forward_v I I I I #
coedge $-1 $334 $335 $336 $337 reversed $208 $-1 #
coedge $-1 $338 $210 $212 $274 reversed $164 $-1 #
coedge $-1 $210 $338 $334 $339 forward $164 $-1 #
coedge $-1 $336 $213 $210 $270 forward $276 $-1 #
edge $-1 $278 $340 $269 $341 forward #
coedge $-1 $212 $211 $342 $343 reversed $123 $-1 #
coedge $-1 $333 $344 $211 $273 forward $264 $-1 #
edge $-1 $345 $277 $272 $346 forward #
edge $-1 $347 $278 $212 $348 forward #
coedge $-1 $213 $349 $333 $350 forward $276 $-1 #
loop $-1 $351 $352 $285 #
vertex $-1 $273 $353 #
vertex $-1 $274 $354 #
intcurve-curve $-1 forward { exactcur nurbs 2 open 2 
	0 2 7.5968045524014158 2 
	155.56957159699286 157.79601800369727 3.7537499999999517 1 
	155.56957159699286 156.712403717212 -1.4625484047429422e-031 1.1547005383792834 
	155.56957159699286 157.79601800369727 -3.7537499999999517 1 
	0 
	null_surface 
	null_surface 
	nullbs 
	nullbs 
	I I 
	0 
	0 
	0 
	F 1 F 0 } I I #
vertex $-1 $216 $355 #
ellipse-curve $-1 162.07125731590449 160.81019241905602 -3.9601677638777983e-044 2.0177283277505943e-015 -1 2.19023480418598e-046 4.0000000000000249 8.0709133110024294e-015 8.9979643309328816e-032 1 I I #
point $-1 165.39467496919792 157.20081741905605 7.4759983752778146e-032 #
coedge $-1 $283 $283 $356 $357 forward $219 $-1 #
plane-surface $-1 166.6329661425512 156.81019241905605 1.0261523327563254e-031 2.0177283277505943e-015 -1 2.19023480418598e-046 2.2494910827332062e-032 -1.7363486161206655e-046 -1 forward_v I I I I #
face $-1 $220 $276 $8 $-1 $358 forward single #
loop $-1 $359 $360 $222 #
cone-surface $-1 162.07125731590449 160.3172796267354 -3.9493718163461067e-044 2.0177283277505943e-015 -1 2.19023480418598e-046 6.6537500000000023 1.3425459860770524e-014 1.4967551291736077e-031 1 I I 0.86602540378444481 0.4999999999999894 6.6537500000000023 forward I I I I #
loop $-1 $-1 $361 $175 #
loop $-1 $-1 $235 $225 #
plane-surface $-1 157.69625731590457 107.81019241905599 0 2.069541948815826e-015 -1 0 0 0 -10 forward_v I I I I #
coedge $-1 $291 $291 $229 $292 forward $226 $-1 #
edge $-1 $362 $362 $291 $363 forward #
vertex $-1 $231 $364 #
ellipse-curve $-1 162.07125731590438 210.21019241905603 0 -2.069541948815826e-015 1 0 -3.9999999999997904 -8.1204884086864502e-015 0 1 I I #
point $-1 158.07125731590463 125.81019241905601 0 #
vertex $-1 $236 $365 #
ellipse-curve $-1 162.07125731590457 107.81019241905602 0 -2.069541948815826e-015 1 0 -8.7499999999999822 -1.7763568394002505e-014 0 1 I I #
face $-1 $120 $366 $7 $-1 $367 forward single #
loop $-1 $-1 $368 $237 #
plane-surface $-1 162.07125731590452 141.81019241905608 7.5075000000000003 0.49999999999999611 1.0394793227208485e-015 0.86602540378444093 2.0789586454417132e-015 -1 5.1369465884808178e-046 forward_v I I I I #
coedge $-1 $369 $246 $249 $318 reversed $238 $-1 #
coedge $-1 $370 $240 $242 $307 reversed $190 $-1 #
coedge $-1 $240 $370 $371 $372 reversed $190 $-1 #
coedge $-1 $320 $243 $240 $305 forward $250 $-1 #
edge $-1 $308 $373 $304 $374 forward #
coedge $-1 $242 $241 $375 $376 reversed $150 $-1 #
edge $-1 $377 $308 $242 $378 forward #
vertex $-1 $307 $379 #
intcurve-curve $-1 forward { exactcur nurbs 2 open 2 
	0 2 7.5968045524011423 2 
	155.569571596993 138.79601800369736 -3.7537500000001263 1 
	158.82041445644867 137.71240371721217 -5.6306250000000224 1.1547005383792355 
	162.07125731590438 138.79601800369738 -7.5074999999999301 1 
	0 
	null_surface 
	null_surface 
	nullbs 
	nullbs 
	I I 
	0 
	0 
	0 
	F 1 F 0 } I I #
coedge $-1 $380 $375 $245 $311 forward $260 $-1 #
edge $-1 $315 $313 $310 $381 forward #
coedge $-1 $246 $369 $380 $382 reversed $238 $-1 #
vertex $-1 $311 $383 #
straight-curve $-1 155.56957159699289 139.81019241905611 3.7537500000000037 2.0789586454417132e-015 -1 5.1369465884808178e-046 I I #
vertex $-1 $376 $384 #
straight-curve $-1 155.56957159699294 139.81019241905611 -3.753750000000093 2.0789586454417132e-015 -1 5.1369465884808178e-046 I I #
coedge $-1 $249 $320 $368 $385 forward $250 $-1 #
edge $-1 $386 $251 $249 $387 forward #
loop $-1 $-1 $324 $259 #
coedge $-1 $317 $304 $388 $389 forward $250 $-1 #
point $-1 155.56957159699289 138.79601800369736 3.7537500000000037 #
point $-1 155.56957159699294 138.79601800369736 -3.753750000000093 #
point $-1 166.07125731590452 141.81019241905608 -8.3121031592849287e-044 #
coedge $-1 $324 $324 $257 $325 reversed $319 $-1 #
edge $-1 $390 $390 $257 $391 forward #
cone-surface $-1 162.07125731590452 138.30310521137673 -8.1319459626149974e-044 2.0789586454417132e-015 -1 5.1369465884808178e-046 6.6537499999999739 1.3832871087107744e-014 0 1 I I -0.8660254037844386 0.50000000000000022 6.6537499999999739 forward I I I I #
loop $-1 $-1 $392 $204 #
coedge $-1 $375 $393 $370 $394 forward $260 $-1 #
coedge $-1 $329 $329 $392 $395 reversed $262 $-1 #
face $-1 $134 $396 $8 $-1 $397 forward single #
loop $-1 $-1 $398 $263 #
plane-surface $-1 162.07125731590449 160.81019241905602 7.5075000000000003 0.49999999999999611 1.0088641638752893e-015 0.86602540378444093 2.0177283277505943e-015 -1 2.19023480418598e-046 forward_v I I I I #
coedge $-1 $399 $272 $275 $350 reversed $264 $-1 #
coedge $-1 $400 $266 $268 $339 reversed $208 $-1 #
coedge $-1 $266 $400 $401 $402 reversed $208 $-1 #
coedge $-1 $352 $269 $266 $337 forward $276 $-1 #
edge $-1 $340 $403 $336 $404 forward #
coedge $-1 $268 $267 $405 $406 reversed $164 $-1 #
edge $-1 $407 $340 $268 $408 forward #
vertex $-1 $339 $409 #
intcurve-curve $-1 forward { exactcur nurbs 2 open 2 
	0 2 7.5968045524011423 2 
	155.56957159699297 157.79601800369727 -3.7537500000001263 1 
	158.82041445644865 156.71240371721208 -5.6306250000000224 1.1547005383792355 
	162.07125731590435 157.7960180036973 -7.5074999999999301 1 
	0 
	null_surface 
	null_surface 
	nullbs 
	nullbs 
	I I 
	0 
	0 
	0 
	F 1 F 0 } I I #
coedge $-1 $410 $405 $271 $343 forward $286 $-1 #
edge $-1 $347 $345 $342 $411 forward #
coedge $-1 $272 $399 $410 $412 reversed $264 $-1 #
vertex $-1 $343 $413 #
straight-curve $-1 155.56957159699286 158.81019241905602 3.7537500000000037 2.0177283277505943e-015 -1 2.19023480418598e-046 I I #
vertex $-1 $406 $414 #
straight-curve $-1 155.56957159699292 158.81019241905602 -3.753750000000093 2.0177283277505943e-015 -1 2.19023480418598e-046 I I #
coedge $-1 $275 $352 $398 $415 forward $276 $-1 #
edge $-1 $416 $277 $275 $417 forward #
loop $-1 $-1 $356 $285 #
coedge $-1 $349 $336 $418 $419 forward $276 $-1 #
point $-1 155.56957159699286 157.79601800369727 3.7537500000000037 #
point $-1 155.56957159699292 157.79601800369727 -3.753750000000093 #
point $-1 166.07125731590446 160.81019241905602 8.9979643309288649e-032 #
coedge $-1 $356 $356 $283 $357 reversed $351 $-1 #
edge $-1 $420 $420 $283 $421 forward #
cone-surface $-1 162.07125731590449 157.30310521137665 -3.883354319242051e-044 2.0177283277505943e-015 -1 2.19023480418598e-046 6.6537499999999739 1.3425459860770464e-014 1.4967551291736011e-031 1 I I -0.8660254037844386 0.50000000000000022 6.6537499999999739 forward I I I I #
loop $-1 $-1 $422 $222 #
coedge $-1 $405 $423 $400 $424 forward $286 $-1 #
coedge $-1 $361 $361 $422 $425 reversed $288 $-1 #
vertex $-1 $292 $426 #
ellipse-curve $-1 162.07125731590438 210.81019241905602 0 -2.069541948815826e-015 1 0 -3.3999999999997499 -6.9024151473833373e-015 0 1 I I #
point $-1 158.07125731590457 210.21019241905603 0 #
point $-1 153.3212573159046 107.81019241905599 0 #
loop $-1 $-1 $388 $298 #
plane-surface $-1 168.57294303481615 141.81019241905611 3.7537500000000645 1 2.0789586454417132e-015 0 -1.0679499521294511e-060 5.1369465884808178e-046 1 forward_v I I I I #
coedge $-1 $427 $428 $317 $385 reversed $299 $-1 #
coedge $-1 $312 $301 $428 $429 reversed $238 $-1 #
coedge $-1 $303 $302 $328 $394 reversed $190 $-1 #
coedge $-1 $430 $388 $303 $372 forward $366 $-1 #
edge $-1 $373 $431 $303 $432 forward #
vertex $-1 $372 $433 #
intcurve-curve $-1 forward { exactcur nurbs 2 open 2 
	0 2 7.5968045524011414 2 
	162.07125731590466 138.79601800369738 -7.5074999999999301 1 
	165.32210017536039 137.7124037172122 -5.6306250000000233 1.1547005383792355 
	168.57294303481606 138.79601800369738 -3.7537500000001267 1 
	0 
	null_surface 
	null_surface 
	nullbs 
	nullbs 
	I I 
	0 
	0 
	0 
	F 1 F 0 } I I #
coedge $-1 $310 $328 $306 $376 forward $260 $-1 #
edge $-1 $377 $315 $375 $434 forward #
vertex $-1 $394 $435 #
straight-curve $-1 162.07125731590457 139.81019241905611 -7.5074999999999648 2.0789586454417132e-015 -1 5.1369465884808178e-046 I I #
point $-1 162.07125731590457 138.79601800369738 -7.5074999999999648 #
coedge $-1 $436 $310 $312 $382 forward $260 $-1 #
intcurve-curve $-1 forward { exactcur nurbs 2 open 2 
	0 2 7.5968045524016858 2 
	155.56957159699289 140.82436683441483 -3.753750000000089 1 
	155.56957159699289 141.90798112090013 -8.317126512668227e-044 1.1547005383792179 
	155.56957159699289 140.82436683441483 3.753750000000089 1 
	0 
	null_surface 
	null_surface 
	nullbs 
	nullbs 
	I I 
	0 
	0 
	0 
	F 1 F 0 } I I #
edge $-1 $313 $437 $380 $438 forward #
point $-1 155.56957159699289 140.82436683441483 3.7537500000000756 #
point $-1 155.56957159699289 140.82436683441483 -3.753750000000069 #
edge $-1 $439 $386 $317 $440 forward #
vertex $-1 $385 $441 #
intcurve-curve $-1 forward { exactcur nurbs 2 open 2 
	0 2 7.5968045524011361 2 
	162.07125731590438 138.79601800369738 7.507499999999931 1 
	158.82041445644867 137.71240371721217 5.6306250000000304 1.1547005383792355 
	155.569571596993 138.79601800369736 3.7537500000001387 1 
	0 
	null_surface 
	null_surface 
	nullbs 
	nullbs 
	I I 
	0 
	0 
	0 
	F 1 F 0 } I I #
coedge $-1 $371 $442 $320 $389 reversed $366 $-1 #
edge $-1 $373 $439 $320 $443 forward #
vertex $-1 $325 $444 #
ellipse-curve $-1 162.07125731590452 137.81019241905608 -8.1066252957456964e-044 2.0789586454417132e-015 -1 5.1369465884808178e-046 5.7999999999999829 1.20579601435619e-014 0 1 I I #
coedge $-1 $392 $392 $329 $395 forward $327 $-1 #
coedge $-1 $328 $436 $430 $445 forward $260 $-1 #
edge $-1 $431 $377 $328 $446 forward #
edge $-1 $447 $447 $392 $448 forward #
loop $-1 $-1 $418 $330 #
plane-surface $-1 168.57294303481612 160.81019241905602 3.7537500000000645 1 2.0177283277505943e-015 2.2494910827332062e-032 -2.2494910827332062e-032 1.7363486161206655e-046 1 forward_v I I I I #
coedge $-1 $449 $450 $349 $415 reversed $331 $-1 #
coedge $-1 $344 $333 $450 $451 reversed $264 $-1 #
coedge $-1 $335 $334 $360 $424 reversed $208 $-1 #
coedge $-1 $452 $418 $335 $402 forward $396 $-1 #
edge $-1 $403 $453 $335 $454 forward #
vertex $-1 $402 $455 #
intcurve-curve $-1 forward { exactcur nurbs 2 open 2 
	0 2 7.5968045524011414 2 
	162.07125731590463 157.7960180036973 -7.5074999999999301 1 
	165.32210017536033 156.71240371721211 -5.6306250000000233 1.1547005383792355 
	168.57294303481603 157.7960180036973 -3.7537500000001267 1 
	0 
	null_surface 
	null_surface 
	nullbs 
	nullbs 
	I I 
	0 
	0 
	0 
	F 1 F 0 } I I #
coedge $-1 $342 $360 $338 $406 forward $286 $-1 #
edge $-1 $407 $347 $405 $456 forward #
vertex $-1 $424 $457 #
straight-curve $-1 162.07125731590455 158.81019241905602 -7.5074999999999648 2.0177283277505943e-015 -1 2.19023480418598e-046 I I #
point $-1 162.07125731590455 157.7960180036973 -7.5074999999999648 #
coedge $-1 $458 $342 $344 $412 forward $286 $-1 #
intcurve-curve $-1 forward { exactcur nurbs 2 open 2 
	0 2 7.5968045524016858 2 
	155.56957159699286 159.82436683441475 -3.753750000000089 1 
	155.56957159699286 160.90798112090005 -1.4625484047429514e-031 1.1547005383792179 
	155.56957159699286 159.82436683441475 3.753750000000089 1 
	0 
	null_surface 
	null_surface 
	nullbs 
	nullbs 
	I I 
	0 
	0 
	0 
	F 1 F 0 } I I #
edge $-1 $345 $459 $410 $460 forward #
point $-1 155.56957159699286 159.82436683441475 3.7537500000000756 #
point $-1 155.56957159699286 159.82436683441475 -3.753750000000069 #
edge $-1 $461 $416 $349 $462 forward #
vertex $-1 $415 $463 #
intcurve-curve $-1 forward { exactcur nurbs 2 open 2 
	0 2 7.5968045524011361 2 
	162.07125731590435 157.7960180036973 7.507499999999931 1 
	158.82041445644865 156.71240371721208 5.6306250000000304 1.1547005383792355 
	155.56957159699297 157.79601800369727 3.7537500000001387 1 
	0 
	null_surface 
	null_surface 
	nullbs 
	nullbs 
	I I 
	0 
	0 
	0 
	F 1 F 0 } I I #
coedge $-1 $401 $464 $352 $419 reversed $396 $-1 #
edge $-1 $403 $461 $352 $465 forward #
vertex $-1 $357 $466 #
ellipse-curve $-1 162.07125731590449 156.81019241905599 -3.8725583717103589e-044 2.0177283277505943e-015 -1 2.19023480418598e-046 5.7999999999999829 1.1702824300953412e-014 1.3047048279852557e-031 1 I I #
coedge $-1 $422 $422 $361 $425 forward $359 $-1 #
coedge $-1 $360 $458 $452 $467 forward $286 $-1 #
edge $-1 $453 $407 $360 $468 forward #
edge $-1 $469 $469 $422 $470 forward #
point $-1 158.67125731590463 210.81019241905602 0 #
coedge $-1 $471 $368 $442 $472 reversed $299 $-1 #
coedge $-1 $368 $471 $369 $429 forward $299 $-1 #
edge $-1 $437 $386 $428 $473 forward #
coedge $-1 $442 $371 $393 $445 reversed $366 $-1 #
vertex $-1 $394 $474 #
straight-curve $-1 168.57294303481609 139.81019241905614 -3.753750000000093 -2.0789586454417132e-015 1 -5.1369465884808178e-046 I I #
point $-1 168.57294303481609 138.79601800369738 -3.753750000000093 #
intcurve-curve $-1 forward { exactcur nurbs 2 open 2 
	0 2 7.5968045524014345 2 
	162.07125731590452 140.82436683441483 -7.5074999999999985 1 
	158.8204144564487 141.90798112090005 -5.6306250000000304 1.1547005383792921 
	155.56957159699289 140.82436683441483 -3.7537500000000619 1 
	0 
	null_surface 
	null_surface 
	nullbs 
	nullbs 
	I I 
	0 
	0 
	0 
	F 1 F 0 } I I #
point $-1 162.07125731590452 140.82436683441483 -7.5075000000000003 #
coedge $-1 $393 $380 $471 $475 forward $260 $-1 #
vertex $-1 $475 $476 #
intcurve-curve $-1 forward { exactcur nurbs 2 open 2 
	0 2 7.5968045524014274 2 
	155.56957159699289 140.82436683441483 3.7537500000000765 1 
	158.8204144564487 141.90798112090005 5.6306250000000402 1.1547005383792921 
	162.07125731590452 140.82436683441483 7.5074999999999994 1 
	0 
	null_surface 
	null_surface 
	nullbs 
	nullbs 
	I I 
	0 
	0 
	0 
	F 1 F 0 } I I #
vertex $-1 $389 $477 #
intcurve-curve $-1 forward { exactcur nurbs 2 open 2 
	0 2 7.5968045524011423 2 
	168.57294303481606 138.79601800369738 3.7537500000001263 1 
	165.32210017536039 137.7124037172122 5.6306250000000224 1.1547005383792355 
	162.07125731590466 138.79601800369738 7.5074999999999301 1 
	0 
	null_surface 
	null_surface 
	nullbs 
	nullbs 
	I I 
	0 
	0 
	0 
	F 1 F 0 } I I #
point $-1 162.07125731590449 138.79601800369738 7.5074999999999648 #
coedge $-1 $388 $430 $427 $472 forward $366 $-1 #
intcurve-curve $-1 forward { exactcur nurbs 2 open 2 
	0 2 7.5968045524014158 2 
	168.57294303481615 138.79601800369738 -3.7537499999999517 1 
	168.57294303481615 137.71240371721211 -8.101601942362401e-044 1.1547005383792834 
	168.57294303481615 138.79601800369738 3.7537499999999517 1 
	0 
	null_surface 
	null_surface 
	nullbs 
	nullbs 
	I I 
	0 
	0 
	0 
	F 1 F 0 } I I #
point $-1 167.8712573159045 137.81019241905611 -8.1066252957456964e-044 #
edge $-1 $478 $431 $393 $479 forward #
intcurve-curve $-1 forward { exactcur nurbs 2 open 2 
	0 2 7.5968045524014345 2 
	168.57294303481615 140.82436683441486 -3.7537500000000619 1 
	165.32210017536033 141.90798112090008 -5.6306250000000304 1.1547005383792921 
	162.07125731590452 140.82436683441483 -7.5074999999999985 1 
	0 
	null_surface 
	null_surface 
	nullbs 
	nullbs 
	I I 
	0 
	0 
	0 
	F 1 F 0 } I I #
vertex $-1 $395 $480 #
ellipse-curve $-1 162.07125731590452 141.81019241905608 -8.3121031592849287e-044 2.0789586454417132e-015 -1 5.1369465884808178e-046 5.8000000000000114 1.2057960143561962e-014 0 1 I I #
coedge $-1 $481 $398 $464 $482 reversed $331 $-1 #
coedge $-1 $398 $481 $399 $451 forward $331 $-1 #
edge $-1 $459 $416 $450 $483 forward #
coedge $-1 $464 $401 $423 $467 reversed $396 $-1 #
vertex $-1 $424 $484 #
straight-curve $-1 168.57294303481606 158.81019241905605 -3.753750000000093 -2.0177283277505943e-015 1 -2.19023480418598e-046 I I #
point $-1 168.57294303481606 157.7960180036973 -3.753750000000093 #
intcurve-curve $-1 forward { exactcur nurbs 2 open 2 
	0 2 7.5968045524014345 2 
	162.07125731590449 159.82436683441475 -7.5074999999999985 1 
	158.82041445644865 160.90798112089996 -5.6306250000000304 1.1547005383792921 
	155.56957159699286 159.82436683441475 -3.7537500000000619 1 
	0 
	null_surface 
	null_surface 
	nullbs 
	nullbs 
	I I 
	0 
	0 
	0 
	F 1 F 0 } I I #
point $-1 162.07125731590449 159.82436683441475 -7.5075000000000003 #
coedge $-1 $423 $410 $481 $485 forward $286 $-1 #
vertex $-1 $485 $486 #
intcurve-curve $-1 forward { exactcur nurbs 2 open 2 
	0 2 7.5968045524014274 2 
	155.56957159699286 159.82436683441475 3.7537500000000765 1 
	158.82041445644865 160.90798112089996 5.6306250000000402 1.1547005383792921 
	162.07125731590449 159.82436683441475 7.5074999999999994 1 
	0 
	null_surface 
	null_surface 
	nullbs 
	nullbs 
	I I 
	0 
	0 
	0 
	F 1 F 0 } I I #
vertex $-1 $419 $487 #
intcurve-curve $-1 forward { exactcur nurbs 2 open 2 
	0 2 7.5968045524011423 2 
	168.57294303481603 157.7960180036973 3.7537500000001263 1 
	165.32210017536033 156.71240371721211 5.6306250000000224 1.1547005383792355 
	162.07125731590463 157.7960180036973 7.5074999999999301 1 
	0 
	null_surface 
	null_surface 
	nullbs 
	nullbs 
	I I 
	0 
	0 
	0 
	F 1 F 0 } I I #
point $-1 162.07125731590446 157.7960180036973 7.5074999999999648 #
coedge $-1 $418 $452 $449 $482 forward $396 $-1 #
intcurve-curve $-1 forward { exactcur nurbs 2 open 2 
	0 2 7.5968045524014158 2 
	168.57294303481612 157.7960180036973 -3.7537499999999517 1 
	168.57294303481612 156.71240371721203 1.4625484047421682e-031 1.1547005383792834 
	168.57294303481612 157.7960180036973 3.7537499999999517 1 
	0 
	null_surface 
	null_surface 
	nullbs 
	nullbs 
	I I 
	0 
	0 
	0 
	F 1 F 0 } I I #
point $-1 167.87125731590447 156.81019241905602 1.3047048279848684e-031 #
edge $-1 $488 $453 $423 $489 forward #
intcurve-curve $-1 forward { exactcur nurbs 2 open 2 
	0 2 7.5968045524014345 2 
	168.57294303481612 159.82436683441477 -3.7537500000000619 1 
	165.3221001753603 160.90798112089999 -5.6306250000000304 1.1547005383792921 
	162.07125731590449 159.82436683441475 -7.5074999999999985 1 
	0 
	null_surface 
	null_surface 
	nullbs 
	nullbs 
	I I 
	0 
	0 
	0 
	F 1 F 0 } I I #
vertex $-1 $425 $490 #
ellipse-curve $-1 162.07125731590449 160.81019241905602 -3.9601677638777983e-044 2.0177283277505943e-015 -1 2.19023480418598e-046 5.8000000000000114 1.1702824300953472e-014 1.3047048279852623e-031 1 I I #
coedge $-1 $428 $427 $436 $475 reversed $299 $-1 #
edge $-1 $478 $439 $442 $491 forward #
straight-curve $-1 162.07125731590449 139.81019241905611 7.5074999999999648 2.0789586454417132e-015 -1 5.1369465884808178e-046 I I #
point $-1 168.57294303481615 140.82436683441486 -3.753750000000069 #
edge $-1 $437 $478 $436 $492 forward #
point $-1 162.07125731590452 140.82436683441483 7.5075000000000003 #
point $-1 168.57294303481609 138.79601800369738 3.753750000000093 #
vertex $-1 $445 $493 #
intcurve-curve $-1 forward { exactcur nurbs 2 open 2 
	0 2 7.5968045524016858 2 
	168.57294303481615 140.82436683441486 3.753750000000089 1 
	168.57294303481615 141.90798112090016 -8.317126512668227e-044 1.1547005383792179 
	168.57294303481615 140.82436683441486 -3.753750000000089 1 
	0 
	null_surface 
	null_surface 
	nullbs 
	nullbs 
	I I 
	0 
	0 
	0 
	F 1 F 0 } I I #
point $-1 167.87125731590453 141.81019241905611 -8.3121031592849287e-044 #
coedge $-1 $450 $449 $458 $485 reversed $331 $-1 #
edge $-1 $488 $461 $464 $494 forward #
straight-curve $-1 162.07125731590446 158.81019241905602 7.5074999999999648 2.0177283277505943e-015 -1 2.19023480418598e-046 I I #
point $-1 168.57294303481612 159.82436683441477 -3.753750000000069 #
edge $-1 $459 $488 $458 $495 forward #
point $-1 162.07125731590449 159.82436683441475 7.5075000000000003 #
point $-1 168.57294303481606 157.7960180036973 3.753750000000093 #
vertex $-1 $467 $496 #
intcurve-curve $-1 forward { exactcur nurbs 2 open 2 
	0 2 7.5968045524016858 2 
	168.57294303481612 159.82436683441477 3.753750000000089 1 
	168.57294303481612 160.90798112090005 1.4625484047421588e-031 1.1547005383792179 
	168.57294303481612 159.82436683441477 -3.753750000000089 1 
	0 
	null_surface 
	null_surface 
	nullbs 
	nullbs 
	I I 
	0 
	0 
	0 
	F 1 F 0 } I I #
point $-1 167.8712573159045 160.81019241905602 1.3047048279848662e-031 #
straight-curve $-1 168.57294303481609 139.81019241905614 3.753750000000093 2.0789586454417132e-015 -1 5.1369465884808178e-046 I I #
intcurve-curve $-1 forward { exactcur nurbs 2 open 2 
	0 2 7.5968045524014345 2 
	162.07125731590452 140.82436683441483 7.5074999999999985 1 
	165.32210017536033 141.90798112090008 5.6306250000000304 1.1547005383792921 
	168.57294303481615 140.82436683441486 3.7537500000000619 1 
	0 
	null_surface 
	null_surface 
	nullbs 
	nullbs 
	I I 
	0 
	0 
	0 
	F 1 F 0 } I I #
point $-1 168.57294303481615 140.82436683441486 3.753750000000069 #
straight-curve $-1 168.57294303481606 158.81019241905605 3.753750000000093 2.0177283277505943e-015 -1 2.19023480418598e-046 I I #
intcurve-curve $-1 forward { exactcur nurbs 2 open 2 
	0 2 7.5968045524014345 2 
	162.07125731590449 159.82436683441475 7.5074999999999985 1 
	165.3221001753603 160.90798112089999 5.6306250000000304 1.1547005383792921 
	168.57294303481612 159.82436683441477 3.7537500000000619 1 
	0 
	null_surface 
	null_surface 
	nullbs 
	nullbs 
	I I 
	0 
	0 
	0 
	F 1 F 0 } I I #
point $-1 168.57294303481612 159.82436683441477 3.753750000000069 #
End-of-ACIS-data 