400 0 3 0           
28 Autodesk Inventor 6.0.0.9000 16 ASM 6.0.0.192 NT 24 Tue Jan 13 15:40:09 2004 
1 9.9999999999999995e-007 1e-010 
body $-1 $3 $-1 $-1 #
body $-1 $4 $-1 $-1 #
body $-1 $5 $-1 $-1 #
lump $-1 $-1 $6 $0 #
lump $-1 $-1 $7 $1 #
lump $-1 $-1 $8 $2 #
shell $-1 $-1 $-1 $9 $-1 $3 #
shell $-1 $-1 $-1 $10 $-1 $4 #
shell $-1 $-1 $-1 $11 $-1 $5 #
face $-1 $12 $13 $6 $-1 $14 forward single #
face $-1 $15 $16 $7 $-1 $17 reversed single #
face $-1 $18 $19 $8 $-1 $20 reversed single #
face $-1 $21 $22 $6 $-1 $23 forward single #
loop $-1 $24 $25 $9 #
cone-surface $-1 202.79268284309137 164.6151544755046 0 -3.7396986092636879e-016 1 0 -5.0000000000002132 0 0 1 I I 0 1 5.0000000000002132 forward I I I I #
face $-1 $26 $27 $7 $-1 $28 reversed single #
loop $-1 $29 $30 $10 #
cone-surface $-1 202.7926828430914 143.70399279548957 -3.944304526105059e-030 3.1273954323524993e-016 -1 9.6323715406970508e-048 -4.737772558503007 -1.4816888258987319e-015 1.421010282982747e-031 1 I I -0.86602540378443871 0.49999999999999983 4.737772558503007 forward I I I I #
face $-1 $31 $32 $8 $-1 $33 reversed single #
loop $-1 $34 $35 $11 #
cone-surface $-1 202.7926828430914 162.70399279548954 4.5276089177526086e-048 2.5150922554413107e-016 -1 5.7591320371596212e-048 -4.737772558503007 -1.1915935069933277e-015 -1.421010282982747e-031 1 I I -0.86602540378443871 0.49999999999999983 4.737772558503007 forward I I I I #
face $-1 $36 $37 $6 $-1 $38 forward single #
loop $-1 $39 $40 $12 #
cone-surface $-1 202.79268284309131 202.11515447550298 0 -3.7396986092636879e-016 1 0 -4.6250000000001279 0 0 1 I I -0.70710678118659798 0.70710678118649706 4.6250000000001279 forward I I I I #
loop $-1 $-1 $41 $9 #
coedge $-1 $25 $25 $42 $43 reversed $13 $-1 #
face $-1 $44 $45 $7 $-1 $46 reversed single #
loop $-1 $47 $48 $15 #
plane-surface $-1 198.0549102845884 144.021404475503 -3.8022034978067849e-030 -3.1273954323524993e-016 1 -9.6323715406970508e-048 -2.9993214436442749e-032 -1.9012435723707064e-047 -1 forward_v I I I I #
loop $-1 $-1 $49 $10 #
coedge $-1 $30 $30 $50 $51 reversed $16 $-1 #
face $-1 $52 $53 $8 $-1 $54 reversed single #
loop $-1 $55 $56 $18 #
plane-surface $-1 198.0549102845884 163.021404475503 -1.4210102829827437e-031 -2.5150922554413107e-016 1 -5.7591320371596212e-048 2.9993214436442749e-032 1.7844380973291463e-048 -1 forward_v I I I I #
loop $-1 $-1 $57 $11 #
coedge $-1 $35 $35 $58 $59 reversed $19 $-1 #
face $-1 $60 $61 $6 $-1 $62 forward single #
loop $-1 $-1 $63 $21 #
plane-surface $-1 200.66768284309131 202.490154475503 0 -3.7396986092636879e-016 1 0 0 0 10 forward_v I I I I #
loop $-1 $-1 $42 $12 #
coedge $-1 $40 $40 $63 $64 reversed $22 $-1 #
coedge $-1 $41 $41 $65 $66 forward $24 $-1 #
coedge $-1 $42 $42 $25 $43 forward $39 $-1 #
edge $-1 $67 $67 $42 $68 forward #
face $-1 $69 $70 $7 $-1 $71 reversed single #
loop $-1 $72 $73 $26 #
cone-surface $-1 202.7926828430914 139.724529475503 -3.944304526105059e-030 3.1273954323524993e-016 -1 9.6323715406970508e-048 4.594050591976071 1.4367412837342261e-015 -1.3779034453700505e-031 1 I I 0.86602540378443205 0.50000000000001144 4.594050591976071 forward I I I I #
loop $-1 $-1 $74 $15 #
coedge $-1 $48 $48 $75 $76 forward $27 $-1 #
coedge $-1 $49 $49 $74 $77 reversed $29 $-1 #
coedge $-1 $50 $50 $30 $51 forward $78 $-1 #
edge $-1 $79 $79 $50 $80 forward #
face $-1 $81 $82 $8 $-1 $83 reversed single #
loop $-1 $84 $85 $31 #
cone-surface $-1 202.7926828430914 158.724529475503 2.7445863614588657e-047 2.5150922554413107e-016 -1 5.7591320371596212e-048 4.594050591976071 1.1554461064984584e-015 1.3779034453700505e-031 1 I I 0.86602540378443205 0.50000000000001144 4.594050591976071 forward I I I I #
loop $-1 $-1 $86 $18 #
coedge $-1 $56 $56 $87 $88 forward $32 $-1 #
coedge $-1 $57 $57 $86 $89 reversed $34 $-1 #
coedge $-1 $58 $58 $35 $59 forward $90 $-1 #
edge $-1 $91 $91 $58 $92 forward #
face $-1 $93 $94 $6 $-1 $95 forward single #
loop $-1 $-1 $96 $36 #
plane-surface $-1 198.04268284309131 107.49015447550306 0 3.7396986092636879e-016 -1 0 0 0 -10 forward_v I I I I #
coedge $-1 $63 $63 $40 $64 forward $37 $-1 #
edge $-1 $97 $97 $63 $98 forward #
coedge $-1 $65 $65 $41 $66 reversed $99 $-1 #
edge $-1 $100 $100 $41 $101 forward #
vertex $-1 $43 $102 #
ellipse-curve $-1 202.79268284309131 201.74015447550295 0 -3.7396986092636879e-016 1 0 -5.0000000000001776 0 0 1 I I #
face $-1 $103 $104 $7 $-1 $105 forward single #
loop $-1 $106 $75 $44 #
cone-surface $-1 202.7926828430914 144.255779475503 -3.944304526105059e-030 3.1273954323524993e-016 -1 9.6323715406970508e-048 4.594050591976071 1.4367412837342261e-015 -1.3779034453700505e-031 1 I I -0.86602540378444515 0.49999999999998873 4.594050591976071 forward I I I I #
loop $-1 $-1 $107 $26 #
coedge $-1 $73 $73 $108 $109 reversed $45 $-1 #
coedge $-1 $74 $74 $49 $77 forward $47 $-1 #
coedge $-1 $75 $75 $48 $76 reversed $70 $-1 #
edge $-1 $110 $110 $75 $111 forward #
edge $-1 $112 $112 $49 $113 forward #
loop $-1 $114 $50 $115 #
vertex $-1 $51 $116 #
ellipse-curve $-1 202.7926828430914 143.38663987942678 -3.944304526105059e-030 -3.1273954323524993e-016 1 -9.6323715406970508e-048 4.188101183952142 1.3097848512922024e-015 -1.2561461689179635e-031 1 I I #
face $-1 $117 $118 $8 $-1 $119 forward single #
loop $-1 $120 $87 $52 #
cone-surface $-1 202.7926828430914 163.255779475503 1.3497965712091226e-048 2.5150922554413107e-016 -1 5.7591320371596212e-048 4.594050591976071 1.1554461064984584e-015 1.3779034453700505e-031 1 I I -0.86602540378444515 0.49999999999998873 4.594050591976071 forward I I I I #
loop $-1 $-1 $121 $31 #
coedge $-1 $85 $85 $122 $123 reversed $53 $-1 #
coedge $-1 $86 $86 $57 $89 forward $55 $-1 #
coedge $-1 $87 $87 $56 $88 reversed $82 $-1 #
edge $-1 $124 $124 $87 $125 forward #
edge $-1 $126 $126 $57 $127 forward #
loop $-1 $128 $58 $129 #
vertex $-1 $59 $130 #
ellipse-curve $-1 202.7926828430914 162.38663987942675 6.3552862637356741e-048 -2.5150922554413107e-016 1 -5.7591320371596212e-048 4.188101183952142 1.0533460852762616e-015 1.2561461689179635e-031 1 I I #
face $-1 $131 $132 $6 $-1 $133 forward single #
loop $-1 $134 $135 $60 #
cone-surface $-1 202.79268284309137 108.99015447550306 0 -3.7396986092636879e-016 1 0 -9.5000000000000639 0 0 1 I I 0 1 9.5000000000000639 forward I I I I #
coedge $-1 $96 $96 $136 $137 reversed $61 $-1 #
vertex $-1 $64 $138 #
ellipse-curve $-1 202.79268284309131 202.490154475503 0 -3.7396986092636879e-016 1 0 -4.2500000000000426 0 0 1 I I #
loop $-1 $139 $65 $140 #
vertex $-1 $66 $141 #
ellipse-curve $-1 202.79268284309137 127.49015447550622 0 -3.7396986092636879e-016 1 0 -5.0000000000002132 0 0 1 I I #
point $-1 197.79268284309114 201.74015447550295 0 #
face $-1 $142 $143 $7 $-1 $144 forward single #
loop $-1 $-1 $145 $69 #
plane-surface $-1 194.79060811212324 144.49015447550298 -4.6200000000000792 -1 -3.1273954323524993e-016 2.9993214436442749e-032 -2.9993214436442749e-032 -1.9012435723707064e-047 -1 forward_v I I I I #
loop $-1 $-1 $146 $44 #
coedge $-1 $107 $107 $147 $148 reversed $72 $-1 #
coedge $-1 $108 $108 $73 $109 forward $149 $-1 #
edge $-1 $150 $150 $108 $151 forward #
vertex $-1 $76 $152 #
ellipse-curve $-1 202.7926828430914 144.02140447550303 -3.944304526105059e-030 -3.1273954323524993e-016 1 -9.6323715406970508e-048 4.188101183952142 1.3097848512922024e-015 -1.2561461689179635e-031 1 I I #
vertex $-1 $77 $153 #
ellipse-curve $-1 202.7926828430914 144.021404475503 -3.944304526105059e-030 3.1273954323524993e-016 -1 9.6323715406970508e-048 -5.2875457152021141 -1.653624631807812e-015 1.5859049247855105e-031 1 I I #
loop $-1 $-1 $147 $115 #
face $-1 $154 $78 $7 $-1 $155 forward single #
point $-1 198.60458165913926 143.38663987942678 -3.818689909213263e-030 #
face $-1 $156 $157 $8 $-1 $158 forward single #
loop $-1 $-1 $159 $81 #
plane-surface $-1 194.79060811212324 163.49015447550298 -4.6200000000000792 -1 -2.5150922554413107e-016 -2.9993214436442749e-032 2.9993214436442749e-032 1.7844380973291463e-048 -1 forward_v I I I I #
loop $-1 $-1 $160 $52 #
coedge $-1 $121 $121 $161 $162 reversed $84 $-1 #
coedge $-1 $122 $122 $85 $123 forward $163 $-1 #
edge $-1 $164 $164 $122 $165 forward #
vertex $-1 $88 $166 #
ellipse-curve $-1 202.7926828430914 163.02140447550303 2.6995931424182451e-048 -2.5150922554413107e-016 1 -5.7591320371596212e-048 4.188101183952142 1.0533460852762616e-015 1.2561461689179635e-031 1 I I #
vertex $-1 $89 $167 #
ellipse-curve $-1 202.7926828430914 163.021404475503 2.6995931424184089e-048 2.5150922554413107e-016 -1 5.7591320371596212e-048 -5.2875457152021141 -1.3298665278596723e-015 -1.5859049247855105e-031 1 I I #
loop $-1 $-1 $161 $129 #
face $-1 $168 $90 $8 $-1 $169 forward single #
point $-1 198.60458165913926 162.38663987942675 -1.2561461689179635e-031 #
face $-1 $170 $171 $6 $-1 $172 forward single #
loop $-1 $173 $174 $93 #
torus-surface $-1 202.79268284309137 124.93654432005553 0 -3.7396986092636879e-016 1 0 29.773706252139753 -24.894203034819903 0 0 1 forward_v I I I I #
loop $-1 $-1 $136 $60 #
coedge $-1 $135 $135 $175 $176 reversed $94 $-1 #
coedge $-1 $136 $136 $96 $137 forward $134 $-1 #
edge $-1 $177 $177 $136 $178 forward #
point $-1 198.54268284309128 202.490154475503 0 #
loop $-1 $-1 $179 $140 #
face $-1 $-1 $99 $6 $-1 $180 forward single #
point $-1 197.79268284309114 127.49015447550622 0 #
face $-1 $181 $182 $7 $-1 $183 forward single #
loop $-1 $-1 $184 $103 #
plane-surface $-1 202.7926828430914 144.49015447550298 -9.2399999999999949 -0.49999999999999561 -1.5636977161762359e-016 -0.86602540378444126 -3.1273954323524993e-016 1 -9.6323715406970508e-048 forward_v I I I I #
coedge $-1 $185 $186 $187 $188 reversed $104 $-1 #
coedge $-1 $146 $146 $189 $190 reversed $106 $-1 #
coedge $-1 $147 $147 $107 $148 forward $114 $-1 #
edge $-1 $191 $191 $147 $192 forward #
loop $-1 $193 $108 $194 #
vertex $-1 $109 $195 #
ellipse-curve $-1 202.7926828430914 139.490154475503 -3.944304526105059e-030 -3.1273954323524993e-016 1 -9.6323715406970508e-048 5.0000000000000142 1.5636977161762541e-015 -1.4996607218221418e-031 1 I I #
point $-1 206.98078402704351 144.021404475503 -4.0699191429968551e-030 #
point $-1 197.50513712788927 144.021404475503 -3.7857140336265079e-030 #
face $-1 $196 $197 $7 $-1 $198 forward single #
cone-surface $-1 202.7926828430914 141.990154475503 -3.944304526105059e-030 3.1273954323524993e-016 -1 9.6323715406970508e-048 4.188101183952142 1.3097848512922024e-015 -1.2561461689179635e-031 1 I I 0 -1 4.188101183952142 forward I I I I #
face $-1 $199 $200 $8 $-1 $201 forward single #
loop $-1 $-1 $202 $117 #
plane-surface $-1 202.7926828430914 163.49015447550298 -9.2399999999999949 -0.49999999999999561 -1.2575461277206442e-016 -0.86602540378444126 -2.5150922554413107e-016 1 -5.7591320371596212e-048 forward_v I I I I #
coedge $-1 $203 $204 $205 $206 reversed $118 $-1 #
coedge $-1 $160 $160 $207 $208 reversed $120 $-1 #
coedge $-1 $161 $161 $121 $162 forward $128 $-1 #
edge $-1 $209 $209 $161 $210 forward #
loop $-1 $211 $122 $212 #
vertex $-1 $123 $213 #
ellipse-curve $-1 202.7926828430914 158.490154475503 2.8795660185797942e-047 -2.5150922554413107e-016 1 -5.7591320371596212e-048 5.0000000000000142 1.257546127720659e-015 1.4996607218221418e-031 1 I I #
point $-1 206.98078402704351 163.021404475503 1.2561461689179552e-031 #
point $-1 197.50513712788927 163.021404475503 -1.5859049247855149e-031 #
face $-1 $214 $215 $8 $-1 $216 forward single #
cone-surface $-1 202.7926828430914 160.990154475503 1.4397830092898888e-047 2.5150922554413107e-016 -1 5.7591320371596212e-048 4.188101183952142 1.0533460852762616e-015 1.2561461689179635e-031 1 I I 0 -1 4.188101183952142 forward I I I I #
face $-1 $217 $218 $6 $-1 $219 forward single #
loop $-1 $220 $221 $131 #
cone-surface $-1 202.79268284309137 122.990154475503 0 -3.7396986092636879e-016 1 0 -4.5000000000000284 0 0 1 I I -0.70710678118650383 0.70710678118659132 4.5000000000000284 forward I I I I #
loop $-1 $-1 $175 $93 #
coedge $-1 $174 $174 $222 $223 reversed $132 $-1 #
coedge $-1 $175 $175 $135 $176 forward $173 $-1 #
edge $-1 $224 $224 $175 $225 forward #
vertex $-1 $137 $226 #
ellipse-curve $-1 202.79268284309137 107.49015447550306 0 -3.7396986092636879e-016 1 0 -9.5000000000000639 0 0 1 I I #
coedge $-1 $179 $179 $227 $228 forward $139 $-1 #
cone-surface $-1 202.79268284309137 126.7401544755063 0 -3.7396986092636879e-016 1 0 -4.2500000000001492 0 0 1 I I 0.70710678118660175 0.70710678118649339 4.2500000000001492 forward I I I I #
face $-1 $229 $230 $7 $-1 $231 forward single #
loop $-1 $-1 $232 $142 #
plane-surface $-1 210.79475757405956 144.49015447550298 -4.6200000000000792 0.49999999999999561 1.5636977161762359e-016 -0.86602540378444126 -3.1273954323524993e-016 1 -9.6323715406970508e-048 forward_v I I I I #
coedge $-1 $233 $234 $235 $236 reversed $143 $-1 #
coedge $-1 $237 $145 $238 $239 reversed $104 $-1 #
coedge $-1 $145 $237 $233 $240 forward $104 $-1 #
coedge $-1 $235 $241 $145 $188 forward $242 $-1 #
edge $-1 $243 $244 $187 $245 forward #
coedge $-1 $189 $189 $146 $190 forward $197 $-1 #
edge $-1 $246 $246 $189 $247 forward #
vertex $-1 $148 $248 #
ellipse-curve $-1 202.7926828430914 139.958904475503 -3.944304526105059e-030 3.1273954323524993e-016 -1 9.6323715406970508e-048 4.188101183952142 1.3097848512922024e-015 -1.2561461689179635e-031 1 I I #
loop $-1 $-1 $249 $194 #
face $-1 $-1 $149 $7 $-1 $250 forward single #
point $-1 207.7926828430914 139.490154475503 -4.0942705982872728e-030 #
face $-1 $251 $252 $7 $-1 $253 forward single #
loop $-1 $254 $189 $154 #
plane-surface $-1 208.5367334350675 144.49015447550298 -4.1165870672439733e-030 -3.1273954323524993e-016 1 -9.6323715406970508e-048 2.9993214436442749e-032 1.9012435723707064e-047 1 forward_v I I I I #
face $-1 $255 $256 $8 $-1 $257 forward single #
loop $-1 $-1 $258 $156 #
plane-surface $-1 210.79475757405956 163.49015447550298 -4.6200000000000792 0.49999999999999561 1.2575461277206442e-016 -0.86602540378444126 -2.5150922554413107e-016 1 -5.7591320371596212e-048 forward_v I I I I #
coedge $-1 $259 $260 $261 $262 reversed $157 $-1 #
coedge $-1 $263 $159 $264 $265 reversed $118 $-1 #
coedge $-1 $159 $263 $259 $266 forward $118 $-1 #
coedge $-1 $261 $267 $159 $206 forward $268 $-1 #
edge $-1 $269 $270 $205 $271 forward #
coedge $-1 $207 $207 $160 $208 forward $215 $-1 #
edge $-1 $272 $272 $207 $273 forward #
vertex $-1 $162 $274 #
ellipse-curve $-1 202.7926828430914 158.958904475503 2.6096067043379372e-047 2.5150922554413107e-016 -1 5.7591320371596212e-048 4.188101183952142 1.0533460852762616e-015 1.2561461689179635e-031 1 I I #
loop $-1 $-1 $275 $212 #
face $-1 $-1 $163 $8 $-1 $276 forward single #
point $-1 207.7926828430914 158.490154475503 1.4996607218221377e-031 #
face $-1 $277 $278 $8 $-1 $279 forward single #
loop $-1 $280 $207 $168 #
plane-surface $-1 208.5367334350675 163.49015447550298 1.7228254113891438e-031 -2.5150922554413107e-016 1 -5.7591320371596212e-048 -2.9993214436442749e-032 -1.7844380973291463e-048 1 forward_v I I I I #
face $-1 $140 $281 $6 $-1 $282 forward single #
loop $-1 $283 $284 $170 #
plane-surface $-1 199.04268284309128 123.49015447550303 0 -3.7396986092636879e-016 1 0 0 0 10 forward_v I I I I #
loop $-1 $-1 $222 $131 #
coedge $-1 $221 $221 $285 $286 reversed $171 $-1 #
coedge $-1 $222 $222 $174 $223 forward $220 $-1 #
edge $-1 $287 $287 $222 $288 forward #
vertex $-1 $176 $289 #
ellipse-curve $-1 202.79268284309137 110.49015447550306 0 -3.7396986092636879e-016 1 0 -9.5000000000000639 0 0 1 I I #
point $-1 193.29268284309131 107.49015447550306 0 #
coedge $-1 $227 $227 $179 $228 reversed $281 $-1 #
edge $-1 $290 $290 $179 $291 forward #
face $-1 $292 $293 $7 $-1 $294 forward single #
loop $-1 $-1 $295 $181 #
plane-surface $-1 194.79060811212324 144.49015447550298 4.6200000000000863 -0.49999999999999506 -1.5636977161762341e-016 0.86602540378444159 3.1273954323524993e-016 -1 9.6323715406970508e-048 forward_v I I I I #
coedge $-1 $296 $297 $298 $299 reversed $182 $-1 #
coedge $-1 $300 $184 $186 $240 reversed $143 $-1 #
coedge $-1 $184 $300 $296 $301 forward $143 $-1 #
coedge $-1 $298 $187 $184 $236 forward $242 $-1 #
edge $-1 $244 $302 $235 $303 forward #
coedge $-1 $186 $185 $304 $305 reversed $104 $-1 #
coedge $-1 $295 $306 $185 $239 forward $230 $-1 #
edge $-1 $307 $243 $238 $308 forward #
edge $-1 $309 $244 $186 $310 forward #
coedge $-1 $187 $311 $295 $312 forward $242 $-1 #
loop $-1 $313 $314 $251 #
vertex $-1 $239 $315 #
vertex $-1 $240 $316 #
intcurve-curve $-1 forward { exactcur nurbs 2 open 2 
	0 2 9.3499132952637094 2 
	194.79060811212324 140.61021399773088 4.6200000000001511 1 
	194.79060811212324 139.27653487590277 -3.7042965827626907e-030 1.154700538379269 
	194.79060811212324 140.61021399773088 -4.6200000000001511 1 
	0 
	null_surface 
	null_surface 
	nullbs 
	nullbs 
	I I 
	0 
	0 
	0 
	F 1 F 0 } I I #
vertex $-1 $190 $317 #
ellipse-curve $-1 202.7926828430914 144.49015447550298 -3.944304526105059e-030 3.1273954323524993e-016 -1 9.6323715406970508e-048 4.9999999999999893 1.5636977161762464e-015 -1.4996607218221342e-031 1 I I #
point $-1 206.98078402704351 139.958904475503 -4.0699191429968551e-030 #
coedge $-1 $249 $249 $318 $319 forward $193 $-1 #
plane-surface $-1 208.53673343506745 139.490154475503 -4.1165870672439726e-030 3.1273954323524993e-016 -1 9.6323715406970508e-048 -2.9993214436442749e-032 -1.9012435723707064e-047 -1 forward_v I I I I #
face $-1 $194 $242 $7 $-1 $320 forward single #
loop $-1 $321 $322 $196 #
cone-surface $-1 202.7926828430914 143.93012471438902 -3.944304526105059e-030 3.1273954323524993e-016 -1 9.6323715406970508e-048 8.2700000000000102 2.58635602255552e-015 -2.4804388338938182e-031 1 I I 0.86602540378444115 0.49999999999999573 8.2700000000000102 forward I I I I #
loop $-1 $-1 $323 $154 #
face $-1 $324 $325 $8 $-1 $326 forward single #
loop $-1 $-1 $327 $199 #
plane-surface $-1 194.79060811212324 163.49015447550298 4.6200000000000863 -0.49999999999999506 -1.257546127720643e-016 0.86602540378444159 2.5150922554413107e-016 -1 5.7591320371596212e-048 forward_v I I I I #
coedge $-1 $328 $329 $330 $331 reversed $200 $-1 #
coedge $-1 $332 $202 $204 $266 reversed $157 $-1 #
coedge $-1 $202 $332 $328 $333 forward $157 $-1 #
coedge $-1 $330 $205 $202 $262 forward $268 $-1 #
edge $-1 $270 $334 $261 $335 forward #
coedge $-1 $204 $203 $336 $337 reversed $118 $-1 #
coedge $-1 $327 $338 $203 $265 forward $256 $-1 #
edge $-1 $339 $269 $264 $340 forward #
edge $-1 $341 $270 $204 $342 forward #
coedge $-1 $205 $343 $327 $344 forward $268 $-1 #
loop $-1 $345 $346 $277 #
vertex $-1 $265 $347 #
vertex $-1 $266 $348 #
intcurve-curve $-1 forward { exactcur nurbs 2 open 2 
	0 2 9.3499132952637094 2 
	194.79060811212324 159.61021399773085 4.6200000000001511 1 
	194.79060811212324 158.27653487590277 -2.4000794334236798e-031 1.154700538379269 
	194.79060811212324 159.61021399773085 -4.6200000000001511 1 
	0 
	null_surface 
	null_surface 
	nullbs 
	nullbs 
	I I 
	0 
	0 
	0 
	F 1 F 0 } I I #
vertex $-1 $208 $349 #
ellipse-curve $-1 202.7926828430914 163.49015447550298 0 2.5150922554413107e-016 -1 5.7591320371596212e-048 4.9999999999999893 1.2575461277206527e-015 1.4996607218221342e-031 1 I I #
point $-1 206.98078402704351 158.958904475503 1.2561461689179554e-031 #
coedge $-1 $275 $275 $350 $351 forward $211 $-1 #
plane-surface $-1 208.53673343506745 158.490154475503 1.7228254113891359e-031 2.5150922554413107e-016 -1 5.7591320371596212e-048 2.9993214436442749e-032 1.7844380973291463e-048 -1 forward_v I I I I #
face $-1 $212 $268 $8 $-1 $352 forward single #
loop $-1 $353 $354 $214 #
cone-surface $-1 202.7926828430914 162.93012471438902 3.2252853389942127e-048 2.5150922554413107e-016 -1 5.7591320371596212e-048 8.2700000000000102 2.0799812952499668e-015 2.4804388338938182e-031 1 I I 0.86602540378444115 0.49999999999999573 8.2700000000000102 forward I I I I #
loop $-1 $-1 $355 $168 #
loop $-1 $356 $227 $217 #
cone-surface $-1 202.79268284309137 124.7401544755047 0 -3.7396986092636879e-016 1 0 -3.5000000000001208 0 0 1 I I 0 1 3.5000000000001208 forward I I I I #
loop $-1 $-1 $285 $170 #
coedge $-1 $284 $284 $357 $358 reversed $218 $-1 #
coedge $-1 $285 $285 $221 $286 forward $283 $-1 #
edge $-1 $359 $359 $285 $360 forward #
vertex $-1 $223 $361 #
ellipse-curve $-1 202.79268284309137 122.49015447550292 0 -3.7396986092636879e-016 1 0 -5.0000000000000355 0 0 1 I I #
point $-1 193.29268284309131 110.49015447550306 0 #
vertex $-1 $228 $362 #
ellipse-curve $-1 202.79268284309137 125.99015447550636 0 -3.7396986092636879e-016 1 0 -3.5000000000001208 0 0 1 I I #
face $-1 $115 $363 $7 $-1 $364 forward single #
loop $-1 $-1 $365 $229 #
plane-surface $-1 202.7926828430914 144.49015447550298 9.2399999999999949 0.49999999999999561 1.5636977161762359e-016 0.86602540378444126 3.1273954323524993e-016 -1 9.6323715406970508e-048 forward_v I I I I #
coedge $-1 $366 $238 $241 $312 reversed $230 $-1 #
coedge $-1 $367 $232 $234 $301 reversed $182 $-1 #
coedge $-1 $232 $367 $368 $369 reversed $182 $-1 #
coedge $-1 $314 $235 $232 $299 forward $242 $-1 #
edge $-1 $302 $370 $298 $371 forward #
coedge $-1 $234 $233 $372 $373 reversed $143 $-1 #
edge $-1 $374 $302 $234 $375 forward #
vertex $-1 $301 $376 #
intcurve-curve $-1 forward { exactcur nurbs 2 open 2 
	0 2 9.3499132952635122 2 
	194.79060811212315 140.61021399773088 -4.6200000000000294 1 
	198.79164547760729 139.27653487590283 -6.9300000000000361 1.1547005383792757 
	202.79268284309148 140.61021399773091 -9.2400000000000446 1 
	0 
	null_surface 
	null_surface 
	nullbs 
	nullbs 
	I I 
	0 
	0 
	0 
	F 1 F 0 } I I #
coedge $-1 $377 $372 $237 $305 forward $252 $-1 #
edge $-1 $309 $307 $304 $378 forward #
coedge $-1 $238 $366 $377 $379 reversed $230 $-1 #
vertex $-1 $305 $380 #
straight-curve $-1 194.79060811212324 141.990154475503 4.6200000000001653 3.1273954323524993e-016 -1 9.6323715406970508e-048 I I #
vertex $-1 $373 $381 #
straight-curve $-1 194.79060811212315 141.990154475503 -4.6200000000000347 3.1273954323524993e-016 -1 9.6323715406970508e-048 I I #
coedge $-1 $241 $314 $365 $382 forward $242 $-1 #
edge $-1 $383 $243 $241 $384 forward #
loop $-1 $-1 $318 $251 #
coedge $-1 $311 $298 $385 $386 forward $242 $-1 #
point $-1 194.79060811212324 140.61021399773088 4.6200000000001653 #
point $-1 194.79060811212315 140.61021399773088 -4.6200000000000347 #
point $-1 207.7926828430914 144.49015447550298 -4.0942705982872728e-030 #
coedge $-1 $318 $318 $249 $319 reversed $313 $-1 #
edge $-1 $387 $387 $249 $388 forward #
cone-surface $-1 202.7926828430914 140.05018423661693 -3.944304526105059e-030 3.1273954323524993e-016 -1 9.6323715406970508e-048 8.2700000000000102 2.58635602255552e-015 -2.4804388338938182e-031 1 I I -0.86602540378443882 0.49999999999999978 8.2700000000000102 forward I I I I #
loop $-1 $-1 $389 $196 #
coedge $-1 $372 $390 $367 $391 forward $252 $-1 #
coedge $-1 $323 $323 $389 $392 reversed $254 $-1 #
face $-1 $129 $393 $8 $-1 $394 forward single #
loop $-1 $-1 $395 $255 #
plane-surface $-1 202.7926828430914 163.49015447550298 9.2399999999999949 0.49999999999999561 1.2575461277206442e-016 0.86602540378444126 2.5150922554413107e-016 -1 5.7591320371596212e-048 forward_v I I I I #
coedge $-1 $396 $264 $267 $344 reversed $256 $-1 #
coedge $-1 $397 $258 $260 $333 reversed $200 $-1 #
coedge $-1 $258 $397 $398 $399 reversed $200 $-1 #
coedge $-1 $346 $261 $258 $331 forward $268 $-1 #
edge $-1 $334 $400 $330 $401 forward #
coedge $-1 $260 $259 $402 $403 reversed $157 $-1 #
edge $-1 $404 $334 $260 $405 forward #
vertex $-1 $333 $406 #
intcurve-curve $-1 forward { exactcur nurbs 2 open 2 
	0 2 9.3499132952635122 2 
	194.79060811212315 159.61021399773085 -4.6200000000000294 1 
	198.79164547760729 158.27653487590283 -6.9300000000000361 1.1547005383792757 
	202.79268284309148 159.61021399773088 -9.2400000000000446 1 
	0 
	null_surface 
	null_surface 
	nullbs 
	nullbs 
	I I 
	0 
	0 
	0 
	F 1 F 0 } I I #
coedge $-1 $407 $402 $263 $337 forward $278 $-1 #
edge $-1 $341 $339 $336 $408 forward #
coedge $-1 $264 $396 $407 $409 reversed $256 $-1 #
vertex $-1 $337 $410 #
straight-curve $-1 194.79060811212324 160.990154475503 4.6200000000001653 2.5150922554413107e-016 -1 5.7591320371596212e-048 I I #
vertex $-1 $403 $411 #
straight-curve $-1 194.79060811212315 160.990154475503 -4.6200000000000347 2.5150922554413107e-016 -1 5.7591320371596212e-048 I I #
coedge $-1 $267 $346 $395 $412 forward $268 $-1 #
edge $-1 $413 $269 $267 $414 forward #
loop $-1 $-1 $350 $277 #
coedge $-1 $343 $330 $415 $416 forward $268 $-1 #
point $-1 194.79060811212324 159.61021399773085 4.6200000000001653 #
point $-1 194.79060811212315 159.61021399773085 -4.6200000000000347 #
point $-1 207.7926828430914 163.49015447550298 1.4996607218221374e-031 #
coedge $-1 $350 $350 $275 $351 reversed $345 $-1 #
edge $-1 $417 $417 $275 $418 forward #
cone-surface $-1 202.7926828430914 159.05018423661693 2.5570374846803894e-047 2.5150922554413107e-016 -1 5.7591320371596212e-048 8.2700000000000102 2.0799812952499668e-015 2.4804388338938182e-031 1 I I -0.86602540378443882 0.49999999999999978 8.2700000000000102 forward I I I I #
loop $-1 $-1 $419 $214 #
coedge $-1 $402 $420 $397 $421 forward $278 $-1 #
coedge $-1 $355 $355 $419 $422 reversed $280 $-1 #
loop $-1 $-1 $357 $217 #
coedge $-1 $357 $357 $284 $358 forward $356 $-1 #
edge $-1 $423 $423 $357 $424 forward #
vertex $-1 $286 $425 #
ellipse-curve $-1 202.79268284309137 123.49015447550306 0 -3.7396986092636879e-016 1 0 -4.0000000000000213 0 0 1 I I #
point $-1 197.79268284309131 122.49015447550292 0 #
point $-1 199.29268284309126 125.99015447550636 0 #
loop $-1 $-1 $385 $292 #
plane-surface $-1 210.79475757405956 144.49015447550298 4.6200000000000792 1 3.1273954323524993e-016 -2.9993214436442749e-032 2.9993214436442749e-032 1.9012435723707064e-047 1 forward_v I I I I #
coedge $-1 $426 $427 $311 $382 reversed $293 $-1 #
coedge $-1 $306 $295 $427 $428 reversed $230 $-1 #
coedge $-1 $297 $296 $322 $391 reversed $182 $-1 #
coedge $-1 $429 $385 $297 $369 forward $363 $-1 #
edge $-1 $370 $430 $297 $431 forward #
vertex $-1 $369 $432 #
intcurve-curve $-1 forward { exactcur nurbs 2 open 2 
	0 2 9.3499132952635104 2 
	202.79268284309131 140.61021399773091 -9.2400000000000464 1 
	206.79372020857551 139.27653487590283 -6.9300000000000397 1.1547005383792757 
	210.79475757405964 140.61021399773091 -4.6200000000000312 1 
	0 
	null_surface 
	null_surface 
	nullbs 
	nullbs 
	I I 
	0 
	0 
	0 
	F 1 F 0 } I I #
coedge $-1 $304 $322 $300 $373 forward $252 $-1 #
edge $-1 $374 $309 $372 $433 forward #
vertex $-1 $391 $434 #
straight-curve $-1 202.79268284309131 141.990154475503 -9.2400000000000375 3.1273954323524993e-016 -1 9.6323715406970508e-048 I I #
point $-1 202.79268284309131 140.61021399773091 -9.2400000000000375 #
coedge $-1 $435 $304 $306 $379 forward $252 $-1 #
intcurve-curve $-1 forward { exactcur nurbs 2 open 2 
	0 2 9.3499132952635549 2 
	194.79060811212324 143.3700949532751 -4.6200000000000774 1 
	194.79060811212324 144.70377407510315 -3.7042965827626907e-030 1.1547005383792757 
	194.79060811212324 143.3700949532751 4.6200000000000774 1 
	0 
	null_surface 
	null_surface 
	nullbs 
	nullbs 
	I I 
	0 
	0 
	0 
	F 1 F 0 } I I #
edge $-1 $307 $436 $377 $437 forward #
point $-1 194.79060811212324 143.3700949532751 4.6200000000000845 #
point $-1 194.79060811212324 143.3700949532751 -4.6200000000000792 #
edge $-1 $438 $383 $311 $439 forward #
vertex $-1 $382 $440 #
intcurve-curve $-1 forward { exactcur nurbs 2 open 2 
	0 2 9.3499132952635069 2 
	202.79268284309148 140.61021399773091 9.2400000000000464 1 
	198.79164547760729 139.27653487590283 6.9300000000000423 1.1547005383792757 
	194.79060811212315 140.61021399773088 4.620000000000041 1 
	0 
	null_surface 
	null_surface 
	nullbs 
	nullbs 
	I I 
	0 
	0 
	0 
	F 1 F 0 } I I #
coedge $-1 $368 $441 $314 $386 reversed $363 $-1 #
edge $-1 $370 $438 $314 $442 forward #
vertex $-1 $319 $443 #
ellipse-curve $-1 202.7926828430914 139.49015447550298 -3.944304526105059e-030 3.1273954323524993e-016 -1 9.6323715406970508e-048 7.2999999999999829 2.2829986656173188e-015 -2.1895046538603157e-031 1 I I #
coedge $-1 $389 $389 $323 $392 forward $321 $-1 #
coedge $-1 $322 $435 $429 $444 forward $252 $-1 #
edge $-1 $430 $374 $322 $445 forward #
edge $-1 $446 $446 $389 $447 forward #
loop $-1 $-1 $415 $324 #
plane-surface $-1 210.79475757405956 163.49015447550298 4.6200000000000792 1 2.5150922554413107e-016 2.9993214436442749e-032 -2.9993214436442749e-032 -1.7844380973291463e-048 1 forward_v I I I I #
coedge $-1 $448 $449 $343 $412 reversed $325 $-1 #
coedge $-1 $338 $327 $449 $450 reversed $256 $-1 #
coedge $-1 $329 $328 $354 $421 reversed $200 $-1 #
coedge $-1 $451 $415 $329 $399 forward $393 $-1 #
edge $-1 $400 $452 $329 $453 forward #
vertex $-1 $399 $454 #
intcurve-curve $-1 forward { exactcur nurbs 2 open 2 
	0 2 9.3499132952635104 2 
	202.79268284309131 159.61021399773088 -9.2400000000000464 1 
	206.79372020857551 158.27653487590283 -6.9300000000000397 1.1547005383792757 
	210.79475757405964 159.61021399773088 -4.6200000000000312 1 
	0 
	null_surface 
	null_surface 
	nullbs 
	nullbs 
	I I 
	0 
	0 
	0 
	F 1 F 0 } I I #
coedge $-1 $336 $354 $332 $403 forward $278 $-1 #
edge $-1 $404 $341 $402 $455 forward #
vertex $-1 $421 $456 #
straight-curve $-1 202.79268284309131 160.990154475503 -9.2400000000000375 2.5150922554413107e-016 -1 5.7591320371596212e-048 I I #
point $-1 202.79268284309131 159.61021399773088 -9.2400000000000375 #
coedge $-1 $457 $336 $338 $409 forward $278 $-1 #
intcurve-curve $-1 forward { exactcur nurbs 2 open 2 
	0 2 9.3499132952635549 2 
	194.79060811212324 162.3700949532751 -4.6200000000000774 1 
	194.79060811212324 163.70377407510315 -2.4000794334236798e-031 1.1547005383792757 
	194.79060811212324 162.3700949532751 4.6200000000000774 1 
	0 
	null_surface 
	null_surface 
	nullbs 
	nullbs 
	I I 
	0 
	0 
	0 
	F 1 F 0 } I I #
edge $-1 $339 $458 $407 $459 forward #
point $-1 194.79060811212324 162.3700949532751 4.6200000000000845 #
point $-1 194.79060811212324 162.3700949532751 -4.6200000000000792 #
edge $-1 $460 $413 $343 $461 forward #
vertex $-1 $412 $462 #
intcurve-curve $-1 forward { exactcur nurbs 2 open 2 
	0 2 9.3499132952635069 2 
	202.79268284309148 159.61021399773088 9.2400000000000464 1 
	198.79164547760729 158.27653487590283 6.9300000000000423 1.1547005383792757 
	194.79060811212315 159.61021399773085 4.620000000000041 1 
	0 
	null_surface 
	null_surface 
	nullbs 
	nullbs 
	I I 
	0 
	0 
	0 
	F 1 F 0 } I I #
coedge $-1 $398 $463 $346 $416 reversed $393 $-1 #
edge $-1 $400 $460 $346 $464 forward #
vertex $-1 $351 $465 #
ellipse-curve $-1 202.7926828430914 158.49015447550298 2.8795660185798107e-047 2.5150922554413107e-016 -1 5.7591320371596212e-048 7.2999999999999829 1.8360173464721528e-015 2.1895046538603157e-031 1 I I #
coedge $-1 $419 $419 $355 $422 forward $353 $-1 #
coedge $-1 $354 $457 $451 $466 forward $278 $-1 #
edge $-1 $452 $404 $354 $467 forward #
edge $-1 $468 $468 $419 $469 forward #
vertex $-1 $358 $470 #
ellipse-curve $-1 202.79268284309137 123.49015447550302 0 -3.7396986092636879e-016 1 0 -3.5000000000001208 0 0 1 I I #
point $-1 198.79268284309134 123.49015447550306 0 #
coedge $-1 $471 $365 $441 $472 reversed $293 $-1 #
coedge $-1 $365 $471 $366 $428 forward $293 $-1 #
edge $-1 $436 $383 $427 $473 forward #
coedge $-1 $441 $368 $390 $444 reversed $363 $-1 #
vertex $-1 $391 $474 #
straight-curve $-1 210.79475757405964 141.990154475503 -4.6200000000000347 -3.1273954323524993e-016 1 -9.6323715406970508e-048 I I #
point $-1 210.79475757405964 140.61021399773091 -4.6200000000000347 #
intcurve-curve $-1 forward { exactcur nurbs 2 open 2 
	0 2 9.3499132952633097 2 
	202.7926828430914 143.3700949532751 -9.2399999999999949 1 
	198.79164547760729 144.7037740751031 -6.9300000000000326 1.1547005383792828 
	194.79060811212324 143.3700949532751 -4.6200000000000756 1 
	0 
	null_surface 
	null_surface 
	nullbs 
	nullbs 
	I I 
	0 
	0 
	0 
	F 1 F 0 } I I #
point $-1 202.7926828430914 143.3700949532751 -9.2399999999999949 #
coedge $-1 $390 $377 $471 $475 forward $252 $-1 #
vertex $-1 $475 $476 #
intcurve-curve $-1 forward { exactcur nurbs 2 open 2 
	0 2 9.3499132952633044 2 
	194.79060811212324 143.3700949532751 4.620000000000088 1 
	198.79164547760729 144.7037740751031 6.9300000000000388 1.1547005383792828 
	202.7926828430914 143.3700949532751 9.2399999999999967 1 
	0 
	null_surface 
	null_surface 
	nullbs 
	nullbs 
	I I 
	0 
	0 
	0 
	F 1 F 0 } I I #
vertex $-1 $386 $477 #
intcurve-curve $-1 forward { exactcur nurbs 2 open 2 
	0 2 9.3499132952635122 2 
	210.79475757405964 140.61021399773091 4.6200000000000294 1 
	206.79372020857551 139.27653487590283 6.9300000000000361 1.1547005383792757 
	202.79268284309131 140.61021399773091 9.2400000000000446 1 
	0 
	null_surface 
	null_surface 
	nullbs 
	nullbs 
	I I 
	0 
	0 
	0 
	F 1 F 0 } I I #
point $-1 202.79268284309148 140.61021399773091 9.2400000000000393 #
coedge $-1 $385 $429 $426 $472 forward $363 $-1 #
intcurve-curve $-1 forward { exactcur nurbs 2 open 2 
	0 2 9.3499132952637094 2 
	210.79475757405956 140.61021399773091 -4.6200000000001511 1 
	210.79475757405956 139.27653487590277 -4.1843124694474274e-030 1.154700538379269 
	210.79475757405956 140.61021399773091 4.6200000000001511 1 
	0 
	null_surface 
	null_surface 
	nullbs 
	nullbs 
	I I 
	0 
	0 
	0 
	F 1 F 0 } I I #
point $-1 210.09268284309138 139.49015447550298 -4.1632549914910908e-030 #
edge $-1 $478 $430 $390 $479 forward #
intcurve-curve $-1 forward { exactcur nurbs 2 open 2 
	0 2 9.3499132952633097 2 
	210.79475757405956 143.3700949532751 -4.6200000000000765 1 
	206.79372020857551 144.7037740751031 -6.9300000000000361 1.1547005383792828 
	202.7926828430914 143.3700949532751 -9.2399999999999967 1 
	0 
	null_surface 
	null_surface 
	nullbs 
	nullbs 
	I I 
	0 
	0 
	0 
	F 1 F 0 } I I #
vertex $-1 $392 $480 #
ellipse-curve $-1 202.7926828430914 144.49015447550298 -3.944304526105059e-030 3.1273954323524993e-016 -1 9.6323715406970508e-048 7.3000000000000123 2.2829986656173283e-015 -2.189504653860324e-031 1 I I #
coedge $-1 $481 $395 $463 $482 reversed $325 $-1 #
coedge $-1 $395 $481 $396 $450 forward $325 $-1 #
edge $-1 $458 $413 $449 $483 forward #
coedge $-1 $463 $398 $420 $466 reversed $393 $-1 #
vertex $-1 $421 $484 #
straight-curve $-1 210.79475757405964 160.990154475503 -4.6200000000000347 -2.5150922554413107e-016 1 -5.7591320371596212e-048 I I #
point $-1 210.79475757405964 159.61021399773088 -4.6200000000000347 #
intcurve-curve $-1 forward { exactcur nurbs 2 open 2 
	0 2 9.3499132952633097 2 
	202.7926828430914 162.3700949532751 -9.2399999999999949 1 
	198.79164547760729 163.70377407510307 -6.9300000000000326 1.1547005383792828 
	194.79060811212324 162.3700949532751 -4.6200000000000756 1 
	0 
	null_surface 
	null_surface 
	nullbs 
	nullbs 
	I I 
	0 
	0 
	0 
	F 1 F 0 } I I #
point $-1 202.7926828430914 162.3700949532751 -9.2399999999999949 #
coedge $-1 $420 $407 $481 $485 forward $278 $-1 #
vertex $-1 $485 $486 #
intcurve-curve $-1 forward { exactcur nurbs 2 open 2 
	0 2 9.3499132952633044 2 
	194.79060811212324 162.3700949532751 4.620000000000088 1 
	198.79164547760729 163.70377407510307 6.9300000000000388 1.1547005383792828 
	202.7926828430914 162.3700949532751 9.2399999999999967 1 
	0 
	null_surface 
	null_surface 
	nullbs 
	nullbs 
	I I 
	0 
	0 
	0 
	F 1 F 0 } I I #
vertex $-1 $416 $487 #
intcurve-curve $-1 forward { exactcur nurbs 2 open 2 
	0 2 9.3499132952635122 2 
	210.79475757405964 159.61021399773088 4.6200000000000294 1 
	206.79372020857551 158.27653487590283 6.9300000000000361 1.1547005383792757 
	202.79268284309131 159.61021399773088 9.2400000000000446 1 
	0 
	null_surface 
	null_surface 
	nullbs 
	nullbs 
	I I 
	0 
	0 
	0 
	F 1 F 0 } I I #
point $-1 202.79268284309148 159.61021399773088 9.2400000000000393 #
coedge $-1 $415 $451 $448 $482 forward $393 $-1 #
intcurve-curve $-1 forward { exactcur nurbs 2 open 2 
	0 2 9.3499132952637094 2 
	210.79475757405956 159.61021399773088 -4.6200000000001511 1 
	210.79475757405956 158.27653487590277 2.4000794334236802e-031 1.154700538379269 
	210.79475757405956 159.61021399773088 4.6200000000001511 1 
	0 
	null_surface 
	null_surface 
	nullbs 
	nullbs 
	I I 
	0 
	0 
	0 
	F 1 F 0 } I I #
point $-1 210.09268284309138 158.49015447550298 2.1895046538603161e-031 #
edge $-1 $488 $452 $420 $489 forward #
intcurve-curve $-1 forward { exactcur nurbs 2 open 2 
	0 2 9.3499132952633097 2 
	210.79475757405956 162.3700949532751 -4.6200000000000765 1 
	206.79372020857551 163.70377407510307 -6.9300000000000361 1.1547005383792828 
	202.7926828430914 162.3700949532751 -9.2399999999999967 1 
	0 
	null_surface 
	null_surface 
	nullbs 
	nullbs 
	I I 
	0 
	0 
	0 
	F 1 F 0 } I I #
vertex $-1 $422 $490 #
ellipse-curve $-1 202.7926828430914 163.49015447550298 0 2.5150922554413107e-016 -1 5.7591320371596212e-048 7.3000000000000123 1.8360173464721599e-015 2.189504653860324e-031 1 I I #
point $-1 199.29268284309126 123.49015447550302 0 #
coedge $-1 $427 $426 $435 $475 reversed $293 $-1 #
edge $-1 $478 $438 $441 $491 forward #
straight-curve $-1 202.79268284309148 141.990154475503 9.2400000000000393 3.1273954323524993e-016 -1 9.6323715406970508e-048 I I #
point $-1 210.79475757405956 143.3700949532751 -4.6200000000000792 #
edge $-1 $436 $478 $435 $492 forward #
point $-1 202.7926828430914 143.3700949532751 9.2399999999999949 #
point $-1 210.79475757405964 140.61021399773091 4.6200000000000347 #
vertex $-1 $444 $493 #
intcurve-curve $-1 forward { exactcur nurbs 2 open 2 
	0 2 9.3499132952635549 2 
	210.79475757405956 143.3700949532751 4.6200000000000774 1 
	210.79475757405956 144.70377407510315 -4.1843124694474274e-030 1.1547005383792757 
	210.79475757405956 143.3700949532751 -4.6200000000000774 1 
	0 
	null_surface 
	null_surface 
	nullbs 
	nullbs 
	I I 
	0 
	0 
	0 
	F 1 F 0 } I I #
point $-1 210.09268284309141 144.49015447550298 -4.1632549914910915e-030 #
coedge $-1 $449 $448 $457 $485 reversed $325 $-1 #
edge $-1 $488 $460 $463 $494 forward #
straight-curve $-1 202.79268284309148 160.990154475503 9.2400000000000393 2.5150922554413107e-016 -1 5.7591320371596212e-048 I I #
point $-1 210.79475757405956 162.3700949532751 -4.6200000000000792 #
edge $-1 $458 $488 $457 $495 forward #
point $-1 202.7926828430914 162.3700949532751 9.2399999999999949 #
point $-1 210.79475757405964 159.61021399773088 4.6200000000000347 #
vertex $-1 $466 $496 #
intcurve-curve $-1 forward { exactcur nurbs 2 open 2 
	0 2 9.3499132952635549 2 
	210.79475757405956 162.3700949532751 4.6200000000000774 1 
	210.79475757405956 163.70377407510315 2.4000794334236798e-031 1.1547005383792757 
	210.79475757405956 162.3700949532751 -4.6200000000000774 1 
	0 
	null_surface 
	null_surface 
	nullbs 
	nullbs 
	I I 
	0 
	0 
	0 
	F 1 F 0 } I I #
point $-1 210.09268284309141 163.49015447550298 2.189504653860324e-031 #
straight-curve $-1 210.79475757405964 141.990154475503 4.6200000000000347 3.1273954323524993e-016 -1 9.6323715406970508e-048 I I #
intcurve-curve $-1 forward { exactcur nurbs 2 open 2 
	0 2 9.3499132952633097 2 
	202.7926828430914 143.3700949532751 9.2399999999999949 1 
	206.79372020857551 144.7037740751031 6.9300000000000326 1.1547005383792828 
	210.79475757405956 143.3700949532751 4.6200000000000756 1 
	0 
	null_surface 
	null_surface 
	nullbs 
	nullbs 
	I I 
	0 
	0 
	0 
	F 1 F 0 } I I #
point $-1 210.79475757405956 143.3700949532751 4.6200000000000792 #
straight-curve $-1 210.79475757405964 160.990154475503 4.6200000000000347 2.5150922554413107e-016 -1 5.7591320371596212e-048 I I #
intcurve-curve $-1 forward { exactcur nurbs 2 open 2 
	0 2 9.3499132952633097 2 
	202.7926828430914 162.3700949532751 9.2399999999999949 1 
	206.79372020857551 163.70377407510307 6.9300000000000326 1.1547005383792828 
	210.79475757405956 162.3700949532751 4.6200000000000756 1 
	0 
	null_surface 
	null_surface 
	nullbs 
	nullbs 
	I I 
	0 
	0 
	0 
	F 1 F 0 } I I #
point $-1 210.79475757405956 162.3700949532751 4.6200000000000792 #
End-of-ACIS-data 