400 0 3 0           
28 Autodesk Inventor 6.0.0.9000 16 ASM 6.0.0.192 NT 24 Thu Sep 04 10:05:08 2003 
1 9.9999999999999995e-007 1e-010 
body $-1 $3 $-1 $-1 #
body $-1 $4 $-1 $-1 #
body $-1 $5 $-1 $-1 #
lump $-1 $-1 $6 $0 #
lump $-1 $-1 $7 $1 #
lump $-1 $-1 $8 $2 #
shell $-1 $-1 $-1 $9 $-1 $3 #
shell $-1 $-1 $-1 $10 $-1 $4 #
shell $-1 $-1 $-1 $11 $-1 $5 #
face $-1 $12 $13 $6 $-1 $14 forward single #
face $-1 $15 $16 $7 $-1 $17 reversed single #
face $-1 $18 $19 $8 $-1 $20 reversed single #
face $-1 $21 $22 $6 $-1 $23 forward single #
loop $-1 $24 $25 $9 #
cone-surface $-1 3.6725663914616873 11.591656088222322 0 -4.5796699765787707e-016 1 0 -12.5 -2.0514098755084297e-012 0 1 I I 0.1351132047333134 0.99083016804429902 12.5 forward I I I I #
face $-1 $26 $27 $7 $-1 $28 reversed single #
loop $-1 $29 $30 $10 #
cone-surface $-1 3.672566391461678 36.805494408208858 -5.2818993699705889e-063 3.9673667996675821e-016 -1 -6.7185917404169586e-063 -4.737772558503007 -1.8796481552980968e-015 1.1834964404746401e-015 1 I I -0.86602540378443871 0.49999999999999983 4.737772558503007 forward I I I I #
face $-1 $31 $32 $8 $-1 $33 reversed single #
loop $-1 $34 $35 $11 #
cone-surface $-1 3.6725663914616731 55.80549440820883 -4.9303806576313238e-031 3.355063622756394e-016 -1 8.1502255504862344e-048 -4.737772558503007 -1.5895528363926928e-015 -2.6405452706524392e-015 1 I I -0.86602540378443871 0.49999999999999983 4.737772558503007 forward I I I I #
face $-1 $36 $37 $6 $-1 $38 forward single #
loop $-1 $39 $40 $12 #
plane-surface $-1 -5.8274336085383176 22.591656088222315 0 -4.5796699765787707e-016 1 0 0 0 10 forward_v I I I I #
loop $-1 $-1 $41 $9 #
coedge $-1 $25 $25 $42 $43 reversed $13 $-1 #
face $-1 $44 $45 $7 $-1 $46 reversed single #
loop $-1 $47 $48 $15 #
plane-surface $-1 -1.0652061670413193 37.122906088222322 1.1834964404746375e-015 -3.9673667996675821e-016 1 6.7185917404169586e-063 -2.4980018054066091e-016 -9.9104894282798643e-032 -1 forward_v I I I I #
loop $-1 $-1 $49 $10 #
coedge $-1 $30 $30 $50 $51 reversed $16 $-1 #
face $-1 $52 $53 $8 $-1 $54 reversed single #
loop $-1 $55 $56 $18 #
plane-surface $-1 -1.0652061670413238 56.122906088222294 -2.6405452706524337e-015 -3.355063622756394e-016 1 -8.1502255504862344e-048 5.5733896848074352e-016 1.8699076986943151e-031 -1 forward_v I I I I #
loop $-1 $-1 $57 $11 #
coedge $-1 $35 $35 $58 $59 reversed $19 $-1 #
face $-1 $60 $61 $6 $-1 $62 forward single #
loop $-1 $63 $64 $21 #
cone-surface $-1 3.6725663914616691 51.216656088222322 0 -4.5796699765787707e-016 1 0 -4.9999999999999982 -8.2056395020337157e-013 0 1 I I 0 1 4.9999999999999982 forward I I I I #
loop $-1 $-1 $42 $12 #
coedge $-1 $40 $40 $65 $66 reversed $22 $-1 #
coedge $-1 $41 $41 $67 $68 forward $24 $-1 #
coedge $-1 $42 $42 $25 $43 forward $39 $-1 #
edge $-1 $69 $69 $42 $70 forward #
face $-1 $71 $72 $7 $-1 $73 reversed single #
loop $-1 $74 $75 $26 #
cone-surface $-1 3.6725663914616788 32.826031088222322 -3.2018288762924378e-062 3.9673667996675821e-016 -1 -6.7185917404169586e-063 4.594050591976071 1.8226283794599065e-015 -1.1475946672885527e-015 1 I I 0.86602540378443205 0.50000000000001144 4.594050591976071 forward I I I I #
loop $-1 $-1 $76 $15 #
coedge $-1 $48 $48 $77 $78 forward $27 $-1 #
coedge $-1 $49 $49 $76 $79 reversed $29 $-1 #
coedge $-1 $50 $50 $30 $51 forward $80 $-1 #
edge $-1 $81 $81 $50 $82 forward #
face $-1 $83 $84 $8 $-1 $85 reversed single #
loop $-1 $86 $87 $31 #
cone-surface $-1 3.6725663914616744 51.826031088222294 -4.9303806576313229e-031 3.355063622756394e-016 -1 8.1502255504862344e-048 4.594050591976071 1.5413332022241392e-015 2.5604434180802924e-015 1 I I 0.86602540378443205 0.50000000000001144 4.594050591976071 forward I I I I #
loop $-1 $-1 $88 $18 #
coedge $-1 $56 $56 $89 $90 forward $32 $-1 #
coedge $-1 $57 $57 $88 $91 reversed $34 $-1 #
coedge $-1 $58 $58 $35 $59 forward $92 $-1 #
edge $-1 $93 $93 $58 $94 forward #
face $-1 $95 $96 $6 $-1 $97 forward single #
loop $-1 $98 $99 $36 #
cone-surface $-1 3.6725663914616558 80.216656088222322 0 -4.5796699765787707e-016 1 0 -4.6249999999999938 -7.5902165393811801e-013 0 1 I I -0.70710678118655079 0.70710678118654435 4.6249999999999938 forward I I I I #
loop $-1 $-1 $65 $21 #
coedge $-1 $64 $64 $100 $101 reversed $37 $-1 #
coedge $-1 $65 $65 $40 $66 forward $63 $-1 #
edge $-1 $102 $102 $65 $103 forward #
coedge $-1 $67 $67 $41 $68 reversed $104 $-1 #
edge $-1 $105 $105 $41 $106 forward #
vertex $-1 $43 $107 #
ellipse-curve $-1 3.6725663914616824 22.591656088222322 0 -4.5796699765787707e-016 1 0 -14 -2.2975790605694411e-012 0 1 I I #
face $-1 $108 $109 $7 $-1 $110 forward single #
loop $-1 $111 $77 $44 #
cone-surface $-1 3.6725663914616775 37.357281088222322 -1.5746699391600336e-063 3.9673667996675821e-016 -1 -6.7185917404169586e-063 4.594050591976071 1.8226283794599065e-015 -1.1475946672885527e-015 1 I I -0.86602540378444515 0.49999999999998873 4.594050591976071 forward I I I I #
loop $-1 $-1 $112 $26 #
coedge $-1 $75 $75 $113 $114 reversed $45 $-1 #
coedge $-1 $76 $76 $49 $79 forward $47 $-1 #
coedge $-1 $77 $77 $48 $78 reversed $72 $-1 #
edge $-1 $115 $115 $77 $116 forward #
edge $-1 $117 $117 $49 $118 forward #
loop $-1 $119 $50 $120 #
vertex $-1 $51 $121 #
ellipse-curve $-1 3.672566391461678 36.488141492146099 -7.4140640506270815e-063 -3.9673667996675821e-016 1 6.7185917404169586e-063 4.188101183952142 1.6615733590860221e-015 -1.0461884318738007e-015 1 I I #
face $-1 $122 $123 $8 $-1 $124 forward single #
loop $-1 $125 $89 $52 #
cone-surface $-1 3.6725663914616731 56.357281088222294 -4.9303806576313238e-031 3.355063622756394e-016 -1 8.1502255504862344e-048 4.594050591976071 1.5413332022241392e-015 2.5604434180802924e-015 1 I I -0.86602540378444515 0.49999999999998873 4.594050591976071 forward I I I I #
loop $-1 $-1 $126 $31 #
coedge $-1 $87 $87 $127 $128 reversed $53 $-1 #
coedge $-1 $88 $88 $57 $91 forward $55 $-1 #
coedge $-1 $89 $89 $56 $90 reversed $84 $-1 #
edge $-1 $129 $129 $89 $130 forward #
edge $-1 $131 $131 $57 $132 forward #
loop $-1 $133 $58 $134 #
vertex $-1 $59 $135 #
ellipse-curve $-1 3.6725663914616735 55.488141492146077 -4.9303806576313238e-031 -3.355063622756394e-016 1 -8.1502255504862344e-048 4.188101183952142 1.4051345930700816e-015 2.3341919937568674e-015 1 I I #
face $-1 $-1 $104 $6 $-1 $136 forward single #
loop $-1 $-1 $137 $60 #
plane-surface $-1 1.5475663914616611 80.591656088222322 0 -4.5796699765787707e-016 1 0 0 0 10 forward_v I I I I #
loop $-1 $-1 $100 $36 #
coedge $-1 $99 $99 $137 $138 reversed $61 $-1 #
coedge $-1 $100 $100 $64 $101 forward $98 $-1 #
edge $-1 $139 $139 $100 $140 forward #
vertex $-1 $66 $141 #
ellipse-curve $-1 3.6725663914616824 22.591656088222322 0 -4.5796699765787707e-016 1 0 -4.9999999999999991 -8.2056395020337177e-013 0 1 I I #
loop $-1 $-1 $67 $95 #
vertex $-1 $68 $142 #
ellipse-curve $-1 3.6725663914616922 0.59165608822231941 0 -4.5796699765787707e-016 1 0 -11 -1.8052406904474183e-012 0 1 I I #
point $-1 -10.327433608538318 22.591656088222315 0 #
face $-1 $143 $144 $7 $-1 $145 forward single #
loop $-1 $-1 $146 $71 #
plane-surface $-1 -4.3295083395064857 37.591656088222294 -4.6200000000000774 -1 -3.9673667996675821e-016 2.4980018054066091e-016 -2.4980018054066091e-016 -9.9104894282798643e-032 -1 forward_v I I I I #
loop $-1 $-1 $147 $44 #
coedge $-1 $112 $112 $148 $149 reversed $74 $-1 #
coedge $-1 $113 $113 $75 $114 forward $150 $-1 #
edge $-1 $151 $151 $113 $152 forward #
vertex $-1 $78 $153 #
ellipse-curve $-1 3.6725663914616775 37.122906088222358 -3.1493398783200672e-063 -3.9673667996675821e-016 1 6.7185917404169586e-063 4.188101183952142 1.6615733590860221e-015 -1.0461884318738007e-015 1 I I #
vertex $-1 $79 $154 #
ellipse-curve $-1 3.6725663914616775 37.122906088222322 -3.1493398783202583e-063 3.9673667996675821e-016 -1 -6.7185917404169586e-063 -5.2875457152021141 -2.0977633322217449e-015 1.320829874274486e-015 1 I I #
loop $-1 $-1 $148 $120 #
face $-1 $155 $80 $7 $-1 $156 forward single #
point $-1 -0.51553479249046408 36.488141492146099 1.0461884318738007e-015 #
face $-1 $157 $158 $8 $-1 $159 forward single #
loop $-1 $-1 $160 $83 #
plane-surface $-1 -4.3295083395064866 56.591656088222273 -4.6200000000000845 -1 -3.355063622756394e-016 -5.5733896848074352e-016 5.5733896848074352e-016 1.8699076986943151e-031 -1 forward_v I I I I #
loop $-1 $-1 $161 $52 #
coedge $-1 $126 $126 $162 $163 reversed $86 $-1 #
coedge $-1 $127 $127 $87 $128 forward $164 $-1 #
edge $-1 $165 $165 $127 $166 forward #
vertex $-1 $90 $167 #
ellipse-curve $-1 3.6725663914616731 56.122906088222322 -4.9303806576313238e-031 -3.355063622756394e-016 1 -8.1502255504862344e-048 4.188101183952142 1.4051345930700816e-015 2.3341919937568674e-015 1 I I #
vertex $-1 $91 $168 #
ellipse-curve $-1 3.6725663914616731 56.122906088222294 -4.9303806576313238e-031 3.355063622756394e-016 -1 8.1502255504862344e-048 -5.2875457152021141 -1.7740052282736054e-015 -2.9469552747055215e-015 1 I I #
loop $-1 $-1 $162 $134 #
face $-1 $169 $92 $8 $-1 $170 forward single #
point $-1 -0.51553479249046852 55.48814149214607 -2.3341919937568678e-015 #
plane-surface $-1 -1.8274336085383081 0.59165608822231541 0 4.5796699765787707e-016 -1 0 0 0 -10 forward_v I I I I #
coedge $-1 $137 $137 $99 $138 forward $96 $-1 #
edge $-1 $171 $171 $137 $172 forward #
vertex $-1 $101 $173 #
ellipse-curve $-1 3.6725663914616562 79.841656088222322 0 -4.5796699765787707e-016 1 0 -4.9999999999999982 -8.2056395020337157e-013 0 1 I I #
point $-1 -1.3274336085383165 22.591656088222315 0 #
point $-1 -7.3274336085383087 0.5916560882223143 0 #
face $-1 $174 $175 $7 $-1 $176 forward single #
loop $-1 $-1 $177 $108 #
plane-surface $-1 3.6725663914616753 37.591656088222301 -9.2399999999999949 -0.49999999999999584 -1.9836833998337743e-016 -0.86602540378444115 -3.9673667996675821e-016 1 6.7185917404169597e-063 forward_v I I I I #
coedge $-1 $178 $179 $180 $181 reversed $109 $-1 #
coedge $-1 $147 $147 $182 $183 reversed $111 $-1 #
coedge $-1 $148 $148 $112 $149 forward $119 $-1 #
edge $-1 $184 $184 $148 $185 forward #
loop $-1 $186 $113 $187 #
vertex $-1 $114 $188 #
ellipse-curve $-1 3.6725663914616797 32.591656088222322 -3.3592958702084603e-062 -3.9673667996675821e-016 1 6.7185917404169586e-063 5.0000000000000142 1.9836833998337966e-015 -1.2490009027033082e-015 1 I I #
point $-1 7.8606675754137907 37.122906088222329 -1.0461884318737938e-015 #
point $-1 -1.6149793237404513 37.122906088222322 1.3208298742744898e-015 #
face $-1 $189 $190 $7 $-1 $191 forward single #
cone-surface $-1 3.6725663914616784 35.091656088222322 -1.6796479351042207e-062 3.9673667996675821e-016 -1 -6.7185917404169586e-063 4.188101183952142 1.6615733590860221e-015 -1.0461884318738007e-015 1 I I 0 -1 4.188101183952142 forward I I I I #
face $-1 $192 $193 $8 $-1 $194 forward single #
loop $-1 $-1 $195 $122 #
plane-surface $-1 3.672566391461678 56.591656088222273 -9.2399999999999949 -0.49999999999999512 -1.6775318113781805e-016 -0.86602540378444159 -3.355063622756394e-016 1 -8.1502255504862356e-048 forward_v I I I I #
coedge $-1 $196 $197 $198 $199 reversed $123 $-1 #
coedge $-1 $161 $161 $200 $201 reversed $125 $-1 #
coedge $-1 $162 $162 $126 $163 forward $133 $-1 #
edge $-1 $202 $202 $162 $203 forward #
loop $-1 $204 $127 $205 #
vertex $-1 $128 $206 #
ellipse-curve $-1 3.6725663914616744 51.591656088222294 -4.9303806576313229e-031 -3.355063622756394e-016 1 -8.1502255504862344e-048 5.0000000000000142 1.6775318113782019e-015 2.7866948424037257e-015 1 I I #
point $-1 7.8606675754137871 56.122906088222294 2.3341919937568513e-015 #
point $-1 -1.6149793237404557 56.122906088222294 -2.9469552747055302e-015 #
face $-1 $207 $208 $8 $-1 $209 forward single #
cone-surface $-1 3.672566391461674 54.091656088222294 -4.9303806576313238e-031 3.355063622756394e-016 -1 8.1502255504862344e-048 4.188101183952142 1.4051345930700816e-015 2.3341919937568674e-015 1 I I 0 -1 4.188101183952142 forward I I I I #
vertex $-1 $138 $210 #
ellipse-curve $-1 3.6725663914616558 80.591656088222322 0 -4.5796699765787707e-016 1 0 -4.2499999999999893 -6.9747935767286436e-013 0 1 I I #
point $-1 -1.3274336085383416 79.841656088222322 0 #
face $-1 $211 $212 $7 $-1 $213 forward single #
loop $-1 $-1 $214 $143 #
plane-surface $-1 11.674641122429838 37.591656088222301 -4.6200000000000818 0.49999999999999539 1.9836833998337728e-016 -0.86602540378444137 -3.9673667996675821e-016 1 6.7185917404169597e-063 forward_v I I I I #
coedge $-1 $215 $216 $217 $218 reversed $144 $-1 #
coedge $-1 $219 $146 $220 $221 reversed $109 $-1 #
coedge $-1 $146 $219 $215 $222 forward $109 $-1 #
coedge $-1 $217 $223 $146 $181 forward $224 $-1 #
edge $-1 $225 $226 $180 $227 forward #
coedge $-1 $182 $182 $147 $183 forward $190 $-1 #
edge $-1 $228 $228 $182 $229 forward #
vertex $-1 $149 $230 #
ellipse-curve $-1 3.6725663914616788 33.060406088222322 -3.0443618823764154e-062 3.9673667996675821e-016 -1 -6.7185917404169586e-063 4.188101183952142 1.6615733590860221e-015 -1.0461884318738007e-015 1 I I #
loop $-1 $-1 $231 $187 #
face $-1 $-1 $150 $7 $-1 $232 forward single #
point $-1 8.6725663914616806 32.591656088222329 -1.2490009027033047e-015 #
face $-1 $233 $234 $7 $-1 $235 forward single #
loop $-1 $236 $182 $155 #
plane-surface $-1 9.4166169834377538 37.591656088222301 -1.4348648749103139e-015 -3.9673667996675821e-016 1 6.7185917404169586e-063 2.4980018054066091e-016 9.9104894282798643e-032 1 forward_v I I I I #
face $-1 $237 $238 $8 $-1 $239 forward single #
loop $-1 $-1 $240 $157 #
plane-surface $-1 11.674641122429836 56.591656088222273 -4.6200000000000756 0.49999999999999611 1.6775318113781839e-016 -0.86602540378444093 -3.355063622756394e-016 1 -8.1502255504862356e-048 forward_v I I I I #
coedge $-1 $241 $242 $243 $244 reversed $158 $-1 #
coedge $-1 $245 $160 $246 $247 reversed $123 $-1 #
coedge $-1 $160 $245 $241 $248 forward $123 $-1 #
coedge $-1 $243 $249 $160 $199 forward $250 $-1 #
edge $-1 $251 $252 $198 $253 forward #
coedge $-1 $200 $200 $161 $201 forward $208 $-1 #
edge $-1 $254 $254 $200 $255 forward #
vertex $-1 $163 $256 #
ellipse-curve $-1 3.6725663914616744 52.060406088222294 -4.9303806576313229e-031 3.355063622756394e-016 -1 8.1502255504862344e-048 4.188101183952142 1.4051345930700816e-015 2.3341919937568674e-015 1 I I #
loop $-1 $-1 $257 $205 #
face $-1 $-1 $164 $8 $-1 $258 forward single #
point $-1 8.6725663914616753 51.591656088222294 2.786694842403717e-015 #
face $-1 $259 $260 $8 $-1 $261 forward single #
loop $-1 $262 $200 $169 #
plane-surface $-1 9.4166169834377484 56.591656088222273 3.2013832318331504e-015 -3.355063622756394e-016 1 -8.1502255504862344e-048 -5.5733896848074352e-016 -1.8699076986943151e-031 1 forward_v I I I I #
point $-1 -0.57743360853833359 80.591656088222322 0 #
face $-1 $263 $264 $7 $-1 $265 forward single #
loop $-1 $-1 $266 $174 #
plane-surface $-1 -4.3295083395064831 37.591656088222294 4.620000000000088 -0.49999999999999484 -1.9836833998337706e-016 0.86602540378444171 3.9673667996675821e-016 -1 -6.7185917404169597e-063 forward_v I I I I #
coedge $-1 $267 $268 $269 $270 reversed $175 $-1 #
coedge $-1 $271 $177 $179 $222 reversed $144 $-1 #
coedge $-1 $177 $271 $267 $272 forward $144 $-1 #
coedge $-1 $269 $180 $177 $218 forward $224 $-1 #
edge $-1 $226 $273 $217 $274 forward #
coedge $-1 $179 $178 $275 $276 reversed $109 $-1 #
coedge $-1 $266 $277 $178 $221 forward $212 $-1 #
edge $-1 $278 $225 $220 $279 forward #
edge $-1 $280 $226 $179 $281 forward #
coedge $-1 $180 $282 $266 $283 forward $224 $-1 #
loop $-1 $284 $285 $233 #
vertex $-1 $221 $286 #
vertex $-1 $222 $287 #
intcurve-curve $-1 forward { exactcur nurbs 2 open 2 
	0 2 9.3499132952637094 2 
	-4.3295083395064822 33.711715610450199 4.6200000000001538 1 
	-4.3295083395064822 32.378036488622087 1.9989197124957072e-015 1.154700538379269 
	-4.3295083395064839 33.711715610450199 -4.6200000000001493 1 
	0 
	null_surface 
	null_surface 
	nullbs 
	nullbs 
	I I 
	0 
	0 
	0 
	F 1 F 0 } I I #
vertex $-1 $183 $288 #
ellipse-curve $-1 3.6725663914616775 37.591656088222301 0 3.9673667996675821e-016 -1 -6.7185917404169586e-063 4.9999999999999893 1.9836833998337867e-015 -1.2490009027033019e-015 1 I I #
point $-1 7.8606675754137934 33.060406088222329 -1.0461884318737938e-015 #
coedge $-1 $231 $231 $289 $290 forward $186 $-1 #
plane-surface $-1 9.4166169834377289 32.591656088222329 -1.434864874910307e-015 3.9673667996675821e-016 -1 -6.7185917404169586e-063 -2.4980018054066091e-016 -9.9104894282798643e-032 -1 forward_v I I I I #
face $-1 $187 $224 $7 $-1 $291 forward single #
loop $-1 $292 $293 $189 #
cone-surface $-1 3.6725663914616775 37.031626327108349 -3.7626113274078834e-063 3.9673667996675821e-016 -1 -6.7185917404169586e-063 8.2700000000000102 3.2810123433250945e-015 -2.0658474930712681e-015 1 I I 0.86602540378444115 0.49999999999999573 8.2700000000000102 forward I I I I #
loop $-1 $-1 $294 $155 #
face $-1 $295 $296 $8 $-1 $297 forward single #
loop $-1 $-1 $298 $192 #
plane-surface $-1 -4.3295083395064911 56.591656088222273 4.6200000000000818 -0.49999999999999556 -1.6775318113781822e-016 0.86602540378444126 3.355063622756394e-016 -1 8.1502255504862356e-048 forward_v I I I I #
coedge $-1 $299 $300 $301 $302 reversed $193 $-1 #
coedge $-1 $303 $195 $197 $248 reversed $158 $-1 #
coedge $-1 $195 $303 $299 $304 forward $158 $-1 #
coedge $-1 $301 $198 $195 $244 forward $250 $-1 #
edge $-1 $252 $305 $243 $306 forward #
coedge $-1 $197 $196 $307 $308 reversed $123 $-1 #
coedge $-1 $298 $309 $196 $247 forward $238 $-1 #
edge $-1 $310 $251 $246 $311 forward #
edge $-1 $312 $252 $197 $313 forward #
coedge $-1 $198 $314 $298 $315 forward $250 $-1 #
loop $-1 $316 $317 $259 #
vertex $-1 $247 $318 #
vertex $-1 $248 $319 #
intcurve-curve $-1 forward { exactcur nurbs 2 open 2 
	0 2 9.3499132952637094 2 
	-4.3295083395064902 52.71171561045017 4.6200000000001467 1 
	-4.3295083395064866 51.378036488622065 -4.4598680762636187e-015 1.154700538379269 
	-4.3295083395064857 52.71171561045017 -4.6200000000001555 1 
	0 
	null_surface 
	null_surface 
	nullbs 
	nullbs 
	I I 
	0 
	0 
	0 
	F 1 F 0 } I I #
vertex $-1 $201 $320 #
ellipse-curve $-1 3.6725663914616731 56.591656088222273 -4.9303806576313238e-031 3.355063622756394e-016 -1 8.1502255504862344e-048 4.9999999999999893 1.6775318113781936e-015 2.7866948424037115e-015 1 I I #
point $-1 7.8606675754137889 52.060406088222294 2.3341919937568513e-015 #
coedge $-1 $257 $257 $321 $322 forward $204 $-1 #
plane-surface $-1 9.4166169834377236 51.591656088222294 3.2013832318331346e-015 3.355063622756394e-016 -1 8.1502255504862344e-048 5.5733896848074352e-016 1.8699076986943151e-031 -1 forward_v I I I I #
face $-1 $205 $250 $8 $-1 $323 forward single #
loop $-1 $324 $325 $207 #
cone-surface $-1 3.6725663914616731 56.031626327108313 -4.9303806576313238e-031 3.355063622756394e-016 -1 8.1502255504862344e-048 8.2700000000000102 2.7746376160195413e-015 4.6091932693357551e-015 1 I I 0.86602540378444115 0.49999999999999573 8.2700000000000102 forward I I I I #
loop $-1 $-1 $326 $169 #
face $-1 $120 $327 $7 $-1 $328 forward single #
loop $-1 $-1 $329 $211 #
plane-surface $-1 3.6725663914616797 37.591656088222301 9.2399999999999949 0.49999999999999584 1.9836833998337743e-016 0.86602540378444115 3.9673667996675821e-016 -1 -6.7185917404169597e-063 forward_v I I I I #
coedge $-1 $330 $220 $223 $283 reversed $212 $-1 #
coedge $-1 $331 $214 $216 $272 reversed $175 $-1 #
coedge $-1 $214 $331 $332 $333 reversed $175 $-1 #
coedge $-1 $285 $217 $214 $270 forward $224 $-1 #
edge $-1 $273 $334 $269 $335 forward #
coedge $-1 $216 $215 $336 $337 reversed $144 $-1 #
edge $-1 $338 $273 $216 $339 forward #
vertex $-1 $272 $340 #
intcurve-curve $-1 forward { exactcur nurbs 2 open 2 
	0 2 9.3499132952635122 2 
	-4.3295083395065701 33.711715610450199 -4.6200000000000276 1 
	-0.32847097402240288 32.378036488622143 -6.9300000000000352 1.1547005383792757 
	3.6725663914617619 33.711715610450199 -9.2400000000000446 1 
	0 
	null_surface 
	null_surface 
	nullbs 
	nullbs 
	I I 
	0 
	0 
	0 
	F 1 F 0 } I I #
coedge $-1 $341 $336 $219 $276 forward $234 $-1 #
edge $-1 $280 $278 $275 $342 forward #
coedge $-1 $220 $330 $341 $343 reversed $212 $-1 #
vertex $-1 $276 $344 #
straight-curve $-1 -4.3295083395064822 35.091656088222322 4.620000000000168 3.9673667996675821e-016 -1 -6.7185917404169597e-063 I I #
vertex $-1 $337 $345 #
straight-curve $-1 -4.3295083395065701 35.091656088222322 -4.620000000000033 3.9673667996675821e-016 -1 -6.7185917404169597e-063 I I #
coedge $-1 $223 $285 $329 $346 forward $224 $-1 #
edge $-1 $347 $225 $223 $348 forward #
loop $-1 $-1 $289 $233 #
coedge $-1 $282 $269 $349 $350 forward $224 $-1 #
point $-1 -4.3295083395064822 33.711715610450199 4.620000000000168 #
point $-1 -4.3295083395065701 33.711715610450199 -4.620000000000033 #
point $-1 8.6725663914616788 37.591656088222301 -1.2490009027033047e-015 #
coedge $-1 $289 $289 $231 $290 reversed $284 $-1 #
edge $-1 $351 $351 $231 $352 forward #
cone-surface $-1 3.6725663914616788 33.151685849336246 -2.9830347374676913e-062 3.9673667996675821e-016 -1 -6.7185917404169586e-063 8.2700000000000102 3.2810123433250945e-015 -2.0658474930712681e-015 1 I I -0.86602540378443882 0.49999999999999978 8.2700000000000102 forward I I I I #
loop $-1 $-1 $353 $189 #
coedge $-1 $336 $354 $331 $355 forward $234 $-1 #
coedge $-1 $294 $294 $353 $356 reversed $236 $-1 #
face $-1 $134 $357 $8 $-1 $358 forward single #
loop $-1 $-1 $359 $237 #
plane-surface $-1 3.6725663914616682 56.591656088222273 9.2399999999999949 0.49999999999999512 1.6775318113781805e-016 0.86602540378444159 3.355063622756394e-016 -1 8.1502255504862356e-048 forward_v I I I I #
coedge $-1 $360 $246 $249 $315 reversed $238 $-1 #
coedge $-1 $361 $240 $242 $304 reversed $193 $-1 #
coedge $-1 $240 $361 $362 $363 reversed $193 $-1 #
coedge $-1 $317 $243 $240 $302 forward $250 $-1 #
edge $-1 $305 $364 $301 $365 forward #
coedge $-1 $242 $241 $366 $367 reversed $158 $-1 #
edge $-1 $368 $305 $242 $369 forward #
vertex $-1 $304 $370 #
intcurve-curve $-1 forward { exactcur nurbs 2 open 2 
	0 2 9.3499132952635122 2 
	-4.329508339506571 52.71171561045017 -4.6200000000000339 1 
	-0.32847097402240233 51.378036488622115 -6.9300000000000388 1.1547005383792757 
	3.6725663914617646 52.71171561045017 -9.2400000000000446 1 
	0 
	null_surface 
	null_surface 
	nullbs 
	nullbs 
	I I 
	0 
	0 
	0 
	F 1 F 0 } I I #
coedge $-1 $371 $366 $245 $308 forward $260 $-1 #
edge $-1 $312 $310 $307 $372 forward #
coedge $-1 $246 $360 $371 $373 reversed $238 $-1 #
vertex $-1 $308 $374 #
straight-curve $-1 -4.3295083395064911 54.091656088222294 4.6200000000001609 3.355063622756394e-016 -1 8.1502255504862356e-048 I I #
vertex $-1 $367 $375 #
straight-curve $-1 -4.329508339506571 54.091656088222294 -4.6200000000000401 3.355063622756394e-016 -1 8.1502255504862356e-048 I I #
coedge $-1 $249 $317 $359 $376 forward $250 $-1 #
edge $-1 $377 $251 $249 $378 forward #
loop $-1 $-1 $321 $259 #
coedge $-1 $314 $301 $379 $380 forward $250 $-1 #
point $-1 -4.3295083395064902 52.71171561045017 4.6200000000001609 #
point $-1 -4.329508339506571 52.71171561045017 -4.6200000000000401 #
point $-1 8.6725663914616735 56.591656088222273 2.786694842403717e-015 #
coedge $-1 $321 $321 $257 $322 reversed $316 $-1 #
edge $-1 $381 $381 $257 $382 forward #
cone-surface $-1 3.6725663914616744 52.151685849336225 -4.9303806576313229e-031 3.355063622756394e-016 -1 8.1502255504862344e-048 8.2700000000000102 2.7746376160195413e-015 4.6091932693357551e-015 1 I I -0.86602540378443882 0.49999999999999978 8.2700000000000102 forward I I I I #
loop $-1 $-1 $383 $207 #
coedge $-1 $366 $384 $361 $385 forward $260 $-1 #
coedge $-1 $326 $326 $383 $386 reversed $262 $-1 #
loop $-1 $-1 $349 $263 #
plane-surface $-1 11.67464112242984 37.591656088222301 4.6200000000000774 1 3.9673667996675821e-016 -2.4980018054066091e-016 2.4980018054066091e-016 9.9104894282798643e-032 1 forward_v I I I I #
coedge $-1 $387 $388 $282 $346 reversed $264 $-1 #
coedge $-1 $277 $266 $388 $389 reversed $212 $-1 #
coedge $-1 $268 $267 $293 $355 reversed $175 $-1 #
coedge $-1 $390 $349 $268 $333 forward $327 $-1 #
edge $-1 $334 $391 $268 $392 forward #
vertex $-1 $333 $393 #
intcurve-curve $-1 forward { exactcur nurbs 2 open 2 
	0 2 9.3499132952635104 2 
	3.6725663914615914 33.711715610450199 -9.2400000000000464 1 
	7.6736037569457594 32.378036488622151 -6.9300000000000406 1.1547005383792757 
	11.674641122429925 33.711715610450206 -4.6200000000000339 1 
	0 
	null_surface 
	null_surface 
	nullbs 
	nullbs 
	I I 
	0 
	0 
	0 
	F 1 F 0 } I I #
coedge $-1 $275 $293 $271 $337 forward $234 $-1 #
edge $-1 $338 $280 $336 $394 forward #
vertex $-1 $355 $395 #
straight-curve $-1 3.6725663914615909 35.091656088222322 -9.2400000000000375 3.9673667996675821e-016 -1 -6.7185917404169597e-063 I I #
point $-1 3.6725663914615914 33.711715610450199 -9.2400000000000375 #
coedge $-1 $396 $275 $277 $343 forward $234 $-1 #
intcurve-curve $-1 forward { exactcur nurbs 2 open 2 
	0 2 9.3499132952635549 2 
	-4.3295083395064857 36.471596565994417 -4.6200000000000756 1 
	-4.3295083395064839 37.805275687822473 1.9989197124957072e-015 1.1547005383792757 
	-4.3295083395064831 36.471596565994417 4.6200000000000792 1 
	0 
	null_surface 
	null_surface 
	nullbs 
	nullbs 
	I I 
	0 
	0 
	0 
	F 1 F 0 } I I #
edge $-1 $278 $397 $341 $398 forward #
point $-1 -4.3295083395064831 36.471596565994417 4.6200000000000871 #
point $-1 -4.3295083395064857 36.471596565994417 -4.6200000000000774 #
edge $-1 $399 $347 $282 $400 forward #
vertex $-1 $346 $401 #
intcurve-curve $-1 forward { exactcur nurbs 2 open 2 
	0 2 9.3499132952635069 2 
	3.6725663914617668 33.711715610450199 9.2400000000000464 1 
	-0.32847097402239955 32.378036488622143 6.9300000000000441 1.1547005383792757 
	-4.3295083395065674 33.711715610450199 4.6200000000000436 1 
	0 
	null_surface 
	null_surface 
	nullbs 
	nullbs 
	I I 
	0 
	0 
	0 
	F 1 F 0 } I I #
coedge $-1 $332 $402 $285 $350 reversed $327 $-1 #
edge $-1 $334 $399 $285 $403 forward #
vertex $-1 $290 $404 #
ellipse-curve $-1 3.6725663914616797 32.591656088222301 -3.3592958702084793e-062 3.9673667996675821e-016 -1 -6.7185917404169586e-063 7.2999999999999829 2.896177763757328e-015 -1.8235413179468205e-015 1 I I #
coedge $-1 $353 $353 $294 $356 forward $292 $-1 #
coedge $-1 $293 $396 $390 $405 forward $234 $-1 #
edge $-1 $391 $338 $293 $406 forward #
edge $-1 $407 $407 $353 $408 forward #
loop $-1 $-1 $379 $295 #
plane-surface $-1 11.674641122429833 56.591656088222273 4.6200000000000845 1 3.355063622756394e-016 5.5733896848074352e-016 -5.5733896848074352e-016 -1.8699076986943151e-031 1 forward_v I I I I #
coedge $-1 $409 $410 $314 $376 reversed $296 $-1 #
coedge $-1 $309 $298 $410 $411 reversed $238 $-1 #
coedge $-1 $300 $299 $325 $385 reversed $193 $-1 #
coedge $-1 $412 $379 $300 $363 forward $357 $-1 #
edge $-1 $364 $413 $300 $414 forward #
vertex $-1 $363 $415 #
intcurve-curve $-1 forward { exactcur nurbs 2 open 2 
	0 2 9.3499132952635104 2 
	3.672566391461594 52.71171561045017 -9.2400000000000464 1 
	7.6736037569457594 51.378036488622115 -6.930000000000037 1.1547005383792757 
	11.674641122429923 52.71171561045017 -4.6200000000000268 1 
	0 
	null_surface 
	null_surface 
	nullbs 
	nullbs 
	I I 
	0 
	0 
	0 
	F 1 F 0 } I I #
coedge $-1 $307 $325 $303 $367 forward $260 $-1 #
edge $-1 $368 $312 $366 $416 forward #
vertex $-1 $385 $417 #
straight-curve $-1 3.6725663914615936 54.091656088222294 -9.2400000000000375 3.355063622756394e-016 -1 8.1502255504862356e-048 I I #
point $-1 3.672566391461594 52.71171561045017 -9.2400000000000375 #
coedge $-1 $418 $307 $309 $373 forward $260 $-1 #
intcurve-curve $-1 forward { exactcur nurbs 2 open 2 
	0 2 9.3499132952635549 2 
	-4.3295083395064857 55.471596565994396 -4.6200000000000818 1 
	-4.3295083395064884 56.805275687822451 -4.4598680762636187e-015 1.1547005383792757 
	-4.3295083395064911 55.471596565994396 4.6200000000000729 1 
	0 
	null_surface 
	null_surface 
	nullbs 
	nullbs 
	I I 
	0 
	0 
	0 
	F 1 F 0 } I I #
edge $-1 $310 $419 $371 $420 forward #
point $-1 -4.3295083395064911 55.471596565994396 4.62000000000008 #
point $-1 -4.3295083395064857 55.471596565994396 -4.6200000000000845 #
edge $-1 $421 $377 $314 $422 forward #
vertex $-1 $376 $423 #
intcurve-curve $-1 forward { exactcur nurbs 2 open 2 
	0 2 9.3499132952635069 2 
	3.6725663914617543 52.71171561045017 9.2400000000000464 1 
	-0.3284709740224101 51.378036488622115 6.9300000000000406 1.1547005383792757 
	-4.3295083395065754 52.71171561045017 4.6200000000000365 1 
	0 
	null_surface 
	null_surface 
	nullbs 
	nullbs 
	I I 
	0 
	0 
	0 
	F 1 F 0 } I I #
coedge $-1 $362 $424 $317 $380 reversed $357 $-1 #
edge $-1 $364 $421 $317 $425 forward #
vertex $-1 $322 $426 #
ellipse-curve $-1 3.6725663914616744 51.591656088222273 -4.9303806576313229e-031 3.355063622756394e-016 -1 8.1502255504862344e-048 7.2999999999999829 2.4491964446121619e-015 4.068574469909418e-015 1 I I #
coedge $-1 $383 $383 $326 $386 forward $324 $-1 #
coedge $-1 $325 $418 $412 $427 forward $260 $-1 #
edge $-1 $413 $368 $325 $428 forward #
edge $-1 $429 $429 $383 $430 forward #
coedge $-1 $431 $329 $402 $432 reversed $264 $-1 #
coedge $-1 $329 $431 $330 $389 forward $264 $-1 #
edge $-1 $397 $347 $388 $433 forward #
coedge $-1 $402 $332 $354 $405 reversed $327 $-1 #
vertex $-1 $355 $434 #
straight-curve $-1 11.674641122429925 35.091656088222329 -4.6200000000000374 -3.9673667996675821e-016 1 6.7185917404169597e-063 I I #
point $-1 11.674641122429925 33.711715610450206 -4.6200000000000374 #
intcurve-curve $-1 forward { exactcur nurbs 2 open 2 
	0 2 9.3499132952633097 2 
	3.6725663914616757 36.471596565994425 -9.2399999999999949 1 
	-0.3284709740224051 37.805275687822416 -6.9300000000000317 1.1547005383792828 
	-4.3295083395064857 36.471596565994417 -4.6200000000000738 1 
	0 
	null_surface 
	null_surface 
	nullbs 
	nullbs 
	I I 
	0 
	0 
	0 
	F 1 F 0 } I I #
point $-1 3.6725663914616757 36.471596565994425 -9.2399999999999949 #
coedge $-1 $354 $341 $431 $435 forward $234 $-1 #
vertex $-1 $435 $436 #
intcurve-curve $-1 forward { exactcur nurbs 2 open 2 
	0 2 9.3499132952633044 2 
	-4.3295083395064831 36.471596565994417 4.6200000000000907 1 
	-0.32847097402240177 37.805275687822416 6.9300000000000397 1.1547005383792828 
	3.6725663914616802 36.471596565994425 9.2399999999999967 1 
	0 
	null_surface 
	null_surface 
	nullbs 
	nullbs 
	I I 
	0 
	0 
	0 
	F 1 F 0 } I I #
vertex $-1 $350 $437 #
intcurve-curve $-1 forward { exactcur nurbs 2 open 2 
	0 2 9.3499132952635122 2 
	11.674641122429927 33.711715610450206 4.6200000000000276 1 
	7.6736037569457611 32.378036488622151 6.9300000000000352 1.1547005383792757 
	3.6725663914615958 33.711715610450199 9.2400000000000446 1 
	0 
	null_surface 
	null_surface 
	nullbs 
	nullbs 
	I I 
	0 
	0 
	0 
	F 1 F 0 } I I #
point $-1 3.6725663914617668 33.711715610450199 9.2400000000000393 #
coedge $-1 $349 $390 $387 $432 forward $327 $-1 #
intcurve-curve $-1 forward { exactcur nurbs 2 open 2 
	0 2 9.3499132952637094 2 
	11.674641122429838 33.711715610450206 -4.6200000000001538 1 
	11.67464112242984 32.378036488622094 -1.9989197124957072e-015 1.154700538379269 
	11.67464112242984 33.711715610450206 4.6200000000001493 1 
	0 
	null_surface 
	null_surface 
	nullbs 
	nullbs 
	I I 
	0 
	0 
	0 
	F 1 F 0 } I I #
point $-1 10.972566391461662 32.591656088222301 -1.8235413179468205e-015 #
edge $-1 $438 $391 $354 $439 forward #
intcurve-curve $-1 forward { exactcur nurbs 2 open 2 
	0 2 9.3499132952633097 2 
	11.674641122429838 36.471596565994425 -4.6200000000000792 1 
	7.6736037569457576 37.805275687822423 -6.930000000000037 1.1547005383792828 
	3.6725663914616757 36.471596565994425 -9.2399999999999967 1 
	0 
	null_surface 
	null_surface 
	nullbs 
	nullbs 
	I I 
	0 
	0 
	0 
	F 1 F 0 } I I #
vertex $-1 $356 $440 #
ellipse-curve $-1 3.6725663914616775 37.591656088222301 0 3.9673667996675821e-016 -1 -6.7185917404169586e-063 7.3000000000000123 2.8961777637573398e-015 -1.8235413179468276e-015 1 I I #
coedge $-1 $441 $359 $424 $442 reversed $296 $-1 #
coedge $-1 $359 $441 $360 $411 forward $296 $-1 #
edge $-1 $419 $377 $410 $443 forward #
coedge $-1 $424 $362 $384 $427 reversed $357 $-1 #
vertex $-1 $385 $444 #
straight-curve $-1 11.674641122429923 54.091656088222294 -4.6200000000000312 -3.355063622756394e-016 1 -8.1502255504862356e-048 I I #
point $-1 11.674641122429923 52.71171561045017 -4.6200000000000312 #
intcurve-curve $-1 forward { exactcur nurbs 2 open 2 
	0 2 9.3499132952633097 2 
	3.6725663914616784 55.471596565994396 -9.2399999999999949 1 
	-0.32847097402240399 56.805275687822387 -6.9300000000000352 1.1547005383792828 
	-4.3295083395064857 55.471596565994396 -4.62000000000008 1 
	0 
	null_surface 
	null_surface 
	nullbs 
	nullbs 
	I I 
	0 
	0 
	0 
	F 1 F 0 } I I #
point $-1 3.6725663914616784 55.471596565994396 -9.2399999999999949 #
coedge $-1 $384 $371 $441 $445 forward $260 $-1 #
vertex $-1 $445 $446 #
intcurve-curve $-1 forward { exactcur nurbs 2 open 2 
	0 2 9.3499132952633044 2 
	-4.3295083395064911 55.471596565994396 4.6200000000000845 1 
	-0.32847097402241177 56.805275687822387 6.9300000000000361 1.1547005383792828 
	3.6725663914616682 55.471596565994396 9.2399999999999967 1 
	0 
	null_surface 
	null_surface 
	nullbs 
	nullbs 
	I I 
	0 
	0 
	0 
	F 1 F 0 } I I #
vertex $-1 $380 $447 #
intcurve-curve $-1 forward { exactcur nurbs 2 open 2 
	0 2 9.3499132952635122 2 
	11.674641122429918 52.71171561045017 4.6200000000000339 1 
	7.6736037569457514 51.378036488622115 6.9300000000000388 1.1547005383792757 
	3.6725663914615838 52.71171561045017 9.2400000000000446 1 
	0 
	null_surface 
	null_surface 
	nullbs 
	nullbs 
	I I 
	0 
	0 
	0 
	F 1 F 0 } I I #
point $-1 3.6725663914617543 52.71171561045017 9.2400000000000393 #
coedge $-1 $379 $412 $409 $442 forward $357 $-1 #
intcurve-curve $-1 forward { exactcur nurbs 2 open 2 
	0 2 9.3499132952637094 2 
	11.674641122429838 52.71171561045017 -4.6200000000001467 1 
	11.674641122429836 51.378036488622065 4.4598680762636187e-015 1.154700538379269 
	11.674641122429835 52.71171561045017 4.6200000000001555 1 
	0 
	null_surface 
	null_surface 
	nullbs 
	nullbs 
	I I 
	0 
	0 
	0 
	F 1 F 0 } I I #
point $-1 10.972566391461658 51.591656088222273 4.068574469909418e-015 #
edge $-1 $448 $413 $384 $449 forward #
intcurve-curve $-1 forward { exactcur nurbs 2 open 2 
	0 2 9.3499132952633097 2 
	11.674641122429838 55.471596565994396 -4.620000000000072 1 
	7.6736037569457576 56.805275687822395 -6.9300000000000335 1.1547005383792828 
	3.6725663914616784 55.471596565994396 -9.2399999999999967 1 
	0 
	null_surface 
	null_surface 
	nullbs 
	nullbs 
	I I 
	0 
	0 
	0 
	F 1 F 0 } I I #
vertex $-1 $386 $450 #
ellipse-curve $-1 3.6725663914616731 56.591656088222273 -4.9303806576313238e-031 3.355063622756394e-016 -1 8.1502255504862344e-048 7.3000000000000123 2.4491964446121718e-015 4.0685744699094346e-015 1 I I #
coedge $-1 $388 $387 $396 $435 reversed $264 $-1 #
edge $-1 $438 $399 $402 $451 forward #
straight-curve $-1 3.6725663914617663 35.091656088222322 9.2400000000000393 3.9673667996675821e-016 -1 -6.7185917404169597e-063 I I #
point $-1 11.674641122429838 36.471596565994425 -4.6200000000000818 #
edge $-1 $397 $438 $396 $452 forward #
point $-1 3.6725663914616802 36.471596565994425 9.2399999999999949 #
point $-1 11.674641122429927 33.711715610450206 4.620000000000033 #
vertex $-1 $405 $453 #
intcurve-curve $-1 forward { exactcur nurbs 2 open 2 
	0 2 9.3499132952635549 2 
	11.67464112242984 36.471596565994425 4.6200000000000756 1 
	11.674641122429838 37.80527568782248 -1.9989197124957072e-015 1.1547005383792757 
	11.674641122429838 36.471596565994425 -4.6200000000000792 1 
	0 
	null_surface 
	null_surface 
	nullbs 
	nullbs 
	I I 
	0 
	0 
	0 
	F 1 F 0 } I I #
point $-1 10.972566391461688 37.591656088222301 -1.8235413179468276e-015 #
coedge $-1 $410 $409 $418 $445 reversed $296 $-1 #
edge $-1 $448 $421 $424 $454 forward #
straight-curve $-1 3.6725663914617539 54.091656088222294 9.2400000000000393 3.355063622756394e-016 -1 8.1502255504862356e-048 I I #
point $-1 11.674641122429838 55.471596565994396 -4.6200000000000756 #
edge $-1 $419 $448 $418 $455 forward #
point $-1 3.6725663914616682 55.471596565994396 9.2399999999999949 #
point $-1 11.674641122429918 52.71171561045017 4.6200000000000401 #
vertex $-1 $427 $456 #
intcurve-curve $-1 forward { exactcur nurbs 2 open 2 
	0 2 9.3499132952635549 2 
	11.674641122429833 55.471596565994396 4.6200000000000818 1 
	11.674641122429835 56.805275687822451 4.4598680762636187e-015 1.1547005383792757 
	11.674641122429838 55.471596565994396 -4.6200000000000729 1 
	0 
	null_surface 
	null_surface 
	nullbs 
	nullbs 
	I I 
	0 
	0 
	0 
	F 1 F 0 } I I #
point $-1 10.972566391461685 56.591656088222273 4.0685744699094338e-015 #
straight-curve $-1 11.674641122429927 35.091656088222329 4.620000000000033 3.9673667996675821e-016 -1 -6.7185917404169597e-063 I I #
intcurve-curve $-1 forward { exactcur nurbs 2 open 2 
	0 2 9.3499132952633097 2 
	3.6725663914616802 36.471596565994425 9.2399999999999949 1 
	7.6736037569457594 37.805275687822423 6.9300000000000317 1.1547005383792828 
	11.67464112242984 36.471596565994425 4.6200000000000738 1 
	0 
	null_surface 
	null_surface 
	nullbs 
	nullbs 
	I I 
	0 
	0 
	0 
	F 1 F 0 } I I #
point $-1 11.67464112242984 36.471596565994425 4.6200000000000774 #
straight-curve $-1 11.674641122429918 54.091656088222294 4.6200000000000401 3.355063622756394e-016 -1 8.1502255504862356e-048 I I #
intcurve-curve $-1 forward { exactcur nurbs 2 open 2 
	0 2 9.3499132952633097 2 
	3.6725663914616682 55.471596565994396 9.2399999999999949 1 
	7.6736037569457505 56.805275687822395 6.9300000000000352 1.1547005383792828 
	11.674641122429833 55.471596565994396 4.62000000000008 1 
	0 
	null_surface 
	null_surface 
	nullbs 
	nullbs 
	I I 
	0 
	0 
	0 
	F 1 F 0 } I I #
point $-1 11.674641122429833 55.471596565994396 4.6200000000000845 #
End-of-ACIS-data 