400 0 3 0           
28 Autodesk Inventor 6.0.0.9000 16 ASM 6.0.0.192 NT 24 Tue Jan 13 12:15:01 2004 
1 9.9999999999999995e-007 1e-010 
body $-1 $3 $-1 $-1 #
body $-1 $4 $-1 $-1 #
body $-1 $5 $-1 $-1 #
lump $-1 $-1 $6 $0 #
lump $-1 $-1 $7 $1 #
lump $-1 $-1 $8 $2 #
shell $-1 $-1 $-1 $9 $-1 $3 #
shell $-1 $-1 $-1 $10 $-1 $4 #
shell $-1 $-1 $-1 $11 $-1 $5 #
face $-1 $12 $13 $6 $-1 $14 forward single #
face $-1 $15 $16 $7 $-1 $17 reversed single #
face $-1 $18 $19 $8 $-1 $20 reversed single #
face $-1 $21 $22 $6 $-1 $23 forward single #
loop $-1 $24 $25 $9 #
cone-surface $-1 4.6725663914616975 -7.408343911777675 0 -5.4956039718945251e-016 1 0 -13.5 0 0 1 I I 0.12403473458920844 0.99227787671366774 13.5 forward I I I I #
face $-1 $26 $27 $7 $-1 $28 reversed single #
loop $-1 $29 $30 $10 #
cone-surface $-1 4.6725663914616833 19.66145143945889 0 5.4956039718945251e-016 -1 0 -5.7166289900300162 -3.1416328983456344e-015 0 1 I I -0.86602540378443871 0.49999999999999994 5.7166289900300162 forward I I I I #
face $-1 $31 $32 $8 $-1 $33 reversed single #
loop $-1 $34 $35 $11 #
cone-surface $-1 4.6725663914616726 38.661451439458865 0 5.4956039718945251e-016 -1 0 -5.7166289900300162 -3.1416328983456344e-015 0 1 I I -0.86602540378443871 0.49999999999999994 5.7166289900300162 forward I I I I #
face $-1 $36 $37 $6 $-1 $38 forward single #
loop $-1 $39 $40 $12 #
plane-surface $-1 -5.8274336085383096 4.5916560882223214 0 -5.4956039718945251e-016 1 0 0 0 10 forward_v I I I I #
loop $-1 $-1 $41 $9 #
coedge $-1 $25 $25 $42 $43 reversed $13 $-1 #
face $-1 $44 $45 $7 $-1 $46 reversed single #
loop $-1 $47 $48 $15 #
plane-surface $-1 -1.0440625985683343 20.044781088222351 0 -5.4956039718945251e-016 1 0 0 0 -1 forward_v I I I I #
loop $-1 $-1 $49 $10 #
coedge $-1 $30 $30 $50 $51 reversed $16 $-1 #
face $-1 $52 $53 $8 $-1 $54 reversed single #
loop $-1 $55 $56 $18 #
plane-surface $-1 -1.0440625985683449 39.044781088222329 0 -5.4956039718945251e-016 1 0 0 0 -1 forward_v I I I I #
loop $-1 $-1 $57 $11 #
coedge $-1 $35 $35 $58 $59 reversed $19 $-1 #
face $-1 $60 $61 $6 $-1 $62 forward single #
loop $-1 $63 $64 $21 #
cone-surface $-1 4.6725663914616709 42.216656088222322 0 -5.4956039718945251e-016 1 0 -5.9999999999999964 0 0 1 I I 0 1 5.9999999999999964 forward I I I I #
loop $-1 $-1 $42 $12 #
coedge $-1 $40 $40 $65 $66 reversed $22 $-1 #
coedge $-1 $41 $41 $67 $68 forward $24 $-1 #
coedge $-1 $42 $42 $25 $43 forward $39 $-1 #
edge $-1 $69 $69 $42 $70 forward #
face $-1 $71 $72 $7 $-1 $73 reversed single #
loop $-1 $74 $75 $26 #
cone-surface $-1 4.672566391461686 14.865093588222324 0 5.4956039718945251e-016 -1 0 5.5263923573054115 3.0370863789055167e-015 0 1 I I 0.86602540378443138 0.50000000000001255 5.5263923573054115 forward I I I I #
loop $-1 $-1 $76 $15 #
coedge $-1 $48 $48 $77 $78 forward $27 $-1 #
coedge $-1 $49 $49 $76 $79 reversed $29 $-1 #
coedge $-1 $50 $50 $30 $51 forward $80 $-1 #
edge $-1 $81 $81 $50 $82 forward #
face $-1 $83 $84 $8 $-1 $85 reversed single #
loop $-1 $86 $87 $31 #
cone-surface $-1 4.6725663914616753 33.865093588222301 0 5.4956039718945251e-016 -1 0 5.5263923573054115 3.0370863789055167e-015 0 1 I I 0.86602540378443138 0.50000000000001255 5.5263923573054115 forward I I I I #
loop $-1 $-1 $88 $18 #
coedge $-1 $56 $56 $89 $90 forward $32 $-1 #
coedge $-1 $57 $57 $88 $91 reversed $34 $-1 #
coedge $-1 $58 $58 $35 $59 forward $92 $-1 #
edge $-1 $93 $93 $58 $94 forward #
face $-1 $95 $96 $6 $-1 $97 forward single #
loop $-1 $98 $99 $36 #
cone-surface $-1 4.6725663914616495 80.216656088222322 0 -5.4956039718945251e-016 1 0 -5.6249999999999867 0 0 1 I I -0.7071067811865509 0.70710678118654424 5.6249999999999867 forward I I I I #
loop $-1 $-1 $65 $21 #
coedge $-1 $64 $64 $100 $101 reversed $37 $-1 #
coedge $-1 $65 $65 $40 $66 forward $63 $-1 #
edge $-1 $102 $102 $65 $103 forward #
coedge $-1 $67 $67 $41 $68 reversed $104 $-1 #
edge $-1 $105 $105 $41 $106 forward #
vertex $-1 $43 $107 #
ellipse-curve $-1 4.6725663914616913 4.5916560882223267 0 -5.4956039718945251e-016 1 0 -15 0 0 1 I I #
face $-1 $108 $109 $7 $-1 $110 forward single #
loop $-1 $111 $77 $44 #
cone-surface $-1 4.6725663914616824 20.318218588222322 0 5.4956039718945251e-016 -1 0 5.5263923573054399 3.0370863789055321e-015 0 1 I I -0.86602540378443615 0.50000000000000433 5.5263923573054399 forward I I I I #
loop $-1 $-1 $112 $26 #
coedge $-1 $75 $75 $113 $114 reversed $45 $-1 #
coedge $-1 $76 $76 $49 $79 forward $47 $-1 #
coedge $-1 $77 $77 $48 $78 reversed $72 $-1 #
edge $-1 $115 $115 $77 $116 forward #
edge $-1 $117 $117 $49 $118 forward #
loop $-1 $119 $50 $120 #
vertex $-1 $51 $121 #
ellipse-curve $-1 4.6725663914616833 19.278180768345639 0 -5.4956039718945251e-016 1 0 5.0527847146108513 2.7768103746743343e-015 0 1 I I #
face $-1 $122 $123 $8 $-1 $124 forward single #
loop $-1 $125 $89 $52 #
cone-surface $-1 4.6725663914616717 39.318218588222301 0 5.4956039718945251e-016 -1 0 5.5263923573054399 3.0370863789055321e-015 0 1 I I -0.86602540378443615 0.50000000000000433 5.5263923573054399 forward I I I I #
loop $-1 $-1 $126 $31 #
coedge $-1 $87 $87 $127 $128 reversed $53 $-1 #
coedge $-1 $88 $88 $57 $91 forward $55 $-1 #
coedge $-1 $89 $89 $56 $90 reversed $84 $-1 #
edge $-1 $129 $129 $89 $130 forward #
edge $-1 $131 $131 $57 $132 forward #
loop $-1 $133 $58 $134 #
vertex $-1 $59 $135 #
ellipse-curve $-1 4.6725663914616726 38.278180768345614 0 -5.4956039718945251e-016 1 0 5.0527847146108513 2.7768103746743343e-015 0 1 I I #
face $-1 $-1 $104 $6 $-1 $136 forward single #
loop $-1 $-1 $137 $60 #
plane-surface $-1 2.047566391461658 80.591656088222322 0 -5.4956039718945251e-016 1 0 0 0 10 forward_v I I I I #
loop $-1 $-1 $100 $36 #
coedge $-1 $99 $99 $137 $138 reversed $61 $-1 #
coedge $-1 $100 $100 $64 $101 forward $98 $-1 #
edge $-1 $139 $139 $100 $140 forward #
vertex $-1 $66 $141 #
ellipse-curve $-1 4.6725663914616913 4.5916560882223267 0 -5.4956039718945251e-016 1 0 -6.0000000000000009 0 0 1 I I #
loop $-1 $-1 $67 $95 #
vertex $-1 $68 $142 #
ellipse-curve $-1 4.6725663914617046 -19.408343911777674 0 -5.4956039718945251e-016 1 0 -12.000000000000002 0 0 1 I I #
point $-1 -10.32743360853831 4.5916560882223187 0 #
face $-1 $143 $144 $7 $-1 $145 forward single #
loop $-1 $-1 $146 $71 #
plane-surface $-1 -4.3297676808774703 20.591656088222294 -5.1975000000000868 -1 -5.4956039718945251e-016 -2.7341711813759984e-015 2.7341711813759988e-015 1.5025922004209485e-030 -1 forward_v I I I I #
loop $-1 $-1 $147 $44 #
coedge $-1 $112 $112 $148 $149 reversed $74 $-1 #
coedge $-1 $113 $113 $75 $114 forward $150 $-1 #
edge $-1 $151 $151 $113 $152 forward #
vertex $-1 $78 $153 #
ellipse-curve $-1 4.6725663914616833 20.044781088222322 0 -5.4956039718945251e-016 1 0 5.0527847146108513 2.7768103746743343e-015 0 1 I I #
vertex $-1 $79 $154 #
ellipse-curve $-1 4.6725663914616833 20.044781088222354 0 5.4956039718945251e-016 -1 0 -6.3805754177358676 -3.5065115608681804e-015 0 1 I I #
loop $-1 $-1 $148 $120 #
face $-1 $155 $80 $7 $-1 $156 forward single #
point $-1 -0.38021832314916792 19.278180768345635 0 #
face $-1 $157 $158 $8 $-1 $159 forward single #
loop $-1 $-1 $160 $83 #
plane-surface $-1 -4.329767680877481 39.591656088222265 -5.1975000000000868 -1 -5.4956039718945251e-016 -2.7341711813759984e-015 2.7341711813759988e-015 1.5025922004209485e-030 -1 forward_v I I I I #
loop $-1 $-1 $161 $52 #
coedge $-1 $126 $126 $162 $163 reversed $86 $-1 #
coedge $-1 $127 $127 $87 $128 forward $164 $-1 #
edge $-1 $165 $165 $127 $166 forward #
vertex $-1 $90 $167 #
ellipse-curve $-1 4.6725663914616726 39.044781088222301 0 -5.4956039718945251e-016 1 0 5.0527847146108513 2.7768103746743343e-015 0 1 I I #
vertex $-1 $91 $168 #
ellipse-curve $-1 4.6725663914616726 39.044781088222329 0 5.4956039718945251e-016 -1 0 -6.3805754177358676 -3.5065115608681804e-015 0 1 I I #
loop $-1 $-1 $162 $134 #
face $-1 $169 $92 $8 $-1 $170 forward single #
point $-1 -0.38021832314917847 38.278180768345614 0 #
plane-surface $-1 -1.3274336085382965 -19.408343911777681 0 5.4956039718945251e-016 -1 0 0 0 -10 forward_v I I I I #
coedge $-1 $137 $137 $99 $138 forward $96 $-1 #
edge $-1 $171 $171 $137 $172 forward #
vertex $-1 $101 $173 #
ellipse-curve $-1 4.6725663914616504 79.841656088222322 0 -5.4956039718945251e-016 1 0 -5.999999999999992 0 0 1 I I #
point $-1 -1.3274336085383092 4.5916560882223232 0 #
point $-1 -7.3274336085382972 -19.408343911777681 0 #
face $-1 $174 $175 $7 $-1 $176 forward single #
loop $-1 $-1 $177 $108 #
plane-surface $-1 4.6725663914616824 20.591656088222297 -10.394999999999989 -0.49999999999999656 -2.7478019859472438e-016 -0.86602540378444071 -5.4956039718945251e-016 1 0 forward_v I I I I #
coedge $-1 $178 $179 $180 $181 reversed $109 $-1 #
coedge $-1 $147 $147 $182 $183 reversed $111 $-1 #
coedge $-1 $148 $148 $112 $149 forward $119 $-1 #
edge $-1 $184 $184 $148 $185 forward #
loop $-1 $186 $113 $187 #
vertex $-1 $114 $188 #
ellipse-curve $-1 4.672566391461686 14.591656088222324 0 -5.4956039718945251e-016 1 0 6.0000000000000107 3.2973623831367212e-015 0 1 I I #
point $-1 9.7253511060725621 20.044781088222354 0 #
point $-1 -1.7080090262741727 20.044781088222351 0 #
face $-1 $189 $190 $7 $-1 $191 forward single #
cone-surface $-1 4.6725663914616842 17.591656088222326 0 5.4956039718945251e-016 -1 0 5.0527847146108513 2.7768103746743343e-015 0 1 I I 0 -1 5.0527847146108513 forward I I I I #
face $-1 $192 $193 $8 $-1 $194 forward single #
loop $-1 $-1 $195 $122 #
plane-surface $-1 4.6725663914616717 39.591656088222273 -10.394999999999989 -0.49999999999999656 -2.7478019859472438e-016 -0.86602540378444071 -5.4956039718945251e-016 1 0 forward_v I I I I #
coedge $-1 $196 $197 $198 $199 reversed $123 $-1 #
coedge $-1 $161 $161 $200 $201 reversed $125 $-1 #
coedge $-1 $162 $162 $126 $163 forward $133 $-1 #
edge $-1 $202 $202 $162 $203 forward #
loop $-1 $204 $127 $205 #
vertex $-1 $128 $206 #
ellipse-curve $-1 4.6725663914616753 33.591656088222301 0 -5.4956039718945251e-016 1 0 6.0000000000000107 3.2973623831367212e-015 0 1 I I #
point $-1 9.7253511060725515 39.044781088222329 0 #
point $-1 -1.7080090262741832 39.044781088222329 0 #
face $-1 $207 $208 $8 $-1 $209 forward single #
cone-surface $-1 4.6725663914616735 36.591656088222301 0 5.4956039718945251e-016 -1 0 5.0527847146108513 2.7768103746743343e-015 0 1 I I 0 -1 5.0527847146108513 forward I I I I #
vertex $-1 $138 $210 #
ellipse-curve $-1 4.6725663914616495 80.591656088222322 0 -5.4956039718945251e-016 1 0 -5.249999999999984 0 0 1 I I #
point $-1 -1.3274336085383416 79.841656088222322 0 #
face $-1 $211 $212 $7 $-1 $213 forward single #
loop $-1 $-1 $214 $143 #
plane-surface $-1 13.674900463800865 20.591656088222301 -5.1975000000000868 0.49999999999999539 2.7478019859472374e-016 -0.86602540378444137 -5.4956039718945251e-016 1 0 forward_v I I I I #
coedge $-1 $215 $216 $217 $218 reversed $144 $-1 #
coedge $-1 $219 $146 $220 $221 reversed $109 $-1 #
coedge $-1 $146 $219 $215 $222 forward $109 $-1 #
coedge $-1 $217 $223 $146 $181 forward $224 $-1 #
edge $-1 $225 $226 $180 $227 forward #
coedge $-1 $182 $182 $147 $183 forward $190 $-1 #
edge $-1 $228 $228 $182 $229 forward #
vertex $-1 $149 $230 #
ellipse-curve $-1 4.672566391461686 15.138531088222296 0 5.4956039718945251e-016 -1 0 5.0527847146108513 2.7768103746743343e-015 0 1 I I #
loop $-1 $-1 $231 $187 #
face $-1 $-1 $150 $7 $-1 $232 forward single #
point $-1 10.672566391461686 14.591656088222326 0 #
face $-1 $233 $234 $7 $-1 $235 forward single #
loop $-1 $236 $182 $155 #
plane-surface $-1 11.348958748767128 20.591656088222301 0 -5.4956039718945251e-016 1 0 0 0 1 forward_v I I I I #
face $-1 $237 $238 $8 $-1 $239 forward single #
loop $-1 $-1 $240 $157 #
plane-surface $-1 13.674900463800855 39.59165608822228 -5.1975000000000868 0.49999999999999539 2.7478019859472374e-016 -0.86602540378444137 -5.4956039718945251e-016 1 0 forward_v I I I I #
coedge $-1 $241 $242 $243 $244 reversed $158 $-1 #
coedge $-1 $245 $160 $246 $247 reversed $123 $-1 #
coedge $-1 $160 $245 $241 $248 forward $123 $-1 #
coedge $-1 $243 $249 $160 $199 forward $250 $-1 #
edge $-1 $251 $252 $198 $253 forward #
coedge $-1 $200 $200 $161 $201 forward $208 $-1 #
edge $-1 $254 $254 $200 $255 forward #
vertex $-1 $163 $256 #
ellipse-curve $-1 4.6725663914616753 34.138531088222273 0 5.4956039718945251e-016 -1 0 5.0527847146108513 2.7768103746743343e-015 0 1 I I #
loop $-1 $-1 $257 $205 #
face $-1 $-1 $164 $8 $-1 $258 forward single #
point $-1 10.672566391461675 33.591656088222301 0 #
face $-1 $259 $260 $8 $-1 $261 forward single #
loop $-1 $262 $200 $169 #
plane-surface $-1 11.348958748767117 39.59165608822228 0 -5.4956039718945251e-016 1 0 0 0 1 forward_v I I I I #
point $-1 -0.57743360853833359 80.591656088222322 0 #
face $-1 $263 $264 $7 $-1 $265 forward single #
loop $-1 $-1 $266 $174 #
plane-surface $-1 -4.3297676808774996 20.591656088222294 5.1975000000000984 -0.49999999999999512 -2.7478019859472359e-016 0.86602540378444148 5.4956039718945251e-016 -1 0 forward_v I I I I #
coedge $-1 $267 $268 $269 $270 reversed $175 $-1 #
coedge $-1 $271 $177 $179 $222 reversed $144 $-1 #
coedge $-1 $177 $271 $267 $272 forward $144 $-1 #
coedge $-1 $269 $180 $177 $218 forward $224 $-1 #
edge $-1 $226 $273 $217 $274 forward #
coedge $-1 $179 $178 $275 $276 reversed $109 $-1 #
coedge $-1 $266 $277 $178 $221 forward $212 $-1 #
edge $-1 $278 $225 $220 $279 forward #
edge $-1 $280 $226 $179 $281 forward #
coedge $-1 $180 $282 $266 $283 forward $224 $-1 #
loop $-1 $284 $285 $233 #
vertex $-1 $221 $286 #
vertex $-1 $222 $287 #
intcurve-curve $-1 forward { exactcur nurbs 2 open 2 
	0 2 10.518652457171747 2 
	-4.329767680877497 15.801204902174586 5.1975000000001828 1 
	-4.3297676808774668 14.300815890117915 -1.9095836023552692e-014 1.1547005383792912 
	-4.3297676808774685 15.801204902174586 -5.1975000000002218 1 
	0 
	null_surface 
	null_surface 
	nullbs 
	nullbs 
	I I 
	0 
	0 
	0 
	F 1 F 0 } I I #
vertex $-1 $183 $288 #
ellipse-curve $-1 4.6725663914616824 20.591656088222297 0 5.4956039718945251e-016 -1 0 6.0000000000000009 3.2973623831367156e-015 0 1 I I #
point $-1 9.7253511060725373 15.138531088222301 0 #
coedge $-1 $231 $231 $289 $290 forward $186 $-1 #
plane-surface $-1 11.348958748767103 14.591656088222326 0 5.4956039718945251e-016 -1 0 0 0 -1 forward_v I I I I #
face $-1 $187 $224 $7 $-1 $291 forward single #
loop $-1 $292 $293 $189 #
cone-surface $-1 4.6725663914616833 19.986881681246164 0 5.4956039718945251e-016 -1 0 9.3474999999999966 5.1370158127284064e-015 0 1 I I 0.86602540378444348 0.49999999999999184 9.3474999999999966 forward I I I I #
loop $-1 $-1 $294 $155 #
face $-1 $295 $296 $8 $-1 $297 forward single #
loop $-1 $-1 $298 $192 #
plane-surface $-1 -4.3297676808775094 39.591656088222265 5.1975000000000984 -0.49999999999999512 -2.7478019859472359e-016 0.86602540378444148 5.4956039718945251e-016 -1 0 forward_v I I I I #
coedge $-1 $299 $300 $301 $302 reversed $193 $-1 #
coedge $-1 $303 $195 $197 $248 reversed $158 $-1 #
coedge $-1 $195 $303 $299 $304 forward $158 $-1 #
coedge $-1 $301 $198 $195 $244 forward $250 $-1 #
edge $-1 $252 $305 $243 $306 forward #
coedge $-1 $197 $196 $307 $308 reversed $123 $-1 #
coedge $-1 $298 $309 $196 $247 forward $238 $-1 #
edge $-1 $310 $251 $246 $311 forward #
edge $-1 $312 $252 $197 $313 forward #
coedge $-1 $198 $314 $298 $315 forward $250 $-1 #
loop $-1 $316 $317 $259 #
vertex $-1 $247 $318 #
vertex $-1 $248 $319 #
intcurve-curve $-1 forward { exactcur nurbs 2 open 2 
	0 2 10.518652457171747 2 
	-4.3297676808775076 34.801204902174561 5.1975000000001828 1 
	-4.3297676808774774 33.300815890117896 -1.9095836023552692e-014 1.1547005383792912 
	-4.3297676808774792 34.801204902174561 -5.1975000000002218 1 
	0 
	null_surface 
	null_surface 
	nullbs 
	nullbs 
	I I 
	0 
	0 
	0 
	F 1 F 0 } I I #
vertex $-1 $201 $320 #
ellipse-curve $-1 4.6725663914616717 39.591656088222273 0 5.4956039718945251e-016 -1 0 6.0000000000000009 3.2973623831367156e-015 0 1 I I #
point $-1 9.7253511060725266 34.13853108822228 0 #
coedge $-1 $257 $257 $321 $322 forward $204 $-1 #
plane-surface $-1 11.348958748767092 33.591656088222301 0 5.4956039718945251e-016 -1 0 0 0 -1 forward_v I I I I #
face $-1 $205 $250 $8 $-1 $323 forward single #
loop $-1 $324 $325 $207 #
cone-surface $-1 4.6725663914616726 38.986881681246139 0 5.4956039718945251e-016 -1 0 9.3474999999999966 5.1370158127284064e-015 0 1 I I 0.86602540378444348 0.49999999999999184 9.3474999999999966 forward I I I I #
loop $-1 $-1 $326 $169 #
face $-1 $120 $327 $7 $-1 $328 forward single #
loop $-1 $-1 $329 $211 #
plane-surface $-1 4.6725663914616824 20.591656088222297 10.394999999999996 0.49999999999999589 2.7478019859472399e-016 0.86602540378444104 5.4956039718945251e-016 -1 0 forward_v I I I I #
coedge $-1 $330 $220 $223 $283 reversed $212 $-1 #
coedge $-1 $331 $214 $216 $272 reversed $175 $-1 #
coedge $-1 $214 $331 $332 $333 reversed $175 $-1 #
coedge $-1 $285 $217 $214 $270 forward $224 $-1 #
edge $-1 $273 $334 $269 $335 forward #
coedge $-1 $216 $215 $336 $337 reversed $144 $-1 #
edge $-1 $338 $273 $216 $339 forward #
vertex $-1 $272 $340 #
intcurve-curve $-1 forward { exactcur nurbs 2 open 2 
	0 2 10.518652457171438 2 
	-4.3297676808775813 15.801204902174586 -5.1975000000000158 1 
	0.17139935529209505 14.300815890118002 -7.796250000000029 1.1547005383792566 
	4.6725663914617703 15.801204902174593 -10.39500000000004 1 
	0 
	null_surface 
	null_surface 
	nullbs 
	nullbs 
	I I 
	0 
	0 
	0 
	F 1 F 0 } I I #
coedge $-1 $341 $336 $219 $276 forward $234 $-1 #
edge $-1 $280 $278 $275 $342 forward #
coedge $-1 $220 $330 $341 $343 reversed $212 $-1 #
vertex $-1 $276 $344 #
straight-curve $-1 -4.3297676808774979 17.591656088222322 5.1975000000001348 5.4956039718945251e-016 -1 0 I I #
vertex $-1 $337 $345 #
straight-curve $-1 -4.3297676808775263 17.591656088222322 -5.1975000000000451 5.4956039718945251e-016 -1 0 I I #
coedge $-1 $223 $285 $329 $346 forward $224 $-1 #
edge $-1 $347 $225 $223 $348 forward #
loop $-1 $-1 $289 $233 #
coedge $-1 $282 $269 $349 $350 forward $224 $-1 #
point $-1 -4.329767680877497 15.801204902174586 5.1975000000001348 #
point $-1 -4.3297676808775245 15.801204902174586 -5.1975000000000451 #
point $-1 10.672566391461684 20.591656088222301 0 #
coedge $-1 $289 $289 $231 $290 reversed $284 $-1 #
edge $-1 $351 $351 $231 $352 forward #
cone-surface $-1 4.672566391461686 15.196430495198429 0 5.4956039718945251e-016 -1 0 9.3474999999999966 5.1370158127284064e-015 0 1 I I -0.86602540378443615 0.50000000000000433 9.3474999999999966 forward I I I I #
loop $-1 $-1 $353 $189 #
coedge $-1 $336 $354 $331 $355 forward $234 $-1 #
coedge $-1 $294 $294 $353 $356 reversed $236 $-1 #
face $-1 $134 $357 $8 $-1 $358 forward single #
loop $-1 $-1 $359 $237 #
plane-surface $-1 4.6725663914616717 39.591656088222273 10.394999999999996 0.49999999999999589 2.7478019859472399e-016 0.86602540378444104 5.4956039718945251e-016 -1 0 forward_v I I I I #
coedge $-1 $360 $246 $249 $315 reversed $238 $-1 #
coedge $-1 $361 $240 $242 $304 reversed $193 $-1 #
coedge $-1 $240 $361 $362 $363 reversed $193 $-1 #
coedge $-1 $317 $243 $240 $302 forward $250 $-1 #
edge $-1 $305 $364 $301 $365 forward #
coedge $-1 $242 $241 $366 $367 reversed $158 $-1 #
edge $-1 $368 $305 $242 $369 forward #
vertex $-1 $304 $370 #
intcurve-curve $-1 forward { exactcur nurbs 2 open 2 
	0 2 10.518652457171438 2 
	-4.329767680877592 34.801204902174561 -5.1975000000000158 1 
	0.1713993552920845 33.300815890117981 -7.796250000000029 1.1547005383792566 
	4.6725663914617597 34.801204902174568 -10.39500000000004 1 
	0 
	null_surface 
	null_surface 
	nullbs 
	nullbs 
	I I 
	0 
	0 
	0 
	F 1 F 0 } I I #
coedge $-1 $371 $366 $245 $308 forward $260 $-1 #
edge $-1 $312 $310 $307 $372 forward #
coedge $-1 $246 $360 $371 $373 reversed $238 $-1 #
vertex $-1 $308 $374 #
straight-curve $-1 -4.3297676808775085 36.591656088222294 5.1975000000001348 5.4956039718945251e-016 -1 0 I I #
vertex $-1 $367 $375 #
straight-curve $-1 -4.3297676808775361 36.591656088222294 -5.1975000000000451 5.4956039718945251e-016 -1 0 I I #
coedge $-1 $249 $317 $359 $376 forward $250 $-1 #
edge $-1 $377 $251 $249 $378 forward #
loop $-1 $-1 $321 $259 #
coedge $-1 $314 $301 $379 $380 forward $250 $-1 #
point $-1 -4.3297676808775076 34.801204902174561 5.1975000000001348 #
point $-1 -4.3297676808775352 34.801204902174561 -5.1975000000000451 #
point $-1 10.672566391461674 39.59165608822228 0 #
coedge $-1 $321 $321 $257 $322 reversed $316 $-1 #
edge $-1 $381 $381 $257 $382 forward #
cone-surface $-1 4.6725663914616753 34.196430495198406 0 5.4956039718945251e-016 -1 0 9.3474999999999966 5.1370158127284064e-015 0 1 I I -0.86602540378443615 0.50000000000000433 9.3474999999999966 forward I I I I #
loop $-1 $-1 $383 $207 #
coedge $-1 $366 $384 $361 $385 forward $260 $-1 #
coedge $-1 $326 $326 $383 $386 reversed $262 $-1 #
loop $-1 $-1 $349 $263 #
plane-surface $-1 13.674900463800865 20.591656088222301 5.1975000000000868 1 5.4956039718945251e-016 0 0 0 1 forward_v I I I I #
coedge $-1 $387 $388 $282 $346 reversed $264 $-1 #
coedge $-1 $277 $266 $388 $389 reversed $212 $-1 #
coedge $-1 $268 $267 $293 $355 reversed $175 $-1 #
coedge $-1 $390 $349 $268 $333 forward $327 $-1 #
edge $-1 $334 $391 $268 $392 forward #
vertex $-1 $333 $393 #
intcurve-curve $-1 forward { exactcur nurbs 2 open 2 
	0 2 10.518652457171425 2 
	4.6725663914615998 15.801204902174593 -10.395000000000042 1 
	9.1737334276312765 14.300815890118006 -7.7962500000000423 1.1547005383792566 
	13.674900463800952 15.801204902174597 -5.1975000000000415 1 
	0 
	null_surface 
	null_surface 
	nullbs 
	nullbs 
	I I 
	0 
	0 
	0 
	F 1 F 0 } I I #
coedge $-1 $275 $293 $271 $337 forward $234 $-1 #
edge $-1 $338 $280 $336 $394 forward #
vertex $-1 $355 $395 #
straight-curve $-1 4.6725663914616558 17.591656088222326 -10.39500000000001 5.4956039718945251e-016 -1 0 I I #
point $-1 4.6725663914616575 15.801204902174593 -10.39500000000001 #
coedge $-1 $396 $275 $277 $343 forward $234 $-1 #
intcurve-curve $-1 forward { exactcur nurbs 2 open 2 
	0 2 10.518652457171441 2 
	-4.3297676808774694 19.382107274270052 -5.1975000000000762 1 
	-4.3297676808774703 20.882496286326614 -1.4830339289363742e-014 1.1547005383793041 
	-4.3297676808774979 19.382107274270052 5.1975000000000371 1 
	0 
	null_surface 
	null_surface 
	nullbs 
	nullbs 
	I I 
	0 
	0 
	0 
	F 1 F 0 } I I #
edge $-1 $278 $397 $341 $398 forward #
point $-1 -4.3297676808774979 19.382107274270052 5.1975000000000939 #
point $-1 -4.3297676808774694 19.382107274270052 -5.1975000000000833 #
edge $-1 $399 $347 $282 $400 forward #
vertex $-1 $346 $401 #
intcurve-curve $-1 forward { exactcur nurbs 2 open 2 
	0 2 10.518652457171422 2 
	4.6725663914617703 15.801204902174593 10.395000000000048 1 
	0.17139935529209505 14.300815890118002 7.7962500000000512 1.1547005383792566 
	-4.3297676808775813 15.801204902174586 5.197500000000054 1 
	0 
	null_surface 
	null_surface 
	nullbs 
	nullbs 
	I I 
	0 
	0 
	0 
	F 1 F 0 } I I #
coedge $-1 $332 $402 $285 $350 reversed $327 $-1 #
edge $-1 $334 $399 $285 $403 forward #
vertex $-1 $290 $404 #
ellipse-curve $-1 4.672566391461686 14.591656088222296 0 5.4956039718945251e-016 -1 0 8.2999999999999829 4.5613512966724463e-015 0 1 I I #
coedge $-1 $353 $353 $294 $356 forward $292 $-1 #
coedge $-1 $293 $396 $390 $405 forward $234 $-1 #
edge $-1 $391 $338 $293 $406 forward #
edge $-1 $407 $407 $353 $408 forward #
loop $-1 $-1 $379 $295 #
plane-surface $-1 13.674900463800855 39.59165608822228 5.1975000000000868 1 5.4956039718945251e-016 0 0 0 1 forward_v I I I I #
coedge $-1 $409 $410 $314 $376 reversed $296 $-1 #
coedge $-1 $309 $298 $410 $411 reversed $238 $-1 #
coedge $-1 $300 $299 $325 $385 reversed $193 $-1 #
coedge $-1 $412 $379 $300 $363 forward $357 $-1 #
edge $-1 $364 $413 $300 $414 forward #
vertex $-1 $363 $415 #
intcurve-curve $-1 forward { exactcur nurbs 2 open 2 
	0 2 10.518652457171425 2 
	4.6725663914615891 34.801204902174568 -10.395000000000042 1 
	9.1737334276312659 33.300815890117981 -7.7962500000000423 1.1547005383792566 
	13.674900463800942 34.801204902174575 -5.1975000000000415 1 
	0 
	null_surface 
	null_surface 
	nullbs 
	nullbs 
	I I 
	0 
	0 
	0 
	F 1 F 0 } I I #
coedge $-1 $307 $325 $303 $367 forward $260 $-1 #
edge $-1 $368 $312 $366 $416 forward #
vertex $-1 $385 $417 #
straight-curve $-1 4.6725663914616451 36.591656088222301 -10.39500000000001 5.4956039718945251e-016 -1 0 I I #
point $-1 4.6725663914616469 34.801204902174568 -10.39500000000001 #
coedge $-1 $418 $307 $309 $373 forward $260 $-1 #
intcurve-curve $-1 forward { exactcur nurbs 2 open 2 
	0 2 10.518652457171441 2 
	-4.3297676808774801 38.382107274270027 -5.1975000000000762 1 
	-4.329767680877481 39.882496286326592 -1.4830339289363742e-014 1.1547005383793041 
	-4.3297676808775085 38.382107274270027 5.1975000000000371 1 
	0 
	null_surface 
	null_surface 
	nullbs 
	nullbs 
	I I 
	0 
	0 
	0 
	F 1 F 0 } I I #
edge $-1 $310 $419 $371 $420 forward #
point $-1 -4.3297676808775085 38.382107274270027 5.1975000000000939 #
point $-1 -4.3297676808774801 38.382107274270027 -5.1975000000000833 #
edge $-1 $421 $377 $314 $422 forward #
vertex $-1 $376 $423 #
intcurve-curve $-1 forward { exactcur nurbs 2 open 2 
	0 2 10.518652457171422 2 
	4.6725663914617597 34.801204902174568 10.395000000000048 1 
	0.1713993552920845 33.300815890117981 7.7962500000000512 1.1547005383792566 
	-4.329767680877592 34.801204902174561 5.197500000000054 1 
	0 
	null_surface 
	null_surface 
	nullbs 
	nullbs 
	I I 
	0 
	0 
	0 
	F 1 F 0 } I I #
coedge $-1 $362 $424 $317 $380 reversed $357 $-1 #
edge $-1 $364 $421 $317 $425 forward #
vertex $-1 $322 $426 #
ellipse-curve $-1 4.6725663914616753 33.591656088222273 0 5.4956039718945251e-016 -1 0 8.2999999999999829 4.5613512966724463e-015 0 1 I I #
coedge $-1 $383 $383 $326 $386 forward $324 $-1 #
coedge $-1 $325 $418 $412 $427 forward $260 $-1 #
edge $-1 $413 $368 $325 $428 forward #
edge $-1 $429 $429 $383 $430 forward #
coedge $-1 $431 $329 $402 $432 reversed $264 $-1 #
coedge $-1 $329 $431 $330 $389 forward $264 $-1 #
edge $-1 $397 $347 $388 $433 forward #
coedge $-1 $402 $332 $354 $405 reversed $327 $-1 #
vertex $-1 $355 $434 #
straight-curve $-1 13.674900463800894 17.591656088222329 -5.1975000000000717 -5.4956039718945251e-016 1 0 I I #
point $-1 13.674900463800894 15.801204902174597 -5.1975000000000717 #
intcurve-curve $-1 forward { exactcur nurbs 2 open 2 
	0 2 10.518652457171216 2 
	4.6725663914616833 19.382107274270059 -10.394999999999984 1 
	0.17139935529209172 20.882496286326528 -7.7962500000000334 1.1547005383792694 
	-4.3297676808774979 19.382107274270052 -5.1975000000000771 1 
	0 
	null_surface 
	null_surface 
	nullbs 
	nullbs 
	I I 
	0 
	0 
	0 
	F 1 F 0 } I I #
point $-1 4.6725663914616833 19.382107274270059 -10.394999999999989 #
coedge $-1 $354 $341 $431 $435 forward $234 $-1 #
vertex $-1 $435 $436 #
intcurve-curve $-1 forward { exactcur nurbs 2 open 2 
	0 2 10.518652457171134 2 
	-4.3297676808774694 19.382107274270052 5.1975000000001206 1 
	0.17139935529209172 20.882496286326528 7.7962500000000485 1.1547005383791813 
	4.6725663914616549 19.382107274270059 10.394999999999976 1 
	0 
	null_surface 
	null_surface 
	nullbs 
	nullbs 
	I I 
	0 
	0 
	0 
	F 1 F 0 } I I #
vertex $-1 $350 $437 #
intcurve-curve $-1 forward { exactcur nurbs 2 open 2 
	0 2 10.518652457171431 2 
	13.674900463800952 15.801204902174597 5.1975000000000362 1 
	9.1737334276312765 14.300815890118006 7.7962500000000414 1.1547005383792566 
	4.6725663914615998 15.801204902174593 10.395000000000046 1 
	0 
	null_surface 
	null_surface 
	nullbs 
	nullbs 
	I I 
	0 
	0 
	0 
	F 1 F 0 } I I #
point $-1 4.6725663914617135 15.801204902174593 10.39500000000001 #
coedge $-1 $349 $390 $387 $432 forward $327 $-1 #
intcurve-curve $-1 forward { exactcur nurbs 2 open 2 
	0 2 10.518652457171637 2 
	13.674900463800867 15.801204902174597 -5.1975000000001517 1 
	13.674900463800867 14.300815890117953 0 1.1547005383792504 
	13.674900463800867 15.801204902174597 5.1975000000001517 1 
	0 
	null_surface 
	null_surface 
	nullbs 
	nullbs 
	I I 
	0 
	0 
	0 
	F 1 F 0 } I I #
point $-1 12.972566391461669 14.591656088222301 0 #
edge $-1 $438 $391 $354 $439 forward #
intcurve-curve $-1 forward { exactcur nurbs 2 open 2 
	0 2 10.518652457171138 2 
	13.674900463800837 19.382107274270062 -5.1975000000001099 1 
	9.1737334276312748 20.882496286326532 -7.7962500000000423 1.1547005383791813 
	4.6725663914617117 19.382107274270059 -10.394999999999975 1 
	0 
	null_surface 
	null_surface 
	nullbs 
	nullbs 
	I I 
	0 
	0 
	0 
	F 1 F 0 } I I #
vertex $-1 $356 $440 #
ellipse-curve $-1 4.6725663914616824 20.591656088222297 0 5.4956039718945251e-016 -1 0 8.3000000000000114 4.5613512966724621e-015 0 1 I I #
coedge $-1 $441 $359 $424 $442 reversed $296 $-1 #
coedge $-1 $359 $441 $360 $411 forward $296 $-1 #
edge $-1 $419 $377 $410 $443 forward #
coedge $-1 $424 $362 $384 $427 reversed $357 $-1 #
vertex $-1 $385 $444 #
straight-curve $-1 13.674900463800883 36.591656088222308 -5.1975000000000717 -5.4956039718945251e-016 1 0 I I #
point $-1 13.674900463800883 34.801204902174575 -5.1975000000000717 #
intcurve-curve $-1 forward { exactcur nurbs 2 open 2 
	0 2 10.518652457171216 2 
	4.6725663914616726 38.382107274270034 -10.394999999999984 1 
	0.17139935529208117 39.882496286326507 -7.7962500000000334 1.1547005383792694 
	-4.3297676808775085 38.382107274270027 -5.1975000000000771 1 
	0 
	null_surface 
	null_surface 
	nullbs 
	nullbs 
	I I 
	0 
	0 
	0 
	F 1 F 0 } I I #
point $-1 4.6725663914616726 38.382107274270034 -10.394999999999989 #
coedge $-1 $384 $371 $441 $445 forward $260 $-1 #
vertex $-1 $445 $446 #
intcurve-curve $-1 forward { exactcur nurbs 2 open 2 
	0 2 10.518652457171134 2 
	-4.3297676808774801 38.382107274270027 5.1975000000001206 1 
	0.17139935529208117 39.882496286326507 7.7962500000000485 1.1547005383791813 
	4.6725663914616442 38.382107274270034 10.394999999999976 1 
	0 
	null_surface 
	null_surface 
	nullbs 
	nullbs 
	I I 
	0 
	0 
	0 
	F 1 F 0 } I I #
vertex $-1 $380 $447 #
intcurve-curve $-1 forward { exactcur nurbs 2 open 2 
	0 2 10.518652457171431 2 
	13.674900463800942 34.801204902174575 5.1975000000000362 1 
	9.1737334276312659 33.300815890117981 7.7962500000000414 1.1547005383792566 
	4.6725663914615891 34.801204902174568 10.395000000000046 1 
	0 
	null_surface 
	null_surface 
	nullbs 
	nullbs 
	I I 
	0 
	0 
	0 
	F 1 F 0 } I I #
point $-1 4.6725663914617037 34.801204902174568 10.39500000000001 #
coedge $-1 $379 $412 $409 $442 forward $357 $-1 #
intcurve-curve $-1 forward { exactcur nurbs 2 open 2 
	0 2 10.518652457171637 2 
	13.674900463800856 34.801204902174575 -5.1975000000001517 1 
	13.674900463800856 33.300815890117931 0 1.1547005383792504 
	13.674900463800856 34.801204902174575 5.1975000000001517 1 
	0 
	null_surface 
	null_surface 
	nullbs 
	nullbs 
	I I 
	0 
	0 
	0 
	F 1 F 0 } I I #
point $-1 12.972566391461658 33.59165608822228 0 #
edge $-1 $448 $413 $384 $449 forward #
intcurve-curve $-1 forward { exactcur nurbs 2 open 2 
	0 2 10.518652457171138 2 
	13.674900463800824 38.382107274270041 -5.1975000000001099 1 
	9.1737334276312623 39.882496286326507 -7.7962500000000423 1.1547005383791813 
	4.6725663914617011 38.382107274270034 -10.394999999999975 1 
	0 
	null_surface 
	null_surface 
	nullbs 
	nullbs 
	I I 
	0 
	0 
	0 
	F 1 F 0 } I I #
vertex $-1 $386 $450 #
ellipse-curve $-1 4.6725663914616717 39.591656088222273 0 5.4956039718945251e-016 -1 0 8.3000000000000114 4.5613512966724621e-015 0 1 I I #
coedge $-1 $388 $387 $396 $435 reversed $264 $-1 #
edge $-1 $438 $399 $402 $451 forward #
straight-curve $-1 4.6725663914617126 17.591656088222326 10.39500000000001 5.4956039718945251e-016 -1 0 I I #
point $-1 13.674900463800865 19.382107274270062 -5.1975000000000851 #
edge $-1 $397 $438 $396 $452 forward #
point $-1 4.6725663914616833 19.382107274270027 10.394999999999996 #
point $-1 13.674900463800894 15.801204902174597 5.1975000000000673 #
vertex $-1 $405 $453 #
intcurve-curve $-1 forward { exactcur nurbs 2 open 2 
	0 2 10.518652457171463 2 
	13.674900463800865 19.382107274270062 5.1975000000000717 1 
	13.674900463800865 20.882496286326621 0 1.1547005383792159 
	13.674900463800865 19.382107274270062 -5.1975000000000717 1 
	0 
	null_surface 
	null_surface 
	nullbs 
	nullbs 
	I I 
	0 
	0 
	0 
	F 1 F 0 } I I #
point $-1 12.972566391461696 20.591656088222301 0 #
coedge $-1 $410 $409 $418 $445 reversed $296 $-1 #
edge $-1 $448 $421 $424 $454 forward #
straight-curve $-1 4.6725663914617019 36.591656088222301 10.39500000000001 5.4956039718945251e-016 -1 0 I I #
point $-1 13.674900463800856 38.382107274270041 -5.1975000000000851 #
edge $-1 $419 $448 $418 $455 forward #
point $-1 4.6725663914616726 38.382107274270005 10.394999999999996 #
point $-1 13.674900463800883 34.801204902174575 5.1975000000000673 #
vertex $-1 $427 $456 #
intcurve-curve $-1 forward { exactcur nurbs 2 open 2 
	0 2 10.518652457171463 2 
	13.674900463800856 38.382107274270041 5.1975000000000717 1 
	13.674900463800855 39.882496286326599 0 1.1547005383792159 
	13.674900463800856 38.382107274270041 -5.1975000000000717 1 
	0 
	null_surface 
	null_surface 
	nullbs 
	nullbs 
	I I 
	0 
	0 
	0 
	F 1 F 0 } I I #
point $-1 12.972566391461683 39.59165608822228 0 #
straight-curve $-1 13.674900463800894 17.591656088222329 5.1975000000000673 5.4956039718945251e-016 -1 0 I I #
intcurve-curve $-1 forward { exactcur nurbs 2 open 2 
	0 2 10.51865245717114 2 
	4.6725663914617117 19.382107274270059 10.394999999999975 1 
	9.1737334276312748 20.882496286326532 7.7962500000000423 1.1547005383791813 
	13.674900463800837 19.382107274270062 5.1975000000001046 1 
	0 
	null_surface 
	null_surface 
	nullbs 
	nullbs 
	I I 
	0 
	0 
	0 
	F 1 F 0 } I I #
point $-1 13.674900463800865 19.382107274270062 5.1975000000000851 #
straight-curve $-1 13.674900463800883 36.591656088222308 5.1975000000000673 5.4956039718945251e-016 -1 0 I I #
intcurve-curve $-1 forward { exactcur nurbs 2 open 2 
	0 2 10.51865245717114 2 
	4.6725663914617011 38.382107274270034 10.394999999999975 1 
	9.1737334276312623 39.882496286326507 7.7962500000000423 1.1547005383791813 
	13.674900463800824 38.382107274270041 5.1975000000001046 1 
	0 
	null_surface 
	null_surface 
	nullbs 
	nullbs 
	I I 
	0 
	0 
	0 
	F 1 F 0 } I I #
point $-1 13.674900463800856 38.382107274270041 5.1975000000000851 #
End-of-ACIS-data 