400 0 3 0           
28 Autodesk Inventor 6.0.0.9000 16 ASM 6.0.0.192 NT 24 Tue Jan 13 12:18:22 2004 
1 9.9999999999999995e-007 1e-010 
body $-1 $3 $-1 $-1 #
body $-1 $4 $-1 $-1 #
body $-1 $5 $-1 $-1 #
lump $-1 $-1 $6 $0 #
lump $-1 $-1 $7 $1 #
lump $-1 $-1 $8 $2 #
shell $-1 $-1 $-1 $9 $-1 $3 #
shell $-1 $-1 $-1 $10 $-1 $4 #
shell $-1 $-1 $-1 $11 $-1 $5 #
face $-1 $12 $13 $6 $-1 $14 forward single #
face $-1 $15 $16 $7 $-1 $17 reversed single #
face $-1 $18 $19 $8 $-1 $20 reversed single #
face $-1 $21 $22 $6 $-1 $23 forward single #
loop $-1 $24 $25 $9 #
cone-surface $-1 1.6725663914616837 16.591656088222322 0 -5.4718134785096994e-016 1 0 -6.75 0 0 1 I I 0.12403473458920837 0.99227787671366774 6.75 forward I I I I #
face $-1 $26 $27 $7 $-1 $28 reversed single #
loop $-1 $29 $30 $10 #
cone-surface $-1 1.6725663914616735 35.345012637375611 0 5.4894360662021621e-016 -1 0 -2.6909766419321643 -1.4771944231530008e-015 0 1 I I -0.86602540378443871 0.50000000000000011 2.6909766419321643 forward I I I I #
face $-1 $31 $32 $8 $-1 $33 reversed single #
loop $-1 $34 $35 $11 #
cone-surface $-1 1.6725663914616675 46.045012637375621 0 5.4894360662021621e-016 -1 0 -2.6909766419321643 -1.4771944231530008e-015 0 1 I I -0.86602540378443871 0.50000000000000011 2.6909766419321643 forward I I I I #
face $-1 $36 $37 $6 $-1 $38 forward single #
loop $-1 $39 $40 $12 #
plane-surface $-1 -3.577433608538318 22.591656088222322 0 -5.4718134785096994e-016 1 0 0 0 10 forward_v I I I I #
loop $-1 $-1 $41 $9 #
coedge $-1 $25 $25 $42 $43 reversed $13 $-1 #
face $-1 $44 $45 $7 $-1 $46 reversed single #
loop $-1 $47 $48 $15 #
plane-surface $-1 -1.0184102504704942 35.479156088222418 0 -5.4894360662021621e-016 1 0 0 0 -1 forward_v I I I I #
loop $-1 $-1 $49 $10 #
coedge $-1 $30 $30 $50 $51 reversed $16 $-1 #
face $-1 $52 $53 $8 $-1 $54 reversed single #
loop $-1 $55 $56 $18 #
plane-surface $-1 -1.0184102504705002 46.179156088222427 0 -5.4894360662021621e-016 1 0 0 0 -1 forward_v I I I I #
loop $-1 $-1 $57 $11 #
coedge $-1 $35 $35 $58 $59 reversed $19 $-1 #
face $-1 $60 $61 $6 $-1 $62 forward single #
loop $-1 $63 $64 $21 #
cone-surface $-1 1.6725663914616649 51.216656088222322 0 -5.4718134785096994e-016 1 0 -2.9999999999999938 0 0 1 I I 0 1 2.9999999999999938 forward I I I I #
loop $-1 $-1 $42 $12 #
coedge $-1 $40 $40 $65 $66 reversed $22 $-1 #
coedge $-1 $41 $41 $67 $68 forward $24 $-1 #
coedge $-1 $42 $42 $25 $43 forward $39 $-1 #
edge $-1 $69 $69 $42 $70 forward #
face $-1 $71 $72 $7 $-1 $73 reversed single #
loop $-1 $74 $75 $26 #
cone-surface $-1 1.6725663914616749 32.747906088222315 0 5.4894360662021621e-016 -1 0 2.7293670613173902 1.4982685984299892e-015 0 1 I I 0.86602540378442827 0.50000000000001799 2.7293670613173902 forward I I I I #
loop $-1 $-1 $76 $15 #
coedge $-1 $48 $48 $77 $78 forward $27 $-1 #
coedge $-1 $49 $49 $76 $79 reversed $29 $-1 #
coedge $-1 $50 $50 $30 $51 forward $80 $-1 #
edge $-1 $81 $81 $50 $82 forward #
face $-1 $83 $84 $8 $-1 $85 reversed single #
loop $-1 $86 $87 $31 #
cone-surface $-1 1.6725663914616691 43.447906088222325 0 5.4894360662021621e-016 -1 0 2.7293670613173902 1.4982685984299892e-015 0 1 I I 0.86602540378442827 0.50000000000001799 2.7293670613173902 forward I I I I #
loop $-1 $-1 $88 $18 #
coedge $-1 $56 $56 $89 $90 forward $32 $-1 #
coedge $-1 $57 $57 $88 $91 reversed $34 $-1 #
coedge $-1 $58 $58 $35 $59 forward $92 $-1 #
edge $-1 $93 $93 $58 $94 forward #
face $-1 $95 $96 $6 $-1 $97 forward single #
loop $-1 $98 $99 $36 #
cone-surface $-1 1.6725663914616491 80.216656088222322 0 -5.4718134785096994e-016 1 0 -2.6249999999999862 0 0 1 I I -0.70710678118655079 0.70710678118654435 2.6249999999999862 forward I I I I #
loop $-1 $-1 $65 $21 #
coedge $-1 $64 $64 $100 $101 reversed $37 $-1 #
coedge $-1 $65 $65 $40 $66 forward $63 $-1 #
edge $-1 $102 $102 $65 $103 forward #
coedge $-1 $67 $67 $41 $68 reversed $104 $-1 #
edge $-1 $105 $105 $41 $106 forward #
vertex $-1 $43 $107 #
ellipse-curve $-1 1.6725663914616804 22.591656088222326 0 -5.4718134785096994e-016 1 0 -7.5 0 0 1 I I #
face $-1 $108 $109 $7 $-1 $110 forward single #
loop $-1 $111 $77 $44 #
cone-surface $-1 1.6725663914616731 35.635406088222361 0 5.4894360662021621e-016 -1 0 2.7293670613174186 1.4982685984300047e-015 0 1 I I -0.86602540378445325 0.4999999999999748 2.7293670613174186 forward I I I I #
loop $-1 $-1 $112 $26 #
coedge $-1 $75 $75 $113 $114 reversed $45 $-1 #
coedge $-1 $76 $76 $49 $79 forward $47 $-1 #
coedge $-1 $77 $77 $48 $78 reversed $72 $-1 #
edge $-1 $115 $115 $77 $116 forward #
edge $-1 $117 $117 $49 $118 forward #
loop $-1 $119 $50 $120 #
vertex $-1 $51 $121 #
ellipse-curve $-1 1.6725663914616735 35.210927356341976 0 -5.4894360662021621e-016 1 0 2.4587341226347803 1.3497063769993294e-015 0 1 I I #
face $-1 $122 $123 $8 $-1 $124 forward single #
loop $-1 $125 $89 $52 #
cone-surface $-1 1.6725663914616673 46.335406088222371 0 5.4894360662021621e-016 -1 0 2.7293670613174186 1.4982685984300047e-015 0 1 I I -0.86602540378445325 0.4999999999999748 2.7293670613174186 forward I I I I #
loop $-1 $-1 $126 $31 #
coedge $-1 $87 $87 $127 $128 reversed $53 $-1 #
coedge $-1 $88 $88 $57 $91 forward $55 $-1 #
coedge $-1 $89 $89 $56 $90 reversed $84 $-1 #
edge $-1 $129 $129 $89 $130 forward #
edge $-1 $131 $131 $57 $132 forward #
loop $-1 $133 $58 $134 #
vertex $-1 $59 $135 #
ellipse-curve $-1 1.6725663914616675 45.910927356341986 0 -5.4894360662021621e-016 1 0 2.4587341226347803 1.3497063769993294e-015 0 1 I I #
face $-1 $-1 $104 $6 $-1 $136 forward single #
loop $-1 $-1 $137 $60 #
plane-surface $-1 0.54756639146165753 80.591656088222322 0 -5.4718134785096994e-016 1 0 0 0 10 forward_v I I I I #
loop $-1 $-1 $100 $36 #
coedge $-1 $99 $99 $137 $138 reversed $61 $-1 #
coedge $-1 $100 $100 $64 $101 forward $98 $-1 #
edge $-1 $139 $139 $100 $140 forward #
vertex $-1 $66 $141 #
ellipse-curve $-1 1.6725663914616804 22.591656088222322 0 -5.4718134785096994e-016 1 0 -2.9999999999999973 0 0 1 I I #
loop $-1 $-1 $67 $95 #
vertex $-1 $68 $142 #
ellipse-curve $-1 1.6725663914616871 10.591656088222321 0 -5.4718134785096994e-016 1 0 -6.0000000000000009 0 0 1 I I #
point $-1 -5.8274336085383194 22.591656088222322 0 #
face $-1 $143 $144 $7 $-1 $145 forward single #
loop $-1 $-1 $146 $71 #
plane-surface $-1 -3.328730315393428 35.791656088222325 -2.887500000000049 -1 -5.4894360662021621e-016 0 0 0 -1 forward_v I I I I #
loop $-1 $-1 $147 $44 #
coedge $-1 $112 $112 $148 $149 reversed $74 $-1 #
coedge $-1 $113 $113 $75 $114 forward $150 $-1 #
edge $-1 $151 $151 $113 $152 forward #
vertex $-1 $78 $153 #
ellipse-curve $-1 1.6725663914616735 35.479156088222361 0 -5.4894360662021621e-016 1 0 2.4587341226347803 1.3497063769993294e-015 0 1 I I #
vertex $-1 $79 $154 #
ellipse-curve $-1 1.6725663914616735 35.479156088222418 0 5.4894360662021621e-016 -1 0 -2.923319914301437 -1.6047377770613323e-015 0 1 I I #
loop $-1 $-1 $148 $120 #
face $-1 $155 $80 $7 $-1 $156 forward single #
point $-1 -0.7861677311731069 35.210927356341976 0 #
face $-1 $157 $158 $8 $-1 $159 forward single #
loop $-1 $-1 $160 $83 #
plane-surface $-1 -3.3287303153934333 46.491656088222342 -2.887500000000049 -1 -5.4894360662021621e-016 0 0 0 -1 forward_v I I I I #
loop $-1 $-1 $161 $52 #
coedge $-1 $126 $126 $162 $163 reversed $86 $-1 #
coedge $-1 $127 $127 $87 $128 forward $164 $-1 #
edge $-1 $165 $165 $127 $166 forward #
vertex $-1 $90 $167 #
ellipse-curve $-1 1.6725663914616675 46.179156088222371 0 -5.4894360662021621e-016 1 0 2.4587341226347803 1.3497063769993294e-015 0 1 I I #
vertex $-1 $91 $168 #
ellipse-curve $-1 1.6725663914616675 46.179156088222435 0 5.4894360662021621e-016 -1 0 -2.923319914301437 -1.6047377770613323e-015 0 1 I I #
loop $-1 $-1 $162 $134 #
face $-1 $169 $92 $8 $-1 $170 forward single #
point $-1 -0.78616773117311278 45.910927356341986 0 #
plane-surface $-1 -1.3274336085383132 10.591656088222319 0 5.4718134785096994e-016 -1 0 0 0 -10 forward_v I I I I #
coedge $-1 $137 $137 $99 $138 forward $96 $-1 #
edge $-1 $171 $171 $137 $172 forward #
vertex $-1 $101 $173 #
ellipse-curve $-1 1.6725663914616491 79.841656088222322 0 -5.4718134785096994e-016 1 0 -2.9999999999999902 0 0 1 I I #
point $-1 -1.3274336085383165 22.591656088222322 0 #
point $-1 -4.327433608538314 10.591656088222319 0 #
face $-1 $174 $175 $7 $-1 $176 forward single #
loop $-1 $-1 $177 $108 #
plane-surface $-1 1.6725663914616731 35.791656088222332 -5.7749999999999986 -0.49999999999999595 -2.7447180331010589e-016 -0.86602540378444104 -5.4894360662021621e-016 1 0 forward_v I I I I #
coedge $-1 $178 $179 $180 $181 reversed $109 $-1 #
coedge $-1 $147 $147 $182 $183 reversed $111 $-1 #
coedge $-1 $148 $148 $112 $149 forward $119 $-1 #
edge $-1 $184 $184 $148 $185 forward #
loop $-1 $186 $113 $187 #
vertex $-1 $114 $188 #
ellipse-curve $-1 1.6725663914616749 32.591656088222315 0 -5.4894360662021621e-016 1 0 3.0000000000000142 1.6468308198606566e-015 0 1 I I #
point $-1 4.1313005140965107 35.479156088222425 0 #
point $-1 -1.2507535228397573 35.479156088222418 0 #
face $-1 $189 $190 $7 $-1 $191 forward single #
cone-surface $-1 1.672566391461674 34.191656088222338 0 5.4894360662021621e-016 -1 0 2.4587341226347803 1.3497063769993294e-015 0 1 I I 0 -1 2.4587341226347803 forward I I I I #
face $-1 $192 $193 $8 $-1 $194 forward single #
loop $-1 $-1 $195 $122 #
plane-surface $-1 1.6725663914616673 46.491656088222342 -5.7749999999999986 -0.49999999999999595 -2.7447180331010589e-016 -0.86602540378444104 -5.4894360662021621e-016 1 0 forward_v I I I I #
coedge $-1 $196 $197 $198 $199 reversed $123 $-1 #
coedge $-1 $161 $161 $200 $201 reversed $125 $-1 #
coedge $-1 $162 $162 $126 $163 forward $133 $-1 #
edge $-1 $202 $202 $162 $203 forward #
loop $-1 $204 $127 $205 #
vertex $-1 $128 $206 #
ellipse-curve $-1 1.6725663914616691 43.291656088222325 0 -5.4894360662021621e-016 1 0 3.0000000000000142 1.6468308198606566e-015 0 1 I I #
point $-1 4.1313005140965045 46.179156088222435 0 #
point $-1 -1.250753522839763 46.179156088222427 0 #
face $-1 $207 $208 $8 $-1 $209 forward single #
cone-surface $-1 1.6725663914616682 44.891656088222348 0 5.4894360662021621e-016 -1 0 2.4587341226347803 1.3497063769993294e-015 0 1 I I 0 -1 2.4587341226347803 forward I I I I #
vertex $-1 $138 $210 #
ellipse-curve $-1 1.6725663914616486 80.591656088222322 0 -5.4718134785096994e-016 1 0 -2.2499999999999822 0 0 1 I I #
point $-1 -1.3274336085383416 79.841656088222322 0 #
face $-1 $211 $212 $7 $-1 $213 forward single #
loop $-1 $-1 $214 $143 #
plane-surface $-1 6.6738630983167733 35.791656088222339 -2.887500000000049 0.49999999999999595 2.7447180331010589e-016 -0.86602540378444104 -5.4894360662021621e-016 1 0 forward_v I I I I #
coedge $-1 $215 $216 $217 $218 reversed $144 $-1 #
coedge $-1 $219 $146 $220 $221 reversed $109 $-1 #
coedge $-1 $146 $219 $215 $222 forward $109 $-1 #
coedge $-1 $217 $223 $146 $181 forward $224 $-1 #
edge $-1 $225 $226 $180 $227 forward #
coedge $-1 $182 $182 $147 $183 forward $190 $-1 #
edge $-1 $228 $228 $182 $229 forward #
vertex $-1 $149 $230 #
ellipse-curve $-1 1.6725663914616749 32.904156088222315 0 5.4894360662021621e-016 -1 0 2.4587341226347803 1.3497063769993294e-015 0 1 I I #
loop $-1 $-1 $231 $187 #
face $-1 $-1 $150 $7 $-1 $232 forward single #
point $-1 4.6725663914616753 32.591656088222315 0 #
face $-1 $233 $234 $7 $-1 $235 forward single #
loop $-1 $236 $182 $155 #
plane-surface $-1 5.126933452779058 35.791656088222332 0 -5.4894360662021621e-016 1 0 0 0 1 forward_v I I I I #
face $-1 $237 $238 $8 $-1 $239 forward single #
loop $-1 $-1 $240 $157 #
plane-surface $-1 6.6738630983167679 46.491656088222342 -2.887500000000049 0.49999999999999595 2.7447180331010589e-016 -0.86602540378444104 -5.4894360662021621e-016 1 0 forward_v I I I I #
coedge $-1 $241 $242 $243 $244 reversed $158 $-1 #
coedge $-1 $245 $160 $246 $247 reversed $123 $-1 #
coedge $-1 $160 $245 $241 $248 forward $123 $-1 #
coedge $-1 $243 $249 $160 $199 forward $250 $-1 #
edge $-1 $251 $252 $198 $253 forward #
coedge $-1 $200 $200 $161 $201 forward $208 $-1 #
edge $-1 $254 $254 $200 $255 forward #
vertex $-1 $163 $256 #
ellipse-curve $-1 1.6725663914616691 43.604156088222325 0 5.4894360662021621e-016 -1 0 2.4587341226347803 1.3497063769993294e-015 0 1 I I #
loop $-1 $-1 $257 $205 #
face $-1 $-1 $164 $8 $-1 $258 forward single #
point $-1 4.6725663914616691 43.291656088222332 0 #
face $-1 $259 $260 $8 $-1 $261 forward single #
loop $-1 $262 $200 $169 #
plane-surface $-1 5.1269334527790527 46.491656088222342 0 -5.4894360662021621e-016 1 0 0 0 1 forward_v I I I I #
point $-1 -0.57743360853833359 80.591656088222322 0 #
face $-1 $263 $264 $7 $-1 $265 forward single #
loop $-1 $-1 $266 $174 #
plane-surface $-1 -3.328730315393428 35.791656088222325 2.8875000000000526 -0.4999999999999945 -2.744718033101051e-016 0.86602540378444182 5.4894360662021621e-016 -1 0 forward_v I I I I #
coedge $-1 $267 $268 $269 $270 reversed $175 $-1 #
coedge $-1 $271 $177 $179 $222 reversed $144 $-1 #
coedge $-1 $177 $271 $267 $272 forward $144 $-1 #
coedge $-1 $269 $180 $177 $218 forward $224 $-1 #
edge $-1 $226 $273 $217 $274 forward #
coedge $-1 $179 $178 $275 $276 reversed $109 $-1 #
coedge $-1 $266 $277 $178 $221 forward $212 $-1 #
edge $-1 $278 $225 $220 $279 forward #
edge $-1 $280 $226 $179 $281 forward #
coedge $-1 $180 $282 $266 $283 forward $224 $-1 #
loop $-1 $284 $285 $233 #
vertex $-1 $221 $286 #
vertex $-1 $222 $287 #
intcurve-curve $-1 forward { exactcur nurbs 2 open 2 
	0 2 5.8436958095397529 2 
	-3.3287303153934267 33.356645194898583 2.8875000000000632 1 
	-3.3287303153934253 32.523095743756031 0 1.1547005383792839 
	-3.3287303153934267 33.356645194898583 -2.8875000000000632 1 
	0 
	null_surface 
	null_surface 
	nullbs 
	nullbs 
	I I 
	0 
	0 
	0 
	F 1 F 0 } I I #
vertex $-1 $183 $288 #
ellipse-curve $-1 1.6725663914616731 35.791656088222332 0 5.4894360662021621e-016 -1 0 3.0000000000000249 1.6468308198606621e-015 0 1 I I #
point $-1 4.1313005140964263 32.904156088222315 0 #
coedge $-1 $231 $231 $289 $290 forward $186 $-1 #
plane-surface $-1 5.1269334527790882 32.591656088222315 0 5.4894360662021621e-016 -1 0 0 0 -1 forward_v I I I I #
face $-1 $187 $224 $7 $-1 $291 forward single #
loop $-1 $292 $293 $189 #
cone-surface $-1 1.6725663914616735 35.409161534884213 0 5.4894360662021621e-016 -1 0 5.1124999999999829 2.8064741888458461e-015 0 1 I I 0.8660254037844457 0.4999999999999879 5.1124999999999829 forward I I I I #
loop $-1 $-1 $294 $155 #
face $-1 $295 $296 $8 $-1 $297 forward single #
loop $-1 $-1 $298 $192 #
plane-surface $-1 -3.3287303153934333 46.491656088222342 2.8875000000000526 -0.4999999999999945 -2.744718033101051e-016 0.86602540378444182 5.4894360662021621e-016 -1 0 forward_v I I I I #
coedge $-1 $299 $300 $301 $302 reversed $193 $-1 #
coedge $-1 $303 $195 $197 $248 reversed $158 $-1 #
coedge $-1 $195 $303 $299 $304 forward $158 $-1 #
coedge $-1 $301 $198 $195 $244 forward $250 $-1 #
edge $-1 $252 $305 $243 $306 forward #
coedge $-1 $197 $196 $307 $308 reversed $123 $-1 #
coedge $-1 $298 $309 $196 $247 forward $238 $-1 #
edge $-1 $310 $251 $246 $311 forward #
edge $-1 $312 $252 $197 $313 forward #
coedge $-1 $198 $314 $298 $315 forward $250 $-1 #
loop $-1 $316 $317 $259 #
vertex $-1 $247 $318 #
vertex $-1 $248 $319 #
intcurve-curve $-1 forward { exactcur nurbs 2 open 2 
	0 2 5.8436958095397529 2 
	-3.3287303153934324 44.056645194898593 2.8875000000000632 1 
	-3.3287303153934311 43.223095743756048 0 1.1547005383792839 
	-3.3287303153934324 44.056645194898593 -2.8875000000000632 1 
	0 
	null_surface 
	null_surface 
	nullbs 
	nullbs 
	I I 
	0 
	0 
	0 
	F 1 F 0 } I I #
vertex $-1 $201 $320 #
ellipse-curve $-1 1.6725663914616673 46.491656088222342 0 5.4894360662021621e-016 -1 0 3.0000000000000249 1.6468308198606621e-015 0 1 I I #
point $-1 4.131300514096421 43.604156088222332 0 #
coedge $-1 $257 $257 $321 $322 forward $204 $-1 #
plane-surface $-1 5.126933452779082 43.291656088222332 0 5.4894360662021621e-016 -1 0 0 0 -1 forward_v I I I I #
face $-1 $205 $250 $8 $-1 $323 forward single #
loop $-1 $324 $325 $207 #
cone-surface $-1 1.6725663914616675 46.109161534884223 0 5.4894360662021621e-016 -1 0 5.1124999999999829 2.8064741888458461e-015 0 1 I I 0.8660254037844457 0.4999999999999879 5.1124999999999829 forward I I I I #
loop $-1 $-1 $326 $169 #
face $-1 $120 $327 $7 $-1 $328 forward single #
loop $-1 $-1 $329 $211 #
plane-surface $-1 1.6725663914616731 35.791656088222332 5.7749999999999915 0.499999999999995 2.7447180331010535e-016 0.86602540378444159 5.4894360662021621e-016 -1 0 forward_v I I I I #
coedge $-1 $330 $220 $223 $283 reversed $212 $-1 #
coedge $-1 $331 $214 $216 $272 reversed $175 $-1 #
coedge $-1 $214 $331 $332 $333 reversed $175 $-1 #
coedge $-1 $285 $217 $214 $270 forward $224 $-1 #
edge $-1 $273 $334 $269 $335 forward #
coedge $-1 $216 $215 $336 $337 reversed $144 $-1 #
edge $-1 $338 $273 $216 $339 forward #
vertex $-1 $272 $340 #
intcurve-curve $-1 forward { exactcur nurbs 2 open 2 
	0 2 5.8436958095395717 2 
	-3.3287303153934267 33.356645194898583 -2.887500000000041 1 
	-0.82808196196587547 32.523095743756095 -4.3312500000000203 1.1547005383792952 
	1.6725663914616744 33.356645194898583 -5.7750000000000004 1 
	0 
	null_surface 
	null_surface 
	nullbs 
	nullbs 
	I I 
	0 
	0 
	0 
	F 1 F 0 } I I #
coedge $-1 $341 $336 $219 $276 forward $234 $-1 #
edge $-1 $280 $278 $275 $342 forward #
coedge $-1 $220 $330 $341 $343 reversed $212 $-1 #
vertex $-1 $276 $344 #
straight-curve $-1 -3.3287303153934267 34.191656088222338 2.8875000000000672 5.4894360662021621e-016 -1 0 I I #
vertex $-1 $337 $345 #
straight-curve $-1 -3.3287303153934555 34.191656088222338 -2.8875000000000384 5.4894360662021621e-016 -1 0 I I #
coedge $-1 $223 $285 $329 $346 forward $224 $-1 #
edge $-1 $347 $225 $223 $348 forward #
loop $-1 $-1 $289 $233 #
coedge $-1 $282 $269 $349 $350 forward $224 $-1 #
point $-1 -3.3287303153934267 33.356645194898583 2.8875000000000672 #
point $-1 -3.3287303153934555 33.356645194898583 -2.8875000000000384 #
point $-1 4.6725663914616735 35.791656088222332 0 #
coedge $-1 $289 $289 $231 $290 reversed $284 $-1 #
edge $-1 $351 $351 $231 $352 forward #
cone-surface $-1 1.6725663914616749 32.974150641560463 0 5.4894360662021621e-016 -1 0 5.1125000000000123 2.8064741888458618e-015 0 1 I I -0.86602540378444093 0.49999999999999595 5.1125000000000123 forward I I I I #
loop $-1 $-1 $353 $189 #
coedge $-1 $336 $354 $331 $355 forward $234 $-1 #
coedge $-1 $294 $294 $353 $356 reversed $236 $-1 #
face $-1 $134 $357 $8 $-1 $358 forward single #
loop $-1 $-1 $359 $237 #
plane-surface $-1 1.6725663914616673 46.491656088222342 5.7749999999999915 0.499999999999995 2.7447180331010535e-016 0.86602540378444159 5.4894360662021621e-016 -1 0 forward_v I I I I #
coedge $-1 $360 $246 $249 $315 reversed $238 $-1 #
coedge $-1 $361 $240 $242 $304 reversed $193 $-1 #
coedge $-1 $240 $361 $362 $363 reversed $193 $-1 #
coedge $-1 $317 $243 $240 $302 forward $250 $-1 #
edge $-1 $305 $364 $301 $365 forward #
coedge $-1 $242 $241 $366 $367 reversed $158 $-1 #
edge $-1 $368 $305 $242 $369 forward #
vertex $-1 $304 $370 #
intcurve-curve $-1 forward { exactcur nurbs 2 open 2 
	0 2 5.8436958095395717 2 
	-3.3287303153934324 44.056645194898593 -2.887500000000041 1 
	-0.82808196196588135 43.223095743756105 -4.3312500000000203 1.1547005383792952 
	1.6725663914616686 44.0566451948986 -5.7750000000000004 1 
	0 
	null_surface 
	null_surface 
	nullbs 
	nullbs 
	I I 
	0 
	0 
	0 
	F 1 F 0 } I I #
coedge $-1 $371 $366 $245 $308 forward $260 $-1 #
edge $-1 $312 $310 $307 $372 forward #
coedge $-1 $246 $360 $371 $373 reversed $238 $-1 #
vertex $-1 $308 $374 #
straight-curve $-1 -3.3287303153934324 44.891656088222341 2.8875000000000672 5.4894360662021621e-016 -1 0 I I #
vertex $-1 $367 $375 #
straight-curve $-1 -3.3287303153934609 44.891656088222341 -2.8875000000000384 5.4894360662021621e-016 -1 0 I I #
coedge $-1 $249 $317 $359 $376 forward $250 $-1 #
edge $-1 $377 $251 $249 $378 forward #
loop $-1 $-1 $321 $259 #
coedge $-1 $314 $301 $379 $380 forward $250 $-1 #
point $-1 -3.3287303153934324 44.056645194898593 2.8875000000000672 #
point $-1 -3.3287303153934609 44.056645194898593 -2.8875000000000384 #
point $-1 4.6725663914616682 46.491656088222342 0 #
coedge $-1 $321 $321 $257 $322 reversed $316 $-1 #
edge $-1 $381 $381 $257 $382 forward #
cone-surface $-1 1.6725663914616691 43.67415064156048 0 5.4894360662021621e-016 -1 0 5.1125000000000123 2.8064741888458618e-015 0 1 I I -0.86602540378444093 0.49999999999999595 5.1125000000000123 forward I I I I #
loop $-1 $-1 $383 $207 #
coedge $-1 $366 $384 $361 $385 forward $260 $-1 #
coedge $-1 $326 $326 $383 $386 reversed $262 $-1 #
loop $-1 $-1 $349 $263 #
plane-surface $-1 6.6738630983167733 35.791656088222339 2.887500000000049 1 5.4894360662021621e-016 0 0 0 1 forward_v I I I I #
coedge $-1 $387 $388 $282 $346 reversed $264 $-1 #
coedge $-1 $277 $266 $388 $389 reversed $212 $-1 #
coedge $-1 $268 $267 $293 $355 reversed $175 $-1 #
coedge $-1 $390 $349 $268 $333 forward $327 $-1 #
edge $-1 $334 $391 $268 $392 forward #
vertex $-1 $333 $393 #
intcurve-curve $-1 forward { exactcur nurbs 2 open 2 
	0 2 5.8436958095395717 2 
	1.6725663914616744 33.356645194898583 -5.7750000000000004 1 
	4.1732147448892256 32.523095743756095 -4.3312500000000211 1.1547005383792952 
	6.6738630983167742 33.35664519489859 -2.8875000000000419 1 
	0 
	null_surface 
	null_surface 
	nullbs 
	nullbs 
	I I 
	0 
	0 
	0 
	F 1 F 0 } I I #
coedge $-1 $275 $293 $271 $337 forward $234 $-1 #
edge $-1 $338 $280 $336 $394 forward #
vertex $-1 $355 $395 #
straight-curve $-1 1.6725663914616455 34.191656088222338 -5.7750000000000057 5.4894360662021621e-016 -1 0 I I #
point $-1 1.672566391461646 33.356645194898583 -5.7750000000000057 #
coedge $-1 $396 $275 $277 $343 forward $234 $-1 #
intcurve-curve $-1 forward { exactcur nurbs 2 open 2 
	0 2 5.8436958095397591 2 
	-3.328730315393428 35.026666981546086 -2.8875000000000703 1 
	-3.328730315393428 35.860216432688638 0 1.1547005383791251 
	-3.328730315393428 35.026666981546086 2.8875000000000703 1 
	0 
	null_surface 
	null_surface 
	nullbs 
	nullbs 
	I I 
	0 
	0 
	0 
	F 1 F 0 } I I #
edge $-1 $278 $397 $341 $398 forward #
point $-1 -3.328730315393428 35.026666981546086 2.8875000000000561 #
point $-1 -3.328730315393428 35.026666981546086 -2.8875000000000535 #
edge $-1 $399 $347 $282 $400 forward #
vertex $-1 $346 $401 #
intcurve-curve $-1 forward { exactcur nurbs 2 open 2 
	0 2 5.8436958095395646 2 
	1.6725663914616744 33.356645194898583 5.7749999999999968 1 
	-0.82808196196587547 32.523095743756095 4.3312500000000229 1.1547005383792952 
	-3.3287303153934267 33.356645194898583 2.8875000000000517 1 
	0 
	null_surface 
	null_surface 
	nullbs 
	nullbs 
	I I 
	0 
	0 
	0 
	F 1 F 0 } I I #
coedge $-1 $332 $402 $285 $350 reversed $327 $-1 #
edge $-1 $334 $399 $285 $403 forward #
vertex $-1 $290 $404 #
ellipse-curve $-1 1.6725663914616749 32.591656088222344 0 5.4894360662021621e-016 -1 0 4.4500000000000171 2.4427990494599714e-015 0 1 I I #
coedge $-1 $353 $353 $294 $356 forward $292 $-1 #
coedge $-1 $293 $396 $390 $405 forward $234 $-1 #
edge $-1 $391 $338 $293 $406 forward #
edge $-1 $407 $407 $353 $408 forward #
loop $-1 $-1 $379 $295 #
plane-surface $-1 6.6738630983167679 46.491656088222342 2.887500000000049 1 5.4894360662021621e-016 0 0 0 1 forward_v I I I I #
coedge $-1 $409 $410 $314 $376 reversed $296 $-1 #
coedge $-1 $309 $298 $410 $411 reversed $238 $-1 #
coedge $-1 $300 $299 $325 $385 reversed $193 $-1 #
coedge $-1 $412 $379 $300 $363 forward $357 $-1 #
edge $-1 $364 $413 $300 $414 forward #
vertex $-1 $363 $415 #
intcurve-curve $-1 forward { exactcur nurbs 2 open 2 
	0 2 5.8436958095395717 2 
	1.6725663914616686 44.0566451948986 -5.7750000000000004 1 
	4.1732147448892194 43.223095743756105 -4.3312500000000211 1.1547005383792952 
	6.6738630983167688 44.0566451948986 -2.8875000000000419 1 
	0 
	null_surface 
	null_surface 
	nullbs 
	nullbs 
	I I 
	0 
	0 
	0 
	F 1 F 0 } I I #
coedge $-1 $307 $325 $303 $367 forward $260 $-1 #
edge $-1 $368 $312 $366 $416 forward #
vertex $-1 $385 $417 #
straight-curve $-1 1.6725663914616398 44.891656088222348 -5.7750000000000057 5.4894360662021621e-016 -1 0 I I #
point $-1 1.6725663914616402 44.0566451948986 -5.7750000000000057 #
coedge $-1 $418 $307 $309 $373 forward $260 $-1 #
intcurve-curve $-1 forward { exactcur nurbs 2 open 2 
	0 2 5.8436958095397591 2 
	-3.3287303153934333 45.726666981546103 -2.8875000000000703 1 
	-3.3287303153934333 46.560216432688648 0 1.1547005383791251 
	-3.3287303153934333 45.726666981546103 2.8875000000000703 1 
	0 
	null_surface 
	null_surface 
	nullbs 
	nullbs 
	I I 
	0 
	0 
	0 
	F 1 F 0 } I I #
edge $-1 $310 $419 $371 $420 forward #
point $-1 -3.3287303153934333 45.726666981546103 2.8875000000000561 #
point $-1 -3.3287303153934333 45.726666981546103 -2.8875000000000535 #
edge $-1 $421 $377 $314 $422 forward #
vertex $-1 $376 $423 #
intcurve-curve $-1 forward { exactcur nurbs 2 open 2 
	0 2 5.8436958095395646 2 
	1.6725663914616686 44.0566451948986 5.7749999999999968 1 
	-0.82808196196588135 43.223095743756105 4.3312500000000229 1.1547005383792952 
	-3.3287303153934324 44.056645194898593 2.8875000000000517 1 
	0 
	null_surface 
	null_surface 
	nullbs 
	nullbs 
	I I 
	0 
	0 
	0 
	F 1 F 0 } I I #
coedge $-1 $362 $424 $317 $380 reversed $357 $-1 #
edge $-1 $364 $421 $317 $425 forward #
vertex $-1 $322 $426 #
ellipse-curve $-1 1.6725663914616691 43.291656088222361 0 5.4894360662021621e-016 -1 0 4.4500000000000171 2.4427990494599714e-015 0 1 I I #
coedge $-1 $383 $383 $326 $386 forward $324 $-1 #
coedge $-1 $325 $418 $412 $427 forward $260 $-1 #
edge $-1 $413 $368 $325 $428 forward #
edge $-1 $429 $429 $383 $430 forward #
coedge $-1 $431 $329 $402 $432 reversed $264 $-1 #
coedge $-1 $329 $431 $330 $389 forward $264 $-1 #
edge $-1 $397 $347 $388 $433 forward #
coedge $-1 $402 $332 $354 $405 reversed $327 $-1 #
vertex $-1 $355 $434 #
straight-curve $-1 6.6738630983168035 34.191656088222338 -2.8875000000000384 -5.4894360662021621e-016 1 0 I I #
point $-1 6.6738630983168035 33.35664519489859 -2.8875000000000384 #
intcurve-curve $-1 forward { exactcur nurbs 2 open 2 
	0 2 5.843695809539506 2 
	1.6725663914616451 35.026666981546093 -5.7749999999999826 1 
	-0.82808196196587724 35.860216432688553 -4.3312500000000211 1.1547005383793798 
	-3.3287303153934 35.026666981546086 -2.8875000000000601 1 
	0 
	null_surface 
	null_surface 
	nullbs 
	nullbs 
	I I 
	0 
	0 
	0 
	F 1 F 0 } I I #
point $-1 1.6725663914616737 35.026666981546093 -5.7749999999999986 #
coedge $-1 $354 $341 $431 $435 forward $234 $-1 #
vertex $-1 $435 $436 #
intcurve-curve $-1 forward { exactcur nurbs 2 open 2 
	0 2 5.8436958095395006 2 
	-3.3287303153934 35.026666981546086 2.8875000000000677 1 
	-0.82808196196587724 35.860216432688553 4.331250000000022 1.1547005383793798 
	1.6725663914616451 35.026666981546093 5.7749999999999799 1 
	0 
	null_surface 
	null_surface 
	nullbs 
	nullbs 
	I I 
	0 
	0 
	0 
	F 1 F 0 } I I #
vertex $-1 $350 $437 #
intcurve-curve $-1 forward { exactcur nurbs 2 open 2 
	0 2 5.843695809539625 2 
	6.6738630983168035 33.35664519489859 2.8875000000000393 1 
	4.1732147448892256 32.523095743756066 4.3312500000000238 1.1547005383792102 
	1.672566391461646 33.356645194898583 5.7750000000000092 1 
	0 
	null_surface 
	null_surface 
	nullbs 
	nullbs 
	I I 
	0 
	0 
	0 
	F 1 F 0 } I I #
point $-1 1.6725663914617028 33.356645194898583 5.7750000000000057 #
coedge $-1 $349 $390 $387 $432 forward $327 $-1 #
intcurve-curve $-1 forward { exactcur nurbs 2 open 2 
	0 2 5.8436958095397529 2 
	6.6738630983167742 33.35664519489859 -2.8875000000000632 1 
	6.6738630983167759 32.523095743756038 0 1.1547005383792839 
	6.6738630983167742 33.35664519489859 2.8875000000000632 1 
	0 
	null_surface 
	null_surface 
	nullbs 
	nullbs 
	I I 
	0 
	0 
	0 
	F 1 F 0 } I I #
point $-1 6.1225663914616923 32.591656088222351 0 #
edge $-1 $438 $391 $354 $439 forward #
intcurve-curve $-1 forward { exactcur nurbs 2 open 2 
	0 2 5.843695809539506 2 
	6.6738630983167457 35.0266669815461 -2.8875000000000601 1 
	4.1732147448892229 35.86021643268856 -4.331250000000022 1.1547005383793798 
	1.6725663914617019 35.026666981546093 -5.7749999999999835 1 
	0 
	null_surface 
	null_surface 
	nullbs 
	nullbs 
	I I 
	0 
	0 
	0 
	F 1 F 0 } I I #
vertex $-1 $356 $440 #
ellipse-curve $-1 1.6725663914616731 35.791656088222332 0 5.4894360662021621e-016 -1 0 4.4499999999999886 2.4427990494599564e-015 0 1 I I #
coedge $-1 $441 $359 $424 $442 reversed $296 $-1 #
coedge $-1 $359 $441 $360 $411 forward $296 $-1 #
edge $-1 $419 $377 $410 $443 forward #
coedge $-1 $424 $362 $384 $427 reversed $357 $-1 #
vertex $-1 $385 $444 #
straight-curve $-1 6.6738630983167981 44.891656088222348 -2.8875000000000384 -5.4894360662021621e-016 1 0 I I #
point $-1 6.6738630983167981 44.0566451948986 -2.8875000000000384 #
intcurve-curve $-1 forward { exactcur nurbs 2 open 2 
	0 2 5.843695809539506 2 
	1.6725663914616393 45.726666981546103 -5.7749999999999826 1 
	-0.82808196196588302 46.560216432688563 -4.3312500000000211 1.1547005383793798 
	-3.3287303153934058 45.726666981546103 -2.8875000000000601 1 
	0 
	null_surface 
	null_surface 
	nullbs 
	nullbs 
	I I 
	0 
	0 
	0 
	F 1 F 0 } I I #
point $-1 1.6725663914616677 45.726666981546103 -5.7749999999999986 #
coedge $-1 $384 $371 $441 $445 forward $260 $-1 #
vertex $-1 $445 $446 #
intcurve-curve $-1 forward { exactcur nurbs 2 open 2 
	0 2 5.8436958095395006 2 
	-3.3287303153934058 45.726666981546103 2.8875000000000677 1 
	-0.82808196196588302 46.560216432688563 4.331250000000022 1.1547005383793798 
	1.6725663914616393 45.726666981546103 5.7749999999999799 1 
	0 
	null_surface 
	null_surface 
	nullbs 
	nullbs 
	I I 
	0 
	0 
	0 
	F 1 F 0 } I I #
vertex $-1 $380 $447 #
intcurve-curve $-1 forward { exactcur nurbs 2 open 2 
	0 2 5.843695809539625 2 
	6.6738630983167981 44.0566451948986 2.8875000000000393 1 
	4.1732147448892194 43.223095743756083 4.3312500000000238 1.1547005383792102 
	1.6725663914616402 44.0566451948986 5.7750000000000092 1 
	0 
	null_surface 
	null_surface 
	nullbs 
	nullbs 
	I I 
	0 
	0 
	0 
	F 1 F 0 } I I #
point $-1 1.6725663914616971 44.0566451948986 5.7750000000000057 #
coedge $-1 $379 $412 $409 $442 forward $357 $-1 #
intcurve-curve $-1 forward { exactcur nurbs 2 open 2 
	0 2 5.8436958095397529 2 
	6.6738630983167688 44.0566451948986 -2.8875000000000632 1 
	6.6738630983167706 43.223095743756055 0 1.1547005383792839 
	6.6738630983167688 44.0566451948986 2.8875000000000632 1 
	0 
	null_surface 
	null_surface 
	nullbs 
	nullbs 
	I I 
	0 
	0 
	0 
	F 1 F 0 } I I #
point $-1 6.1225663914616852 43.291656088222361 0 #
edge $-1 $448 $413 $384 $449 forward #
intcurve-curve $-1 forward { exactcur nurbs 2 open 2 
	0 2 5.843695809539506 2 
	6.6738630983167404 45.726666981546103 -2.8875000000000601 1 
	4.1732147448892176 46.56021643268857 -4.331250000000022 1.1547005383793798 
	1.6725663914616962 45.726666981546103 -5.7749999999999835 1 
	0 
	null_surface 
	null_surface 
	nullbs 
	nullbs 
	I I 
	0 
	0 
	0 
	F 1 F 0 } I I #
vertex $-1 $386 $450 #
ellipse-curve $-1 1.6725663914616673 46.491656088222342 0 5.4894360662021621e-016 -1 0 4.4499999999999886 2.4427990494599564e-015 0 1 I I #
coedge $-1 $388 $387 $396 $435 reversed $264 $-1 #
edge $-1 $438 $399 $402 $451 forward #
straight-curve $-1 1.6725663914617026 34.191656088222338 5.7750000000000057 5.4894360662021621e-016 -1 0 I I #
point $-1 6.6738630983167733 35.0266669815461 -2.8875000000000535 #
edge $-1 $397 $438 $396 $452 forward #
point $-1 1.6725663914616737 35.026666981546093 5.7749999999999915 #
point $-1 6.6738630983168035 33.35664519489859 2.8875000000000406 #
vertex $-1 $405 $453 #
intcurve-curve $-1 forward { exactcur nurbs 2 open 2 
	0 2 5.8436958095397591 2 
	6.6738630983167733 35.0266669815461 2.8875000000000703 1 
	6.6738630983167733 35.860216432688638 0 1.1547005383791251 
	6.6738630983167733 35.0266669815461 -2.8875000000000703 1 
	0 
	null_surface 
	null_surface 
	nullbs 
	nullbs 
	I I 
	0 
	0 
	0 
	F 1 F 0 } I I #
point $-1 6.1225663914616621 35.791656088222339 0 #
coedge $-1 $410 $409 $418 $445 reversed $296 $-1 #
edge $-1 $448 $421 $424 $454 forward #
straight-curve $-1 1.6725663914616966 44.891656088222348 5.7750000000000057 5.4894360662021621e-016 -1 0 I I #
point $-1 6.6738630983167679 45.726666981546103 -2.8875000000000535 #
edge $-1 $419 $448 $418 $455 forward #
point $-1 1.6725663914616677 45.726666981546103 5.7749999999999915 #
point $-1 6.6738630983167981 44.0566451948986 2.8875000000000406 #
vertex $-1 $427 $456 #
intcurve-curve $-1 forward { exactcur nurbs 2 open 2 
	0 2 5.8436958095397591 2 
	6.6738630983167679 45.726666981546103 2.8875000000000703 1 
	6.6738630983167679 46.560216432688655 0 1.1547005383791251 
	6.6738630983167679 45.726666981546103 -2.8875000000000703 1 
	0 
	null_surface 
	null_surface 
	nullbs 
	nullbs 
	I I 
	0 
	0 
	0 
	F 1 F 0 } I I #
point $-1 6.1225663914616568 46.491656088222342 0 #
straight-curve $-1 6.6738630983168035 34.191656088222338 2.8875000000000406 5.4894360662021621e-016 -1 0 I I #
intcurve-curve $-1 forward { exactcur nurbs 2 open 2 
	0 2 5.8436958095395024 2 
	1.6725663914617019 35.026666981546093 5.774999999999979 1 
	4.1732147448892229 35.86021643268856 4.3312500000000167 1.1547005383793798 
	6.6738630983167457 35.0266669815461 2.8875000000000628 1 
	0 
	null_surface 
	null_surface 
	nullbs 
	nullbs 
	I I 
	0 
	0 
	0 
	F 1 F 0 } I I #
point $-1 6.6738630983167733 35.0266669815461 2.8875000000000535 #
straight-curve $-1 6.6738630983167981 44.891656088222348 2.8875000000000406 5.4894360662021621e-016 -1 0 I I #
intcurve-curve $-1 forward { exactcur nurbs 2 open 2 
	0 2 5.8436958095395024 2 
	1.6725663914616962 45.726666981546103 5.774999999999979 1 
	4.1732147448892176 46.56021643268857 4.3312500000000167 1.1547005383793798 
	6.6738630983167404 45.726666981546103 2.8875000000000628 1 
	0 
	null_surface 
	null_surface 
	nullbs 
	nullbs 
	I I 
	0 
	0 
	0 
	F 1 F 0 } I I #
point $-1 6.6738630983167679 45.726666981546103 2.8875000000000535 #
End-of-ACIS-data 