400 0 3 0           
28 Autodesk Inventor 6.0.0.9000 16 ASM 6.0.0.192 NT 24 Tue Jan 13 12:21:58 2004 
1 9.9999999999999995e-007 1e-010 
body $-1 $3 $-1 $-1 #
body $-1 $4 $-1 $-1 #
body $-1 $5 $-1 $-1 #
lump $-1 $-1 $6 $0 #
lump $-1 $-1 $7 $1 #
lump $-1 $-1 $8 $2 #
shell $-1 $-1 $-1 $9 $-1 $3 #
shell $-1 $-1 $-1 $10 $-1 $4 #
shell $-1 $-1 $-1 $11 $-1 $5 #
face $-1 $12 $13 $6 $-1 $14 forward single #
face $-1 $15 $16 $7 $-1 $17 reversed single #
face $-1 $18 $19 $8 $-1 $20 reversed single #
face $-1 $21 $22 $6 $-1 $23 forward single #
loop $-1 $24 $25 $9 #
cone-surface $-1 2.6725663914616966 -6.4083439117776759 0 -5.4926823323560369e-016 1 0 -9 0 0 1 I I 0.12403473458920844 0.99227787671366774 9 forward I I I I #
face $-1 $26 $27 $7 $-1 $28 reversed single #
loop $-1 $29 $30 $10 #
cone-surface $-1 2.6725663914616855 14.949537376958917 -6.1629758220391536e-032 4.8803791554448483e-016 -1 3.3041404949099762e-063 -3.7589161269760711 -1.8344935913159499e-015 2.1390634560875166e-016 1 I I -0.86602540378443871 0.5 3.7589161269760711 forward I I I I #
face $-1 $31 $32 $8 $-1 $33 reversed single #
loop $-1 $34 $35 $11 #
cone-surface $-1 2.6725663914616775 33.949537376958887 -4.9303806576313238e-031 4.2680759785336597e-016 -1 1.2754170495396995e-047 -3.7589161269760711 -1.604333962686935e-015 2.6668913210488433e-016 1 I I -0.86602540378443871 0.5 3.7589161269760711 forward I I I I #
face $-1 $36 $37 $6 $-1 $38 forward single #
loop $-1 $39 $40 $12 #
plane-surface $-1 -4.3274336085383078 1.5916560882223207 0 -5.4926823323560369e-016 1 0 0 0 10 forward_v I I I I #
loop $-1 $-1 $41 $9 #
coedge $-1 $25 $25 $42 $43 reversed $13 $-1 #
face $-1 $44 $45 $7 $-1 $46 reversed single #
loop $-1 $47 $48 $15 #
plane-surface $-1 -1.0863497355143763 15.201031088222381 2.1390634560875104e-016 -4.8803791554448483e-016 1 -3.3041404949099762e-063 -5.690638960354578e-017 -2.7772475763276829e-032 -1 forward_v I I I I #
loop $-1 $-1 $49 $10 #
coedge $-1 $30 $30 $50 $51 reversed $16 $-1 #
face $-1 $52 $53 $8 $-1 $54 reversed single #
loop $-1 $55 $56 $18 #
plane-surface $-1 -1.0863497355143836 34.201031088222351 2.6668913210488315e-016 -4.2680759785336597e-016 1 -1.2754170495396995e-047 -7.0948412546631431e-017 -3.0281321530537385e-032 -1 forward_v I I I I #
loop $-1 $-1 $57 $11 #
coedge $-1 $35 $35 $58 $59 reversed $19 $-1 #
face $-1 $60 $61 $6 $-1 $62 forward single #
loop $-1 $63 $64 $21 #
cone-surface $-1 2.6725663914616704 40.716656088222322 0 -5.4926823323560369e-016 1 0 -3.9999999999999947 0 0 1 I I 0 1 3.9999999999999947 forward I I I I #
loop $-1 $-1 $42 $12 #
coedge $-1 $40 $40 $65 $66 reversed $22 $-1 #
coedge $-1 $41 $41 $67 $68 forward $24 $-1 #
coedge $-1 $42 $42 $25 $43 forward $39 $-1 #
edge $-1 $69 $69 $42 $70 forward #
face $-1 $71 $72 $7 $-1 $73 reversed single #
loop $-1 $74 $75 $26 #
cone-surface $-1 2.6725663914616864 11.786968588222324 -6.1629758220391536e-032 4.8803791554448483e-016 -1 3.3041404949099762e-063 3.6617088266467306 1.7870527430875117e-015 -2.0837462910390132e-016 1 I I 0.86602540378443049 0.5000000000000141 3.6617088266467306 forward I I I I #
loop $-1 $-1 $76 $15 #
coedge $-1 $48 $48 $77 $78 forward $27 $-1 #
coedge $-1 $49 $49 $76 $79 reversed $29 $-1 #
coedge $-1 $50 $50 $30 $51 forward $80 $-1 #
edge $-1 $81 $81 $50 $82 forward #
face $-1 $83 $84 $8 $-1 $85 reversed single #
loop $-1 $86 $87 $31 #
cone-surface $-1 2.6725663914616793 30.786968588222294 -4.9303806576313229e-031 4.2680759785336597e-016 -1 1.2754170495396995e-047 3.6617088266467306 1.5628451483395585e-015 -2.5979242845857396e-016 1 I I 0.86602540378443049 0.5000000000000141 3.6617088266467306 forward I I I I #
loop $-1 $-1 $88 $18 #
coedge $-1 $56 $56 $89 $90 forward $32 $-1 #
coedge $-1 $57 $57 $88 $91 reversed $34 $-1 #
coedge $-1 $58 $58 $35 $59 forward $92 $-1 #
edge $-1 $93 $93 $58 $94 forward #
face $-1 $95 $96 $6 $-1 $97 forward single #
loop $-1 $98 $99 $36 #
cone-surface $-1 2.6725663914616486 80.216656088222322 0 -5.4926823323560369e-016 1 0 -3.6249999999999858 0 0 1 I I -0.70710678118655079 0.70710678118654435 3.6249999999999858 forward I I I I #
loop $-1 $-1 $65 $21 #
coedge $-1 $64 $64 $100 $101 reversed $37 $-1 #
coedge $-1 $65 $65 $40 $66 forward $63 $-1 #
edge $-1 $102 $102 $65 $103 forward #
coedge $-1 $67 $67 $41 $68 reversed $104 $-1 #
edge $-1 $105 $105 $41 $106 forward #
vertex $-1 $43 $107 #
ellipse-curve $-1 2.6725663914616922 1.5916560882223241 0 -5.4926823323560369e-016 1 0 -10 0 0 1 I I #
face $-1 $108 $109 $7 $-1 $110 forward single #
loop $-1 $111 $77 $44 #
cone-surface $-1 2.6725663914616851 15.396343588222326 -6.1629758220391536e-032 4.8803791554448483e-016 -1 3.3041404949099762e-063 3.661708826646759 1.7870527430875255e-015 -2.0837462910390292e-016 1 I I -0.86602540378445059 0.49999999999997952 3.661708826646759 forward I I I I #
loop $-1 $-1 $112 $26 #
coedge $-1 $75 $75 $113 $114 reversed $45 $-1 #
coedge $-1 $76 $76 $49 $79 forward $47 $-1 #
coedge $-1 $77 $77 $48 $78 reversed $72 $-1 #
edge $-1 $115 $115 $77 $116 forward #
edge $-1 $117 $117 $49 $118 forward #
loop $-1 $119 $50 $120 #
vertex $-1 $51 $121 #
ellipse-curve $-1 2.6725663914616855 14.698102215946594 -6.1629758220391536e-032 -4.8803791554448483e-016 1 -3.3041404949099762e-063 3.3234176532934612 1.621953823997084e-015 -1.8912369979361955e-016 1 I I #
face $-1 $122 $123 $8 $-1 $124 forward single #
loop $-1 $125 $89 $52 #
cone-surface $-1 2.6725663914616775 34.396343588222294 -4.9303806576313238e-031 4.2680759785336597e-016 -1 1.2754170495396995e-047 3.661708826646759 1.5628451483395705e-015 -2.5979242845857598e-016 1 I I -0.86602540378445059 0.49999999999997952 3.661708826646759 forward I I I I #
loop $-1 $-1 $126 $31 #
coedge $-1 $87 $87 $127 $128 reversed $53 $-1 #
coedge $-1 $88 $88 $57 $91 forward $55 $-1 #
coedge $-1 $89 $89 $56 $90 reversed $84 $-1 #
edge $-1 $129 $129 $89 $130 forward #
edge $-1 $131 $131 $57 $132 forward #
loop $-1 $133 $58 $134 #
vertex $-1 $59 $135 #
ellipse-curve $-1 2.672566391461678 33.698102215946562 -4.9303806576313238e-031 -4.2680759785336597e-016 1 -1.2754170495396995e-047 3.3234176532934612 1.4184599052656529e-015 -2.357912067306222e-016 1 I I #
face $-1 $-1 $104 $6 $-1 $136 forward single #
loop $-1 $-1 $137 $60 #
plane-surface $-1 1.0475663914616575 80.591656088222322 0 -5.4926823323560369e-016 1 0 0 0 10 forward_v I I I I #
loop $-1 $-1 $100 $36 #
coedge $-1 $99 $99 $137 $138 reversed $61 $-1 #
coedge $-1 $100 $100 $64 $101 forward $98 $-1 #
edge $-1 $139 $139 $100 $140 forward #
vertex $-1 $66 $141 #
ellipse-curve $-1 2.6725663914616922 1.5916560882223241 0 -5.4926823323560369e-016 1 0 -3.9999999999999996 0 0 1 I I #
loop $-1 $-1 $67 $95 #
vertex $-1 $68 $142 #
ellipse-curve $-1 2.6725663914617011 -14.408343911777678 0 -5.4926823323560369e-016 1 0 -8 0 0 1 I I #
point $-1 -7.3274336085383069 1.5916560882223196 0 #
face $-1 $143 $144 $7 $-1 $145 forward single #
loop $-1 $-1 $146 $71 #
plane-surface $-1 -3.8291193274499467 15.591656088222294 -3.7537500000000641 -1 -4.8803791554448483e-016 5.690638960354578e-017 -5.690638960354578e-017 -2.7772475763276829e-032 -1 forward_v I I I I #
loop $-1 $-1 $147 $44 #
coedge $-1 $112 $112 $148 $149 reversed $74 $-1 #
coedge $-1 $113 $113 $75 $114 forward $150 $-1 #
edge $-1 $151 $151 $113 $152 forward #
vertex $-1 $78 $153 #
ellipse-curve $-1 2.6725663914616851 15.201031088222326 -6.1629758220391536e-032 -4.8803791554448483e-016 1 -3.3041404949099762e-063 3.3234176532934612 1.621953823997084e-015 -1.8912369979361955e-016 1 I I #
vertex $-1 $79 $154 #
ellipse-curve $-1 2.6725663914616851 15.201031088222381 -6.1629758220391536e-032 4.8803791554448483e-016 -1 3.3041404949099762e-063 -4.1945160126684478 -2.047082851540673e-015 2.3869476241522207e-016 1 I I #
loop $-1 $-1 $148 $120 #
face $-1 $155 $80 $7 $-1 $156 forward single #
point $-1 -0.65085126183177577 14.698102215946591 1.8912369979361947e-016 #
face $-1 $157 $158 $8 $-1 $159 forward single #
loop $-1 $-1 $160 $83 #
plane-surface $-1 -3.8291193274499542 34.591656088222258 -3.7537500000000641 -1 -4.2680759785336597e-016 7.0948412546631431e-017 -7.0948412546631431e-017 -3.0281321530537385e-032 -1 forward_v I I I I #
loop $-1 $-1 $161 $52 #
coedge $-1 $126 $126 $162 $163 reversed $86 $-1 #
coedge $-1 $127 $127 $87 $128 forward $164 $-1 #
edge $-1 $165 $165 $127 $166 forward #
vertex $-1 $90 $167 #
ellipse-curve $-1 2.6725663914616775 34.201031088222294 -4.9303806576313238e-031 -4.2680759785336597e-016 1 -1.2754170495396995e-047 3.3234176532934612 1.4184599052656529e-015 -2.357912067306222e-016 1 I I #
vertex $-1 $91 $168 #
ellipse-curve $-1 2.6725663914616775 34.201031088222351 -4.9303806576313238e-031 4.2680759785336597e-016 -1 1.2754170495396995e-047 -4.1945160126684478 -1.7902513035244988e-015 2.9759425250025253e-016 1 I I #
loop $-1 $-1 $162 $134 #
face $-1 $169 $92 $8 $-1 $170 forward single #
point $-1 -0.65085126183178299 33.698102215946562 2.357912067306217e-016 #
plane-surface $-1 -1.3274336085382989 -14.408343911777681 0 5.4926823323560369e-016 -1 0 0 0 -10 forward_v I I I I #
coedge $-1 $137 $137 $99 $138 forward $96 $-1 #
edge $-1 $171 $171 $137 $172 forward #
vertex $-1 $101 $173 #
ellipse-curve $-1 2.6725663914616495 79.841656088222322 0 -5.4926823323560369e-016 1 0 -3.9999999999999907 0 0 1 I I #
point $-1 -1.3274336085383076 1.5916560882223219 0 #
point $-1 -5.3274336085382989 -14.408343911777681 0 #
face $-1 $174 $175 $7 $-1 $176 forward single #
loop $-1 $-1 $177 $108 #
plane-surface $-1 2.6725663914616842 15.591656088222297 -7.5075000000000003 -0.49999999999999617 -2.4401895777224054e-016 -0.86602540378444093 -4.8803791554448483e-016 1 -3.3041404949099767e-063 forward_v I I I I #
coedge $-1 $178 $179 $180 $181 reversed $109 $-1 #
coedge $-1 $147 $147 $182 $183 reversed $111 $-1 #
coedge $-1 $148 $148 $112 $149 forward $119 $-1 #
edge $-1 $184 $184 $148 $185 forward #
loop $-1 $186 $113 $187 #
vertex $-1 $114 $188 #
ellipse-curve $-1 2.6725663914616868 11.591656088222324 -6.1629758220391536e-032 -4.8803791554448483e-016 1 -3.3041404949099762e-063 4.0000000000000142 1.9521516621779464e-015 -2.2762555841418396e-016 1 I I #
point $-1 5.9959840447552022 15.201031088222383 -1.8912369979362282e-016 #
point $-1 -1.521949621206774 15.201031088222379 2.3869476241522262e-016 #
face $-1 $189 $190 $7 $-1 $191 forward single #
cone-surface $-1 2.672566391461686 13.591656088222326 -6.1629758220391536e-032 4.8803791554448483e-016 -1 3.3041404949099762e-063 3.3234176532934612 1.621953823997084e-015 -1.8912369979361955e-016 1 I I 0 -1 3.3234176532934612 forward I I I I #
face $-1 $192 $193 $8 $-1 $194 forward single #
loop $-1 $-1 $195 $122 #
plane-surface $-1 2.6725663914616771 34.591656088222265 -7.5075000000000003 -0.49999999999999617 -2.1340379892668136e-016 -0.86602540378444093 -4.2680759785336597e-016 1 -1.2754170495396995e-047 forward_v I I I I #
coedge $-1 $196 $197 $198 $199 reversed $123 $-1 #
coedge $-1 $161 $161 $200 $201 reversed $125 $-1 #
coedge $-1 $162 $162 $126 $163 forward $133 $-1 #
edge $-1 $202 $202 $162 $203 forward #
loop $-1 $204 $127 $205 #
vertex $-1 $128 $206 #
ellipse-curve $-1 2.6725663914616793 30.591656088222294 -4.9303806576313229e-031 -4.2680759785336597e-016 1 -1.2754170495396995e-047 4.0000000000000142 1.70723039141347e-015 -2.8379365018652671e-016 1 I I #
point $-1 5.995984044755196 34.201031088222351 -2.3579120673062673e-016 #
point $-1 -1.5219496212067813 34.201031088222351 2.9759425250025287e-016 #
face $-1 $207 $208 $8 $-1 $209 forward single #
cone-surface $-1 2.6725663914616788 32.591656088222294 -4.9303806576313238e-031 4.2680759785336597e-016 -1 1.2754170495396995e-047 3.3234176532934612 1.4184599052656529e-015 -2.357912067306222e-016 1 I I 0 -1 3.3234176532934612 forward I I I I #
vertex $-1 $138 $210 #
ellipse-curve $-1 2.6725663914616486 80.591656088222322 0 -5.4926823323560369e-016 1 0 -3.2499999999999822 0 0 1 I I #
point $-1 -1.3274336085383416 79.841656088222322 0 #
face $-1 $211 $212 $7 $-1 $213 forward single #
loop $-1 $-1 $214 $143 #
plane-surface $-1 9.1742521103733168 15.591656088222299 -3.753750000000065 0.49999999999999606 2.4401895777224054e-016 -0.86602540378444093 -4.8803791554448483e-016 1 -3.3041404949099767e-063 forward_v I I I I #
coedge $-1 $215 $216 $217 $218 reversed $144 $-1 #
coedge $-1 $219 $146 $220 $221 reversed $109 $-1 #
coedge $-1 $146 $219 $215 $222 forward $109 $-1 #
coedge $-1 $217 $223 $146 $181 forward $224 $-1 #
edge $-1 $225 $226 $180 $227 forward #
coedge $-1 $182 $182 $147 $183 forward $190 $-1 #
edge $-1 $228 $228 $182 $229 forward #
vertex $-1 $149 $230 #
ellipse-curve $-1 2.6725663914616864 11.982281088222324 -6.1629758220391536e-032 4.8803791554448483e-016 -1 3.3041404949099762e-063 3.3234176532934612 1.621953823997084e-015 -1.8912369979361955e-016 1 I I #
loop $-1 $-1 $231 $187 #
face $-1 $-1 $150 $7 $-1 $232 forward single #
point $-1 6.6725663914616877 11.591656088222326 -2.2762555841418322e-016 #
face $-1 $233 $234 $7 $-1 $235 forward single #
loop $-1 $236 $182 $155 #
plane-surface $-1 7.2342752181084213 15.591656088222299 -2.5959037974709294e-016 -4.8803791554448483e-016 1 -3.3041404949099762e-063 5.690638960354578e-017 2.7772475763276829e-032 1 forward_v I I I I #
face $-1 $237 $238 $8 $-1 $239 forward single #
loop $-1 $-1 $240 $157 #
plane-surface $-1 9.1742521103733097 34.591656088222265 -3.753750000000065 0.49999999999999606 2.1340379892668131e-016 -0.86602540378444093 -4.2680759785336597e-016 1 -1.2754170495396995e-047 forward_v I I I I #
coedge $-1 $241 $242 $243 $244 reversed $158 $-1 #
coedge $-1 $245 $160 $246 $247 reversed $123 $-1 #
coedge $-1 $160 $245 $241 $248 forward $123 $-1 #
coedge $-1 $243 $249 $160 $199 forward $250 $-1 #
edge $-1 $251 $252 $198 $253 forward #
coedge $-1 $200 $200 $161 $201 forward $208 $-1 #
edge $-1 $254 $254 $200 $255 forward #
vertex $-1 $163 $256 #
ellipse-curve $-1 2.6725663914616793 30.982281088222294 -4.9303806576313229e-031 4.2680759785336597e-016 -1 1.2754170495396995e-047 3.3234176532934612 1.4184599052656529e-015 -2.357912067306222e-016 1 I I #
loop $-1 $-1 $257 $205 #
face $-1 $-1 $164 $8 $-1 $258 forward single #
point $-1 6.6725663914616797 30.591656088222294 -2.8379365018652622e-016 #
face $-1 $259 $260 $8 $-1 $261 forward single #
loop $-1 $262 $200 $169 #
plane-surface $-1 7.2342752181084151 34.591656088222265 -3.2364599975054312e-016 -4.2680759785336597e-016 1 -1.2754170495396995e-047 7.0948412546631431e-017 3.0281321530537385e-032 1 forward_v I I I I #
point $-1 -0.57743360853833359 80.591656088222322 0 #
face $-1 $263 $264 $7 $-1 $265 forward single #
loop $-1 $-1 $266 $174 #
plane-surface $-1 -3.8291193274499467 15.591656088222294 3.7537500000000716 -0.49999999999999534 -2.4401895777224015e-016 0.86602540378444137 4.8803791554448483e-016 -1 3.3041404949099767e-063 forward_v I I I I #
coedge $-1 $267 $268 $269 $270 reversed $175 $-1 #
coedge $-1 $271 $177 $179 $222 reversed $144 $-1 #
coedge $-1 $177 $271 $267 $272 forward $144 $-1 #
coedge $-1 $269 $180 $177 $218 forward $224 $-1 #
edge $-1 $226 $273 $217 $274 forward #
coedge $-1 $179 $178 $275 $276 reversed $109 $-1 #
coedge $-1 $266 $277 $178 $221 forward $212 $-1 #
edge $-1 $278 $225 $220 $279 forward #
edge $-1 $280 $226 $179 $281 forward #
coedge $-1 $180 $282 $266 $283 forward $224 $-1 #
loop $-1 $284 $285 $233 #
vertex $-1 $221 $286 #
vertex $-1 $222 $287 #
intcurve-curve $-1 forward { exactcur nurbs 2 open 2 
	0 2 7.5968045524014158 2 
	-3.8291193274499449 12.577481672863568 3.7537499999999522 1 
	-3.8291193274499449 11.493867386378298 3.6998746060019485e-016 1.1547005383792834 
	-3.8291193274499458 12.577481672863568 -3.7537499999999513 1 
	0 
	null_surface 
	null_surface 
	nullbs 
	nullbs 
	I I 
	0 
	0 
	0 
	F 1 F 0 } I I #
vertex $-1 $183 $288 #
ellipse-curve $-1 2.6725663914616851 15.591656088222297 -6.1629758220391536e-032 4.8803791554448483e-016 -1 3.3041404949099762e-063 4.0000000000000249 1.9521516621779516e-015 -2.2762555841418455e-016 1 I I #
point $-1 5.9959840447551196 11.982281088222326 -1.8912369979361797e-016 #
coedge $-1 $231 $231 $289 $290 forward $186 $-1 #
plane-surface $-1 7.2342752181083947 11.591656088222326 -2.5959037974709132e-016 4.8803791554448483e-016 -1 3.3041404949099762e-063 -5.690638960354578e-017 -2.7772475763276829e-032 -1 forward_v I I I I #
face $-1 $187 $224 $7 $-1 $291 forward single #
loop $-1 $292 $293 $189 #
cone-surface $-1 2.6725663914616851 15.098743295901674 -6.1629758220391536e-032 4.8803791554448483e-016 -1 3.3041404949099762e-063 6.6537500000000023 3.2472822805541174e-015 -3.7864088982459285e-016 1 I I 0.86602540378444481 0.4999999999999894 6.6537500000000023 forward I I I I #
loop $-1 $-1 $294 $155 #
face $-1 $295 $296 $8 $-1 $297 forward single #
loop $-1 $-1 $298 $192 #
plane-surface $-1 -3.8291193274499542 34.591656088222258 3.7537500000000716 -0.49999999999999534 -2.1340379892668099e-016 0.86602540378444137 4.2680759785336597e-016 -1 1.2754170495396995e-047 forward_v I I I I #
coedge $-1 $299 $300 $301 $302 reversed $193 $-1 #
coedge $-1 $303 $195 $197 $248 reversed $158 $-1 #
coedge $-1 $195 $303 $299 $304 forward $158 $-1 #
coedge $-1 $301 $198 $195 $244 forward $250 $-1 #
edge $-1 $252 $305 $243 $306 forward #
coedge $-1 $197 $196 $307 $308 reversed $123 $-1 #
coedge $-1 $298 $309 $196 $247 forward $238 $-1 #
edge $-1 $310 $251 $246 $311 forward #
edge $-1 $312 $252 $197 $313 forward #
coedge $-1 $198 $314 $298 $315 forward $250 $-1 #
loop $-1 $316 $317 $259 #
vertex $-1 $247 $318 #
vertex $-1 $248 $319 #
intcurve-curve $-1 forward { exactcur nurbs 2 open 2 
	0 2 7.5968045524014158 2 
	-3.8291193274499529 31.577481672863538 3.7537499999999522 1 
	-3.829119327449952 30.493867386378266 4.6128428063388385e-016 1.1547005383792834 
	-3.8291193274499529 31.577481672863538 -3.7537499999999513 1 
	0 
	null_surface 
	null_surface 
	nullbs 
	nullbs 
	I I 
	0 
	0 
	0 
	F 1 F 0 } I I #
vertex $-1 $201 $320 #
ellipse-curve $-1 2.6725663914616775 34.591656088222265 -4.9303806576313238e-031 4.2680759785336597e-016 -1 1.2754170495396995e-047 4.0000000000000249 1.7072303914134747e-015 -2.8379365018652755e-016 1 I I #
point $-1 5.9959840447551116 30.982281088222294 -2.3579120673062067e-016 #
coedge $-1 $257 $257 $321 $322 forward $204 $-1 #
plane-surface $-1 7.2342752181083885 30.591656088222297 -3.2364599975054115e-016 4.2680759785336597e-016 -1 1.2754170495396995e-047 -7.0948412546631431e-017 -3.0281321530537385e-032 -1 forward_v I I I I #
face $-1 $205 $250 $8 $-1 $323 forward single #
loop $-1 $324 $325 $207 #
cone-surface $-1 2.6725663914616775 34.098743295901642 -4.9303806576313238e-031 4.2680759785336597e-016 -1 1.2754170495396995e-047 6.6537500000000023 2.839871054216835e-015 -4.7207299998214911e-016 1 I I 0.86602540378444481 0.4999999999999894 6.6537500000000023 forward I I I I #
loop $-1 $-1 $326 $169 #
face $-1 $120 $327 $7 $-1 $328 forward single #
loop $-1 $-1 $329 $211 #
plane-surface $-1 2.6725663914616855 15.591656088222297 7.5075000000000003 0.49999999999999617 2.4401895777224054e-016 0.86602540378444093 4.8803791554448483e-016 -1 3.3041404949099767e-063 forward_v I I I I #
coedge $-1 $330 $220 $223 $283 reversed $212 $-1 #
coedge $-1 $331 $214 $216 $272 reversed $175 $-1 #
coedge $-1 $214 $331 $332 $333 reversed $175 $-1 #
coedge $-1 $285 $217 $214 $270 forward $224 $-1 #
edge $-1 $273 $334 $269 $335 forward #
coedge $-1 $216 $215 $336 $337 reversed $144 $-1 #
edge $-1 $338 $273 $216 $339 forward #
vertex $-1 $272 $340 #
intcurve-curve $-1 forward { exactcur nurbs 2 open 2 
	0 2 7.5968045524011423 2 
	-3.8291193274498312 12.577481672863568 -3.7537500000001254 1 
	-0.57827646799415766 11.493867386378385 -5.6306250000000224 1.1547005383792355 
	2.6725663914615438 12.577481672863573 -7.5074999999999301 1 
	0 
	null_surface 
	null_surface 
	nullbs 
	nullbs 
	I I 
	0 
	0 
	0 
	F 1 F 0 } I I #
coedge $-1 $341 $336 $219 $276 forward $234 $-1 #
edge $-1 $280 $278 $275 $342 forward #
coedge $-1 $220 $330 $341 $343 reversed $212 $-1 #
vertex $-1 $276 $344 #
straight-curve $-1 -3.8291193274499458 13.591656088222322 3.7537500000000041 4.8803791554448483e-016 -1 3.3041404949099767e-063 I I #
vertex $-1 $337 $345 #
straight-curve $-1 -3.829119327449888 13.591656088222322 -3.7537500000000925 4.8803791554448483e-016 -1 3.3041404949099767e-063 I I #
coedge $-1 $223 $285 $329 $346 forward $224 $-1 #
edge $-1 $347 $225 $223 $348 forward #
loop $-1 $-1 $289 $233 #
coedge $-1 $282 $269 $349 $350 forward $224 $-1 #
point $-1 -3.8291193274499449 12.577481672863568 3.7537500000000041 #
point $-1 -3.829119327449888 12.577481672863568 -3.7537500000000925 #
point $-1 6.6725663914616851 15.591656088222299 -2.2762555841418322e-016 #
coedge $-1 $289 $289 $231 $290 reversed $284 $-1 #
edge $-1 $351 $351 $231 $352 forward #
cone-surface $-1 2.6725663914616864 12.08456888054295 -6.1629758220391536e-032 4.8803791554448483e-016 -1 3.3041404949099762e-063 6.6537499999999739 3.2472822805541032e-015 -3.7864088982459127e-016 1 I I -0.8660254037844386 0.50000000000000022 6.6537499999999739 forward I I I I #
loop $-1 $-1 $353 $189 #
coedge $-1 $336 $354 $331 $355 forward $234 $-1 #
coedge $-1 $294 $294 $353 $356 reversed $236 $-1 #
face $-1 $134 $357 $8 $-1 $358 forward single #
loop $-1 $-1 $359 $237 #
plane-surface $-1 2.672566391461678 34.591656088222265 7.5075000000000003 0.49999999999999617 2.1340379892668136e-016 0.86602540378444093 4.2680759785336597e-016 -1 1.2754170495396995e-047 forward_v I I I I #
coedge $-1 $360 $246 $249 $315 reversed $238 $-1 #
coedge $-1 $361 $240 $242 $304 reversed $193 $-1 #
coedge $-1 $240 $361 $362 $363 reversed $193 $-1 #
coedge $-1 $317 $243 $240 $302 forward $250 $-1 #
edge $-1 $305 $364 $301 $365 forward #
coedge $-1 $242 $241 $366 $367 reversed $158 $-1 #
edge $-1 $368 $305 $242 $369 forward #
vertex $-1 $304 $370 #
intcurve-curve $-1 forward { exactcur nurbs 2 open 2 
	0 2 7.5968045524011423 2 
	-3.8291193274498387 31.577481672863538 -3.7537500000001254 1 
	-0.57827646799416543 30.493867386378355 -5.6306250000000224 1.1547005383792355 
	2.6725663914615359 31.577481672863538 -7.5074999999999301 1 
	0 
	null_surface 
	null_surface 
	nullbs 
	nullbs 
	I I 
	0 
	0 
	0 
	F 1 F 0 } I I #
coedge $-1 $371 $366 $245 $308 forward $260 $-1 #
edge $-1 $312 $310 $307 $372 forward #
coedge $-1 $246 $360 $371 $373 reversed $238 $-1 #
vertex $-1 $308 $374 #
straight-curve $-1 -3.8291193274499529 32.591656088222287 3.7537500000000041 4.2680759785336597e-016 -1 1.2754170495396995e-047 I I #
vertex $-1 $367 $375 #
straight-curve $-1 -3.8291193274498951 32.591656088222287 -3.7537500000000925 4.2680759785336597e-016 -1 1.2754170495396995e-047 I I #
coedge $-1 $249 $317 $359 $376 forward $250 $-1 #
edge $-1 $377 $251 $249 $378 forward #
loop $-1 $-1 $321 $259 #
coedge $-1 $314 $301 $379 $380 forward $250 $-1 #
point $-1 -3.8291193274499529 31.577481672863538 3.7537500000000041 #
point $-1 -3.8291193274498951 31.577481672863538 -3.7537500000000925 #
point $-1 6.6725663914616788 34.591656088222265 -2.8379365018652622e-016 #
coedge $-1 $321 $321 $257 $322 reversed $316 $-1 #
edge $-1 $381 $381 $257 $382 forward #
cone-surface $-1 2.6725663914616793 31.084568880542918 -4.9303806576313229e-031 4.2680759785336597e-016 -1 1.2754170495396995e-047 6.6537499999999739 2.8398710542168228e-015 -4.7207299998214704e-016 1 I I -0.8660254037844386 0.50000000000000022 6.6537499999999739 forward I I I I #
loop $-1 $-1 $383 $207 #
coedge $-1 $366 $384 $361 $385 forward $260 $-1 #
coedge $-1 $326 $326 $383 $386 reversed $262 $-1 #
loop $-1 $-1 $349 $263 #
plane-surface $-1 9.1742521103733168 15.591656088222299 3.7537500000000641 1 4.8803791554448483e-016 -5.690638960354578e-017 5.690638960354578e-017 2.7772475763276829e-032 1 forward_v I I I I #
coedge $-1 $387 $388 $282 $346 reversed $264 $-1 #
coedge $-1 $277 $266 $388 $389 reversed $212 $-1 #
coedge $-1 $268 $267 $293 $355 reversed $175 $-1 #
coedge $-1 $390 $349 $268 $333 forward $327 $-1 #
edge $-1 $334 $391 $268 $392 forward #
vertex $-1 $333 $393 #
intcurve-curve $-1 forward { exactcur nurbs 2 open 2 
	0 2 7.5968045524011414 2 
	2.6725663914618281 12.577481672863573 -7.5074999999999301 1 
	5.9234092509175307 11.493867386378387 -5.6306250000000233 1.1547005383792355 
	9.1742521103732031 12.577481672863575 -3.7537500000001272 1 
	0 
	null_surface 
	null_surface 
	nullbs 
	nullbs 
	I I 
	0 
	0 
	0 
	F 1 F 0 } I I #
coedge $-1 $275 $293 $271 $337 forward $234 $-1 #
edge $-1 $338 $280 $336 $394 forward #
vertex $-1 $355 $395 #
straight-curve $-1 2.6725663914617419 13.591656088222326 -7.5074999999999648 4.8803791554448483e-016 -1 3.3041404949099767e-063 I I #
point $-1 2.6725663914617428 12.577481672863573 -7.5074999999999648 #
coedge $-1 $396 $275 $277 $343 forward $234 $-1 #
intcurve-curve $-1 forward { exactcur nurbs 2 open 2 
	0 2 7.5968045524016858 2 
	-3.8291193274499467 14.605830503581046 -3.7537500000000885 1 
	-3.8291193274499467 15.689444790066347 3.6998746060019485e-016 1.1547005383792179 
	-3.8291193274499458 14.605830503581046 3.7537500000000894 1 
	0 
	null_surface 
	null_surface 
	nullbs 
	nullbs 
	I I 
	0 
	0 
	0 
	F 1 F 0 } I I #
edge $-1 $278 $397 $341 $398 forward #
point $-1 -3.8291193274499458 14.605830503581046 3.7537500000000761 #
point $-1 -3.8291193274499467 14.605830503581046 -3.7537500000000685 #
edge $-1 $399 $347 $282 $400 forward #
vertex $-1 $346 $401 #
intcurve-curve $-1 forward { exactcur nurbs 2 open 2 
	0 2 7.5968045524011361 2 
	2.6725663914615443 12.577481672863573 7.507499999999931 1 
	-0.57827646799415711 11.493867386378385 5.6306250000000304 1.1547005383792355 
	-3.8291193274498303 12.577481672863568 3.7537500000001396 1 
	0 
	null_surface 
	null_surface 
	nullbs 
	nullbs 
	I I 
	0 
	0 
	0 
	F 1 F 0 } I I #
coedge $-1 $332 $402 $285 $350 reversed $327 $-1 #
edge $-1 $334 $399 $285 $403 forward #
vertex $-1 $290 $404 #
ellipse-curve $-1 2.6725663914616868 11.591656088222297 -6.1629758220391536e-032 4.8803791554448483e-016 -1 3.3041404949099762e-063 5.7999999999999829 2.8306199101580036e-015 -3.3005705970056459e-016 1 I I #
coedge $-1 $353 $353 $294 $356 forward $292 $-1 #
coedge $-1 $293 $396 $390 $405 forward $234 $-1 #
edge $-1 $391 $338 $293 $406 forward #
edge $-1 $407 $407 $353 $408 forward #
loop $-1 $-1 $379 $295 #
plane-surface $-1 9.1742521103733097 34.591656088222265 3.7537500000000641 1 4.2680759785336597e-016 -7.0948412546631431e-017 7.0948412546631431e-017 3.0281321530537385e-032 1 forward_v I I I I #
coedge $-1 $409 $410 $314 $376 reversed $296 $-1 #
coedge $-1 $309 $298 $410 $411 reversed $238 $-1 #
coedge $-1 $300 $299 $325 $385 reversed $193 $-1 #
coedge $-1 $412 $379 $300 $363 forward $357 $-1 #
edge $-1 $364 $413 $300 $414 forward #
vertex $-1 $363 $415 #
intcurve-curve $-1 forward { exactcur nurbs 2 open 2 
	0 2 7.5968045524011414 2 
	2.6725663914618201 31.577481672863538 -7.5074999999999301 1 
	5.9234092509175227 30.493867386378355 -5.6306250000000233 1.1547005383792355 
	9.174252110373196 31.577481672863541 -3.7537500000001272 1 
	0 
	null_surface 
	null_surface 
	nullbs 
	nullbs 
	I I 
	0 
	0 
	0 
	F 1 F 0 } I I #
coedge $-1 $307 $325 $303 $367 forward $260 $-1 #
edge $-1 $368 $312 $366 $416 forward #
vertex $-1 $385 $417 #
straight-curve $-1 2.6725663914617348 32.591656088222294 -7.5074999999999648 4.2680759785336597e-016 -1 1.2754170495396995e-047 I I #
point $-1 2.6725663914617352 31.577481672863538 -7.5074999999999648 #
coedge $-1 $418 $307 $309 $373 forward $260 $-1 #
intcurve-curve $-1 forward { exactcur nurbs 2 open 2 
	0 2 7.5968045524016858 2 
	-3.8291193274499542 33.605830503581011 -3.7537500000000885 1 
	-3.8291193274499542 34.689444790066311 4.6128428063388385e-016 1.1547005383792179 
	-3.8291193274499529 33.605830503581011 3.7537500000000894 1 
	0 
	null_surface 
	null_surface 
	nullbs 
	nullbs 
	I I 
	0 
	0 
	0 
	F 1 F 0 } I I #
edge $-1 $310 $419 $371 $420 forward #
point $-1 -3.8291193274499529 33.605830503581011 3.7537500000000761 #
point $-1 -3.8291193274499542 33.605830503581011 -3.7537500000000685 #
edge $-1 $421 $377 $314 $422 forward #
vertex $-1 $376 $423 #
intcurve-curve $-1 forward { exactcur nurbs 2 open 2 
	0 2 7.5968045524011361 2 
	2.6725663914615372 31.577481672863538 7.507499999999931 1 
	-0.57827646799416432 30.493867386378355 5.6306250000000304 1.1547005383792355 
	-3.8291193274498387 31.577481672863538 3.7537500000001396 1 
	0 
	null_surface 
	null_surface 
	nullbs 
	nullbs 
	I I 
	0 
	0 
	0 
	F 1 F 0 } I I #
coedge $-1 $362 $424 $317 $380 reversed $357 $-1 #
edge $-1 $364 $421 $317 $425 forward #
vertex $-1 $322 $426 #
ellipse-curve $-1 2.6725663914616793 30.591656088222265 -4.9303806576313229e-031 4.2680759785336597e-016 -1 1.2754170495396995e-047 5.7999999999999829 2.4754840675495154e-015 -4.115007927704611e-016 1 I I #
coedge $-1 $383 $383 $326 $386 forward $324 $-1 #
coedge $-1 $325 $418 $412 $427 forward $260 $-1 #
edge $-1 $413 $368 $325 $428 forward #
edge $-1 $429 $429 $383 $430 forward #
coedge $-1 $431 $329 $402 $432 reversed $264 $-1 #
coedge $-1 $329 $431 $330 $389 forward $264 $-1 #
edge $-1 $397 $347 $388 $433 forward #
coedge $-1 $402 $332 $354 $405 reversed $327 $-1 #
vertex $-1 $355 $434 #
straight-curve $-1 9.1742521103732599 13.591656088222328 -3.7537500000000934 -4.8803791554448483e-016 1 -3.3041404949099767e-063 I I #
point $-1 9.1742521103732599 12.577481672863575 -3.7537500000000934 #
intcurve-curve $-1 forward { exactcur nurbs 2 open 2 
	0 2 7.5968045524014345 2 
	2.6725663914616851 14.60583050358105 -7.5074999999999985 1 
	-0.57827646799413157 15.689444790066263 -5.6306250000000304 1.1547005383792921 
	-3.8291193274499467 14.605830503581046 -3.7537500000000614 1 
	0 
	null_surface 
	null_surface 
	nullbs 
	nullbs 
	I I 
	0 
	0 
	0 
	F 1 F 0 } I I #
point $-1 2.6725663914616851 14.60583050358105 -7.5075000000000003 #
coedge $-1 $354 $341 $431 $435 forward $234 $-1 #
vertex $-1 $435 $436 #
intcurve-curve $-1 forward { exactcur nurbs 2 open 2 
	0 2 7.5968045524014274 2 
	-3.8291193274499458 14.605830503581046 3.7537500000000774 1 
	-0.57827646799413102 15.689444790066263 5.6306250000000402 1.1547005383792921 
	2.672566391461686 14.60583050358105 7.5074999999999994 1 
	0 
	null_surface 
	null_surface 
	nullbs 
	nullbs 
	I I 
	0 
	0 
	0 
	F 1 F 0 } I I #
vertex $-1 $350 $437 #
intcurve-curve $-1 forward { exactcur nurbs 2 open 2 
	0 2 7.5968045524011423 2 
	9.1742521103732049 12.577481672863575 3.7537500000001254 1 
	5.9234092509175307 11.493867386378387 5.6306250000000224 1.1547005383792355 
	2.6725663914618285 12.577481672863573 7.5074999999999301 1 
	0 
	null_surface 
	null_surface 
	nullbs 
	nullbs 
	I I 
	0 
	0 
	0 
	F 1 F 0 } I I #
point $-1 2.67256639146163 12.577481672863573 7.5074999999999648 #
coedge $-1 $349 $390 $387 $432 forward $327 $-1 #
intcurve-curve $-1 forward { exactcur nurbs 2 open 2 
	0 2 7.5968045524014158 2 
	9.1742521103733168 12.577481672863575 -3.7537499999999522 1 
	9.1742521103733186 11.493867386378302 -3.69987460600195e-016 1.1547005383792834 
	9.1742521103733186 12.577481672863575 3.7537499999999513 1 
	0 
	null_surface 
	null_surface 
	nullbs 
	nullbs 
	I I 
	0 
	0 
	0 
	F 1 F 0 } I I #
point $-1 8.4725663914616707 11.591656088222299 -3.3005705970056464e-016 #
edge $-1 $438 $391 $354 $439 forward #
intcurve-curve $-1 forward { exactcur nurbs 2 open 2 
	0 2 7.5968045524014345 2 
	9.1742521103733168 14.605830503581052 -3.7537500000000623 1 
	5.9234092509174996 15.689444790066265 -5.6306250000000304 1.1547005383792921 
	2.6725663914616851 14.60583050358105 -7.5074999999999985 1 
	0 
	null_surface 
	null_surface 
	nullbs 
	nullbs 
	I I 
	0 
	0 
	0 
	F 1 F 0 } I I #
vertex $-1 $356 $440 #
ellipse-curve $-1 2.6725663914616851 15.591656088222297 -6.1629758220391536e-032 4.8803791554448483e-016 -1 3.3041404949099762e-063 5.8000000000000114 2.8306199101580178e-015 -3.3005705970056617e-016 1 I I #
coedge $-1 $441 $359 $424 $442 reversed $296 $-1 #
coedge $-1 $359 $441 $360 $411 forward $296 $-1 #
edge $-1 $419 $377 $410 $443 forward #
coedge $-1 $424 $362 $384 $427 reversed $357 $-1 #
vertex $-1 $385 $444 #
straight-curve $-1 9.1742521103732528 32.591656088222294 -3.7537500000000934 -4.2680759785336597e-016 1 -1.2754170495396995e-047 I I #
point $-1 9.1742521103732528 31.577481672863541 -3.7537500000000934 #
intcurve-curve $-1 forward { exactcur nurbs 2 open 2 
	0 2 7.5968045524014345 2 
	2.6725663914616775 33.605830503581018 -7.5074999999999985 1 
	-0.57827646799413879 34.689444790066226 -5.6306250000000304 1.1547005383792921 
	-3.8291193274499542 33.605830503581011 -3.7537500000000614 1 
	0 
	null_surface 
	null_surface 
	nullbs 
	nullbs 
	I I 
	0 
	0 
	0 
	F 1 F 0 } I I #
point $-1 2.6725663914616775 33.605830503581018 -7.5075000000000003 #
coedge $-1 $384 $371 $441 $445 forward $260 $-1 #
vertex $-1 $445 $446 #
intcurve-curve $-1 forward { exactcur nurbs 2 open 2 
	0 2 7.5968045524014274 2 
	-3.8291193274499529 33.605830503581011 3.7537500000000774 1 
	-0.57827646799413768 34.689444790066226 5.6306250000000402 1.1547005383792921 
	2.6725663914616788 33.605830503581018 7.5074999999999994 1 
	0 
	null_surface 
	null_surface 
	nullbs 
	nullbs 
	I I 
	0 
	0 
	0 
	F 1 F 0 } I I #
vertex $-1 $380 $447 #
intcurve-curve $-1 forward { exactcur nurbs 2 open 2 
	0 2 7.5968045524011423 2 
	9.174252110373196 31.577481672863541 3.7537500000001254 1 
	5.9234092509175245 30.493867386378355 5.6306250000000224 1.1547005383792355 
	2.6725663914618214 31.577481672863538 7.5074999999999301 1 
	0 
	null_surface 
	null_surface 
	nullbs 
	nullbs 
	I I 
	0 
	0 
	0 
	F 1 F 0 } I I #
point $-1 2.6725663914616229 31.577481672863538 7.5074999999999648 #
coedge $-1 $379 $412 $409 $442 forward $357 $-1 #
intcurve-curve $-1 forward { exactcur nurbs 2 open 2 
	0 2 7.5968045524014158 2 
	9.1742521103733115 31.577481672863541 -3.7537499999999522 1 
	9.1742521103733115 30.49386738637827 -4.6128428063388483e-016 1.1547005383792834 
	9.1742521103733115 31.577481672863541 3.7537499999999513 1 
	0 
	null_surface 
	null_surface 
	nullbs 
	nullbs 
	I I 
	0 
	0 
	0 
	F 1 F 0 } I I #
point $-1 8.4725663914616618 30.591656088222265 -4.1150079277046159e-016 #
edge $-1 $448 $413 $384 $449 forward #
intcurve-curve $-1 forward { exactcur nurbs 2 open 2 
	0 2 7.5968045524014345 2 
	9.1742521103733097 33.605830503581018 -3.7537500000000623 1 
	5.9234092509174925 34.689444790066233 -5.6306250000000304 1.1547005383792921 
	2.6725663914616775 33.605830503581018 -7.5074999999999985 1 
	0 
	null_surface 
	null_surface 
	nullbs 
	nullbs 
	I I 
	0 
	0 
	0 
	F 1 F 0 } I I #
vertex $-1 $386 $450 #
ellipse-curve $-1 2.6725663914616775 34.591656088222265 -4.9303806576313238e-031 4.2680759785336597e-016 -1 1.2754170495396995e-047 5.8000000000000114 2.4754840675495276e-015 -4.1150079277046317e-016 1 I I #
coedge $-1 $388 $387 $396 $435 reversed $264 $-1 #
edge $-1 $438 $399 $402 $451 forward #
straight-curve $-1 2.6725663914616291 13.591656088222326 7.5074999999999648 4.8803791554448483e-016 -1 3.3041404949099767e-063 I I #
point $-1 9.1742521103733168 14.605830503581052 -3.7537500000000694 #
edge $-1 $397 $438 $396 $452 forward #
point $-1 2.672566391461686 14.60583050358105 7.5075000000000003 #
point $-1 9.1742521103732617 12.577481672863575 3.7537500000000925 #
vertex $-1 $405 $453 #
intcurve-curve $-1 forward { exactcur nurbs 2 open 2 
	0 2 7.5968045524016858 2 
	9.1742521103733168 14.605830503581052 3.7537500000000885 1 
	9.1742521103733168 15.689444790066352 -3.69987460600195e-016 1.1547005383792179 
	9.1742521103733168 14.605830503581052 -3.7537500000000894 1 
	0 
	null_surface 
	null_surface 
	nullbs 
	nullbs 
	I I 
	0 
	0 
	0 
	F 1 F 0 } I I #
point $-1 8.4725663914616973 15.591656088222299 -3.3005705970056627e-016 #
coedge $-1 $410 $409 $418 $445 reversed $296 $-1 #
edge $-1 $448 $421 $424 $454 forward #
straight-curve $-1 2.672566391461622 32.591656088222294 7.5074999999999648 4.2680759785336597e-016 -1 1.2754170495396995e-047 I I #
point $-1 9.1742521103733097 33.605830503581018 -3.7537500000000694 #
edge $-1 $419 $448 $418 $455 forward #
point $-1 2.6725663914616788 33.605830503581018 7.5075000000000003 #
point $-1 9.1742521103732528 31.577481672863541 3.7537500000000925 #
vertex $-1 $427 $456 #
intcurve-curve $-1 forward { exactcur nurbs 2 open 2 
	0 2 7.5968045524016858 2 
	9.1742521103733115 33.605830503581018 3.7537500000000885 1 
	9.1742521103733097 34.689444790066318 -4.6128428063388483e-016 1.1547005383792179 
	9.1742521103733097 33.605830503581018 -3.7537500000000894 1 
	0 
	null_surface 
	null_surface 
	nullbs 
	nullbs 
	I I 
	0 
	0 
	0 
	F 1 F 0 } I I #
point $-1 8.4725663914616884 34.591656088222265 -4.1150079277046366e-016 #
straight-curve $-1 9.1742521103732599 13.591656088222328 3.7537500000000925 4.8803791554448483e-016 -1 3.3041404949099767e-063 I I #
intcurve-curve $-1 forward { exactcur nurbs 2 open 2 
	0 2 7.5968045524014345 2 
	2.672566391461686 14.60583050358105 7.5074999999999985 1 
	5.9234092509175005 15.689444790066265 5.6306250000000304 1.1547005383792921 
	9.1742521103733168 14.605830503581052 3.7537500000000614 1 
	0 
	null_surface 
	null_surface 
	nullbs 
	nullbs 
	I I 
	0 
	0 
	0 
	F 1 F 0 } I I #
point $-1 9.1742521103733168 14.605830503581052 3.7537500000000685 #
straight-curve $-1 9.1742521103732528 32.591656088222294 3.7537500000000925 4.2680759785336597e-016 -1 1.2754170495396995e-047 I I #
intcurve-curve $-1 forward { exactcur nurbs 2 open 2 
	0 2 7.5968045524014345 2 
	2.6725663914616788 33.605830503581018 7.5074999999999985 1 
	5.9234092509174943 34.689444790066233 5.6306250000000304 1.1547005383792921 
	9.1742521103733115 33.605830503581018 3.7537500000000614 1 
	0 
	null_surface 
	null_surface 
	nullbs 
	nullbs 
	I I 
	0 
	0 
	0 
	F 1 F 0 } I I #
point $-1 9.1742521103733115 33.605830503581018 3.7537500000000685 #
End-of-ACIS-data 