400 0 1 0           
28 Autodesk Inventor 6.0.0.9000 16 ASM 6.0.0.192 NT 24 Wed Sep 03 15:54:35 2003 
1 9.9999999999999995e-007 1e-010 
body $-1 $1 $-1 $-1 #
lump $-1 $-1 $2 $0 #
shell $-1 $-1 $-1 $3 $-1 $1 #
face $-1 $4 $5 $2 $-1 $6 forward single #
face $-1 $7 $8 $2 $-1 $9 forward single #
loop $-1 $10 $11 $3 #
torus-surface $-1 510.85103026442704 417.87300284574366 0 0 1 0 9.693980625181311 2 0 0 1 forward_v I I I I #
face $-1 $12 $13 $2 $-1 $14 forward single #
loop $-1 $15 $16 $4 #
cone-surface $-1 510.85103026442704 412.87300284574371 0 0 1 0 -11.000000000000014 0 0 1 I I 0.14142135623731161 0.98994949366116625 11.000000000000014 forward I I I I #
loop $-1 $-1 $17 $3 #
coedge $-1 $11 $11 $18 $19 forward $5 $-1 #
face $-1 $20 $21 $2 $-1 $22 forward single #
loop $-1 $23 $24 $7 #
plane-surface $-1 502.35103026442698 419.87300284574366 0 0 1 0 0 0 10 forward_v I I I I #
loop $-1 $-1 $18 $4 #
coedge $-1 $16 $16 $25 $26 reversed $8 $-1 #
coedge $-1 $17 $17 $27 $28 forward $10 $-1 #
coedge $-1 $18 $18 $11 $19 reversed $15 $-1 #
edge $-1 $29 $29 $18 $30 forward #
face $-1 $31 $32 $2 $-1 $33 forward single #
loop $-1 $34 $35 $12 #
torus-surface $-1 510.85103026442704 407.87300284574371 0 0 1 0 8.2654091966098715 2 0 0 1 forward_v I I I I #
loop $-1 $-1 $27 $7 #
coedge $-1 $24 $24 $36 $37 reversed $13 $-1 #
coedge $-1 $25 $25 $16 $26 forward $34 $-1 #
edge $-1 $38 $38 $16 $39 forward #
coedge $-1 $27 $27 $17 $28 reversed $23 $-1 #
edge $-1 $40 $40 $27 $41 forward #
vertex $-1 $19 $42 #
ellipse-curve $-1 510.85103026442704 417.59016013326902 -1.429590714722947e-015 0 1 0 11.673879612503626 0 0 1 I I #
face $-1 $43 $44 $2 $-1 $45 forward single #
loop $-1 $-1 $46 $20 #
plane-surface $-1 505.85103026442704 405.87300284574371 0 0 -1 0 0 0 -10 forward_v I I I I #
loop $-1 $-1 $25 $12 #
coedge $-1 $35 $35 $46 $47 forward $21 $-1 #
coedge $-1 $36 $36 $24 $37 forward $48 $-1 #
edge $-1 $49 $49 $36 $50 forward #
vertex $-1 $26 $51 #
ellipse-curve $-1 510.85103026442704 407.59016013326908 -1.2546469498911788e-015 0 -1 0 10.245308183932167 0 1.4791141972893971e-030 1 I I #
vertex $-1 $28 $52 #
ellipse-curve $-1 510.85103026442704 419.87300284574366 0 0 -1 0 9.693980625181311 0 1.1871310267428054e-015 1 I I #
point $-1 499.1771506519234 417.59016013326902 -1.7256332301709633e-030 #
face $-1 $53 $54 $2 $-1 $55 forward single #
loop $-1 $56 $57 $31 #
plane-surface $-1 503.44355297631523 417.8730028457436 0 0 -1 0 0 0 -10 forward_v I I I I #
coedge $-1 $46 $46 $35 $47 reversed $32 $-1 #
edge $-1 $58 $58 $46 $59 forward #
loop $-1 $-1 $36 $60 #
vertex $-1 $37 $61 #
ellipse-curve $-1 510.85103026442704 419.87300284574366 0 0 1 0 -4.9999999999999289 0 0 1 I I #
point $-1 500.60572208049484 407.59016013326908 -2.5092938997823536e-015 #
point $-1 501.15704963924571 419.87300284574366 -2.3742620534856108e-015 #
face $-1 $62 $63 $2 $-1 $64 forward single #
loop $-1 $65 $66 $43 #
cone-surface $-1 510.85103026442704 414.75259753502098 0 0 1 0 -9.8149545762236556 0 0 1 I I 0 -1 9.8149545762236556 forward I I I I #
loop $-1 $-1 $67 $31 #
coedge $-1 $57 $57 $68 $69 reversed $44 $-1 #
vertex $-1 $47 $70 #
ellipse-curve $-1 510.85103026442704 405.87300284574371 0 0 1 0 8.2654091966098715 0 1.0121872619110359e-015 1 I I #
face $-1 $-1 $71 $2 $-1 $72 forward single #
point $-1 505.8510302644271 419.87300284574366 0 #
face $-1 $60 $73 $2 $-1 $74 forward single #
loop $-1 $75 $76 $53 #
cone-surface $-1 510.85103026442704 411.2525975350211 0 0 1 0 -9.1574772881118349 0 0 1 I I -0.86602540378442217 -0.50000000000002864 9.1574772881118349 forward I I I I #
loop $-1 $-1 $68 $43 #
coedge $-1 $66 $66 $77 $78 reversed $54 $-1 #
coedge $-1 $67 $67 $79 $80 forward $56 $-1 #
coedge $-1 $68 $68 $57 $69 forward $65 $-1 #
edge $-1 $81 $81 $68 $82 forward #
point $-1 502.58562106781716 405.87300284574371 0 #
loop $-1 $48 $79 $60 #
cone-surface $-1 510.85103026442704 418.87300284574366 0 0 1 0 -4.9999999999999289 0 0 1 I I 0 -1 4.9999999999999289 forward I I I I #
loop $-1 $-1 $83 $62 #
plane-surface $-1 506.60103026442698 410.8730028457436 0 0 1 0 0 0 10 forward_v I I I I #
loop $-1 $-1 $77 $53 #
coedge $-1 $76 $76 $83 $84 reversed $63 $-1 #
coedge $-1 $77 $77 $66 $78 forward $75 $-1 #
edge $-1 $85 $85 $77 $86 forward #
coedge $-1 $79 $79 $67 $80 reversed $71 $-1 #
edge $-1 $87 $87 $67 $88 forward #
vertex $-1 $69 $89 #
ellipse-curve $-1 510.85103026442704 417.8730028457436 0 0 1 0 -9.8149545762236556 0 0 1 I I #
coedge $-1 $83 $83 $76 $84 forward $73 $-1 #
edge $-1 $90 $90 $83 $91 forward #
vertex $-1 $78 $92 #
ellipse-curve $-1 510.85103026442704 411.63219222429854 0 0 1 0 -9.8149545762236556 0 0 1 I I #
vertex $-1 $80 $93 #
ellipse-curve $-1 510.85103026442704 417.8730028457436 0 0 1 0 -4.9999999999999289 0 0 1 I I #
point $-1 501.03607568820337 417.8730028457436 0 #
vertex $-1 $84 $94 #
ellipse-curve $-1 510.85103026442704 410.8730028457436 0 0 1 0 -8.5000000000000142 0 0 1 I I #
point $-1 501.03607568820337 411.63219222429854 0 #
point $-1 505.8510302644271 417.8730028457436 0 #
point $-1 502.35103026442698 410.8730028457436 0 #
End-of-ACIS-data 