400 0 1 0           
28 Autodesk Inventor 6.0.0.9000 16 ASM 6.0.0.192 NT 24 Tue Jan 13 11:52:53 2004 
1 9.9999999999999995e-007 1e-010 
body $-1 $1 $-1 $-1 #
lump $-1 $-1 $2 $0 #
shell $-1 $-1 $-1 $3 $-1 $1 #
face $-1 $4 $5 $2 $-1 $6 forward single #
face $-1 $7 $8 $2 $-1 $9 forward single #
loop $-1 $10 $11 $3 #
torus-surface $-1 511.06285840588862 414.75274038341746 0 0 1 0 6.3388125791922008 1 0 0 1 forward_v I I I I #
face $-1 $12 $13 $2 $-1 $14 forward single #
loop $-1 $15 $16 $4 #
cone-surface $-1 511.06285840588862 410.75274038341746 0 0 1 0 -6.7500000000000426 0 0 1 I I 0.14834045293024326 0.98893635286829773 6.7500000000000426 forward I I I I #
loop $-1 $-1 $17 $3 #
coedge $-1 $11 $11 $18 $19 forward $5 $-1 #
face $-1 $20 $21 $2 $-1 $22 forward single #
loop $-1 $23 $24 $7 #
plane-surface $-1 505.81285840588862 415.75274038341746 0 0 1 0 0 0 10 forward_v I I I I #
loop $-1 $-1 $18 $4 #
coedge $-1 $16 $16 $25 $26 reversed $8 $-1 #
coedge $-1 $17 $17 $27 $28 forward $10 $-1 #
coedge $-1 $18 $18 $11 $19 reversed $15 $-1 #
edge $-1 $29 $29 $18 $30 forward #
face $-1 $31 $32 $2 $-1 $33 forward single #
loop $-1 $34 $35 $12 #
torus-surface $-1 511.06285840588862 406.75274038341746 0 0 1 0 5.1388125791922166 1 0 0 1 forward_v I I I I #
loop $-1 $-1 $27 $7 #
coedge $-1 $24 $24 $36 $37 reversed $13 $-1 #
coedge $-1 $25 $25 $16 $26 forward $34 $-1 #
edge $-1 $38 $38 $16 $39 forward #
coedge $-1 $27 $27 $17 $28 reversed $23 $-1 #
edge $-1 $40 $40 $27 $41 forward #
vertex $-1 $19 $42 #
ellipse-curve $-1 511.06285840588862 414.60439993048726 -8.9736079014164225e-016 0 1 0 7.3277489320604872 0 -3.6977854932234928e-031 1 I I #
face $-1 $43 $44 $2 $-1 $45 forward single #
loop $-1 $-1 $46 $20 #
plane-surface $-1 508.06285840588856 405.75274038341746 0 0 -1 0 0 0 -10 forward_v I I I I #
loop $-1 $-1 $25 $12 #
coedge $-1 $35 $35 $46 $47 forward $21 $-1 #
coedge $-1 $36 $36 $24 $37 forward $48 $-1 #
edge $-1 $49 $49 $36 $50 forward #
vertex $-1 $26 $51 #
ellipse-curve $-1 511.06285840588862 406.60439993048726 -7.504080276829582e-016 0 -1 0 6.1277489320605127 0 -1.1093356479670479e-030 1 I I #
vertex $-1 $28 $52 #
ellipse-curve $-1 511.06285840588862 415.75274038341746 0 0 -1 0 6.3388125791922008 0 7.7625501601679795e-016 1 I I #
point $-1 503.73510947382812 414.60439993048726 -6.1629758220391547e-031 #
face $-1 $53 $54 $2 $-1 $55 forward single #
loop $-1 $56 $57 $31 #
plane-surface $-1 506.67610840588861 413.7527403834174 0 0 -1 0 0 0 -10 forward_v I I I I #
coedge $-1 $46 $46 $35 $47 reversed $32 $-1 #
edge $-1 $58 $58 $46 $59 forward #
loop $-1 $-1 $36 $60 #
vertex $-1 $37 $61 #
ellipse-curve $-1 511.06285840588862 415.75274038341746 0 0 1 0 -2.9999999999999716 0 0 1 I I #
point $-1 504.93510947382811 406.60439993048726 -1.5008160553659162e-015 #
point $-1 504.7240458266964 415.75274038341746 -1.5525100320335959e-015 #
face $-1 $62 $63 $2 $-1 $64 forward single #
loop $-1 $65 $66 $43 #
cone-surface $-1 511.06285840588862 411.97604038341746 0 0 1 0 -5.7734999999999559 0 0 1 I I 0 -1 5.7734999999999559 forward I I I I #
loop $-1 $-1 $67 $31 #
coedge $-1 $57 $57 $68 $69 reversed $44 $-1 #
vertex $-1 $47 $70 #
ellipse-curve $-1 511.06285840588862 405.75274038341746 0 0 1 0 5.1388125791922166 0 6.2930225355811469e-016 1 I I #
face $-1 $-1 $71 $2 $-1 $72 forward single #
point $-1 508.06285840588862 415.75274038341746 0 #
face $-1 $60 $73 $2 $-1 $74 forward single #
loop $-1 $75 $76 $53 #
cone-surface $-1 511.06285840588862 409.97604038341751 0 0 1 0 -5.3885816839899547 0 0 1 I I -0.86498497979782818 -0.50179775280898875 5.3885816839899547 forward I I I I #
loop $-1 $-1 $68 $43 #
coedge $-1 $66 $66 $77 $78 reversed $54 $-1 #
coedge $-1 $67 $67 $79 $80 forward $56 $-1 #
coedge $-1 $68 $68 $57 $69 forward $65 $-1 #
edge $-1 $81 $81 $68 $82 forward #
point $-1 505.92404582669639 405.75274038341746 0 #
loop $-1 $48 $79 $60 #
cone-surface $-1 511.06285840588862 414.75274038341746 0 0 1 0 -2.9999999999999716 0 0 1 I I 0 -1 2.9999999999999716 forward I I I I #
loop $-1 $-1 $83 $62 #
plane-surface $-1 508.56102672189866 409.75274038341746 0 0 1 0 0 0 10 forward_v I I I I #
loop $-1 $-1 $77 $53 #
coedge $-1 $76 $76 $83 $84 reversed $63 $-1 #
coedge $-1 $77 $77 $66 $78 forward $75 $-1 #
edge $-1 $85 $85 $77 $86 forward #
coedge $-1 $79 $79 $67 $80 reversed $71 $-1 #
edge $-1 $87 $87 $67 $88 forward #
vertex $-1 $69 $89 #
ellipse-curve $-1 511.06285840588862 413.7527403834174 0 0 1 0 -5.7734999999999559 0 0 1 I I #
coedge $-1 $83 $83 $76 $84 forward $73 $-1 #
edge $-1 $90 $90 $83 $91 forward #
vertex $-1 $78 $92 #
ellipse-curve $-1 511.06285840588862 410.19934038341745 0 0 1 0 -5.7734999999999559 0 0 1 I I #
vertex $-1 $80 $93 #
ellipse-curve $-1 511.06285840588862 413.7527403834174 0 0 1 0 -2.9999999999999716 0 0 1 I I #
point $-1 505.28935840588866 413.7527403834174 0 #
vertex $-1 $84 $94 #
ellipse-curve $-1 511.06285840588862 409.75274038341746 0 0 1 0 -5.0036633679798825 0 0 1 I I #
point $-1 505.28935840588866 410.19934038341745 0 #
point $-1 508.06285840588862 413.7527403834174 0 #
point $-1 506.05919503790869 409.75274038341746 0 #
End-of-ACIS-data 